<?xml version="1.0" standalone="no"?>
<!DOCTYPE svg PUBLIC "-//W3C//DTD SVG 1.1//EN" "http://www.w3.org/Graphics/SVG/1.1/DTD/svg11.dtd" >
<svg xmlns="http://www.w3.org/2000/svg" xmlns:xlink="http://www.w3.org/1999/xlink" version="1.1">
<metadata>
Created by FontForge 20170731 at Thu Dec 15 17:25:53 2022
 By Aleksey,,,
Copyright (c) 2022 by Dora Typefoundry. All rights reserved.
</metadata>
<defs>
<font id="Baltster" horiz-adv-x="635" >
  <font-face 
    font-family="Baltster"
    font-weight="400"
    font-stretch="normal"
    units-per-em="1000"
    panose-1="2 0 5 3 8 0 0 2 0 4"
    ascent="800"
    descent="-200"
    x-height="616"
    cap-height="836"
    bbox="-537 -381 1962 1084"
    underline-thickness="50"
    underline-position="-150"
    unicode-range="U+000D-FB06"
  />
<missing-glyph horiz-adv-x="500" 
 />
    <glyph glyph-name="uniE054" unicode="uk" horiz-adv-x="1363" 
d="M943 267q0 -34 -0.5 -55t-0.5 -40.5v-44.5v-68q0 -11 9.5 -15.5t21.5 -8t21.5 -11t9.5 -24.5h-303q0 13 9.5 21t21 16.5t21 19t10.5 27.5q-18 -18 -36 -34t-38 -29t-42.5 -20.5t-48.5 -7.5q-64 0 -100.5 28t-53.5 82q-11 -17 -26 -36t-36.5 -35.5t-51 -27.5t-69.5 -11
q-59 0 -97.5 20t-61 53.5t-31.5 77t-9 89.5v299q0 11 -9.5 15t-21.5 8t-21.5 11t-9.5 25l236 26v-125.5v-90.5t0.5 -83.5t0.5 -106.5q0 -35 2.5 -62t11 -45.5t23.5 -28t41 -9.5q20 0 37 10.5t31.5 26.5t26 33.5t21.5 32.5q-3 29 -3 62q0 76 0.5 150.5t0.5 150.5
q0 11 -9.5 15t-21.5 8t-21.5 11t-9.5 25l241 26q1 -117 -0.5 -233.5t-1.5 -233.5q0 -34 12 -54t35 -20q13 0 26.5 7t26.5 17t25 21t21 19q30 27 68.5 64t78 77t78 80t68 72t48 53.5t18.5 24.5q0 17 -9.5 25.5t-21.5 15t-21.5 14.5t-9.5 25l239 26q0 -2 -0.5 -2t-1.5 -1
q-110 -107 -215 -215l224 -340q6 -9 18 -13t23.5 -8.5t20.5 -12.5t9 -25h-241l-176 273zM763 752q0 11 -9.5 15.5t-21.5 8t-21.5 11t-9.5 24.5l242 26v-483l-180 -179v577z" />
    <glyph glyph-name="uniE055" unicode="ur" horiz-adv-x="1315" 
d="M1124 620q47 0 81 -12.5t55.5 -33t31.5 -46t10 -51.5q0 -23 -7.5 -45t-21.5 -38.5t-33.5 -26.5t-44.5 -10q-37 0 -64 28q17 15 26 40.5t9 51.5q0 33 -17 58.5t-56 25.5q-18 0 -34.5 -7.5t-30.5 -18.5t-26.5 -25t-22.5 -28l-101 -168q-29 -48 -56.5 -95.5t-56.5 -95.5
q-15 -25 -30.5 -48.5t-35 -41.5t-44.5 -29t-57 -11q-64 0 -100.5 28t-53.5 82q-11 -17 -26 -36t-36.5 -35.5t-51 -27.5t-69.5 -11q-59 0 -97.5 20t-61 53.5t-31.5 77t-9 89.5v299q0 11 -9.5 15t-21.5 8t-21.5 11t-9.5 25l236 26v-125.5v-90.5t0.5 -83.5t0.5 -106.5
q0 -35 2.5 -62t11 -45.5t23.5 -28t41 -9.5q20 0 37 10.5t31.5 26.5t26 33.5t21.5 32.5q-3 29 -3 62q0 76 0.5 150.5t0.5 150.5q0 11 -9.5 15t-21.5 8t-21.5 11t-9.5 25l241 26q1 -117 -0.5 -233.5t-1.5 -233.5q0 -40 11.5 -56.5t30.5 -16.5q13 0 24 6.5t20.5 17t18 23.5
t16.5 26l121 203q27 45 52.5 92.5t56.5 86t71.5 63.5t95.5 25zM967 59q0 -11 9.5 -15.5t21.5 -8t21.5 -11t9.5 -24.5h-303q0 17 9.5 24.5t21.5 11t21.5 8t9.5 15.5v85l165 270q8 14 11 14t3 -19v-350zM788 532q0 11 -9.5 15.5t-21.5 8t-21.5 11t-9.5 24.5l240 26
q0 -6 0.5 -17.5t0.5 -25.5l-169 -285q-6 -11 -9 -11q-2 0 -2 13v87.5v52t0.5 43t0.5 58.5z" />
    <glyph glyph-name="uniE056" unicode="um" horiz-adv-x="1775" 
d="M1696 59q0 -11 9.5 -15.5t21.5 -8t21.5 -11t9.5 -24.5h-236v125v90t-0.5 84t-1.5 107q0 69 -14.5 105t-62.5 36q-21 0 -38.5 -10.5t-32 -25.5t-25.5 -32.5t-20 -31.5q2 -15 2.5 -30t1.5 -30v-328q0 -11 9.5 -15.5t21.5 -8t21.5 -11t9.5 -24.5h-236v87.5v66t-0.5 54
t-0.5 51v57.5v74q0 75 -25 115t-61 40q-49 0 -94 -63q-1 -1 -9.5 -15t-22 -37t-31.5 -53t-38 -63l-114 -191q-15 -24 -30 -47.5t-33.5 -42t-42.5 -29.5t-57 -11q-64 0 -100.5 28t-53.5 82q-11 -17 -26 -36t-36.5 -35.5t-51 -27.5t-69.5 -11q-59 0 -97.5 20t-61 53.5
t-31.5 77t-9 89.5v299q0 11 -9.5 15t-21.5 8t-21.5 11t-9.5 25l236 26v-125.5v-90.5t0.5 -83.5t0.5 -106.5q0 -35 2.5 -62t11 -45.5t23.5 -28t41 -9.5q20 0 37 10.5t31.5 26.5t26 33.5t21.5 32.5q-3 29 -3 62q0 76 0.5 150.5t0.5 150.5q0 11 -9.5 15t-21.5 8t-21.5 11
t-9.5 25l241 26q1 -117 -0.5 -233.5t-1.5 -233.5q0 -40 11.5 -56.5t30.5 -16.5q13 0 24 7.5t20.5 19t17 24l13.5 22.5l122 203q23 39 46.5 80.5t48.5 79.5q35 52 89 80.5t112 28.5q27 0 53 -6.5t49.5 -20t41.5 -34.5t28 -50q11 16 25.5 35t36 35.5t51.5 27.5t71 11
q59 0 97.5 -19.5t61 -52.5t31.5 -75.5t9 -88.5v-325zM963 59q0 -11 9.5 -15.5t21.5 -8t21.5 -11t9.5 -24.5h-303q0 17 9.5 24.5t21.5 11t21.5 8t9.5 15.5v85l165 270q8 14 11 14q4 0 4 -19q0 -88 -0.5 -175t-0.5 -175zM784 532q0 11 -9.5 15.5t-21.5 8t-21.5 11t-9.5 24.5
l242 26v-43l-170 -285q-6 -11 -8 -11t-2 13v241z" />
    <glyph glyph-name="uniE057" unicode="un" horiz-adv-x="1410" 
d="M1090 544q-37 0 -65.5 -17.5t-48.5 -44.5q-1 -1 -9.5 -15t-22 -37t-31.5 -53t-38 -63l-114 -191q-15 -24 -30 -47.5t-33.5 -42t-42.5 -29.5t-57 -11q-64 0 -100.5 28t-53.5 82q-11 -17 -26 -36t-36.5 -35.5t-51 -27.5t-69.5 -11q-59 0 -97.5 20t-61 53.5t-31.5 77
t-9 89.5v299q0 11 -9.5 15t-21.5 8t-21.5 11t-9.5 25l236 26v-125.5v-90.5t0.5 -83.5t0.5 -106.5q0 -35 2.5 -62t11 -45.5t23.5 -28t41 -9.5q20 0 37 10.5t31.5 26.5t26 33.5t21.5 32.5q-3 29 -3 62q0 76 0.5 150.5t0.5 151.5q0 11 -9.5 15t-21.5 7.5t-21.5 10.5t-9.5 25
l241 26q0 -118 -1 -235.5t-1 -235.5q0 -38 12 -53.5t30 -15.5q13 0 24 7.5t20.5 19t17 24l13.5 22.5l122 203q23 39 46.5 80.5t48.5 79.5q21 32 44 53t49 33t55.5 16.5t63.5 4.5q59 0 94.5 -22t54.5 -57.5t24.5 -80.5t5.5 -92v-309q0 -11 9.5 -15.5t21.5 -8t21.5 -11
t9.5 -24.5h-236v90.5v67.5t-0.5 55.5t-0.5 53.5v62.5v81.5q0 20 -1.5 43t-8 43t-20 33.5t-36.5 13.5zM964 409q0 -88 -0.5 -175t-0.5 -175q0 -11 9.5 -15.5t21.5 -8t21.5 -11t9.5 -24.5h-303q0 17 9.5 24.5t21.5 11t21.5 8t9.5 15.5v85l165 270q8 14 11 14q4 0 4 -19z
M722 591l242 26v-43l-170 -285q-6 -11 -8 -11t-2 13v241q0 11 -9.5 15.5t-21.5 8t-21.5 11t-9.5 24.5z" />
    <glyph glyph-name="uniE058" unicode="uh" horiz-adv-x="1411" 
d="M1331 59q0 -11 9.5 -15.5t21.5 -8t21.5 -11t9.5 -24.5h-236v87.5v66t-0.5 54t-0.5 51v57.5v74q0 19 -0.5 45.5t-6 50.5t-19 41t-40.5 17q-37 0 -65.5 -17.5t-48.5 -44.5q-1 -1 -9.5 -15t-22 -37t-31.5 -53t-38 -63l-114 -191q-15 -24 -30 -47.5t-33.5 -42t-42.5 -29.5
t-57 -11q-64 0 -100.5 28t-53.5 82q-11 -17 -26 -36t-36.5 -35.5t-51 -27.5t-69.5 -11q-59 0 -97.5 20t-61 53.5t-31.5 77t-9 89.5v299q0 11 -9.5 15t-21.5 8t-21.5 11t-9.5 25l236 26v-125.5v-90.5t0.5 -83.5t0.5 -106.5q0 -35 2.5 -62t11 -45.5t23.5 -28t41 -9.5
q20 0 37 10.5t31.5 26.5t26 33.5t21.5 32.5q-3 29 -3 62q0 76 0.5 150.5t0.5 150.5q0 11 -9.5 15t-21.5 8t-21.5 11t-9.5 25l241 26q1 -117 -0.5 -233.5t-1.5 -233.5q0 -40 11.5 -56.5t30.5 -16.5q13 0 24 7.5t20.5 19t17 24l13.5 22.5l122 203q23 39 46.5 80.5t48.5 79.5
q21 32 44 53t49 33t55.5 16.5t63.5 4.5q59 0 94.5 -22t54.5 -57.5t24.5 -80.5t5.5 -92v-309zM784 752q0 11 -9.5 15.5t-21.5 8t-21.5 11t-9.5 24.5l242 25v-262l-170 -285q-6 -11 -8 -11t-2 13v461zM963 59q0 -11 9.5 -15.5t21.5 -8t21.5 -11t9.5 -24.5h-303q0 17 9.5 24.5
t21.5 11t21.5 8t9.5 15.5v85l165 270q8 14 11 14q4 0 4 -19q0 -88 -0.5 -175t-0.5 -175z" />
    <glyph glyph-name="uniE059" unicode="ks" horiz-adv-x="1142" 
d="M586 59q6 -9 18 -13t23.5 -8.5t20.5 -12.5t9 -25h-241l-175 271v-212q0 -11 9.5 -15.5t21.5 -8t21.5 -11t9.5 -24.5h-303q0 17 9.5 24.5t21.5 11t21.5 8t9.5 15.5v693q0 11 -9.5 15.5t-21.5 8t-21.5 11t-9.5 24.5l242 26q0 -130 -0.5 -258t-0.5 -257q41 41 83.5 91
t87 100.5t92 98.5t99 84.5t107.5 59t117 22.5q74 0 126 -22t85 -57t48 -77.5t15 -84.5q0 -30 -8 -58t-22.5 -49.5t-35 -34.5t-46.5 -13q-23 0 -44.5 11t-32.5 35q14 25 22 53t8 57q0 27 -8 52t-26 43.5t-46 30t-69 11.5q-55 0 -111 -25.5t-110.5 -66t-106 -91t-99.5 -100.5z
M852 413q31 -26 77 -48.5t88.5 -50t72.5 -64t30 -90.5q0 -52 -24.5 -84.5t-62 -51t-82 -25t-85.5 -6.5q-47 0 -92 8.5t-80 26.5t-56 45t-21 63q0 19 6.5 36.5t19 31t30 21.5t39.5 8q18 0 35.5 -6.5t31.5 -21.5q-16 -9 -24.5 -31.5t-8.5 -44.5t8 -39.5t21.5 -28.5t30.5 -17
t34 -6t33.5 5t29.5 16t20.5 27.5t7.5 39.5q0 32 -22 54t-55.5 40.5t-72.5 37t-72.5 44.5t-55.5 62t-22 90q0 45 22.5 76.5t57.5 51t78.5 28.5t85.5 9h20v-41h-1q-37 0 -59.5 -26t-22.5 -60q0 -21 9.5 -41.5t30.5 -37.5z" />
    <glyph glyph-name="uniE05A" unicode="ar" horiz-adv-x="1231" 
d="M1037 620q47 0 81 -12.5t55.5 -33t31.5 -46t10 -51.5q0 -23 -7.5 -45t-21.5 -38.5t-34 -26.5t-45 -10q-17 0 -33.5 7t-30.5 21q17 15 26.5 40.5t9.5 51.5q0 33 -17 58.5t-56 25.5q-18 0 -34.5 -7.5t-31 -18.5t-26.5 -25t-22 -28q-1 -1 -9.5 -15t-22 -37t-31.5 -53
t-38 -63l-114 -191q-14 -23 -28.5 -45.5t-33 -40t-41.5 -28.5t-55 -11q-34 0 -65 16t-51 59q-27 -39 -65.5 -59.5t-98.5 -20.5q-55 0 -96.5 16.5t-68.5 43.5t-40.5 62.5t-13.5 72.5q0 42 16.5 83.5t49 74.5t80 53.5t110.5 20.5q28 0 59.5 -11t48.5 -25q1 12 1.5 25t0.5 27
q0 26 -3 51.5t-13 45.5t-27.5 33t-46.5 13q-22 0 -44.5 -8t-41 -26t-31.5 -47.5t-16 -72.5q-24 -12 -56 -12q-29 0 -53 14.5t-24 46.5q0 24 16.5 50t52.5 47.5t93.5 35.5t140.5 14q73 0 117 -25t67.5 -67t31 -95.5t7.5 -110.5q0 -45 -2 -89t-2 -84q0 -53 25 -53
q14 0 30.5 14t31.5 39l122 203q27 45 52.5 92.5t56 86t70.5 63.5t97 25zM879 59q0 -11 9.5 -15.5t21.5 -8t21.5 -11t9.5 -24.5h-303q0 17 9.5 24.5t21.5 11t21.5 8t9.5 15.5v85l165 270q8 14 11 14q4 0 4 -19q0 -88 -0.5 -175t-0.5 -175zM287 56q26 0 44 12.5t28.5 31.5
t15 42.5t4.5 44.5q0 88 -17.5 132t-65.5 44q-16 0 -33 -7t-30 -21t-21.5 -35.5t-8.5 -50.5q0 -27 0.5 -60.5t8 -63t25 -49.5t50.5 -20zM700 532q0 11 -9.5 15.5t-21.5 8t-21.5 11t-9.5 24.5l242 26v-43l-170 -285q-6 -11 -8 -11t-2 13v241z" />
    <glyph glyph-name="uniE05B" unicode="ak" horiz-adv-x="1302" 
d="M873 267v-208q0 -11 9.5 -15.5t21.5 -8t21.5 -11t9.5 -24.5h-303q0 15 9.5 22.5t21 15t21 17.5t10.5 29q-33 -33 -70.5 -58.5t-87.5 -25.5q-37 0 -70 19t-57 63q-27 -44 -67 -66.5t-103 -22.5q-55 0 -96.5 16.5t-68.5 43.5t-40.5 62.5t-13.5 72.5q0 42 16.5 83.5t49 74.5
t80 53.5t110.5 20.5q28 0 59.5 -11t48.5 -25q1 12 1.5 25t0.5 27q0 26 -3 51.5t-13 45.5t-27.5 33t-46.5 13q-23 0 -45.5 -8t-40.5 -26t-31 -47.5t-16 -72.5q-12 -5 -26.5 -8.5t-28.5 -3.5q-30 0 -54 14.5t-24 47.5q0 24 16.5 50t52.5 47.5t94 35.5t140 14q73 0 117.5 -25.5
t68.5 -67t31.5 -94.5t7.5 -108q0 -49 -3 -95.5t-3 -84.5q0 -9 1 -20.5t4.5 -21.5t11 -16.5t20.5 -6.5q19 0 55 27t81.5 69t94.5 92.5t93.5 97.5t78.5 84t50 52q0 23 -9.5 32.5t-21.5 15.5t-21.5 13.5t-9.5 25.5l239 26q0 -1 -2 -3q-56 -54 -109 -107.5t-107 -107.5l224 -340
q6 -9 18 -13t24 -8.5t21 -12t9 -25.5h-241l-177 274zM694 752q0 11 -9.5 15.5t-21.5 8t-21.5 11t-9.5 24.5l242 26v-483l-180 -180v578zM287 56q24 0 41.5 11t29 29.5t16.5 42t5 48.5q0 87 -17.5 131.5t-65.5 44.5q-16 0 -33 -7t-30 -21t-21.5 -35.5t-8.5 -50.5
q0 -28 0.5 -61.5t8 -63t25 -49t50.5 -19.5z" />
    <glyph glyph-name="uniE05C" unicode="er" horiz-adv-x="1158" 
d="M973 620q44 0 76 -13t52.5 -34t30.5 -47t10 -52q0 -22 -7 -43.5t-20.5 -37.5t-33 -26t-45.5 -10q-37 0 -64 28q16 15 25.5 39.5t9.5 49.5q0 30 -14.5 53.5t-50.5 23.5q-15 0 -31.5 -8t-33 -19t-30 -22.5t-22.5 -19.5q-22 -20 -46.5 -49.5t-50 -64t-52 -71.5t-54.5 -72
q-31 -39 -63.5 -80.5t-69 -75.5t-80.5 -55.5t-98 -21.5q-68 0 -119 25t-84.5 66.5t-50 94.5t-16.5 109q0 61 19 120t56.5 106t94 76.5t130.5 30.5q50 0 86 -12.5t60 -33.5t36 -48.5t13 -56.5q0 -36 -17.5 -72.5t-53.5 -66t-92 -47.5t-134 -18q3 -30 14 -51.5t27.5 -35
t36 -19.5t38.5 -6q42 0 82.5 19t80 49.5t77 69.5t72 79t65.5 77.5t57 65.5q19 20 39 39.5t42.5 34.5t48 24t54.5 9zM803 59q0 -11 9.5 -15.5t21.5 -8t21.5 -11t9.5 -24.5h-303q0 18 9.5 25t21.5 11t21.5 8t9.5 15v150l179 237v-387zM332 567q-31 0 -51.5 -19t-33 -48.5
t-17.5 -65t-5 -67.5q0 -17 1.5 -32.5t3.5 -27.5q44 0 76 15t52 39t29.5 53t9.5 57q0 39 -17 67t-48 29zM624 532q0 11 -9.5 15.5t-21.5 8t-21.5 11t-9.5 24.5l242 27v-38q-1 0 -1 1v-36l-180 -212v67v37.5v20v14.5t0.5 21t0.5 39z" />
    <glyph glyph-name="uniE05D" unicode="em" horiz-adv-x="1615" 
d="M1535 59q0 -11 9.5 -15t21.5 -8t21.5 -11t9.5 -25h-236v125v90t-0.5 84t-1.5 107q0 35 -3.5 61.5t-11.5 44t-23 26.5t-39 9q-21 0 -38.5 -10.5t-32 -25.5t-26 -32.5t-20.5 -31.5q3 -20 3.5 -39.5t1.5 -39.5v-309q0 -11 9.5 -15t21.5 -8t21.5 -11t9.5 -25h-236v87.5
t-0.5 66t-0.5 54t-0.5 51t-0.5 57.5v74q0 22 -0.5 48.5t-6.5 50t-18.5 39t-36.5 15.5q-22 0 -51 -18t-57 -43q-22 -20 -46.5 -49.5t-50 -64t-52 -71.5t-54.5 -72q-31 -39 -63.5 -80.5t-69 -75.5t-80.5 -55.5t-98 -21.5q-68 0 -119 25t-84.5 66.5t-50 94.5t-16.5 109
q0 61 19 120t56.5 106t94 76.5t130.5 30.5q50 0 86 -12.5t60 -33.5t36 -48.5t13 -56.5q0 -36 -17.5 -72.5t-53.5 -66t-92 -47.5t-134 -18q3 -30 14 -51.5t27.5 -35t36 -19.5t38.5 -6q42 0 82.5 19t80 49.5t77 69.5t72 79t65.5 77.5t57 65.5q13 14 31 32.5t43 35t57 28
t72 11.5q35 0 61.5 -8t46 -22.5t32.5 -34.5t21 -44q11 16 25.5 35t36 35.5t51.5 27.5t71 11q59 0 97.5 -19.5t61 -52.5t31 -75.5t8.5 -88.5v-56v-45.5t0.5 -42.5t0.5 -46.5v-57.5v-77zM802 59q0 -11 9.5 -15.5t21.5 -8t21.5 -11t9.5 -24.5h-303q0 18 9.5 25t21.5 11t21.5 8
t9.5 15v150l179 233v-383zM331 567q-31 0 -51.5 -19t-33 -48.5t-17.5 -65t-5 -67.5q0 -17 1.5 -32.5t3.5 -27.5q44 0 76 15t52 39t29.5 53t9.5 57q0 39 -17 67t-48 29zM623 532q0 11 -9.5 15.5t-21.5 8t-21.5 11t-9.5 24.5l242 27v-38q-1 0 -1 1v-36l-180 -212v67v37.5v20
v14.5t0.5 21t0.5 39z" />
    <glyph glyph-name="uniE05E" unicode="en" horiz-adv-x="1253" 
d="M1171 59q0 -11 9.5 -15t21.5 -8t21.5 -11t9.5 -25h-236v87.5t-0.5 66t-0.5 54t-0.5 51t-0.5 57.5v74q0 22 -0.5 48.5t-6.5 50t-18.5 39t-36.5 15.5q-23 0 -51.5 -18t-56.5 -43q-22 -20 -46.5 -49.5t-50 -64t-52 -71.5t-54.5 -72q-31 -39 -63.5 -80.5t-69 -75.5
t-80.5 -55.5t-98 -21.5q-68 0 -119 25t-84.5 66.5t-50 94.5t-16.5 109q0 61 19 120t56.5 106t94 76.5t130.5 30.5q50 0 86 -12.5t60 -33.5t36 -48.5t13 -56.5q0 -36 -17.5 -72.5t-53.5 -66t-92 -47.5t-134 -18q3 -30 14 -51.5t27.5 -35t36 -19.5t38.5 -6q42 0 82.5 19
t80 49.5t77 69.5t72 79t65.5 77.5t57 65.5q13 14 31 32.5t43 35t57 28t72 11.5q59 0 94.5 -22t54 -57.5t24.5 -80.5t6 -92v-309zM803 59q0 -11 9.5 -15.5t21.5 -8t21.5 -11t9.5 -24.5h-303q0 18 9.5 25t21.5 11t21.5 8t9.5 15v150l179 233v-383zM332 567q-31 0 -51.5 -19
t-33 -48.5t-17.5 -65t-5 -67.5q0 -17 1.5 -32.5t3.5 -27.5q44 0 76 15t52 39t29.5 53t9.5 57q0 39 -17 67t-48 29zM624 532q0 11 -9.5 15.5t-21.5 8t-21.5 11t-9.5 24.5l242 27q0 -12 -0.5 -30.5t-0.5 -42.5l-180 -212v67v37.5v20v14.5t0.5 21t0.5 39z" />
    <glyph glyph-name="uniE05F" unicode="eh" horiz-adv-x="1253" 
d="M1170 59q0 -11 9.5 -15t21.5 -8t21.5 -11t9.5 -25h-236v87.5t-0.5 66t-0.5 54t-0.5 51t-0.5 57.5v74q0 22 -0.5 48.5t-6.5 50t-18.5 39.5t-36.5 16q-22 0 -50.5 -18t-57.5 -44q-22 -20 -46.5 -49.5t-50 -64t-52 -71.5t-54.5 -72q-31 -39 -63.5 -80.5t-69.5 -75.5
t-80.5 -55.5t-98.5 -21.5q-68 0 -118.5 25t-84 66.5t-50 94.5t-16.5 109q0 61 19 120t56.5 106t94 76.5t130.5 30.5q49 0 85.5 -12.5t60.5 -33.5t36 -48.5t12 -56.5q0 -36 -17 -72.5t-53 -66t-92 -47.5t-134 -18q3 -30 14 -51.5t27.5 -35t36 -19.5t38.5 -6q42 0 83 19
t80.5 49.5t77 69.5t71.5 79t65 78t57 66q13 14 31 32t43 34.5t57 28t72 11.5q59 0 94.5 -22t54 -57.5t24.5 -80.5t6 -92v-309zM623 752q0 11 -9.5 15.5t-21.5 8t-21.5 11t-9.5 24.5l242 26v-69.5t-0.5 -73t-0.5 -72.5v-69l-180 -220v235t1 184zM802 59q0 -11 9.5 -15.5
t21.5 -8t21.5 -11t9.5 -24.5h-303q0 18 9.5 25t21.5 11t21.5 8t9.5 15v150l179 232v-382zM331 567q-31 0 -51.5 -19t-33 -48.5t-17.5 -65t-5 -67.5q0 -17 1.5 -32.5t3.5 -27.5q44 0 76 15t52 39t29.5 53t9.5 57q0 39 -17 67t-48 29z" />
    <glyph glyph-name="uniE060" unicode="tt" horiz-adv-x="691" 
d="M667 576h-102v-426q0 -38 6.5 -58.5t16 -31.5t20.5 -15t20.5 -8.5t16 -12t6.5 -25.5h-61q-59 0 -98 19t-62 51t-32.5 74t-9.5 88v345h-131v-426q0 -38 6.5 -58.5t16 -31.5t20.5 -15t20.5 -8.5t16 -12t6.5 -25.5h-61q-59 0 -98 19t-62 51t-32.5 74t-9.5 88v345h-70v42
q31 10 56.5 19.5t49 22t45.5 29.5t46 41l50 6v-118q47 0 81.5 5.5t63.5 19t55.5 35t57.5 52.5l50 6v-118h102v-42z" />
    <glyph glyph-name="uniE061" unicode="fk" horiz-adv-x="1023" 
d="M597 287v-228q0 -11 9.5 -15.5t21.5 -8t21.5 -11t9.5 -24.5h-303q0 18 9.5 25t21.5 11t21.5 8t9.5 15v693q0 11 -9.5 15.5t-21.5 8t-21.5 11t-9.5 24.5l242 26q0 -125 -0.5 -247t-0.5 -246l171 160q0 22 -10 31.5t-21.5 16t-21.5 14t-10 25.5l240 26q0 -1 -3 -3
l-219 -208l229 -347q6 -9 18 -13t23.5 -8.5t20.5 -12t9 -25.5h-241zM566 968q-150 0 -224.5 -90t-81.5 -258q15 -1 40 -1t51 -1v-42h-91q1 -92 1 -183v-183v-151q0 -11 9.5 -15t21.5 -8t21.5 -11t9.5 -25h-301q0 16 8.5 23.5t19 11t20 6.5t12.5 11l2 524h-84v42h85
q5 102 45 179.5t104.5 129.5t150 78t181.5 26q83 0 141.5 -22t96 -57t54.5 -78t17 -84q0 -28 -8 -54.5t-23 -46t-36.5 -31.5t-48.5 -12q-22 0 -45 15t-34 39q24 29 35.5 60t11.5 61t-10.5 56.5t-31 46.5t-50.5 32t-69 12z" />
    <glyph glyph-name="uniE062" unicode="th" horiz-adv-x="1049" 
d="M972 59q0 -11 9.5 -15t21.5 -8t21.5 -11t9.5 -25h-236v125v90t-0.5 84t-0.5 107q0 35 -3.5 61.5t-11.5 44t-23.5 26.5t-39.5 9q-22 0 -46 -16.5t-47 -48.5q-2 -3 -24 -39.5t-54 -90.5t-68.5 -115.5t-68.5 -113.5q-14 -24 -29.5 -47.5t-34.5 -41.5t-43 -29.5t-56 -11.5
q-47 0 -79.5 15.5t-52.5 45.5t-28.5 74.5t-8.5 102.5q0 87 0.5 172.5t0.5 172.5h-71v42q33 11 58 20t47 20.5t44 28t48 43.5l50 6v-118h102v-42h-102v-426q0 -40 11.5 -56.5t30.5 -16.5q13 0 24 7.5t20.5 19t17 24l13.5 22.5l217 363q11 16 26 35t36.5 35t51 26.5t69.5 10.5
q59 0 97.5 -19.5t61 -52.5t31.5 -75.5t9 -88.5v-325zM613 59q0 -11 9.5 -15.5t21.5 -8t21.5 -11t9.5 -24.5h-303q0 18 9.5 25t21.5 11t21.5 8t9.5 15v86l159 260q10 16 15 16q6 0 6 -20q-1 -86 -1 -171v-171zM434 752q0 11 -9.5 15.5t-21.5 8t-21.5 11t-9.5 24.5l242 26
v-263l-152 -256q-16 -27 -22 -27t-6 30v431z" />
    <glyph glyph-name="uniE063" unicode="tr" horiz-adv-x="969" 
d="M772 620q47 0 81 -12.5t55.5 -33t31.5 -46t10 -51.5q0 -23 -7.5 -45t-21.5 -38.5t-34 -26.5t-45 -10q-36 0 -64 28q17 15 26.5 40.5t9.5 51.5q0 33 -17 58.5t-56 25.5q-18 0 -34.5 -7.5t-31 -18.5t-26.5 -25t-22 -28q-1 -1 -9.5 -15t-22 -37t-31.5 -53t-38 -63l-114 -191
q-14 -24 -29.5 -47.5t-34.5 -41.5t-43 -29.5t-56 -11.5q-47 0 -79.5 15.5t-52.5 45.5t-28.5 74.5t-8.5 102.5v345h-70v42q33 10 58 19t47.5 21t44 29t47.5 43l50 6v-118h102v-42h-102v-426q0 -40 11.5 -56.5t30.5 -16.5q13 0 24 7.5t20.5 19t17 24l13.5 22.5l122 203
q27 45 52.5 92.5t56 86t70.5 63.5t97 25zM614 59q0 -11 9.5 -15.5t21.5 -8t21.5 -11t9.5 -24.5h-303q0 18 9.5 25t21.5 11t21.5 8t9.5 15v86l165 270q7 13 11 13t4 -19q0 -88 -0.5 -175t-0.5 -175zM435 532q0 11 -9.5 15.5t-21.5 8t-21.5 11t-9.5 24.5l242 26v-43l-170 -285
q-6 -11 -8 -11q-1 0 -1.5 18t-1 40.5t-0.5 41.5v20v32t0.5 28.5t0.5 31.5v42z" />
    <glyph glyph-name="uniE064" unicode="fl" horiz-adv-x="706" 
d="M566 1031q83 0 141.5 -22t96 -57t54.5 -78t17 -84q0 -28 -8 -54.5t-23 -46t-36.5 -31.5t-48.5 -12q-22 0 -45 14.5t-34 39.5q24 29 35.5 60t11.5 61t-10.5 56.5t-31 46.5t-50.5 32t-69 12q-150 0 -224.5 -90t-81.5 -258q16 -1 40.5 -1t50.5 -1v-42h-91q1 -92 1 -183v-183
v-151q0 -11 9.5 -15.5t21.5 -8t21.5 -11t9.5 -24.5h-301q0 16 8.5 23t19 11t20 7t12.5 11l2 524h-84v42h85q5 102 45 179.5t104.5 129.5t150 78t181.5 26zM594 150q0 -38 6.5 -58.5t16 -31.5t20.5 -15t20.5 -8.5t16 -12t6.5 -25.5h-61q-59 0 -98 19t-62 50.5t-32 74t-9 88.5
v513q0 11 -9.5 15.5t-21.5 8t-21.5 11t-9.5 24.5l239 34v-435v-127t-1 -125z" />
    <glyph glyph-name="uniE065" unicode="fh" horiz-adv-x="1041" 
d="M957 59q0 -11 9.5 -15.5t21.5 -8t21.5 -11t9.5 -24.5h-235v125t-0.5 90t-1 84t-0.5 107q0 35 -3.5 61t-11.5 44t-23.5 27t-39.5 9q-25 0 -52 -21.5t-53 -61.5q0 -102 -0.5 -202.5t-0.5 -202.5q0 -11 9.5 -15.5t21.5 -8t21.5 -11t9.5 -24.5h-303q0 17 10 24.5t21.5 11
t21.5 8t10 15.5v693q0 11 -10 15.5t-21.5 8t-21.5 11t-10 24.5l242 26v-292q11 14 26 27.5t34 24t43.5 17t55.5 6.5q59 0 97.5 -19.5t61 -52.5t31.5 -75.5t9 -88.5v-325zM566 968q-150 0 -224.5 -90t-81.5 -258q15 -1 40 -1t51 -1v-42h-91q1 -92 1 -183v-183v-151
q0 -11 9.5 -15.5t21.5 -8t21.5 -11t9.5 -24.5h-301q0 16 8.5 23t19 11t20 7t12.5 11l2 524h-84v42h85q5 102 45 179.5t104.5 129.5t150 78t181.5 26q83 0 141.5 -22t96 -57t54.5 -78t17 -84q0 -28 -8 -54.5t-23 -46t-36.5 -31.5t-48.5 -12q-22 0 -45 14.5t-34 39.5
q24 29 35.5 60t11.5 61t-10.5 56.5t-31 46.5t-50.5 32t-69 12z" />
    <glyph glyph-name="uniE066" unicode="ft" horiz-adv-x="719" 
d="M705 576h-102v-426q0 -38 6.5 -58.5t16 -31.5t20.5 -15t20.5 -8.5t16 -12t6.5 -25.5h-61q-59 0 -98 19t-62 50.5t-32.5 74t-9.5 88.5v170.5t1 174.5h-167q1 -92 1 -183v-183v-151q0 -11 9.5 -15.5t21.5 -8t21.5 -11t9.5 -24.5h-301q0 16 8.5 23t19 11t20 7t12.5 11l2 524
h-84v42h84q1 44 11 86t33 75t61.5 53t95.5 20q48 0 81 -10.5t53.5 -27t30 -36.5t9.5 -40q0 -34 -20.5 -59.5t-54.5 -25.5q-30 0 -57 28q21 21 21 49q0 32 -20.5 48.5t-46.5 16.5q-41 0 -61 -27t-20 -61q0 -16 5 -32t15 -29t25 -20.5t35 -7.5h70q32 0 62 12t57 29.5t48.5 37
t35.5 33.5l50 6v-118h102v-42z" />
    <glyph glyph-name="uniE067" unicode="rs" horiz-adv-x="895" 
d="M563 716q-73 0 -131 -31t-98.5 -82t-64 -115.5t-28.5 -131.5q-1 -77 -1 -152.5v-153.5q4 -7 14 -10t20 -6.5t18 -11t8 -22.5h-300q0 17 9 24.5t19.5 11t20.5 7.5t11 13q-1 118 1.5 238t2.5 238q0 11 -9.5 15t-21.5 8t-21.5 11t-9.5 25l240 26v-65q23 50 55 92.5t72.5 74
t89.5 49.5t104 18q84 0 144 -25t98.5 -64t56 -86t17.5 -92q0 -30 -7.5 -57.5t-22 -48t-35.5 -32.5t-47 -12q-23 0 -45.5 14.5t-33.5 38.5q26 30 38.5 65.5t12.5 70.5q0 31 -10.5 59.5t-32.5 50.5t-55 35t-78 13zM608 413q31 -26 76.5 -48.5t88 -50t73 -64t30.5 -90.5
q0 -52 -24.5 -84.5t-62.5 -51t-82.5 -25t-85.5 -6.5q-47 0 -92 9t-80 26.5t-56 44.5t-21 63q0 39 27 68t69 29q17 0 34.5 -6.5t32.5 -21.5q-16 -9 -24.5 -31.5t-8.5 -44.5t8 -39.5t21 -28.5t30 -17t34 -6t33.5 5t29.5 16t21 27.5t8 39.5q0 32 -22 54t-55.5 40.5t-72.5 37
t-72.5 44.5t-55.5 62t-22 90q0 45 22 76.5t57.5 51t79 28.5t85.5 9h20v-41h-2q-37 0 -59 -26t-22 -60q0 -21 9.5 -41.5t30.5 -37.5z" />
    <glyph glyph-name="uniE068" unicode="ri" horiz-adv-x="714" 
d="M464 712q-28 0 -55 -21t-51.5 -54t-45.5 -75t-36.5 -84t-24.5 -80t-10 -64q-1 -71 -1 -141.5v-142.5q4 -7 14 -10t20 -6.5t18 -11t8 -22.5h-300q0 17 9 24.5t19.5 11t20.5 7.5t11 13q-1 118 1.5 238t2.5 238q0 11 -9.5 15t-21.5 8t-21.5 11t-9.5 25l240 26v-71
q23 57 56 113.5t72.5 101.5t85 73t94.5 28q50 0 72 -27t22 -62q0 -22 -8.5 -45t-23.5 -42t-36.5 -30.5t-48.5 -11.5q-22 0 -27.5 10.5t-7 23.5t-5.5 23.5t-23 10.5zM394 0q0 17 8.5 24.5t19.5 11t20.5 7.5t10.5 13q0 118 2.5 235t2.5 235q0 11 -9.5 15t-21.5 8t-21.5 11
t-9.5 25l240 26q-1 -116 -1.5 -227.5t-0.5 -225.5v-108q4 -7 14 -10t20 -6.5t18 -11t8 -22.5h-300z" />
    <glyph glyph-name="uniE069" unicode="ib" horiz-adv-x="967" 
d="M667 620q67 -1 117.5 -28t84 -70.5t50.5 -99.5t17 -114q0 -59 -17.5 -115.5t-52 -101t-87 -71.5t-123.5 -27q-285 0 -285 324v197.5t-2 195.5q-1 54 -15.5 92t-37 62t-50.5 35.5t-57 12.5q-33 0 -64 -12t-55 -34t-38.5 -52.5t-14.5 -66.5q0 -45 23 -83.5t73 -58.5l109 12
q-1 -116 -1.5 -230t-0.5 -229v-108q4 -7 14 -10t20 -6.5t18 -11t8 -22.5h-301q0 17 9 24.5t19.5 11t20.5 7.5t11 13q0 118 2 238t2 238q0 11 -9.5 15t-21.5 8t-21.5 11t-9.5 25l53 5q-33 29 -49.5 69t-16.5 82q0 43 16.5 85t49.5 75.5t82 54t113 20.5q55 0 109 -15t97 -47
t70 -82.5t27 -122.5v-142q23 23 52 35t63 12zM644 43q20 0 39 12t34 36t24.5 59.5t9.5 82.5q0 48 -2.5 108t-2.5 118q0 28 -8 48.5t-21.5 34t-30 20.5t-34.5 7q-33 0 -64 -21.5t-40 -64.5v-246q0 -98 27.5 -145.5t68.5 -48.5zM66 755q0 17 7 32.5t18.5 27t27.5 18t34 6.5
t34 -6.5t27.5 -18t18.5 -27t7 -32.5t-7 -32.5t-18.5 -27t-27.5 -18t-34 -6.5t-34 6.5t-27.5 18t-18.5 27t-7 32.5z" />
    <glyph glyph-name="uniE06A" unicode="il" horiz-adv-x="661" 
d="M332 0q0 17 9.5 24.5t21.5 11t21.5 8t9.5 15.5v114q0 115 0.5 227.5t0.5 227.5q19 8 31.5 39t12.5 73q0 32 -10 65t-33 60.5t-60 45.5t-90 19q-51 0 -90 -15.5t-65.5 -41t-40 -58t-13.5 -67.5q0 -45 24 -84t73 -59l109 12q-1 -116 -1.5 -230t-0.5 -229v-108q4 -7 14 -10
t20 -6.5t18 -11t8 -22.5h-301q0 17 9 24.5t19.5 11t20.5 7.5t11 13l4 476q0 11 -9.5 15t-21.5 8t-21.5 11t-9.5 25l53 5q-33 29 -49.5 69t-16.5 82q0 43 16.5 85t49.5 75.5t82 54t113 20.5q54 0 111.5 -15t104.5 -47t77 -82.5t30 -122.5v-656q0 -11 9.5 -15.5t21.5 -8
t21.5 -11t9.5 -24.5h-303zM67 755q0 17 7 32.5t18.5 27t27.5 18t34 6.5t34 -6.5t27.5 -18t18.5 -27t7 -32.5t-7 -32.5t-18.5 -27t-27.5 -18t-34 -6.5t-34 6.5t-27.5 18t-18.5 27t-7 32.5z" />
    <glyph glyph-name="uniE06B" unicode="ih" horiz-adv-x="1053" 
d="M976 59q0 -11 9.5 -15.5t21.5 -8t21.5 -11t9.5 -24.5h-236v87.5t-0.5 66t-0.5 54t-0.5 51t-0.5 57.5v74q0 18 -0.5 44.5t-6 51t-19 41.5t-40.5 17q-37 0 -65.5 -18t-48.5 -45l-214 -358q-15 -24 -30 -47.5t-34 -42t-43 -29.5t-57 -11q-55 0 -88 20.5t-51 54t-24 76
t-6 87.5q0 75 0.5 150t0.5 151q0 11 -9.5 15t-21.5 8t-21.5 11t-9.5 25l241 25q1 -117 -1 -233t-2 -233q0 -40 12 -56.5t31 -16.5q13 0 24 7.5t20.5 19t17 24l13.5 22.5q51 85 105 179.5t112 183.5q21 32 44 53t49 33t55 16.5t63 4.5q59 0 94.5 -22t54.5 -57.5t24.5 -80.5
t5.5 -92v-77.5t0.5 -58.5t0.5 -68v-105zM429 752q0 11 -9.5 15t-21.5 8t-21.5 11t-9.5 25l242 25v-131t-1 -131l-169 -285q-7 -11 -9 -11t-2 12v122v128t0.5 119t0.5 93zM608 58q0 -11 9.5 -15t21.5 -7.5t21.5 -11t9.5 -24.5h-303q0 17 9.5 24.5t21.5 11t21.5 8t9.5 15.5v85
l165 270q8 14 11 14t3 -19v-351zM151 671q-36 0 -61.5 24.5t-25.5 59.5q0 17 7 32.5t18.5 27t27.5 18t34 6.5t34 -6.5t27.5 -18t18.5 -27t7 -32.5q0 -35 -25.5 -59.5t-61.5 -24.5z" />
    <glyph glyph-name="uniE06C" unicode="ik" horiz-adv-x="999" 
d="M573 287v-228q0 -11 9.5 -15.5t21.5 -8t21.5 -11t9.5 -24.5h-303q0 17 9.5 24.5t21.5 11t21.5 8t9.5 15.5v114q0 115 0.5 227.5t0.5 227.5q19 8 31.5 39t12.5 73q0 32 -10 65t-33 60.5t-60 45.5t-90 19q-51 0 -90 -15.5t-65.5 -41t-40 -58t-13.5 -67.5q0 -45 24 -84
t73 -59l109 12q-1 -116 -1.5 -230t-0.5 -229v-108q4 -7 14 -10t20 -6.5t18 -11t8 -22.5h-301q0 17 9 24.5t19.5 11t20.5 7.5t11 13l4 476q0 11 -9.5 15t-21.5 8t-21.5 11t-9.5 25l53 5q-33 29 -49.5 69t-16.5 82q0 43 16.5 85t49.5 75.5t82 54t113 20.5q54 0 111.5 -15
t104.5 -47t77 -82.5t30 -122.5v-371l171 160q0 22 -9.5 32t-21.5 16t-21.5 13.5t-9.5 25.5l239 26q0 -2 -0.5 -2t-1.5 -1l-219 -208l228 -347q6 -9 18 -13t23.5 -8.5t20.5 -12.5t9 -25h-240zM67 755q0 17 7 32.5t18.5 27t27.5 18t34 6.5t34 -6.5t27.5 -18t18.5 -27t7 -32.5
t-7 -32.5t-18.5 -27t-27.5 -18t-34 -6.5t-34 6.5t-27.5 18t-18.5 27t-7 32.5z" />
    <glyph glyph-name="uniE06D" unicode="sk" horiz-adv-x="1210" 
d="M784 287v-228q0 -11 9.5 -15.5t21.5 -8t21.5 -11t9.5 -24.5h-303q0 17 9.5 24.5t21.5 11t21.5 8t9.5 15.5q-1 72 -1 143.5v143.5t0.5 143.5t0.5 143.5q0 45 -4 95t-20 91.5t-48.5 68.5t-89.5 27q-39 0 -69.5 -14.5t-51.5 -38.5t-32 -54.5t-11 -62.5q0 -31 9.5 -53
t24.5 -38t34.5 -27.5t39.5 -21.5q61 -18 88.5 -53t27.5 -71q0 -40 -25 -70.5t-69 -30.5q-26 0 -46 11.5t-36 31.5q21 12 31 31.5t10 41.5q0 40 -23 60t-52 20q-37 0 -58 -26t-21 -60q0 -35 23 -60t57 -45.5t74 -40t74 -44.5t57 -58t23 -81q0 -52 -24.5 -85t-62 -51.5
t-82 -25t-85.5 -6.5q-47 0 -92 8.5t-80 26.5t-56 44.5t-21 62.5q0 39 25.5 68.5t69.5 29.5q18 0 35.5 -6.5t31.5 -21.5q-16 -9 -24.5 -31.5t-8.5 -44.5t8 -39.5t21.5 -28.5t30.5 -17t34 -6t33.5 5t29.5 16t20.5 27.5t7.5 39.5q0 32 -22 54t-55.5 40.5t-72.5 37t-72.5 44.5
t-55.5 62t-22 90q0 44 21.5 75t55 50.5t75.5 29t83 10.5q-44 55 -44 128q0 43 17 85t50 75.5t82 54t113 20.5q55 0 108.5 -15t96 -47.5t68.5 -83t26 -122.5q0 -93 -0.5 -185t-0.5 -185l171 160q0 22 -9.5 31.5t-21.5 16t-21.5 14t-9.5 25.5l239 26q0 -2 -0.5 -2t-1.5 -1
l-220 -208l229 -347q6 -9 18 -13t23.5 -8.5t20.5 -12.5t9 -25h-240z" />
    <glyph glyph-name="uniE06E" unicode="sh" horiz-adv-x="1223" 
d="M1141 59q0 -11 9.5 -15.5t21.5 -8t21.5 -11t9.5 -24.5h-235v125v90t-0.5 84t-1.5 107q0 35 -3.5 61t-11.5 44t-23.5 27t-39.5 9q-25 0 -52.5 -22t-53.5 -63q0 -102 0.5 -202t0.5 -201q0 -11 9.5 -15.5t21.5 -8t21.5 -11t9.5 -24.5h-302q0 18 9.5 25t21.5 11t21.5 8
t9.5 15q0 91 -1 181.5t-1 181.5q0 55 1 106.5t1 112.5q0 45 -4.5 93.5t-21 88.5t-49 66t-87.5 26q-39 0 -69.5 -14.5t-51.5 -38.5t-32 -54.5t-11 -62.5q0 -31 9.5 -53t24.5 -38t34.5 -27.5t39.5 -21.5q61 -18 88.5 -53t27.5 -71q0 -40 -25 -70.5t-69 -30.5q-26 0 -46 11.5
t-36 31.5q21 12 31 31.5t10 41.5q0 40 -23 60t-52 20q-37 0 -58 -26t-21 -60q0 -35 23 -60t57 -45.5t74 -40t74 -44.5t57 -58t23 -81q0 -52 -24.5 -85t-62 -51.5t-82 -25t-85.5 -6.5q-47 0 -92 8.5t-80 26.5t-56 45t-21 63q0 19 6.5 36.5t19 31t30 21.5t39.5 8
q18 0 35.5 -6.5t31.5 -21.5q-16 -9 -24.5 -31.5t-8.5 -44.5t8 -39.5t21.5 -28.5t30.5 -17t34 -6t33.5 5t29.5 16t20.5 27.5t7.5 39.5q0 32 -22 54t-55.5 40.5t-72.5 37t-72.5 44.5t-55.5 62t-22 90q0 44 21.5 75t55 50.5t75.5 29t83 10.5q-44 55 -44 128q0 43 17 85t50 75.5
t82 54t113 20.5q55 0 108 -15t94.5 -47t67 -82.5t25.5 -122.5v-172q11 14 26 28t34.5 25t44.5 17.5t56 6.5q53 0 88 -14.5t57 -40t33 -59t16 -71t5 -77v-76.5v-223z" />
    <glyph glyph-name="uniE06F" unicode="sl" horiz-adv-x="872" 
d="M543 0q0 18 9.5 25t21.5 11t21.5 8t9.5 15q0 91 -1 181.5t-1 181.5q0 55 1 106.5t1 112.5q0 45 -4.5 93.5t-21 88.5t-49 66t-87.5 26q-39 0 -69.5 -14.5t-51.5 -38.5t-32 -54.5t-11 -62.5q0 -31 9.5 -53t24.5 -38t34.5 -27.5t39.5 -21.5q61 -18 88.5 -53t27.5 -71
q0 -40 -25 -70.5t-69 -30.5q-26 0 -46 11.5t-36 31.5q21 12 31 31.5t10 41.5q0 40 -23 60t-52 20q-37 0 -58 -26t-21 -60q0 -35 23 -60t57 -45.5t74 -40t74 -44.5t57 -58t23 -81q0 -52 -24.5 -85t-62 -51.5t-82 -25t-85.5 -6.5q-47 0 -92 8.5t-80 26.5t-56 45t-21 63
q0 19 6.5 36.5t19 31t30 21.5t39.5 8q18 0 35.5 -6.5t31.5 -21.5q-16 -9 -24.5 -31.5t-8.5 -44.5t8 -39.5t21.5 -28.5t30.5 -17t34 -6t33.5 5t29.5 16t20.5 27.5t7.5 39.5q0 32 -22 54t-55.5 40.5t-72.5 37t-72.5 44.5t-55.5 62t-22 90q0 44 21.5 75t55 50.5t75.5 29
t83 10.5q-44 55 -44 128q0 43 17 85t50 75.5t82 54t113 20.5q55 0 108 -15t94.5 -47t67 -82.5t25.5 -122.5v-155.5t0.5 -121.5t0.5 -98.5t0.5 -88t0.5 -89.5v-103q0 -11 9.5 -15.5t21.5 -8t21.5 -11t9.5 -24.5h-302z" />
    <glyph glyph-name="uniE070" unicode="ch" horiz-adv-x="1266" 
d="M1178 59q0 -11 9.5 -15.5t21.5 -8t21.5 -11t9.5 -24.5h-236v125v90t-0.5 84t-1.5 107q0 35 -3.5 61t-11.5 44t-23 27t-39 9q-26 0 -53.5 -22t-53.5 -63q0 -102 0.5 -202t0.5 -201q0 -11 10 -15.5t21.5 -8t21.5 -11t10 -24.5h-303q0 18 9.5 25t21.5 11t21.5 8t9.5 15v574
q0 45 -4 95t-20 91.5t-48.5 68.5t-88.5 27q-39 0 -70 -15t-52 -39.5t-32 -55t-11 -62.5q0 -40 16.5 -65.5t41 -43.5t53 -31t53 -29t41 -38t16.5 -56q0 -19 -6 -37t-18 -32t-29.5 -22.5t-39.5 -8.5q-21 0 -42 11t-38 32q21 12 31 31.5t10 41.5q0 39 -22 56.5t-51 17.5
t-51 -16t-36.5 -42.5t-22 -61.5t-7.5 -73q0 -43 10 -85t29.5 -76t50 -55t70.5 -21q51 0 91.5 17.5t60.5 42.5q7 8 17.5 14t19.5 6q8 0 13 -5t5 -17q0 -26 -12 -61.5t-41.5 -67.5t-80 -54t-127.5 -22q-70 0 -123 25.5t-88 68.5t-52.5 98t-17.5 114q0 57 16.5 112.5t50 100
t83.5 73.5t116 34q-23 27 -34 60t-11 68q0 43 17 85t50 75.5t82 54t113 20.5q55 0 108 -15t94.5 -47t67 -82.5t25.5 -122.5v-172q12 14 27 28t34.5 25t44.5 17.5t56 6.5q59 0 97.5 -19.5t61 -52.5t31 -75.5t8.5 -88.5v-80t0.5 -64.5t0.5 -73.5v-107z" />
    <glyph glyph-name="uniE071" unicode="ck" horiz-adv-x="1247" 
d="M821 287l-4 4q1 -59 1 -116.5v-115.5q0 -11 9.5 -15.5t21.5 -8t21.5 -11t9.5 -24.5h-302q0 18 9.5 25t21.5 11t21.5 8t9.5 15v574q0 45 -4 95t-20 91.5t-48.5 68.5t-88.5 27q-39 0 -70 -15t-52 -39t-32 -54.5t-11 -61.5q0 -40 18.5 -75.5t56.5 -56.5q39 -7 66.5 -21
t45 -32t26 -38.5t8.5 -40.5t-6.5 -38t-18.5 -32t-29.5 -22.5t-38.5 -8.5t-42 11t-38 32q21 12 31 31.5t10 41.5q0 39 -22 56.5t-51 17.5t-51 -16t-36.5 -42.5t-22 -61.5t-7.5 -73q0 -43 10 -85t29.5 -76t50 -55t70.5 -21q51 0 91.5 17.5t60.5 42.5q7 8 17.5 14t19.5 6
q8 0 13 -5t5 -17q0 -26 -12 -61.5t-41.5 -67.5t-80 -54t-127.5 -22q-70 0 -123 25.5t-88 68.5t-52.5 98t-17.5 114q0 57 16.5 112.5t50 100t83.5 73.5t116 34q-23 27 -34 60t-11 68q0 43 17 85t50 75.5t82 54t113 20.5q55 0 108 -15t94.5 -47t67 -82.5t25.5 -122.5
q0 -94 0.5 -187.5t0.5 -187.5l174 164v7q0 17 -9.5 25.5t-21.5 15t-21.5 14.5t-9.5 25l240 26q0 -2 -0.5 -2t-2.5 -1l-219 -208l229 -347q6 -9 18 -13t23.5 -8.5t20.5 -12.5t9 -25h-241z" />
    <glyph glyph-name="uniE072" unicode="cl" horiz-adv-x="909" 
d="M579 0q0 18 9.5 25t21.5 11t21.5 8t9.5 15v574q0 45 -4 95t-20 91.5t-48.5 68.5t-88.5 27q-39 0 -70 -15t-52 -39t-32 -54.5t-11 -61.5q0 -40 18.5 -75.5t56.5 -56.5q39 -7 66.5 -21t45 -32t26 -38.5t8.5 -40.5t-6.5 -38t-18.5 -32t-29.5 -22.5t-38.5 -8.5t-42 11t-38 32
q21 12 31 31.5t10 41.5q0 39 -22 56.5t-51 17.5t-51 -16t-36.5 -42.5t-22 -61.5t-7.5 -73q0 -43 10 -85t29.5 -76t50 -55t70.5 -21q51 0 91.5 17.5t60.5 42.5q7 8 17.5 14t19.5 6q8 0 13 -5t5 -17q0 -26 -12 -61.5t-41.5 -67.5t-80 -54t-127.5 -22q-70 0 -123 25.5t-88 68.5
t-52.5 98t-17.5 114q0 57 16.5 112.5t50 100t83.5 73.5t116 34q-23 27 -34 60t-11 68q0 43 17 85t50 75.5t82 54t113 20.5q55 0 108 -15t94.5 -47t67 -82.5t25.5 -122.5v-328t2 -328q0 -11 10 -15.5t21.5 -8t21.5 -11t10 -24.5h-303z" />
    <glyph glyph-name="uniE073" unicode="cb" horiz-adv-x="1232" 
d="M935 620q67 -1 117.5 -28t84 -70.5t50.5 -99.5t17 -114q0 -59 -17.5 -115.5t-52.5 -101t-87.5 -71.5t-122.5 -27q-51 0 -95 19t-74 45l-114 -57q0 145 -0.5 286t-0.5 286v71t-3.5 76t-12 73.5t-26.5 62.5t-47 43.5t-72 16.5q-39 0 -70 -15t-52 -39t-32 -54.5t-11 -61.5
q0 -40 18.5 -75.5t56.5 -56.5q39 -7 66.5 -21t45 -32t26 -38.5t8.5 -40.5t-6.5 -38t-18.5 -32t-29.5 -22.5t-38.5 -8.5t-42 11t-38 32q21 12 31 31.5t10 41.5q0 39 -22 56.5t-51 17.5t-51 -16t-36.5 -42.5t-22 -61.5t-7.5 -73q0 -43 10 -85t29.5 -76t50 -55t70.5 -21
q51 0 91.5 17.5t60.5 42.5q7 8 17.5 14t19.5 6q8 0 13 -5t5 -17q0 -26 -12 -61.5t-41.5 -67.5t-80 -54t-127.5 -22q-70 0 -123 25.5t-88 68.5t-52.5 98t-17.5 114q0 57 16.5 112.5t50 100t83.5 73.5t116 34q-23 27 -34 60t-11 68q0 43 17 85t50 75.5t82 54t113 20.5
q55 0 107.5 -15t94 -47t67 -82.5t25.5 -122.5q0 -37 1 -72.5t2 -72.5q48 50 117 50zM911 43q20 0 39 12t34 36t24.5 59.5t9.5 82.5l-4 226q0 28 -8 48.5t-21.5 34t-30.5 20.5t-35 7q-19 0 -37 -7.5t-32.5 -22t-23.5 -36t-9 -50.5v-267q8 -72 34 -107t60 -36z" />
    <glyph glyph-name="uniE074" unicode="ty" horiz-adv-x="990" 
d="M990 617q0 -2 -0.5 -2t-1.5 -2l-311 -589q-24 -45 -51.5 -88.5t-59.5 -77.5t-69 -54.5t-81 -20.5q-28 0 -48.5 8.5t-34 23t-20.5 32.5t-7 38q0 18 6 35t18 30.5t29.5 22t40.5 8.5q0 -16 4 -32t12.5 -29t22 -21t32.5 -8q32 0 54 12t38.5 31.5t29.5 44t25 48.5l-229 468
q-14 28 -24 44t-22.5 24.5t-32.5 10.5t-53 2v-426q0 -38 6.5 -58.5t16 -31.5t20.5 -15t20.5 -8.5t16 -12t6.5 -25.5h-61q-59 0 -98 19t-62 50.5t-32.5 74t-9.5 88.5v341v4h-70v42q57 17 106 43.5t91 68.5l50 6v-118h163q37 0 60 -4t38.5 -14t26 -27t23.5 -43l150 -305
l105 262q0 27 -8 37t-18 16t-18 15.5t-8 35.5z" />
    <glyph glyph-name="uniE075" unicode="it" horiz-adv-x="656" 
d="M635 576h-90v-426q0 -38 6.5 -58.5t16 -31.5t20.5 -15t20.5 -8.5t16 -12t6.5 -25.5h-61q-59 0 -98 19t-62 50.5t-32 74t-9 88.5v54.5t-0.5 43t-0.5 35.5v32v33v37.5t0.5 46.5t0.5 59v4h-71v42q61 22 89 63t28 87q0 30 -11.5 59t-33 51.5t-53 36.5t-71.5 15
q-51 0 -90 -15.5t-65.5 -41t-40 -58t-13.5 -67.5q0 -45 24 -84t73 -59l109 12q-1 -116 -1.5 -230t-0.5 -229v-108q4 -7 14 -10t20 -6.5t18 -11t8 -22.5h-301q0 17 9 24.5t19.5 11t20.5 7.5t11 13l4 476q0 11 -9.5 15t-21.5 8t-21.5 11t-9.5 25l53 6q-33 29 -49.5 68.5
t-16.5 81.5q0 43 16.5 85t49.5 75.5t82 54t113 20.5q55 0 108 -15t95 -47t67.5 -82.5t25.5 -122.5q0 -18 -0.5 -40.5t-0.5 -33.5v-23h90v-42zM67 755q0 17 7 32.5t18.5 27t27.5 18t34 6.5t34 -6.5t27.5 -18t18.5 -27t7 -32.5t-7 -32.5t-18.5 -27t-27.5 -18t-34 -6.5t-34 6.5
t-27.5 18t-18.5 27t-7 32.5z" />
    <glyph glyph-name="uniE076" unicode="fi" horiz-adv-x="681" 
d="M428 486q0 25 -1 42.5t-6.5 28t-17 15.5t-32.5 5h-111q1 -92 1 -183v-184v-151q0 -11 9.5 -15.5t21.5 -8t21.5 -11t9.5 -24.5h-301q0 16 8.5 23.5t19 11t20 6.5t12.5 11l2 524h-84v42h84q0 66 31 114.5t80 81t108.5 48.5t116.5 16q48 0 82.5 -11.5t57 -30t34 -41
t12.5 -44.5q0 -35 -21.5 -62t-63.5 -27q-24 0 -45 11t-28 31q24 29 24 58q0 25 -18 42t-50 17q-70 0 -106 -55.5t-36 -147.5h345q-1 -115 -1.5 -229.5t-0.5 -230.5v-108q4 -7 14 -10t20 -6.5t18 -11t8 -22.5h-301q0 17 9 24.5t19.5 11t20.5 7.5t11 13z" />
    <glyph glyph-name="uniE077" unicode="op" horiz-adv-x="1241" 
d="M939 620q68 -1 119 -28t85 -71.5t51 -100.5t17 -115q0 -58 -16.5 -114t-50 -100t-83 -71t-115.5 -27q-67 0 -118.5 29t-93 74.5t-73.5 100t-60 104.5q-21 39 -48 85.5t-61 87.5t-76 68.5t-93 27.5q-25 0 -44.5 -10t-33 -26.5t-21 -38.5t-7.5 -45q0 -31 -1 -67t-1.5 -72
t-1.5 -71.5t-1 -65.5q0 -32 7.5 -56t20.5 -40.5t29 -24.5t33 -8q50 0 71 45.5t21 143.5q0 23 -2 46.5t-9 42.5t-20 30.5t-35 11.5q-15 0 -35 -6q-7 18 -7 40q0 19 6 36.5t18 31t29.5 21.5t41.5 8q41 0 74 -21t56.5 -56t36 -79t12.5 -91q0 -48 -14 -94t-45 -82t-79 -58
t-116 -22q-70 0 -122.5 25t-87.5 66.5t-52 96t-17 112.5q0 60 18.5 119t55 105t91 74.5t126.5 28.5q60 0 106 -24.5t84 -65.5t70 -94t65 -111q21 -37 49 -85t64 -90.5t79 -72t93 -29.5q24 0 42 12t29.5 30.5t17 40.5t5.5 43q0 32 -0.5 68t-0.5 73t-0.5 73t-0.5 67
q0 51 -26 83t-62 32q-30 0 -48.5 -14.5t-28.5 -37t-13.5 -49t-4.5 -50.5v-324q-53 44 -97.5 104.5t-82.5 132.5q-1 64 0 113t1 87q0 11 -9.5 15.5t-21.5 8t-21.5 11t-9.5 24.5l241 26v-32q19 16 44 25t58 10zM836 -161q0 -11 10 -15.5t21.5 -8t21 -11t9.5 -24.5h-302
q0 18 9.5 25t21.5 11t21.5 8t9.5 15q0 62 -0.5 143t-0.5 187q37 -58 83 -101t96 -72v-157z" />
    <glyph glyph-name="uniE078" unicode="ti" horiz-adv-x="694" 
d="M257 150q0 -38 6.5 -58.5t16 -31.5t20.5 -15t20.5 -8.5t16 -12t6.5 -25.5h-61q-59 0 -97.5 18t-61 48.5t-32 71.5t-12 87t-1 94t1.5 93v91t1 88h-71v42q33 9 58 18t47 21t44 29.5t48 44.5l50 5v-117h72q30 0 57.5 6t49 17.5t34.5 27.5t13 36q0 11 -6 22.5t-13.5 24
t-13.5 25t-6 24.5q0 23 19 41t57 18q21 0 41 -7t36 -21t26 -36.5t10 -54.5q0 -39 -14.5 -66.5t-39 -46t-56.5 -29t-67.5 -16t-72.5 -7t-71 -1.5h-55v-440zM379 0q0 17 9 24.5t19.5 11t20.5 7.5t11 13q0 59 0.5 110.5t1 101.5t1.5 101.5t1 109.5q0 11 -9.5 15t-21.5 8
t-21.5 11t-9.5 25l240 25q0 -71 -0.5 -133.5t-1 -123t-0.5 -123v-133.5q4 -7 14 -10t20 -6.5t18 -11t8 -22.5h-300z" />
    <glyph glyph-name="uniE079" unicode="ra" horiz-adv-x="1040" 
d="M968 59q6 -6 14 -9.5t16 -8t13.5 -11.5t5.5 -20q0 -2 -0.5 -5t-0.5 -5h-54q-48 0 -91 22t-65 60q-27 -44 -66.5 -66.5t-102.5 -22.5q-55 0 -96.5 16.5t-68.5 43.5t-40.5 62.5t-13.5 72.5q0 42 16.5 83.5t49 74.5t80 53.5t110.5 20.5q28 0 59.5 -11t47.5 -25q1 12 1.5 26
t0.5 28q0 27 -3 54t-13 49.5t-27 36.5t-46 14q-37 0 -65 -23.5t-43 -75.5q-6 -46 -35.5 -71.5t-67.5 -25.5q-24 0 -49 10t-45 32q20 18 32.5 42.5t12.5 47.5q0 20 -12 33.5t-41 13.5q-43 0 -70.5 -29t-43 -71t-21 -90t-5.5 -86l-0.5 -17t-0.5 -43v-56.5v-58.5v-48.5v-25.5
q4 -7 14 -10t20 -6.5t18 -11t8 -22.5h-300q0 17 9 24.5t19.5 11t20.5 7.5t11 13q-1 118 1.5 238t2.5 238q0 11 -9.5 15t-21.5 8t-21.5 11t-9.5 25l240 26v-76q13 21 32 38t41.5 29t47 18.5t49.5 6.5q44 0 75.5 -13t52.5 -29q36 16 83 29t107 13q73 0 117.5 -26t68.5 -68.5
t31.5 -96t7.5 -109.5q0 -51 -3 -98.5t-3 -85.5q0 -32 4 -55.5t15 -34.5zM776 252q-2 54 -26 82.5t-56 28.5q-16 0 -33 -7t-30 -21t-21.5 -35.5t-8.5 -50.5q0 -8 -0.5 -18t-0.5 -20q0 -26 2.5 -53.5t11.5 -50t26 -37t45 -14.5q24 0 41 11t28.5 29.5t16.5 42t5 48.5v65z" />
    <glyph glyph-name="uniE07A" unicode="gi" horiz-adv-x="977" 
d="M498 58q78 0 119 -32.5t41 -83.5q0 -37 -17 -65t-43.5 -50t-58.5 -38t-63 -29q-9 -4 -19 -4q-11 0 -17.5 5t-6.5 13t11.5 16.5t25 17.5t25 19.5t11.5 23.5q0 12 -7 19t-17 10.5t-22 4.5t-21 1q-24 0 -52.5 -3.5t-56.5 -7t-54 -7t-45 -3.5q-34 0 -68 8t-60 24.5t-42.5 42
t-16.5 59.5q0 27 12 50t31.5 43t44 36t48.5 28q-74 30 -111 89t-37 125q0 46 18 90.5t54 80t89.5 57t125.5 22.5q48 -1 87 -11.5t70 -30.5q51 1 102.5 6t93 18t68 36t26.5 61q0 16 -8 24t-17.5 15t-17.5 16t-8 27q0 20 8.5 36t22 27.5t31 17.5t35.5 6q19 0 37 -7.5t32 -22.5
t22.5 -37t8.5 -50q0 -64 -35.5 -105t-91 -64t-124 -32.5t-133.5 -12.5q32 -35 47.5 -77t15.5 -87t-17 -88t-51 -77t-86 -54.5t-121 -20.5h-37t-44.5 -4.5t-37 -15.5t-15.5 -33q0 -18 16 -32.5t51 -16.5q31 0 63 4t64 9t63 9.5t59 4.5zM659 0q0 17 9.5 24t20.5 11t21.5 7.5
t11.5 12.5v103.5v85.5t0.5 85t0.5 102q0 11 -9.5 15.5t-21.5 8t-21.5 11t-9.5 24.5l241 61v-103v-98.5t0.5 -95t1 -98t0.5 -107.5q4 -7 13.5 -9.5t19 -6.5t16.5 -11t7 -22h-301zM221 361q0 -23 4.5 -54t15 -58.5t28 -47t44.5 -19.5t44 21t27 50t13.5 61t3.5 54q0 20 -1 54
t-8.5 67t-24.5 57t-48 24q-33 0 -52.5 -22t-29.5 -53.5t-13 -66t-3 -58.5v-9z" />
    <glyph glyph-name="uniE07B" unicode="fj" horiz-adv-x="662" 
d="M607 618q-1 -152 -2 -303t-1 -303q0 -46 -10 -88t-33.5 -74t-63 -51t-98.5 -19h-61q0 18 6.5 25.5t16.5 11.5t21 8t21 14.5t16.5 31.5t6.5 59q0 140 1 278t1 278q0 25 -1 42.5t-6.5 28t-17 15.5t-32.5 5h-111q1 -92 1 -183v-184v-151q0 -11 9.5 -15.5t21.5 -8t21.5 -11
t9.5 -24.5h-301q0 16 8.5 23.5t19 11t20 6.5t12.5 11l2 524h-84v42h84q0 66 31 114.5t80 81t108.5 48.5t116.5 16q48 0 82.5 -11.5t57 -30t34 -41t12.5 -44.5q0 -35 -21.5 -62t-63.5 -27q-24 0 -45 11t-28 31q24 29 24 58q0 25 -18 42t-50 17q-70 0 -106 -55.5t-36 -147.5
h345z" />
    <glyph glyph-name="uniE07C" unicode="itt" horiz-adv-x="1000" 
d="M981 576h-94v-426q0 -38 6.5 -58.5t16 -31.5t20.5 -15t20.5 -8.5t16 -12t6.5 -25.5h-61q-54 0 -89.5 14.5t-58 39.5t-34 58.5t-16 72t-4.5 80v82.5q0 58 0.5 115t0.5 115h-166v-426q0 -38 6.5 -58.5t16 -31.5t20.5 -15t20.5 -8.5t16 -12t6.5 -25.5h-61q-59 0 -98 19
t-62 50.5t-32 74t-9 88.5v345h-71v42q61 22 89 63t28 87q0 30 -11.5 59t-33 51.5t-53 36.5t-71.5 15q-51 0 -90 -15.5t-65.5 -41t-40 -58t-13.5 -67.5q0 -45 24 -84t73 -59l109 12q-1 -116 -1.5 -230t-0.5 -229v-108q4 -7 14 -10t20 -6.5t18 -11t8 -22.5h-301q0 17 9 24.5
t19.5 11t20.5 7.5t11 13l4 476q0 11 -9.5 15t-21.5 8t-21.5 11t-9.5 25l53 6q-33 29 -49.5 68.5t-16.5 81.5q0 43 16.5 85t49.5 75.5t82 54t113 20.5q55 0 108 -15t95 -47t67.5 -82.5t25.5 -122.5q0 -24 -0.5 -48.5t-0.5 -48.5q47 0 83.5 2.5t70 14t66.5 34t72 61.5l51 6
q-1 -32 -1 -61v-57h94v-42zM67 755q0 17 7 32.5t18.5 27t27.5 18t34 6.5t34 -6.5t27.5 -18t18.5 -27t7 -32.5t-7 -32.5t-18.5 -27t-27.5 -18t-34 -6.5t-34 6.5t-27.5 18t-18.5 27t-7 32.5z" />
    <glyph glyph-name="uniE07D" unicode="ex" horiz-adv-x="1261" 
d="M1176 59q6 -9 18 -13t24 -8.5t20.5 -12.5t8.5 -25h-240q-42 57 -81.5 115.5t-77.5 115.5q34 32 66.5 59.5t66.5 53.5q48 -71 96 -143t99 -142zM928 317q-35 -30 -70 -61.5t-63 -62.5t-45.5 -60t-17.5 -55q0 -17 4 -36t14 -42h-216q0 2 1 3q17 20 35 39t37 37
q-72 -39 -139 -62.5t-122 -23.5q-82 0 -140 25t-95 67t-54 96.5t-18 112.5q0 60 17.5 118t53 104.5t89.5 75t127 28.5q55 0 97 -13t70 -34.5t42 -49.5t14 -58q0 -36 -19.5 -71.5t-59 -64t-101 -46.5t-145.5 -18q17 -57 53 -91t109 -34q46 0 102 14.5t117 39t122.5 57
t117.5 69.5t103 75.5t78 75.5q9 13 12.5 23.5t3.5 20.5q0 12 -4.5 22.5t-10 19.5t-11 17.5t-7.5 16.5l217 26q0 -2 -0.5 -1t-1.5 -1q-39 -44 -73 -81.5t-68.5 -73t-72 -70.5t-82.5 -73zM317 567q-31 0 -51.5 -19t-33 -48.5t-17.5 -65t-5 -67.5q0 -17 1.5 -32.5t3.5 -27.5
q44 0 76 15t52 39t29.5 53t9.5 57q0 39 -17 67t-48 29zM644 532q-7 9 -19 12.5t-24 8t-20.5 12.5t-8.5 26l222 26q38 -53 74 -106.5t72 -106.5q-34 -29 -69 -54.5t-73 -45.5q-39 59 -74.5 113t-79.5 115z" />
    <glyph glyph-name="uniE07E" unicode="ax" horiz-adv-x="1259" 
d="M1174 59q6 -9 18 -13t24 -8.5t20.5 -12.5t8.5 -25h-241q-43 61 -84 121.5t-82 120.5q-37 -43 -61 -77.5t-24 -78.5q0 -17 4 -37.5t15 -44.5q-31 -2 -68 -4.5t-76 -2.5q-34 0 -67 3.5t-62 13t-52 26t-38 42.5q-27 -44 -67 -66.5t-103 -22.5q-55 0 -96.5 16.5t-68.5 43.5
t-40.5 62.5t-13.5 72.5q0 42 16.5 83.5t49 74.5t80 53.5t110.5 20.5q28 0 59.5 -11t48.5 -25q1 12 1.5 25t0.5 27q0 26 -3 51.5t-13 45.5t-27.5 33t-46.5 13q-22 0 -44.5 -8t-41 -26t-31.5 -47.5t-16 -72.5q-24 -12 -55 -12q-30 0 -54 14.5t-24 47.5q0 24 16.5 49.5t52.5 47
t93.5 35.5t140.5 14q73 0 117 -25.5t68 -67t31.5 -94.5t7.5 -108q0 -48 -2.5 -93.5t-2.5 -82.5q0 -45 4.5 -68.5t20.5 -23.5q11 0 30 14t42 36t47.5 49t47 52t40 46t25.5 31q-23 34 -43 63.5t-39.5 59t-40.5 59.5t-45 64q-6 9 -18 12.5t-24 8t-20.5 12.5t-8.5 26l222 26
q41 -59 80.5 -116.5t78.5 -115.5l72 86q17 24 17 45q0 12 -4.5 22t-10 19t-11 17.5t-7.5 16.5l217 26q0 -1 -2 -3l-243 -271q48 -72 96 -142.5t99 -141.5zM287 56q24 0 41.5 11t29 29.5t16.5 42t5 48.5q0 88 -17.5 132t-65.5 44q-16 0 -33 -7t-30 -21t-21.5 -35.5
t-8.5 -50.5q0 -27 0.5 -60.5t8 -63t25 -49.5t50.5 -20z" />
    <glyph glyph-name="uniE07F" unicode="ah" horiz-adv-x="1323" 
d="M1245 59q0 -11 9.5 -15.5t21.5 -8t21.5 -11t9.5 -24.5h-244v87.5v66t-0.5 54t-0.5 51v57.5v74q0 22 -0.5 48.5t-6.5 49.5t-20.5 38.5t-41.5 15.5q-37 0 -59.5 -16.5t-42.5 -43.5q-1 -1 -9.5 -15t-22 -37t-31.5 -53t-38 -63l-114 -191q-14 -23 -28.5 -45.5t-33 -40
t-41.5 -28.5t-55 -11q-34 0 -65 16t-51 59q-27 -39 -65.5 -59.5t-98.5 -20.5q-55 0 -96.5 16.5t-68.5 43.5t-40.5 62.5t-13.5 72.5q0 42 16.5 83.5t49 74.5t80 53.5t110.5 20.5q28 0 59.5 -11t48.5 -25q1 12 1.5 25t0.5 27q0 26 -3 51.5t-13 45.5t-27.5 33t-46.5 13
q-22 0 -44.5 -8t-41 -26t-31.5 -47.5t-16 -72.5q-12 -5 -26.5 -8.5t-28.5 -3.5q-30 0 -54 14.5t-24 47.5q0 24 16.5 50t52.5 47t94 35t140 14q73 0 117 -25t67.5 -66.5t31 -95t7.5 -110.5q0 -45 -2 -89.5t-2 -84.5q0 -53 25 -53q14 0 30.5 14t31.5 39l122 203q27 45 53 92.5
t57 86.5t71 63.5t95 24.5q68 0 109 -21.5t63 -56.5t29.5 -80.5t7.5 -93.5v-309zM699 752q0 11 -9.5 15.5t-21.5 8t-21.5 11t-9.5 24.5l242 26v-263l-170 -285q-6 -11 -8 -11t-2 13v461zM878 59q0 -11 9.5 -15.5t21.5 -8t21.5 -11t9.5 -24.5h-303q0 18 9.5 25t21.5 11t21.5 8
t9.5 15v85l165 270q8 14 11 14q4 0 4 -19q0 -88 -0.5 -175t-0.5 -175zM286 56q26 0 44 12.5t28.5 31.5t15 42.5t4.5 44.5q0 88 -17.5 132t-65.5 44q-16 0 -33 -7t-30 -21t-21.5 -35.5t-8.5 -50.5q0 -27 0.5 -60.5t8 -63t25 -49.5t50.5 -20z" />
    <glyph glyph-name="uniE080" unicode="am" horiz-adv-x="1679" 
d="M1603 59q0 -11 9.5 -15.5t21.5 -8t21.5 -11t9.5 -24.5h-236v125v90t-0.5 84t-0.5 107q0 35 -3.5 61t-11.5 44t-23.5 27t-39.5 9q-26 0 -55.5 -23.5t-55.5 -67.5q4 -21 5.5 -43t1.5 -45v-309q0 -11 9.5 -15.5t21.5 -8t21.5 -11t9.5 -24.5h-244v87.5v66t-0.5 54t-0.5 51
v57.5v74q0 22 -0.5 48.5t-6.5 49.5t-20.5 38.5t-41.5 15.5q-37 0 -59.5 -16.5t-42.5 -43.5q-1 -2 -11.5 -19.5t-27.5 -45t-38.5 -63.5t-44.5 -75t-47 -79.5t-46 -76.5q-14 -23 -28.5 -45.5t-33 -40t-41.5 -28.5t-55 -11q-34 0 -65 16t-51 59q-27 -39 -65.5 -59.5
t-98.5 -20.5q-55 0 -96.5 16.5t-68.5 43.5t-40.5 62.5t-13.5 72.5q0 42 16.5 83.5t49 74.5t80 53.5t110.5 20.5q28 0 59.5 -11t48.5 -25q1 12 1.5 25t0.5 27q0 26 -3 51.5t-13 45.5t-27.5 33t-46.5 13q-22 0 -44.5 -8t-41 -26t-31.5 -47.5t-16 -72.5q-12 -5 -26.5 -8.5
t-28.5 -3.5q-30 0 -54 14.5t-24 47.5q0 24 16.5 50t52.5 47t94 35t140 14q73 0 117 -25t67.5 -66.5t31 -95t7.5 -110.5q0 -45 -2 -89.5t-2 -84.5q0 -53 25 -53q17 0 39 25.5t47 64t50 83.5t48 83q27 45 53 92.5t57 86.5t71 63.5t95 24.5q80 0 123.5 -29t62.5 -76
q11 16 26 34.5t36 34t50.5 26t68.5 10.5q59 0 97.5 -19.5t61 -52.5t31.5 -75.5t9 -88.5v-325zM879 59q0 -11 9.5 -15.5t21.5 -8t21.5 -11t9.5 -24.5h-303q0 18 9.5 25t21.5 11t21.5 8t9.5 15v85l165 270q8 14 11 14q4 0 4 -19q0 -88 -0.5 -175t-0.5 -175zM287 56
q26 0 44 12.5t28.5 31.5t15 42.5t4.5 44.5q0 88 -17.5 132t-65.5 44q-16 0 -33 -7t-30 -21t-21.5 -35.5t-8.5 -50.5q0 -27 0.5 -60.5t8 -63t25 -49.5t50.5 -20zM700 532q0 11 -9.5 15.5t-21.5 8t-21.5 11t-9.5 24.5l242 26v-43l-170 -285q-6 -11 -8 -11q-1 0 -1.5 18.5
t-0.5 46.5v60.5v61v47.5v20z" />
    <glyph glyph-name="uniE081" unicode="an" horiz-adv-x="1321" 
d="M1246 59q0 -11 9.5 -15.5t21.5 -8t21.5 -11t9.5 -24.5h-244v87.5v66t-0.5 54t-0.5 51v57.5v74q0 22 -0.5 48.5t-6.5 49.5t-20.5 38.5t-41.5 15.5q-37 0 -59.5 -16.5t-42.5 -43.5q-1 -2 -11.5 -19.5t-27.5 -45t-38.5 -63.5t-44.5 -75t-47 -79.5t-46 -76.5
q-14 -23 -28.5 -45.5t-32.5 -40t-41.5 -28.5t-54.5 -11q-35 0 -66 16t-51 59q-27 -39 -65.5 -59.5t-98.5 -20.5q-55 0 -96.5 16.5t-68.5 43.5t-40.5 62.5t-13.5 72.5q0 42 16.5 83.5t49 74.5t80 53.5t110.5 20.5q28 0 59.5 -11t48.5 -25q1 12 1.5 25t0.5 27q0 26 -3 51.5
t-13 45.5t-27.5 33t-46.5 13q-22 0 -44.5 -8t-41 -26t-31.5 -47.5t-16 -72.5q-12 -5 -26.5 -8.5t-28.5 -3.5q-30 0 -54 14.5t-24 47.5q0 24 16.5 50t52.5 47t94 35t140 14q73 0 117 -25t67.5 -66.5t31 -95t7.5 -110.5q0 -45 -2 -89.5t-2 -84.5q0 -53 25 -53q17 0 39 25.5
t47 64t50 83.5t48 83q27 45 53 92.5t57 86.5t71 63.5t95 24.5q68 0 109 -21.5t63 -56.5t29.5 -80.5t7.5 -93.5v-309zM879 59q0 -11 9.5 -15.5t21.5 -8t21.5 -11t9.5 -24.5h-303q0 18 9.5 25t21.5 11t21.5 8t9.5 15v85l165 270q8 14 11 14q4 0 4 -19q0 -88 -0.5 -175
t-0.5 -175zM287 56q26 0 44 12.5t28.5 31.5t15 42.5t4.5 44.5q0 88 -17.5 132t-65.5 44q-16 0 -33 -7t-30 -21t-21.5 -35.5t-8.5 -50.5q0 -27 0.5 -60.5t8 -63t25 -49.5t50.5 -20zM700 532q0 11 -9.5 15.5t-21.5 8t-21.5 11t-9.5 24.5l242 26v-43l-170 -285q-6 -11 -8 -11
q-1 0 -1.5 18.5t-0.5 46.5v60.5v61v47.5v20z" />
    <glyph glyph-name="uniE082" unicode="ers" horiz-adv-x="1434" 
d="M1201 426q22 29 33.5 63.5t11.5 67.5q0 27 -8 51.5t-25.5 42.5t-44 29t-63.5 11q-138 0 -235 -126q-31 -40 -67 -89t-70.5 -97t-65 -89t-49.5 -65q-31 -39 -63.5 -80.5t-69 -75.5t-80.5 -55.5t-98 -21.5q-68 0 -119 25t-84.5 66.5t-50 94.5t-16.5 109q0 61 19 120
t56.5 106t94 76.5t130.5 30.5q50 0 86 -12.5t60 -33.5t36 -48.5t13 -56.5q0 -36 -17.5 -72.5t-53.5 -66t-92 -47.5t-134 -18q3 -31 14.5 -52.5t28.5 -35t36.5 -19.5t38.5 -6q44 0 85.5 19t81.5 51.5t79 76t77 93t75.5 102t75.5 102.5q61 81 135.5 121.5t168.5 40.5
q69 0 118.5 -20.5t81 -53t46 -73t14.5 -80.5q0 -30 -8 -57.5t-23 -48.5t-37 -33.5t-49 -12.5q-13 0 -25.5 4.5t-22.5 11.5t-16.5 15.5t-8.5 15.5zM1142 413q31 -26 76.5 -48.5t88 -50t73 -64t30.5 -90.5q0 -52 -24.5 -84.5t-62.5 -51t-82.5 -25t-85.5 -6.5q-47 0 -92 9
t-80 26.5t-56 44.5t-21 63q0 39 27 68t69 29q17 0 34.5 -6.5t32.5 -21.5q-16 -9 -24.5 -31.5t-8.5 -44.5t8 -39.5t21 -28.5t30 -17t34 -6t33.5 5t29.5 16t21 27.5t8 39.5q0 32 -22 54t-55.5 40.5t-72.5 37t-72.5 44.5t-55.5 62t-22 90q0 45 22 76.5t57.5 51t79 28.5t85.5 9
q14 0 20.5 -7t6.5 -15q0 -7 -4.5 -13t-13.5 -7q-33 -4 -52.5 -28.5t-19.5 -56.5q0 -21 9.5 -41.5t30.5 -37.5zM799 58q0 -11 9.5 -15t21.5 -7.5t21.5 -11t9.5 -24.5h-303q0 17 9.5 24.5t21.5 11t21.5 8t9.5 15.5v150l179 237v-388zM328 567q-31 0 -51.5 -19.5t-33 -49
t-17.5 -65t-5 -67.5q0 -17 1.5 -32.5t3.5 -27.5q44 0 76 15t52 39t29.5 53.5t9.5 57.5q0 38 -17 66.5t-48 29.5zM620 532q0 11 -9.5 15.5t-21.5 8t-21.5 11t-9.5 24.5l242 27v-31q-1 0 -1 1v-9l-180 -246v67v37.5v20v14.5t0.5 21t0.5 39z" />
    <glyph glyph-name="uniE083" unicode="ars" horiz-adv-x="1513" 
d="M677 123q-14 -23 -28.5 -45.5t-33.5 -40.5t-42.5 -29t-55.5 -11q-33 0 -63.5 17t-50.5 58q-27 -38 -65.5 -58.5t-98.5 -20.5q-55 0 -96.5 16.5t-68.5 43.5t-40.5 62t-13.5 72q0 42 16.5 84t49 75t80.5 53.5t111 20.5q28 0 59.5 -11t47.5 -25q1 12 1.5 25t0.5 27
q0 26 -3 51.5t-13 45.5t-27.5 33t-46.5 13q-22 0 -44.5 -8t-41 -26t-31.5 -47.5t-16 -72.5q-24 -12 -56 -12q-29 0 -53 14t-24 47q0 24 16.5 49.5t52.5 47.5t93.5 36t140.5 14q73 0 117 -25t67.5 -67t31 -95.5t7.5 -110.5q0 -45 -2 -89t-2 -84q0 -29 7.5 -41.5t19.5 -12.5
q17 0 39 26.5t46.5 65.5t49.5 84t47 81q46 76 89.5 147t95.5 125.5t116 87t150 32.5q69 0 118 -19.5t80.5 -51t46 -70.5t14.5 -78q0 -29 -8 -55.5t-23 -47t-37 -32.5t-49 -12q-13 0 -25 4.5t-22 11.5t-17 15.5t-9 15.5q22 29 34 64t12 68q0 27 -8 51t-25.5 42t-44 29
t-63.5 11q-50 0 -90 -16t-74 -43t-62 -61.5t-54 -71.5q-31 -45 -58 -90t-57 -96zM1222 413q21 -17 49 -32.5t57.5 -32t58.5 -34.5t52 -40.5t37 -50t14 -63.5q0 -52 -24.5 -84.5t-62 -51t-82 -25t-85.5 -6.5q-47 0 -92 8.5t-80 26.5t-56 44.5t-21 62.5q0 39 25.5 68.5
t69.5 29.5q18 0 35.5 -6.5t31.5 -21.5q-16 -9 -24.5 -31.5t-8.5 -44.5t8 -39.5t21.5 -28.5t30 -17t34.5 -6q17 0 33.5 5t29.5 16t20.5 27.5t7.5 39.5q0 32 -22 54t-55.5 40.5t-72.5 37t-72.5 44.5t-55.5 62t-22 90q0 45 22 76.5t57.5 51t79 28.5t85.5 9q14 0 21 -6.5
t7 -14.5t-5 -14t-14 -7q-32 -4 -52 -28.5t-20 -56.5q0 -20 9.5 -41.5t30.5 -37.5zM879 58q0 -11 9.5 -15t21.5 -7.5t21.5 -11t9.5 -24.5h-303q0 17 9.5 24.5t21.5 11t21.5 8t9.5 15.5v85l165 270q8 14 11 14q4 0 4 -19q0 -88 -0.5 -175.5t-0.5 -175.5zM287 56q26 0 44 12.5
t28.5 31.5t15 42.5t4.5 44.5q0 88 -17.5 132t-65.5 44q-16 0 -33 -7t-30 -21t-21.5 -35.5t-8.5 -50.5q0 -27 0.5 -60.5t8 -63t25 -49.5t50.5 -20zM700 532q0 11 -9.5 15.5t-21.5 8t-21.5 11t-9.5 24.5l242 25v-42l-170 -285q-6 -11 -8 -11q-1 0 -1.5 18.5t-0.5 46.5v60.5v61
v47.5v20z" />
    <glyph glyph-name="uniE084" unicode="ok" horiz-adv-x="1215" 
d="M1446 -162q8 13 26 20.5t40 7.5q15 0 30 -4.5t27 -14t19.5 -24.5t7.5 -36q0 -32 -15 -58t-41 -45t-59.5 -29.5t-71.5 -10.5q-66 0 -132.5 30.5t-114.5 103.5q-37 56 -79 120t-85.5 130.5t-86 131t-79.5 122.5v-224q0 -11 9.5 -15t21.5 -7.5t21.5 -11t9.5 -24.5h-303
q0 17 9.5 24.5t21.5 11t21.5 8t9.5 15.5q0 38 -0.5 91.5t-0.5 116.5q-23 16 -46.5 43.5t-48.5 69.5q-21 35 -45 69t-53 61t-63 43.5t-73 16.5q-25 0 -44.5 -10t-33 -26.5t-21 -38.5t-7.5 -45q0 -31 -1 -67t-1.5 -72t-1.5 -71.5t-1 -65.5q0 -32 7.5 -56t20.5 -40.5t29 -24.5
t33 -8q50 0 71 45.5t21 143.5q0 23 -2 46.5t-9 42.5t-20 30.5t-35 11.5q-15 0 -35 -6q-7 18 -7 40q0 19 6 36.5t18 31t29.5 21.5t41.5 8q41 0 74 -21t56.5 -56t36 -79t12.5 -91q0 -48 -14 -94t-45 -82t-79 -58t-116 -22q-70 0 -122.5 25t-87.5 66.5t-52 96t-17 112.5
q0 60 18.5 119t55 105t91 74.5t126.5 28.5q53 0 94 -18.5t74 -49t60 -69t51 -78.5q35 -60 64.5 -89.5t59.5 -29.5q35 0 75 30.5t97 84.5l109 103v7q0 17 -9.5 25.5t-21.5 15t-21.5 14.5t-9.5 25l240 25q0 -2 -0.5 -1.5t-2.5 -1.5l-221 -209q43 -66 90 -139.5t94 -148.5
t92.5 -149t86.5 -140q8 -12 17.5 -28t21 -30t25 -24t29.5 -10q32 0 45.5 18.5t13.5 39.5q0 17 -7 29.5t-18 15.5zM653 752q0 11 -9.5 15.5t-21.5 8t-21.5 11t-9.5 24.5l241 25v-478q-31 -26 -56 -43.5t-50 -17.5q-35 0 -74 43v118v112.5t0.5 100t0.5 81.5z" />
    <glyph glyph-name="uniE085" unicode="ll" horiz-adv-x="648" 
d="M51 618q5 102 45 179.5t104.5 129.5t150 78t181.5 26q83 0 141.5 -22t96 -57t54.5 -78t17 -84q0 -28 -8 -54.5t-23 -46t-36.5 -31.5t-48.5 -12q-22 0 -45 14.5t-34 39.5q24 29 35.5 60t11.5 61t-10.5 56.5t-31 46.5t-50.5 32t-69 12q-150 0 -224.5 -90t-81.5 -258v-439
v-129t2 -127q1 -38 18 -56t41 -18t46.5 17t22.5 52q0 14 -5 24t-15 12q8 13 26 20.5t40 7.5q15 0 30 -4.5t27 -14t19.5 -24.5t7.5 -36q0 -24 -11 -48.5t-34.5 -45t-60.5 -33.5t-90 -13q-78 0 -125.5 21t-73.5 55.5t-34.5 77.5t-8.5 88zM541 150q0 -38 6.5 -58.5t16 -31.5
t20.5 -15t20.5 -8.5t16 -12t6.5 -25.5h-61q-59 0 -98 19t-62 50.5t-32 74t-9 88.5v513q0 11 -9.5 15.5t-21.5 8t-21.5 11t-9.5 24.5l239 34v-435v-127t-1 -125z" />
    <glyph glyph-name="uniE086" unicode="lli" horiz-adv-x="976" 
d="M51 618q5 102 45 179.5t104.5 129.5t150 78t181.5 26q93 0 161 -23.5t112.5 -59.5t66.5 -80.5t22 -86.5q0 -28 -9.5 -53t-28.5 -44.5t-47 -31t-65 -11.5q-11 0 -25.5 4t-28 12t-23.5 19t-11 24q23 27 34 56.5t11 58.5q0 30 -11.5 58t-33 49t-53 33.5t-71.5 12.5
q-150 0 -224.5 -90t-81.5 -258v-439v-129t2 -127q1 -38 18 -56t41 -18t46.5 17t22.5 52q0 14 -5 24t-15 12q8 13 26 20.5t40 7.5q15 0 30 -4.5t27 -14t19.5 -24.5t7.5 -36q0 -24 -11 -48.5t-34.5 -45t-60.5 -33.5t-90 -13q-78 0 -125.5 21t-73.5 55.5t-34.5 77.5t-8.5 88z
M541 150q0 -38 6.5 -58.5t16 -31.5t20.5 -15t20.5 -8.5t16 -12t6.5 -25.5h-61q-59 0 -98 19t-62 50.5t-32 74t-9 88.5v513q0 11 -9.5 15.5t-21.5 8t-21.5 11t-9.5 24.5l239 34v-435v-127t-1 -125zM660 0q0 17 9 24.5t19.5 11t20.5 7.5t11 13q-1 118 1.5 234.5t2.5 234.5
q0 11 -9.5 15.5t-21.5 8t-21.5 11t-9.5 24.5l240 26q-1 -143 -1.5 -280t-0.5 -279q4 -7 14 -10t20 -7t18 -11.5t8 -22.5h-300z" />
    <glyph glyph-name="uniE08A" unicode="in" horiz-adv-x="1038" 
d="M964 59q0 -11 9.5 -15.5t21.5 -8t21.5 -11t9.5 -24.5h-236v87.5t-0.5 66t-0.5 54t-0.5 51t-0.5 57.5v74q0 18 -0.5 44.5t-6 51t-19 41.5t-40.5 17q-37 0 -65.5 -18t-48.5 -45q-2 -2 -23.5 -37.5t-53 -88.5t-68 -115t-69.5 -117q-15 -24 -30 -47.5t-34 -42t-43 -29.5
t-57 -11q-55 0 -88 20.5t-51 54t-24 76t-6 87.5q0 75 0.5 150t0.5 151q0 11 -9.5 15t-21.5 8t-21.5 11t-9.5 25l241 25q1 -117 -1 -233t-2 -233q0 -40 12 -56.5t31 -16.5q13 0 24 7.5t20.5 19t17 24l13.5 22.5q51 85 105 179.5t112 183.5q21 32 44 53t49 33t55 16.5t63 4.5
q59 0 94.5 -22t54.5 -57.5t24.5 -80.5t5.5 -92v-77.5t0.5 -58.5t0.5 -68v-105zM596 58q0 -11 9.5 -15t21.5 -7.5t21.5 -11t9.5 -24.5h-303q0 17 9.5 24.5t21.5 11t21.5 8t9.5 15.5v85l165 270q8 14 11 14q1 0 2 -22t1 -56.5v-77v-83.5v-76v-55zM417 532q0 11 -9.5 15.5
t-21.5 8t-21.5 11t-9.5 24.5l242 25v-31v10q0 10 -1 10v-31l-169 -285q-7 -11 -9 -11t-2 12v87.5v52.5t0.5 43.5t0.5 58.5zM139 671q-36 0 -61.5 24.5t-25.5 59.5q0 17 7 32.5t18.5 27t27.5 18t34 6.5t34 -6.5t27.5 -18t18.5 -27t7 -32.5q0 -35 -25.5 -59.5t-61.5 -24.5z
" />
    <glyph glyph-name="uniE08B" unicode="im" horiz-adv-x="1403" 
d="M1328 59q0 -11 9.5 -15.5t21.5 -8t21.5 -11t9.5 -24.5l-236 -1v89v69v57.5v55t-0.5 60.5t-0.5 75q0 35 -3.5 61.5t-11.5 44.5t-23.5 27t-39.5 9q-21 0 -38 -10.5t-31.5 -25.5t-26 -32.5t-20.5 -31.5q2 -15 3 -30t1 -31v-18q0 -48 0.5 -77.5t0.5 -58.5v-68v-105
q0 -11 9.5 -15.5t21.5 -8t21.5 -11t9.5 -24.5h-236v87.5t-0.5 66t-0.5 54t-0.5 51t-0.5 57.5v74q0 75 -25 115t-60 40q-48 0 -95 -64l-214 -358q-15 -24 -30 -47.5t-34 -42t-43 -29.5t-57 -11q-55 0 -88.5 20.5t-51.5 53.5t-23.5 76t-5.5 88q0 75 0.5 150t0.5 151
q0 11 -9.5 15t-21.5 8t-21.5 11t-9.5 25l241 25q1 -117 -1 -233t-2 -233q0 -40 12 -56.5t31 -16.5q13 0 24 7.5t20.5 19t17 24l13.5 22.5q51 85 105 179.5t112 183.5q34 52 88.5 80.5t112.5 28.5q27 0 53 -6.5t49 -20t41 -34.5t28 -50q11 16 25.5 35t36.5 35t51.5 27
t70.5 11q59 0 97.5 -19.5t61 -52t31.5 -75t9 -89.5v-324zM596 58q0 -11 9.5 -15t21.5 -7.5t21.5 -11t9.5 -24.5h-303q0 17 9.5 24.5t21.5 11t21.5 8t9.5 15.5v85l165 270q8 14 11 14t3 -19v-351zM417 532q0 11 -9.5 15.5t-21.5 8t-21.5 11t-9.5 24.5l242 25v-12
q-1 -1 -1 -30l-169 -285q-7 -11 -9 -11t-2 12v87.5v52.5t0.5 43.5t0.5 58.5zM141 671q-36 0 -61.5 24.5t-25.5 59.5q0 17 7 32.5t18.5 27t27.5 18t34 6.5t34 -6.5t27.5 -18t18.5 -27t7 -32.5q0 -35 -25.5 -59.5t-61.5 -24.5z" />
    <glyph glyph-name="f_f" unicode="ff" horiz-adv-x="705" 
d="M566 1031q83 0 141.5 -22t96 -57t54.5 -78t17 -84q0 -28 -8 -54.5t-23 -46t-36.5 -31.5t-48.5 -12q-22 0 -45 14.5t-34 39.5q24 29 35.5 60t11.5 61t-10.5 56.5t-31 46.5t-50.5 32t-69 12q-150 0 -224.5 -90t-81.5 -258q14 0 34.5 -0.5t43 -1t44 -0.5h36.5q1 44 11 84
t33.5 70t61.5 47.5t95 17.5q15 0 30.5 -0.5t30.5 -0.5q0 -27 -6.5 -38.5t-16 -15.5t-20.5 -5.5t-20.5 -9t-16 -26t-6.5 -56.5v-67h85v-42h-84q1 -91 0 -182.5t-1 -184.5q0 -38 0.5 -75t0.5 -75q0 -11 9.5 -15.5t21.5 -8t21.5 -11t9.5 -24.5h-301q0 16 8.5 23t19 11t20.5 7
t13 11v124v205t1 195h-158q1 -92 1 -183v-183v-151q0 -11 9.5 -15.5t21.5 -8t21.5 -11t9.5 -24.5h-301q0 16 8.5 23t19 11t20 7t12.5 11l2 524h-84v42h85q5 102 45 179.5t104.5 129.5t150 78t181.5 26z" />
    <glyph glyph-name="f_f_i" unicode="ffi" horiz-adv-x="1020" 
d="M680 836q0 -27 -6.5 -38.5t-16 -15.5t-20.5 -5.5t-20.5 -9t-16 -26t-6.5 -56.5v-67h85v-42h-84q1 -91 0 -182.5t-1 -184.5q0 -38 0.5 -75t0.5 -75q0 -11 9.5 -15.5t21.5 -8t21.5 -11t9.5 -24.5h-301q0 16 8.5 23t19 11t20.5 7t13 11v124v205t1 195h-158q1 -92 1 -183
v-183v-151q0 -11 9.5 -15.5t21.5 -8t21.5 -11t9.5 -24.5h-301q0 16 8.5 23t19 11t20 7t12.5 11l2 524h-84v42h85q5 102 45 179.5t104.5 129.5t150 78t181.5 26q94 0 161 -24t109.5 -61.5t62 -82.5t19.5 -87q0 -26 -7.5 -49.5t-21.5 -41.5t-34 -28.5t-45 -10.5
q-23 0 -45.5 14.5t-33.5 39.5q19 22 27.5 46t8.5 48q0 33 -15 64.5t-42 56t-64 39t-80 14.5q-150 0 -224.5 -90t-81.5 -258q14 0 34.5 -0.5t43 -1t44 -0.5h36.5q1 44 11 84t33.5 70t61.5 47.5t95 17.5q15 0 30.5 -0.5t30.5 -0.5zM703 0q0 17 8.5 24.5t19.5 11t20.5 7.5
t11.5 13q-1 118 1.5 229.5t2.5 229.5q0 11 -9.5 15.5t-21.5 8t-21.5 11t-9.5 24.5l240 26q0 -71 -0.5 -139.5t-1 -136t-0.5 -135.5v-139q4 -7 14 -10t20 -6.5t18 -11t8 -22.5h-300z" />
    <glyph glyph-name="s_t" unicode="st" horiz-adv-x="894" 
d="M885 576h-102v-426q0 -38 6.5 -58.5t16 -31.5t20.5 -15t20.5 -8.5t16 -12t6.5 -25.5h-61q-59 0 -98 19t-62 50.5t-32.5 74t-9.5 88.5q0 86 0.5 172t0.5 173h-71v42q63 14 94 55.5t31 90.5q0 30 -11 59.5t-33 53t-55.5 38t-77.5 15.5q-51 0 -90 -15.5t-65.5 -40.5
t-40 -57.5t-13.5 -67.5q0 -40 12.5 -64t33 -40.5t47.5 -28t55 -25.5q41 -20 60 -50t19 -60q0 -40 -25 -70.5t-69 -30.5q-20 0 -41 11t-38 32q21 12 31 31.5t10 41.5q0 40 -23 61t-52 21q-15 0 -29.5 -6t-26 -17.5t-19 -29t-7.5 -41.5q0 -31 23 -54.5t57 -43.5t74 -40.5
t74 -46t57 -59t23 -79.5q0 -52 -24.5 -85t-62 -51.5t-82 -25t-85.5 -6.5q-47 0 -92 8.5t-80 26.5t-56 44.5t-21 62.5q0 39 25.5 68.5t69.5 29.5q18 0 35.5 -6.5t31.5 -21.5q-16 -9 -24.5 -31.5t-8.5 -44.5t8 -39.5t21.5 -28.5t30.5 -17t34 -6t33.5 5t29.5 16t20.5 27.5
t7.5 39.5q0 32 -22 54t-55.5 40.5t-72.5 37t-72.5 44.5t-55.5 62t-22 90q0 44 21.5 75.5t56 51t76.5 29t84 9.5q-43 55 -43 125q0 44 16 86.5t48.5 76t82 54.5t116.5 21q54 0 107 -15t94 -47t66.5 -83t25.5 -122v-97h102v-42z" />
    <glyph glyph-name=".notdef" horiz-adv-x="500" 
 />
    <glyph glyph-name=".null" horiz-adv-x="0" 
 />
    <glyph glyph-name=".null" horiz-adv-x="0" 
 />
    <glyph glyph-name="uni000D" unicode="&#xd;" horiz-adv-x="250" 
 />
    <glyph glyph-name="space" unicode=" " horiz-adv-x="249" 
 />
    <glyph glyph-name="exclam" unicode="!" horiz-adv-x="341" 
d="M233 838q39 0 53.5 -4.5t14.5 -26.5q0 -10 -2 -23.5t-5 -32.5q-9 -58 -25.5 -121.5t-32.5 -128t-28 -126.5t-12 -118h-74q0 53 -10.5 115.5t-25 128t-29.5 129.5t-24 121q-6 38 -6 55q0 23 14.5 27.5t54.5 4.5h137zM161 179q20 0 37.5 -7.5t30.5 -20t20.5 -29.5t7.5 -36
t-7.5 -36.5t-20.5 -30t-30.5 -20t-37.5 -7.5t-37.5 7.5t-31 20t-21 30t-7.5 36.5t7.5 36t21 29.5t31 20t37.5 7.5z" />
    <glyph glyph-name="quotedbl" unicode="&#x22;" horiz-adv-x="418" 
d="M299 927q32 0 56.5 -21t24.5 -61q0 -21 -9.5 -45.5t-26 -50t-40 -50t-51.5 -45.5q0 -2 -2 -2q-3 0 -3 2q0 1 0.5 1t0.5 1q9 16 23 37.5t14 39.5q0 10 -9 22.5t-29 21.5q-20 8 -29 24.5t-9 36.5q0 16 6 32t17.5 28.5t28 20.5t37.5 8zM104 927q32 0 56.5 -21t24.5 -61
q0 -21 -9.5 -45.5t-26 -50t-40 -50t-51.5 -45.5q-2 -2 -3 -2q-2 0 -2 2q0 1 1 2q9 16 23 37.5t14 39.5q0 10 -9 22.5t-29 21.5q-20 8 -29 24.5t-9 36.5q0 16 6 32t17.5 28.5t28 20.5t37.5 8z" />
    <glyph glyph-name="numbersign" unicode="#" horiz-adv-x="837" 
d="M575 478l-19 -121h223v-48h-230l-39 -244h-66l38 244h-180l-38 -244h-66l38 244h-206v48h213l19 121h-232v48h239l38 244h67l-38 -244h180l38 244h66l-38 -244h197v-48h-204zM508 478h-179l-19 -121h179z" />
    <glyph glyph-name="dollar" unicode="$" horiz-adv-x="703" 
d="M374 501q44 -22 95.5 -48t95.5 -59.5t73.5 -77.5t29.5 -104q0 -64 -26 -105.5t-68 -66t-94.5 -35t-105.5 -11.5v-99h-47v99q-76 3 -132.5 22t-93.5 46t-55 59t-18 62q0 38 26.5 66t79.5 28q35 0 64 -10q-19 -49 -19 -92q0 -32 10.5 -54.5t28.5 -36.5t42.5 -20.5
t52.5 -6.5h14v271q-46 21 -98.5 45.5t-96.5 57t-73 76.5t-29 105q0 64 27 106t70 67.5t95.5 36.5t104.5 14v84h47v-84q65 -1 113 -18.5t80 -43.5t48 -57.5t16 -60.5q0 -41 -28 -67.5t-85 -26.5q-30 0 -57 9q19 51 19 91q0 31 -10 53t-25 37t-34 23t-37 9v-283zM327 781
q-22 -5 -43 -15t-37 -25t-26 -35t-10 -44q0 -25 8.5 -44t23.5 -35t36.5 -30t47.5 -28v256zM476 185q0 17 -4.5 32t-16 29t-31.5 28.5t-50 30.5v-241q52 14 76.5 46.5t25.5 74.5z" />
    <glyph glyph-name="percent" unicode="%" horiz-adv-x="538" 
d="M454 816l-304 -808h-67l304 808h67zM187 799q48 -4 70 -37t22 -75q0 -26 -8.5 -52t-24.5 -47t-39.5 -34t-53.5 -13q-27 0 -47 9t-33 24t-19.5 34.5t-6.5 41.5q0 26 9 52.5t26 48t42 35t56 13.5h7zM399 283q25 -2 43.5 -12.5t30.5 -27t18 -37t6 -42.5q0 -25 -8 -50
t-23 -44.5t-37.5 -31.5t-51.5 -12q-28 0 -49 9.5t-35 25.5t-20.5 37t-6.5 44q0 26 8.5 51t24 45t39 32.5t53.5 12.5h8zM424 222q0 17 -8.5 29t-18.5 12q-14 0 -27.5 -11.5t-16.5 -35.5q-4 -28 -10 -63t-6 -59q0 -20 10 -34t23 -14q18 0 28 17t15 42t7 54t4 54v9zM118 618
q-1 -4 -1 -12q0 -18 8.5 -31t21.5 -13q14 0 27.5 13.5t17.5 38.5l17 115q1 4 1 11q0 19 -9 28.5t-20 9.5q-17 0 -28 -16t-17.5 -40t-10.5 -52t-7 -52z" />
    <glyph glyph-name="ampersand" unicode="&#x26;" horiz-adv-x="825" 
d="M727 140q35 -9 51.5 -30.5t16.5 -45.5q0 -15 -7 -30t-20 -27t-32.5 -19t-45.5 -7q-22 0 -47 5.5t-48.5 14.5t-43.5 21.5t-34 26.5q-45 -28 -99 -42t-112 -14q-69 0 -121 16t-86.5 44.5t-51.5 66.5t-17 82q0 68 41 139t124 128q-17 42 -26 87.5t-9 86.5q0 47 19.5 82.5
t50 60.5t69 37.5t76.5 12.5q30 0 56.5 -8t47 -24.5t32 -42t11.5 -61.5q0 -39 -15.5 -73t-39.5 -64.5t-53 -57t-55 -49.5q33 -66 83 -130t102 -117q10 30 10 60q0 29 -9 54t-24.5 44.5t-36 32.5t-43.5 19q10 38 41.5 64.5t74.5 26.5q30 0 54.5 -15t42 -40.5t26.5 -59.5t9 -71
q0 -49 -17 -99t-55 -92q10 -9 28.5 -16.5t37.5 -7.5q15 0 27 7t17 24zM378 790q-15 0 -30.5 -6.5t-27.5 -21t-19.5 -37t-7.5 -55.5q0 -18 2.5 -37.5t6 -38t9 -35t11.5 -28.5q21 14 43.5 32.5t40.5 41t29.5 49t11.5 54.5q0 38 -20 59t-49 23zM379 67q21 0 42.5 6t41.5 23
q-26 21 -56 51.5t-60 67t-58.5 78.5t-52.5 87q-23 -24 -32.5 -52t-9.5 -57q0 -40 15.5 -77t41.5 -65t59 -45t69 -17z" />
    <glyph glyph-name="quotesingle" unicode="'" horiz-adv-x="217" 
d="M106 927q32 0 56.5 -21t24.5 -61q0 -21 -9.5 -45.5t-26 -50t-40 -50t-51.5 -45.5q-2 -2 -3 -2q-2 0 -2 2q0 1 1 2q9 16 23 37.5t14 39.5q0 10 -9 22.5t-29 21.5q-20 8 -29 24.5t-9 36.5q0 16 6 32t17.5 28.5t28 20.5t37.5 8z" />
    <glyph glyph-name="parenleft" unicode="(" horiz-adv-x="338" 
d="M314 854q-37 0 -65 -38t-47 -100t-28 -141t-9 -162q0 -84 9.5 -164t28 -143t46.5 -101.5t65 -38.5v-29q-70 0 -122 39t-87 103.5t-52.5 148.5t-17.5 174q0 89 17.5 174.5t52.5 153t87 109.5t122 44v-29z" />
    <glyph glyph-name="parenright" unicode=")" horiz-adv-x="341" 
d="M20 883q70 0 122.5 -39t87.5 -103.5t52.5 -148.5t17.5 -174q0 -89 -17.5 -174.5t-52.5 -153t-87.5 -110t-122.5 -43.5v28q37 0 64.5 37t46 98t27.5 140t9 163t-9 164.5t-27.5 143.5t-46 102.5t-64.5 40.5v29z" />
    <glyph glyph-name="asterisk" unicode="*" horiz-adv-x="412" 
d="M150 483q0 26 11 58.5t35 58.5q23 -24 37.5 -57t14.5 -59t-15.5 -40t-33.5 -14q-19 0 -34 13t-15 40zM373 545q0 -19 -13 -34t-33 -15q-13 0 -29.5 8.5t-31.5 23t-28 34t-20 41.5q11 3 23 4t23 1q15 0 33.5 -2.5t35.5 -9.5t28.5 -19t11.5 -32zM129 608q12 0 24 -1t23 -4
q-7 -22 -20.5 -42t-28.5 -34t-30.5 -22.5t-28.5 -8.5q-21 0 -34.5 15t-13.5 34t11.5 31.5t28.5 19.5t35.5 9.5t33.5 2.5zM258 630q-20 0 -36 4q6 22 17.5 42t26 35.5t30 24.5t29.5 9q20 0 34.5 -15t14.5 -34t-13 -32t-31 -20.5t-38 -10.5t-34 -3zM20 696q0 19 14 34t35 15
q14 0 29.5 -9t30 -24.5t26.5 -35.5t18 -42q-9 -2 -18.5 -3t-18.5 -1q-14 0 -34 3t-38 10.5t-31 20.5t-13 32zM250 754q0 -26 -15 -59t-38 -57q-23 27 -34.5 59t-11.5 58q0 27 15.5 40t33.5 13q19 0 34.5 -13.5t15.5 -40.5z" />
    <glyph glyph-name="plus" unicode="+" horiz-adv-x="676" 
d="M619 440v-66h-255v-243h-66v243h-254v66h254v230h66v-230h255z" />
    <glyph glyph-name="comma" unicode="," horiz-adv-x="271" 
d="M136 162q32 0 56.5 -20.5t24.5 -61.5q0 -21 -9.5 -45.5t-26 -49.5t-40 -50t-51.5 -46q-1 -1 -3 -1t-2 1t1 2q9 16 23 37.5t14 39.5q0 11 -9 23t-29 21q-20 8 -29 24.5t-9 36.5q0 16 6 32t17.5 28.5t28 20.5t37.5 8z" />
    <glyph glyph-name="hyphen" unicode="-" horiz-adv-x="665" 
d="M602 440v-66h-562v66h562z" />
    <glyph glyph-name="period" unicode="." horiz-adv-x="291" 
d="M138 164q19 0 35.5 -7t28.5 -18.5t19 -27.5t7 -34q0 -37 -26 -62.5t-64 -25.5t-64.5 25.5t-26.5 62.5q0 18 7 34t19.5 27.5t29 18.5t35.5 7z" />
    <glyph glyph-name="slash" unicode="/" horiz-adv-x="457" 
d="M474 878l-380 -914h-79l379 914h80z" />
    <glyph glyph-name="zero" unicode="0" horiz-adv-x="852" 
d="M426 836q71 0 139.5 -25t122 -75t86.5 -126.5t33 -180.5q0 -109 -31 -191t-83.5 -136.5t-121.5 -81.5t-146 -27q-71 0 -139.5 25.5t-122 76.5t-86 128t-32.5 180v30q0 104 32.5 179.5t86 125.5t122 74t140.5 24zM427 50q37 0 72.5 25.5t63 73t45 115.5t18.5 154
q-1 86 -18.5 153.5t-45.5 113.5t-63 70t-72 24t-73 -24t-64.5 -69.5t-46 -113t-18.5 -154.5q1 -87 19 -155.5t46 -116t64 -72t73 -24.5z" />
    <glyph glyph-name="one" unicode="1" horiz-adv-x="373" 
d="M263 52q3 -8 13 -11t20.5 -6.5t19 -11t8.5 -23.5h-302q0 16 8.5 23.5t19.5 11t20.5 7t12.5 11.5v166t0.5 155.5t0.5 155.5v166q0 15 -9.5 20.5t-21.5 9t-21.5 9t-9.5 20.5l242 81q0 -198 -0.5 -392t-0.5 -392z" />
    <glyph glyph-name="two" unicode="2" horiz-adv-x="701" 
d="M624 152q11 14 26 14q8 0 14.5 -5.5t6.5 -16.5q0 -5 -3 -13q-16 -42 -37 -69t-44.5 -42t-49.5 -21t-52 -6q-36 0 -75 8.5t-80 18.5t-82.5 18.5t-82.5 8.5q-38 0 -65.5 -9t-35.5 -38h-34q-2 14 -2.5 23t-0.5 22q2 50 15.5 88.5t36.5 70t54 58t67 52.5q42 30 87.5 65.5
t83 78t62 91.5t24.5 106q0 27 -6.5 50t-21 40t-36.5 27t-54 10q-40 0 -67 -17t-43.5 -44.5t-23 -61.5t-6.5 -68v-13t1 -12q-22 -12 -40.5 -17t-35.5 -5q-45 0 -68.5 26t-23.5 64q0 32 18.5 68t56.5 66t97.5 49.5t140.5 19.5q72 0 127 -15.5t92.5 -43t57 -64.5t20.5 -80
q0 -69 -44.5 -142.5t-145.5 -140.5q-39 -26 -80 -50t-79.5 -46.5t-72.5 -44t-59 -43.5q42 20 75.5 28t62.5 8q40 0 72 -11.5t62 -26t61 -26t69 -11.5q19 0 34.5 5t26.5 19z" />
    <glyph glyph-name="three" unicode="3" horiz-adv-x="722" 
d="M512 412q84 -30 125.5 -83t41.5 -112q0 -42 -21.5 -82.5t-64 -72.5t-106 -51.5t-147.5 -19.5t-144.5 20t-99.5 50t-57.5 66.5t-18.5 69.5q0 40 24.5 66t69.5 26q32 0 72 -22q-1 -7 -1 -13v-12q0 -52 12.5 -89t33.5 -60.5t49.5 -34t59.5 -10.5q39 0 68 14.5t48.5 38
t29 53.5t9.5 61t-9.5 61t-29 53.5t-48 38t-67.5 14.5h-36q0 34 7.5 45.5t29.5 11.5q35 0 61.5 15t44.5 39t27 54.5t9 61.5q0 32 -9 62.5t-27 54.5t-44.5 39t-62.5 15q-57 0 -95.5 -40t-38.5 -129v-20.5t2 -21.5q-19 -10 -35.5 -14t-30.5 -4q-48 0 -74.5 26t-26.5 68
q0 31 17 65t53 62t92 46.5t134 18.5q83 0 144.5 -19.5t102.5 -51.5t61.5 -73t20.5 -84q0 -59 -38.5 -112.5t-116.5 -84.5z" />
    <glyph glyph-name="four" unicode="4" horiz-adv-x="699" 
d="M588 52q3 -8 13 -11t20.5 -6.5t19 -11t8.5 -23.5h-302q0 16 8.5 23.5t19.5 11t20.5 7t12.5 11.5v154h-317q-2 -15 -13 -18.5t-28 -3.5h-28v38q0 58 25 110t62.5 100.5t81 95.5t81 96t63 101t26.5 111h213q1 -5 1 -10v-10q0 -58 -29 -110.5t-74.5 -100.5t-101 -92.5
t-108 -87t-95.5 -85t-64 -86.5h305q0 16 0.5 39t0.5 58q0 15 -9.5 20.5t-21.5 9t-21.5 9t-9.5 20.5l242 178v-110.5t-0.5 -84t-0.5 -70v-69.5h23q19 0 28 -7.5t9 -16.5t-9 -16.5t-28 -7.5h-23v-155z" />
    <glyph glyph-name="five" unicode="5" horiz-adv-x="743" 
d="M233 732q-12 0 -19.5 -8.5t-11.5 -22.5t-5.5 -32t-1.5 -37q0 -20 1 -38.5t1 -32.5q54 -1 112 -8t113 -21t104.5 -36.5t86.5 -56.5t59 -80t22 -107q0 -52 -20.5 -99t-62 -82.5t-104.5 -56.5t-148 -21q-32 0 -69 4t-74.5 13t-72 24.5t-61.5 37.5t-44 52.5t-18 69.5
q0 20 5.5 38t17 32t28.5 22.5t40 8.5q17 0 38 -7.5t37 -20.5q-1 -6 -1 -11.5v-11.5q0 -38 8 -73.5t26 -63t48 -44t73 -16.5q31 0 60 12t51.5 36t36.5 59.5t14 82.5q0 51 -17 88.5t-46.5 64.5t-68 45t-81.5 29t-88 16t-87 6q0 24 0.5 54.5t1 63.5t1.5 65t3 58q8 0 16.5 17
t25.5 37.5t46.5 37.5t78.5 17q36 0 71 -8t68 -17t63.5 -17t57.5 -8q12 0 27 2t29 7t26 12.5t19 18.5t20 11q6 0 10.5 -3.5t4.5 -10.5q0 -5 -1 -7q-68 -182 -211 -182q-46 0 -79 15.5t-59.5 33.5t-49.5 33.5t-50 15.5z" />
    <glyph glyph-name="six" unicode="6" horiz-adv-x="716" 
d="M369 552q74 0 129.5 -23.5t93 -62.5t56.5 -88.5t19 -101.5q0 -53 -20 -104.5t-59.5 -91.5t-99.5 -64.5t-141 -24.5t-141 32.5t-100 86t-59.5 123t-19.5 144.5q0 83 24 164t70.5 146.5t116.5 106.5t161 43q66 0 114 -16.5t79.5 -42.5t46.5 -57t15 -61q0 -34 -20 -57
t-58 -23q-17 0 -37 5.5t-37 15.5q1 8 1 17v18q0 28 -4 54.5t-15.5 47.5t-31.5 34t-53 13q-52 0 -86 -32.5t-53.5 -80t-28 -100t-10.5 -92.5q24 36 63 54t85 18zM349 42q35 0 60.5 19t43 50t26 71t8.5 82t-8.5 83t-25.5 73t-42.5 51.5t-59.5 20.5q-35 0 -61 -19t-43.5 -50.5
t-26.5 -72t-9 -84.5q0 -42 8.5 -82t26 -71.5t43.5 -51t60 -19.5z" />
    <glyph glyph-name="seven" unicode="7" horiz-adv-x="647" 
d="M660 828q-2 -12 -3 -16.5t-1 -10.5q0 -3 0.5 -7t0.5 -11q-48 -34 -94 -85.5t-86.5 -114t-75 -132t-61 -140.5t-43 -140t-20.5 -129q7 -3 15.5 -5.5t16 -6.5t12.5 -11t5 -19h-302q0 12 5.5 19t13 11t16 6.5t15.5 5.5q7 89 38.5 177t78 170t103 154.5t112.5 130.5
q-31 3 -63 9.5t-63.5 13t-61 11.5t-56.5 5q-33 0 -60 -10t-45 -36q-5 -7 -11.5 -10t-12.5 -3q-16 0 -16 15q0 7 2 11q14 36 37 64.5t53.5 49t66.5 31.5t75 11q27 0 65 -4.5t79 -10t81.5 -10t73.5 -4.5q35 0 62.5 10.5t47.5 10.5z" />
    <glyph glyph-name="eight" unicode="8" horiz-adv-x="728" 
d="M538 412q80 -31 119.5 -84t39.5 -110q0 -42 -21.5 -83t-64 -73t-106 -51.5t-147.5 -19.5t-147 19.5t-105.5 51.5t-63.5 72.5t-21 83.5q0 57 39 110t118 84q-74 32 -110.5 85t-36.5 111q0 43 20.5 84t61 73.5t101.5 52t142 19.5q83 0 144.5 -19.5t103 -52t62 -73.5
t20.5 -84q0 -58 -37 -111t-111 -85zM359 780q-36 0 -63.5 -14.5t-45.5 -38.5t-27 -55t-9 -64q0 -28 6.5 -54.5t19.5 -49t33 -39t46 -24.5h78q26 7 46 23.5t33 39t19.5 49.5t6.5 54q0 32 -9 63t-27 55.5t-44.5 39.5t-62.5 15zM360 48q38 0 67 15t48 38.5t28.5 53.5t9.5 61
q0 27 -7 53t-21.5 48.5t-35.5 39t-50 23.5q-10 -1 -20 -1.5t-21 -0.5t-21 0.5t-20 1.5q-28 -7 -49.5 -23.5t-35.5 -38.5t-21 -48t-7 -53q0 -32 10 -62.5t29.5 -54t48.5 -38t68 -14.5z" />
    <glyph glyph-name="nine" unicode="9" horiz-adv-x="703" 
d="M349 837q81 0 141 -32.5t100 -86.5t59.5 -123.5t19.5 -143.5q0 -83 -24 -164.5t-70.5 -146.5t-116 -106t-161.5 -43q-51 0 -100.5 10t-88.5 31t-63 52.5t-24 74.5q0 47 24.5 67t58.5 20q38 0 73 -20q-1 -5 -1 -10.5v-10.5q0 -30 6 -59t20 -52t37 -37t58 -14t61.5 15
t45.5 40t32 57t21 66t12.5 67t5.5 60q-22 -32 -61 -51t-84 -19q-74 0 -130 24t-93.5 63t-56 89t-18.5 101q0 53 19.5 103.5t59 90t99 64t139.5 24.5zM478 443q2 15 4 32q2 15 3 35.5t1 43.5q0 37 -5.5 78t-20.5 75t-42 56.5t-71 22.5q-34 0 -59 -18t-41.5 -47.5t-24.5 -68
t-8 -79.5q0 -43 9 -85t27 -76t44.5 -55t61.5 -21q25 0 44 8t33 22.5t25 34t20 42.5z" />
    <glyph glyph-name="colon" unicode=":" horiz-adv-x="264" 
d="M126 335q-19 0 -35.5 7t-29 19t-19.5 28t-7 34t7 34t19.5 28t29 19t35.5 7t35.5 -7t28.5 -19t19 -28t7 -34t-7 -34t-19 -28t-28.5 -19t-35.5 -7zM126 253q19 0 35.5 -7t28.5 -19t19 -28t7 -34t-7 -34t-19 -27.5t-28.5 -18.5t-35.5 -7t-35.5 7t-29 18.5t-19.5 27.5t-7 34
t7 34t19.5 28t29 19t35.5 7z" />
    <glyph glyph-name="semicolon" unicode=";" horiz-adv-x="260" 
d="M125 239q32 0 56.5 -20.5t24.5 -61.5q0 -21 -9.5 -45.5t-26 -49.5t-40 -50t-51.5 -46q-1 -1 -3 -1t-2 2v1q10 16 24 37.5t14 39.5q0 11 -9 23t-29 21q-20 8 -29 24.5t-9 36.5q0 16 6 32t17.5 28.5t28 20.5t37.5 8zM116 335q-19 0 -35.5 7t-29 19t-19.5 28t-7 34t7 34
t19.5 28t29 19t35.5 7t35.5 -7t28.5 -19t19 -28t7 -34t-7 -34t-19 -28t-28.5 -19t-35.5 -7z" />
    <glyph glyph-name="less" unicode="&#x3c;" horiz-adv-x="297" 
d="M243 81l-210 169v52l210 167v-80l-158 -112l158 -111v-85z" />
    <glyph glyph-name="equal" unicode="=" horiz-adv-x="731" 
d="M52 326h605v-66h-605v66zM657 553v-66h-605v66h605z" />
    <glyph glyph-name="greater" unicode="&#x3e;" horiz-adv-x="309" 
d="M42 166l158 111l-156 112v80l208 -167v-52l-210 -169v85z" />
    <glyph glyph-name="question" unicode="?" horiz-adv-x="565" 
d="M267 833q50 0 98 -9.5t86 -31.5t61 -57t23 -86q0 -37 -14.5 -68t-36 -60t-47 -57t-47 -59t-36 -67t-14.5 -81h-69q0 66 13.5 113t29.5 87.5t29.5 79.5t14.5 88q0 32 -7.5 57t-20.5 42t-29 25.5t-34 8.5q-32 0 -57.5 -29t-25.5 -77q0 -37 13 -73t33 -59
q-23 -18 -46.5 -26.5t-45.5 -8.5q-27 0 -49 12t-37.5 31.5t-24.5 45.5t-10 54q0 36 13 72.5t42.5 65.5t77.5 48t117 19zM302 179q20 0 37.5 -7.5t31 -20t21 -29.5t7.5 -36t-7.5 -36t-21 -29.5t-31 -20t-37.5 -7.5t-37.5 7.5t-30.5 20t-20.5 29.5t-7.5 36t7.5 36t20.5 29.5
t30.5 20t37.5 7.5z" />
    <glyph glyph-name="at" unicode="@" horiz-adv-x="916" 
d="M444 404q18 0 39 -7t31 -16q1 11 1.5 23t0.5 26q0 17 -2 34.5t-7.5 31.5t-15 23t-25.5 9q-19 0 -31.5 -8.5t-19.5 -22.5t-10.5 -31.5t-4.5 -34.5q-15 -9 -36 -9q-20 0 -37 11t-17 35t18 42t43 30.5t52.5 18.5t46.5 6q51 0 82 -18.5t47.5 -49.5t21.5 -70t5 -81
q0 -39 -2 -76t-2 -66q0 -21 3.5 -33.5t15.5 -12.5q27 0 50.5 22t41 58.5t27.5 84t10 98.5q0 59 -15 116.5t-49 103.5t-89.5 74.5t-135.5 28.5t-140 -31t-100.5 -82.5t-61 -117t-20.5 -134.5q0 -71 22 -139.5t66 -122.5t110 -87t155 -33q33 0 64.5 10t56 26.5t41 37
t19.5 41.5q29 -1 46 -17t17 -38q0 -19 -14 -34.5t-36.5 -27t-50 -19.5t-55 -13t-51 -7.5t-37.5 -2.5q-121 0 -211.5 35.5t-150 94t-89 134.5t-29.5 156q0 79 29 155t86 135t142 95.5t197 36.5q105 0 179.5 -33t122 -85.5t70 -119t22.5 -134.5q0 -59 -16 -114.5t-46.5 -98
t-74 -68.5t-98.5 -26q-53 0 -78 16.5t-37 53.5q-17 -28 -42 -42.5t-66 -14.5q-31 0 -54.5 10.5t-39.5 28.5t-23.5 41t-7.5 47q0 27 9.5 53.5t28 47.5t46 34t63.5 13zM459 175q19 1 35.5 22.5t16.5 56.5q0 55 -11.5 82.5t-40.5 27.5q-18 0 -33.5 -16.5t-15.5 -50.5v-37
q2 -48 17 -66.5t32 -18.5z" />
    <glyph glyph-name="A" unicode="A" horiz-adv-x="863" 
d="M792 59q5 -10 16.5 -14t23.5 -8.5t21.5 -12t9.5 -24.5h-252l-101 254h-262q-5 -13 -17 -41t-24.5 -58t-22 -55.5t-9.5 -31.5q0 -18 10 -23t21.5 -8t21.5 -9.5t10 -27.5h-238q0 18 7.5 24.5t18.5 11t24 13t23 30.5l358 757h29zM486 316l-88 225l15 113l-142 -338h215z" />
    <glyph glyph-name="B" unicode="B" horiz-adv-x="744" 
d="M570 421q35 -15 61 -36.5t43.5 -47.5t26.5 -56t9 -60q0 -42 -16.5 -81.5t-50 -70.5t-84 -50t-117.5 -19h-420q0 16 8.5 23.5t19.5 11t20.5 7t12.5 11.5q1 176 0.5 349.5t0.5 349.5q0 11 -9.5 15.5t-21.5 8t-21.5 11t-9.5 24.5q35 4 73.5 8.5t77 8t73.5 6t63 2.5h119
q66 0 116 -19t83 -50.5t49.5 -71.5t16.5 -82q0 -57 -30.5 -109.5t-92.5 -82.5zM417 60q29 7 50 23.5t35 38.5t21 48.5t7 53.5q0 29 -7 56.5t-21.5 50.5t-35.5 39.5t-48 22.5h-33.5t-46.5 0.5t-45 0.5h-30v-337q8 0 32 0.5t50.5 1t47.5 1t24 0.5zM382 789q-31 3 -65 3
q-14 0 -27 -0.5t-27 -0.5v-336q8 0 29 0.5t44 0.5h42h22q29 7 50 23t35 37.5t21 47.5t7 53q0 31 -8.5 60.5t-25 53.5t-41 39.5t-56.5 18.5z" />
    <glyph glyph-name="C" unicode="C" horiz-adv-x="756" 
d="M708 299q0 2 4 2q3 0 4 -3q0 -20 -1 -46.5t-2.5 -54t-3 -54t-1.5 -46.5q-37 -18 -73.5 -36.5t-74.5 -33.5t-78.5 -24.5t-85.5 -9.5q-90 0 -158 36.5t-113 96t-67.5 135t-22.5 154.5t22.5 155t68 135t113.5 95.5t159 36.5q44 0 82.5 -5.5t74 -16t70.5 -25t71 -31.5
q0 -20 3 -57.5t7 -78t7 -78t3 -57.5q-1 -3 -4 -3t-4 4q-13 29 -27 62t-30.5 66t-36.5 63t-45.5 53t-57 37t-71.5 14q-55 0 -97 -32.5t-70 -86t-42 -121.5t-14 -139q0 -67 13 -131.5t39.5 -114.5t66.5 -80.5t94 -30.5q51 0 94.5 23t78 59.5t61 81t44.5 87.5z" />
    <glyph glyph-name="D" unicode="D" horiz-adv-x="720" 
d="M337 837q86 -1 150.5 -37t108 -95.5t65 -134.5t21.5 -154q0 -76 -21 -150t-63 -132t-105 -94.5t-147 -39.5h-120h-204q0 17 9.5 24.5t21.5 11t21.5 8t9.5 15.5v693q0 11 -9.5 15.5t-21.5 8t-21.5 11t-9.5 24.5l206 25h54.5t54.5 1zM300 60q50 10 87 45t62.5 85.5t38 112
t12.5 124.5q0 62 -12.5 122t-37 108t-62 80.5t-87.5 39.5q-9 2 -18.5 2.5t-18.5 1.5q0 -75 -0.5 -170t-0.5 -194v-193.5v-169.5z" />
    <glyph glyph-name="E" unicode="E" horiz-adv-x="664" 
d="M613 290q2 3 4 3q1 0 3 -2q0 -42 -3.5 -75.5t-8 -66.5t-8.5 -68.5t-4 -80.5h-574q0 16 8.5 23.5t19.5 11t20.5 7t12.5 11.5q1 176 0.5 349.5t0.5 349.5q0 11 -9.5 15.5t-21.5 8t-21.5 11t-9.5 24.5l242 25h332q0 -45 4 -80t8.5 -68t8 -66.5t3.5 -75.5q-1 -3 -3 -3
q-3 0 -4 4q-16 41 -30.5 73.5t-31 59t-36.5 49.5t-47 45h-204q0 -85 -0.5 -169t-0.5 -169l78 3q26 5 45.5 11.5t36 17.5t31 28t29.5 43q2 3 5 3q1 0 3 -2v-259q-1 -2 -3 -2q-3 0 -5 3q-20 34 -39.5 53.5t-44 30t-57 14t-79.5 5.5v-323h206q27 23 47 45.5t36 49.5t30.5 59
t30.5 74z" />
    <glyph glyph-name="F" unicode="F" horiz-adv-x="664" 
d="M596 836q0 -45 4 -80t8.5 -68t8 -66.5t3.5 -75.5q-1 -3 -3 -3q-3 0 -4 4q-16 41 -30.5 73.5t-30.5 59t-36 49.5t-47 45h-205q0 -85 -0.5 -169t-0.5 -169l78 3q26 5 45.5 11.5t36 17.5t31 28t29.5 43q2 3 5 3q1 0 3 -2v-259q-1 -2 -3 -2q-3 0 -5 3q-20 34 -39.5 53.5
t-44 30t-57 14t-79.5 5.5v-333q3 -8 13 -11t20.5 -6.5t19 -11t8.5 -23.5h-302q0 16 8.5 23.5t19.5 11t20.5 7t12.5 11.5q1 176 0.5 349.5t0.5 349.5q0 11 -9.5 15.5t-21.5 8t-21.5 11t-9.5 24.5l242 25h332z" />
    <glyph glyph-name="G" unicode="G" horiz-adv-x="808" 
d="M757 370v-370l-153 41q-48 -21 -98.5 -34.5t-106.5 -13.5q-90 0 -158 36.5t-113 95.5t-67.5 135t-22.5 155t22.5 155t68 135t113.5 95.5t159 36.5q44 0 82 -5.5t73.5 -16t70 -25t70.5 -31.5q0 -20 3.5 -57.5t7.5 -78t7.5 -78t3.5 -57.5q-1 -3 -4 -3t-4 4q-13 29 -27 62
t-30.5 66t-36.5 63t-45.5 53t-57.5 37t-71 14q-55 0 -97 -32.5t-70 -86t-42 -121.5t-14 -139q0 -67 13 -131.5t39.5 -114.5t66.5 -80.5t94 -30.5q48 0 88 20t75 53q1 49 1 99v91q0 11 -9.5 15t-21.5 8t-21.5 11t-9.5 25h222z" />
    <glyph glyph-name="H" unicode="H" horiz-adv-x="806" 
d="M720 51q3 -7 13 -10t20.5 -7t18.5 -11t8 -23h-301q0 15 8 22.5t18.5 11.5t20 7t13.5 10v339h-277v-336q2 -9 12 -12t21 -7t19.5 -11t8.5 -24h-302q0 17 9 24t20 11t21 7.5t12 12.5v697q0 11 -9.5 15.5t-21.5 8t-21.5 11t-9.5 24.5l242 25q0 -72 -0.5 -173t-0.5 -211h277
q0 110 -0.5 211t-0.5 173l242 -25q0 -17 -9.5 -24.5t-21.5 -11t-21.5 -8t-9.5 -15.5v-535z" />
    <glyph glyph-name="I" unicode="I" horiz-adv-x="378" 
d="M278 52q3 -8 13 -11t20.5 -7t19 -11t8.5 -23h-302q0 16 8.5 23.5t19.5 11t20.5 7t12.5 11.5v704q-3 9 -12.5 12t-20.5 7t-19.5 11.5t-8.5 23.5l302 25q0 -16 -8.5 -24.5t-19 -13.5t-20.5 -9.5t-13 -12.5v-724z" />
    <glyph glyph-name="J" unicode="J" horiz-adv-x="526" 
d="M462 837q0 -144 -1 -292t-1 -291q0 -53 -11 -100.5t-37.5 -83t-71 -56.5t-111.5 -21q-56 0 -95.5 12.5t-64 32t-36 44t-11.5 48.5q0 38 23.5 65.5t63.5 27.5q13 0 26.5 -8t24.5 -19q-17 -12 -25 -28.5t-8 -33.5q0 -21 9.5 -37.5t24.5 -27t34 -16t39 -5.5q19 0 37 5.5
t32 16t22.5 26t8.5 34.5q0 21 -8 35.5t-17 27t-17 26t-8 31.5v126t-0.5 121t-0.5 120.5v126.5q0 11 -9.5 15.5t-21.5 8t-21.5 11t-9.5 24.5z" />
    <glyph glyph-name="K" unicode="K" horiz-adv-x="765" 
d="M263 345v-293q3 -8 13 -11t20.5 -6.5t19 -11t8.5 -23.5h-302q0 16 8.5 23.5t19.5 11t20.5 7t12.5 11.5q1 176 0.5 349.5t0.5 349.5q0 11 -9.5 15.5t-21.5 8t-21.5 11t-9.5 24.5l242 25q0 -106 -0.5 -209.5t-0.5 -209.5l291 318q0 20 -9.5 29.5t-21.5 17t-21.5 16
t-9.5 24.5h211q0 -2 -0.5 -1.5t-1.5 -1.5l-307 -332l283 -428q6 -9 18 -13t24 -8.5t21 -12.5t9 -25h-241l-233 358z" />
    <glyph glyph-name="L" unicode="L" horiz-adv-x="669" 
d="M620 0h-598q0 16 8.5 23.5t19.5 11t20.5 7t12.5 11.5q1 176 0.5 349.5t0.5 349.5q0 11 -9.5 15.5t-21.5 8t-21.5 11t-9.5 24.5l242 25q0 -195 -0.5 -387t-0.5 -387h207q27 23 46.5 45.5t35.5 49.5t30.5 59t30.5 74q2 3 4 3q1 0 3 -2v-291z" />
    <glyph glyph-name="M" unicode="M" horiz-adv-x="946" 
d="M851 53q3 -8 13 -11.5t21 -7t19.5 -11t8.5 -23.5h-304q0 16 8.5 23.5t19 11t20.5 6.5t13 11v544l-234 -594h-72l-216 599q0 -138 -0.5 -273t-0.5 -276v-52h-125q0 16 8.5 23.5t19.5 11t20.5 7t12.5 11.5q1 176 0.5 349.5t0.5 349.5q0 11 -9.5 15.5t-21.5 8.5t-21.5 11
t-9.5 24l252 26l187 -604l188 503q0 24 -6 35.5t-13 19.5t-13 17t-6 29l302 -26q0 -17 -9.5 -24.5t-21.5 -11t-21.5 -7.5t-9.5 -15v-700z" />
    <glyph glyph-name="N" unicode="N" horiz-adv-x="793" 
d="M769 811q0 -16 -8.5 -23.5t-19.5 -11t-21 -7t-13 -11.5v-758h-63q-54 75 -117 160.5t-128 174.5t-129.5 176.5t-121.5 166.5q0 -158 -0.5 -311.5t-0.5 -313.5v-53h-125q0 16 8.5 23.5t19.5 11t20.5 7t12.5 11.5q1 176 0.5 349.5t0.5 349.5q0 10 -9 14.5t-20 8t-21 10
t-12 21.5v5l252 26l369 -498v498z" />
    <glyph glyph-name="O" unicode="O" horiz-adv-x="848" 
d="M425 837q71 0 139.5 -25t122 -75.5t86.5 -127t33 -180.5q0 -109 -31 -191t-83.5 -136.5t-121.5 -81.5t-146 -27q-71 0 -139.5 25.5t-122 76.5t-86 128t-32.5 180v30q0 103 32.5 179t86 126t122 74.5t140.5 24.5zM426 50q37 0 72.5 25.5t63 73t45 115.5t18.5 154
q-1 86 -18.5 153t-45.5 113.5t-63 71t-72 24.5t-73 -24t-64.5 -70t-46 -113.5t-18.5 -154.5q1 -87 19 -155.5t46 -116t64 -72t73 -24.5z" />
    <glyph glyph-name="P" unicode="P" horiz-adv-x="744" 
d="M444 837q67 -1 117 -24.5t83 -61.5t49.5 -86.5t16.5 -99.5t-16.5 -99.5t-50 -86.5t-83.5 -61t-116 -23h-30t-55 0.5t-57.5 1t-38.5 1.5v-245q3 -8 13 -11.5t20.5 -7t19 -11t8.5 -23.5h-302q0 16 8.5 23.5t19.5 11t20.5 7t12.5 11.5q1 176 0.5 349.5t0.5 349.5
q0 11 -9.5 15.5t-21.5 8t-21.5 11t-9.5 24.5q63 7 113.5 12t98.5 8t98 4.5t112 1.5zM417 363q29 7 50 26.5t35 47t21 61t7 68.5q0 39 -8.5 77t-25 69t-40.5 51t-56 23q-17 2 -38.5 2h-43.5h-54q0 -108 -0.5 -214.5t-0.5 -213.5h33t50 0.5t47 1t24 1.5z" />
    <glyph glyph-name="Q" unicode="Q" horiz-adv-x="862" 
d="M847 -47q0 -38 -21.5 -70t-54 -55t-71 -36t-72.5 -13q-45 0 -93 10t-93 22t-83.5 22t-65.5 10q-16 0 -26 -4t-16.5 -9t-12 -9t-13.5 -4q-22 0 -22 22q0 2 2 10q5 14 11 25t13.5 20.5t17.5 18.5t23 20l79 66q-61 11 -117 42t-99 81.5t-68 120.5t-25 160v30q0 103 32.5 179
t86 126t122 74.5t140.5 24.5q71 0 139.5 -25t122 -75.5t86.5 -127t33 -180.5q0 -108 -30.5 -189.5t-82.5 -136t-120.5 -82t-144.5 -28.5l-48 -40q44 -4 91.5 -19t94 -31.5t89.5 -30t78 -13.5q7 0 13 0.5t11 3.5q-37 1 -62.5 26t-25.5 61q0 18 7 34t19.5 28t29 19t35.5 7
q42 0 66 -26t25 -59zM220 418q1 -87 18.5 -155t46 -115.5t64 -72.5t72.5 -25t72.5 25t63.5 72.5t45.5 116t18.5 154.5q-1 86 -18.5 153t-45.5 113.5t-63 71t-72 24.5t-73 -24t-64.5 -70t-46 -113.5t-18.5 -154.5z" />
    <glyph glyph-name="R" unicode="R" horiz-adv-x="816" 
d="M717 59q6 -9 18 -13t24 -8.5t21 -12.5t9 -25h-241l-216 332q-23 0 -42 0.5t-27 1.5v-281q3 -8 13 -11.5t20.5 -7t19 -11t8.5 -23.5h-302q0 16 8.5 23.5t19.5 11t20.5 7t12.5 11.5q1 176 0.5 349.5t0.5 349.5q0 11 -9.5 15.5t-21.5 8t-21.5 11t-9.5 24.5q57 6 106 11t96 8
t95 5t103 2q72 0 126 -20.5t90 -55.5t54 -81t18 -98q0 -39 -11 -76.5t-33.5 -69.5t-56 -56.5t-78.5 -37.5zM417 398q29 7 50 25t35 43.5t21 56t7 62.5q0 36 -8.5 70.5t-25 62.5t-40.5 46.5t-56 21.5q-17 2 -38.5 2h-43.5h-54q0 -99 -0.5 -196.5t-0.5 -196.5q9 0 33 0.5t50 1
t47 1t24 0.5z" />
    <glyph glyph-name="S" unicode="S" horiz-adv-x="714" 
d="M375 500q51 -26 105 -52.5t98.5 -60t73 -76t28.5 -100.5q0 -67 -31.5 -109.5t-79.5 -66.5t-106 -33t-111 -9q-44 0 -83 5.5t-75 15.5t-71 24.5t-71 31.5q0 20 -3.5 57.5t-7.5 78t-7.5 78t-3.5 57.5q0 3 3 3q4 0 5 -4q13 -29 27.5 -61t31.5 -63.5t38 -60.5t47 -50.5
t58.5 -34.5t71.5 -13q38 0 70.5 10t56 27.5t36.5 40.5t13 50q0 20 -9.5 37.5t-29.5 34.5t-51.5 34.5t-75.5 38.5q-49 23 -101 47.5t-94.5 57t-69.5 75.5t-27 102t26.5 101t68.5 70t93.5 41t102.5 13q44 0 83 -3.5t75 -11t71.5 -19.5t71.5 -29q0 -20 2.5 -51t6 -64t6 -64
t2.5 -51q-1 -3 -4 -3t-4 4q-19 44 -41.5 87t-53 76.5t-72.5 54.5t-101 21q-33 0 -61 -10t-48 -26.5t-31.5 -38.5t-11.5 -47q0 -30 13 -53t35.5 -41.5t52 -34.5t63.5 -33z" />
    <glyph glyph-name="T" unicode="T" horiz-adv-x="810" 
d="M749 836q0 -45 4 -80t8.5 -68t8 -66.5t3.5 -75.5q-1 -3 -3 -3q-4 0 -5 4q-16 41 -30.5 73.5t-31 59t-36 49.5t-46.5 45h-130q-2 -6 -2.5 -17t-0.5 -24v-684q5 -6 14.5 -9t19.5 -6.5t17.5 -11t7.5 -22.5h-300q0 15 7.5 22.5t17.5 11t20 6.5t14 10q1 171 1 340.5t2 340.5
v23.5t-3 19.5h-122q-27 -22 -46.5 -45t-36 -49.5t-30.5 -59t-31 -73.5q-1 -4 -5 -4q-3 0 -3 3q0 42 2.5 75.5t6 66.5t6.5 68t3 80h699z" />
    <glyph glyph-name="U" unicode="U" horiz-adv-x="753" 
d="M735 811q0 -17 -9.5 -24.5t-21.5 -11t-21.5 -8t-9.5 -15.5v-345q0 -78 -9 -152.5t-38 -132.5t-84.5 -93.5t-148.5 -35.5q-98 0 -160.5 33.5t-98 91.5t-48.5 134.5t-13 163.5q0 85 0.5 168t0.5 168q0 11 -9.5 15.5t-21.5 8t-21.5 11t-9.5 24.5l242 26q0 -109 -0.5 -216
t-0.5 -215q0 -29 0.5 -66.5t4.5 -76.5t13.5 -76.5t28 -67t47.5 -47.5t71 -19q45 0 76.5 17.5t52.5 46t33.5 65.5t19 77t8 79.5t1.5 72.5v426z" />
    <glyph glyph-name="V" unicode="V" horiz-adv-x="742" 
d="M742 836q0 -2 -1 -3l-328 -833h-72l-270 752q-5 10 -16.5 14t-23.5 8.5t-21.5 12t-9.5 24.5l252 26l187 -604l179 477q0 24 -6 35.5t-13 19.5t-13 17.5t-6 28.5l162 26v-1z" />
    <glyph glyph-name="W" unicode="W" horiz-adv-x="1161" 
d="M1161 836q0 -2 -1 -3l-328 -833h-73l-165 463l-181 -463h-72l-270 752q-5 10 -16.5 14t-23.5 8.5t-21.5 12t-9.5 24.5l252 26l187 -604l120 328l-69 191q-5 10 -16.5 14t-23.5 8.5t-21.5 12t-9.5 24.5h348q0 -17 -9 -24.5t-21 -12t-23.5 -8t-16.5 -13.5l161 -520l179 477
q0 24 -6 35.5t-13 19.5t-13 17.5t-6 28.5l162 26v-1z" />
    <glyph glyph-name="X" unicode="X" horiz-adv-x="827" 
d="M754 59q6 -9 18 -13t24 -8.5t21 -12t9 -25.5h-241q-58 89 -113.5 177t-111.5 176q-29 -36 -65 -80.5t-68 -86t-54 -73.5t-22 -42q0 -16 9.5 -23t21.5 -12.5t21.5 -12.5t9.5 -23h-213q0 2 0.5 2t1.5 2l322 405q-54 86 -109 171.5t-112 171.5q-6 9 -18 13t-23.5 8.5
t-20.5 12.5t-9 25l226 26q54 -85 108.5 -170.5t110.5 -173.5l37.5 50t34 45.5t38 52t50.5 69.5q0 24 -5 35.5t-10.5 19.5t-10.5 17t-5 29l197 26q0 -2 -0.5 -2t-1.5 -2l-289 -396q61 -97 121.5 -191.5t120.5 -186.5z" />
    <glyph glyph-name="Y" unicode="Y" horiz-adv-x="794" 
d="M794 837q0 -2 -0.5 -2t-1.5 -2l-289 -438q0 -58 -0.5 -94.5t-1 -70t-0.5 -74v-106.5q4 -7 14 -10t20 -6.5t18 -11t8 -22.5h-300q0 17 8.5 24.5t19.5 11t20.5 7.5t11.5 13q0 91 1.5 172t2.5 168q-25 40 -58 85.5t-67.5 92.5t-68 92.5t-60.5 85.5q-6 9 -18 13t-23.5 8.5
t-20.5 12.5t-9 25l240 26q56 -87 114.5 -183.5t115.5 -188.5q21 30 38.5 56t36 54t40 60t49.5 75q0 24 -4.5 35.5t-10.5 19.5t-10.5 17t-4.5 29z" />
    <glyph glyph-name="Z" unicode="Z" horiz-adv-x="765" 
d="M723 199q1 0 1.5 0.5t1.5 0.5t1 -1l-38 -199h-667v41l476 732h-285q-19 -12 -34.5 -25t-30 -29t-28.5 -36t-29 -46q-1 -1 -2 -1q-2 0 -2 2l38 199h611q0 -13 -1 -20.5t-3 -13t-6 -11t-10 -14.5l-466 -715h342q38 25 69.5 54.5t61.5 81.5z" />
    <glyph glyph-name="bracketleft" unicode="[" horiz-adv-x="306" 
d="M47 891q56 0 110.5 -0.5t111.5 -0.5v-37l-129 -10v-854h129v-48h-222v950z" />
    <glyph glyph-name="backslash" unicode="\" horiz-adv-x="469" 
d="M340 -36l-379 914h79l380 -914h-80z" />
    <glyph glyph-name="bracketright" unicode="]" horiz-adv-x="319" 
d="M27 890q56 0 110.5 0.5t111.5 0.5v-950h-222v48h129v854l-129 10v37z" />
    <glyph glyph-name="asciicircum" unicode="^" horiz-adv-x="336" 
d="M324 658h-45l-115 57l-111 -57h-41l133 154h39z" />
    <glyph glyph-name="underscore" unicode="_" horiz-adv-x="644" 
d="M590 -7v-67h-558v67h558z" />
    <glyph glyph-name="grave" unicode="`" horiz-adv-x="257" 
d="M87 839l139 -156l-20 -25l-182 96z" />
    <glyph glyph-name="a" unicode="a" 
d="M333 622q73 0 117.5 -25.5t68.5 -67t31.5 -94.5t7.5 -108q0 -49 -3 -95t-3 -84q0 -31 4 -54.5t15 -34.5q5 -5 13.5 -8.5t16 -8t13 -12t5.5 -20.5q0 -2 -0.5 -4.5t-0.5 -5.5h-54q-48 0 -91 22t-64 60q-27 -43 -67 -66t-103 -23q-55 0 -96.5 16.5t-68.5 43.5t-40.5 62.5
t-13.5 72.5q0 42 16.5 83.5t49 74.5t80.5 53.5t111 20.5q28 0 59.5 -11t47.5 -25q1 12 1.5 25t0.5 27q0 26 -3 51.5t-13 45.5t-27.5 33t-46.5 13q-23 0 -45.5 -8t-40.5 -26t-31 -47.5t-16 -72.5q-12 -5 -26.5 -8.5t-28.5 -3.5q-30 0 -54 14.5t-24 47.5q0 24 16.5 50
t52.5 47.5t94 35.5t140 14zM378 253q-2 55 -27 82.5t-57 27.5q-16 0 -32.5 -7.5t-29.5 -21.5t-21 -35.5t-8 -49.5t0.5 -61.5t8 -63t25 -49t50.5 -19.5q24 0 41.5 11t29 29.5t16.5 42t5 48.5v36t-1 30z" />
    <glyph glyph-name="b" unicode="b" horiz-adv-x="656" 
d="M356 620q67 -1 117.5 -28t84 -70.5t50.5 -99.5t17 -114q0 -59 -17.5 -115.5t-52 -101t-87 -71.5t-123.5 -27q-50 0 -94.5 19.5t-73.5 44.5l-115 -57v745q0 11 -9.5 15t-21.5 8t-21.5 11t-9.5 24l241 34l-2 -266q23 23 52.5 36t64.5 13zM333 44q20 0 39 11.5t34 35
t24.5 59t9.5 83.5t-2.5 108t-2.5 118q0 28 -8 48.5t-21.5 34t-30 20.5t-34.5 7q-19 0 -37.5 -7.5t-33 -21.5t-23.5 -35.5t-9 -50.5v-134.5t1 -133.5q7 -72 33.5 -107t60.5 -35z" />
    <glyph glyph-name="c" unicode="c" horiz-adv-x="606" 
d="M525 200q7 9 17 14.5t19 5.5q19 0 19 -22q0 -26 -12 -61.5t-41.5 -67.5t-80 -54t-127.5 -22q-70 0 -123 25.5t-88 68.5t-52.5 98t-17.5 114t18 116.5t54 103t89.5 73.5t125.5 28q49 0 88.5 -13t67 -34t42.5 -46t15 -49q0 -35 -29.5 -61t-96.5 -26q0 23 -4 54t-14.5 59
t-29.5 47.5t-48 19.5q-24 0 -42.5 -16.5t-32 -44.5t-20.5 -64t-7 -74q0 -42 9 -83.5t28.5 -74.5t49.5 -53.5t72 -20.5q51 0 91.5 17.5t60.5 42.5z" />
    <glyph glyph-name="d" unicode="d" horiz-adv-x="696" 
d="M594 118q3 -27 10 -42t16.5 -22.5t20 -11t19 -7.5t14 -12t5.5 -24q-33 0 -70 1t-70 8.5t-58 25.5t-34 52q-22 -42 -62.5 -67.5t-86.5 -25.5q-67 0 -117 27t-84 71t-51 100.5t-17 114.5q0 59 17.5 115.5t52 101t87 71.5t122.5 27q30 0 60 -8.5t49 -21.5q0 27 -0.5 60
t-0.5 64v30q0 11 -9.5 15t-21.5 8t-21.5 11t-9.5 24l240 34v-719zM416 416q-6 78 -36 116.5t-65 38.5q-20 0 -39 -12t-34 -35.5t-24 -59t-9 -82.5q0 -48 2.5 -109.5t7.5 -118.5q0 -28 8 -49t21.5 -34.5t30 -20t34.5 -6.5q19 0 37.5 7.5t33 22t23.5 36.5t9 51v255z" />
    <glyph glyph-name="e" unicode="e" horiz-adv-x="599" 
d="M527 201q6 8 16 13.5t19 5.5q19 0 19 -22q0 -26 -11.5 -61.5t-41 -67.5t-80 -54t-128.5 -22q-70 0 -123 25.5t-88 68.5t-52.5 98t-17.5 114t18 116.5t54 103t89.5 73.5t125.5 28q55 0 95 -13t66.5 -34t39 -49t12.5 -58q0 -36 -17.5 -72t-56 -64.5t-98 -46.5t-143.5 -18
q17 -57 53.5 -91t96.5 -34q52 0 92.5 17.5t60.5 43.5zM317 567q-31 0 -51.5 -19t-33 -48.5t-17.5 -65t-5 -67.5q0 -17 1.5 -32.5t3.5 -27.5q44 0 76 15t52 39t29.5 53t9.5 57q0 39 -17 67t-48 29z" />
    <glyph glyph-name="f" unicode="f" horiz-adv-x="385" 
d="M285 837q48 0 81 -10.5t53.5 -27t30 -36.5t9.5 -40q0 -34 -20 -59.5t-54 -25.5q-31 0 -59 28q22 21 22 49q0 30 -20.5 47.5t-46.5 17.5q-19 0 -34 -7.5t-25 -19.5t-15 -27.5t-5 -31.5q0 -29 20 -52.5t58 -23.5h65v-42h-85q1 -92 1 -183v-183v-151q0 -11 9.5 -15t21.5 -8
t21.5 -11t9.5 -25h-301q0 16 8.5 23.5t19 11t20 6.5t12.5 11l2 524h-84v42h84q1 44 11 84t33 70t61.5 47.5t95.5 17.5z" />
    <glyph glyph-name="g" unicode="g" horiz-adv-x="676" 
d="M498 81q78 0 119 -32.5t41 -83.5q0 -37 -17 -65t-43.5 -50t-58.5 -38t-63 -28q-9 -4 -19 -4q-24 0 -24 17q0 8 11.5 16.5t25 17.5t25 19.5t11.5 23.5q0 12 -7 19t-17 10.5t-22 4.5t-21 1q-24 0 -52.5 -3.5t-56.5 -7t-54 -7t-45 -3.5q-34 0 -68 8t-60 24.5t-42.5 42
t-16.5 59.5q0 26 11.5 47t30 37.5t42 29t47.5 22.5q-72 31 -107.5 89t-35.5 123q0 46 18 90.5t54 80t89.5 57t125.5 22.5q60 -1 106.5 -17.5t80.5 -45.5q19 11 30.5 32t11.5 44t-14 40t-37 29q18 24 42 35t48 11q35 0 62 -25t27 -70q0 -20 -7 -40t-23 -38t-41.5 -32.5
t-62.5 -23.5q25 -32 37 -70t12 -76q0 -45 -17 -88.5t-51.5 -77t-86 -54t-121.5 -20.5q-19 0 -36.5 1.5t-33.5 3.5q-18 -7 -35.5 -17t-17.5 -29q0 -21 21 -29t49 -8q30 0 60.5 4t60.5 8.5t59 9t56 4.5zM221 361q0 -23 4.5 -53.5t15 -58.5t28 -47t44.5 -19t44 21t27 50
t13.5 60.5t3.5 53.5q0 20 -1 54t-8.5 67t-24.5 57t-48 24q-33 0 -52.5 -22t-29.5 -53.5t-13 -66t-3 -58.5v-9z" />
    <glyph glyph-name="h" unicode="h" horiz-adv-x="679" 
d="M600 59q0 -11 9.5 -15t21.5 -8t21.5 -11t9.5 -25h-236v125v90t-0.5 84t-1.5 107q0 70 -14.5 105.5t-62.5 35.5q-25 0 -52.5 -21.5t-53.5 -61.5v-405q0 -11 9.5 -15.5t21.5 -8t21.5 -11t9.5 -24.5h-303q0 18 9.5 25t21.5 11t21.5 8t9.5 15v693q0 11 -9.5 15.5t-21.5 8
t-21.5 11t-9.5 24.5l242 26v-146t-1 -146q23 28 60.5 51.5t99.5 23.5q59 0 97.5 -19.5t61 -52.5t31.5 -75.5t9 -88.5v-325z" />
    <glyph glyph-name="i" unicode="i" horiz-adv-x="316" 
d="M154 671q-37 0 -62 24.5t-25 59.5t25 59.5t62 24.5q18 0 34 -6.5t27.5 -18t18.5 -27t7 -32.5t-7 -32.5t-18.5 -27t-27.5 -18t-34 -6.5zM0 0q0 17 9 24.5t19.5 11t20.5 7.5t11 13q-1 118 1.5 238t2.5 238q0 11 -9.5 15.5t-21.5 8t-21.5 11t-9.5 24.5l240 26
q-1 -143 -1.5 -283.5t-0.5 -282.5q4 -7 14 -10t20 -7t18 -11.5t8 -22.5h-300z" />
    <glyph glyph-name="j" unicode="j" horiz-adv-x="297" 
d="M240 617q0 -152 -0.5 -302t-0.5 -302q0 -47 -10 -89t-33.5 -74t-62.5 -51t-98 -19h-61q0 18 6.5 25.5t16.5 11.5t21 8t21 14.5t16.5 30.5t6.5 57v597q0 11 -9.5 15.5t-21.5 8t-21.5 11t-9.5 24.5zM147 671q-18 0 -34 6.5t-27.5 18t-18.5 27t-7 32.5t7 32.5t18.5 27
t27.5 18t34 6.5t34 -6.5t27.5 -18t18.5 -27t7 -32.5t-7 -32.5t-18.5 -27t-27.5 -18t-34 -6.5z" />
    <glyph glyph-name="k" unicode="k" horiz-adv-x="667" 
d="M241 287v-228q0 -11 9.5 -15.5t21.5 -8t21.5 -11t9.5 -24.5h-303q0 18 9.5 25t21.5 11t21.5 8t9.5 15v693q0 11 -9.5 15.5t-21.5 8t-21.5 11t-9.5 24.5l242 26q0 -125 -0.5 -247t-0.5 -246l171 160q0 22 -9.5 31.5t-21.5 16t-21.5 14t-9.5 25.5l239 26q0 -1 -2 -3
l-220 -208l229 -347q6 -9 18 -13t23.5 -8.5t20.5 -12t9 -25.5h-240z" />
    <glyph glyph-name="l" unicode="l" horiz-adv-x="345" 
d="M238 151q0 -38 6.5 -59t16 -32t20.5 -15t20.5 -8.5t16 -12t6.5 -25.5h-61q-59 0 -98 19t-62 51t-32 74t-9 88v514q0 11 -9.5 15t-21.5 8t-21.5 11t-9.5 24l239 34v-435v-126.5t-1 -124.5z" />
    <glyph glyph-name="m" unicode="m" horiz-adv-x="1041" 
d="M965 59q0 -11 9.5 -15t21.5 -8t21.5 -11t9.5 -25h-236v125v90t-0.5 84t-1.5 107q0 35 -3.5 61.5t-11.5 44t-23 26.5t-39 9q-21 0 -38.5 -10.5t-32 -25.5t-26 -32.5t-20.5 -31.5q2 -15 3 -31l2 -32v-325q0 -11 9.5 -15t21.5 -8t21.5 -11t9.5 -25h-236v125v90t-0.5 84
t-1.5 107q0 70 -14.5 105.5t-62.5 35.5q-25 0 -52.5 -21.5t-53.5 -61.5v-413q3 -7 13 -10t20.5 -7t18.5 -11t8 -23h-301q0 16 8 23t18.5 11t20.5 7.5t13 10.5l3 480q0 11 -9.5 15.5t-21.5 8t-21.5 11t-9.5 24.5l240 26v-71q23 27 60.5 50.5t99.5 23.5q76 0 118 -31t61 -80
q11 16 25.5 35.5t36 36t52 28t72.5 11.5q59 0 97.5 -19.5t61 -52.5t31 -75.5t8.5 -88.5v-56v-45.5t0.5 -42.5t0.5 -46.5v-57.5v-77z" />
    <glyph glyph-name="n" unicode="n" horiz-adv-x="674" 
d="M600 59q0 -11 9.5 -15.5t21.5 -8t21.5 -11t9.5 -24.5h-236v125v90t-0.5 83.5t-1.5 106.5q0 70 -14.5 106t-62.5 36q-25 0 -52.5 -21.5t-52.5 -60.5q-1 -105 -1.5 -207.5t-0.5 -207.5q4 -7 14 -10t20 -6.5t18 -11t8 -22.5h-300q0 17 9 24.5t19.5 11t20.5 7.5t11 13
q-1 118 1.5 238t2.5 238q0 11 -9.5 15t-21.5 8t-21.5 11t-9.5 25l240 25v-70q11 14 26 27t34 23.5t43.5 17t55.5 6.5q59 0 97.5 -19.5t61 -52.5t31.5 -75.5t9 -88.5v-325z" />
    <glyph glyph-name="o" unicode="o" horiz-adv-x="613" 
d="M315 620q68 -1 118.5 -28.5t85 -72t51.5 -101t17 -115.5q0 -58 -17 -114t-51 -99.5t-86 -70t-121 -26.5q-71 0 -124.5 25.5t-89 68t-53 97.5t-17.5 115q0 59 18 116.5t54 102.5t89.5 73t125.5 29zM309 42q17 0 32.5 10t28 27.5t20 42t7.5 52.5v68t-0.5 73t-0.5 72.5v66.5
q0 26 -7.5 47.5t-19 36.5t-26 23.5t-28.5 8.5q-16 0 -33 -8t-30 -23t-21.5 -37.5t-8.5 -51.5q0 -31 -1 -67l-2 -72t-2 -71.5t-1 -65.5q0 -28 8 -52.5t21 -42t29.5 -27.5t34.5 -10z" />
    <glyph glyph-name="p" unicode="p" horiz-adv-x="647" 
d="M344 620q68 -1 118.5 -28.5t85 -72t51.5 -101t17 -115.5q0 -58 -17 -114t-51 -99.5t-86 -70t-121 -26.5q-65 0 -100 28v-183q0 -11 9.5 -15t21.5 -7.5t21.5 -11t9.5 -24.5h-303q0 17 9.5 24.5t21.5 11t21.5 8t9.5 15.5v693q0 11 -9.5 15.5t-21.5 8t-21.5 11t-9.5 24.5
l242 25v-31q18 16 43 25t59 10zM338 42q17 0 32.5 10t28 27.5t20 42t7.5 52.5v68t-0.5 73t-0.5 72.5v66.5q0 26 -7 47.5t-19 36.5t-28 23.5t-34 8.5q-16 0 -32.5 -8t-29 -23t-20.5 -37.5t-8 -51.5q0 -31 -0.5 -67t-0.5 -72t-0.5 -71.5t-0.5 -65.5q0 -28 8 -52.5t21 -42
t29.5 -27.5t34.5 -10z" />
    <glyph glyph-name="q" unicode="q" horiz-adv-x="652" 
d="M583 -161q0 -11 10 -15.5t21.5 -8t21 -11t9.5 -24.5h-302q0 17 9.5 24.5t21 11t21.5 7.5t10 15v183q-36 -28 -98 -28q-70 0 -122.5 26t-87 69.5t-51.5 99.5t-17 115t17 115.5t51.5 101t85.5 72t119 28.5q52 -1 84.5 -22.5t50.5 -56.5q14 23 31.5 37.5t42.5 23t59.5 12
t81.5 3.5q0 -18 -5.5 -26.5t-13 -13.5t-17 -10t-17 -17t-13 -33.5t-5.5 -59.5q0 -155 0.5 -310t1.5 -308zM307 42q18 0 34.5 10t29.5 27.5t21 42t8 52.5v65.5t-0.5 71.5t-0.5 72v67q0 29 -8 51.5t-20.5 37.5t-28.5 23t-33 8q-18 0 -34 -8.5t-28 -23.5t-19 -36.5t-7 -47.5
q0 -31 -0.5 -66.5t-0.5 -72.5t-0.5 -73t-0.5 -68q0 -28 7.5 -52.5t20 -42t28.5 -27.5t32 -10z" />
    <glyph glyph-name="r" unicode="r" horiz-adv-x="601" 
d="M408 620q47 0 81 -12.5t55.5 -33t31.5 -46t10 -51.5q0 -23 -7.5 -45t-21.5 -38.5t-33.5 -26.5t-44.5 -10q-37 0 -64 28q17 15 26 40.5t9 51.5q0 33 -17 58.5t-56 25.5q-43 0 -70 -27.5t-41.5 -67.5t-19.5 -85.5t-5 -81.5l-0.5 -17t-0.5 -43v-56.5v-58.5v-48.5v-25.5
q4 -7 14 -10t20 -6.5t18 -11t8 -22.5h-300q0 17 9 24.5t19.5 11t20.5 7.5t11 13q-1 118 1.5 238t2.5 238q0 11 -9.5 15t-21.5 8t-21.5 11t-9.5 25l240 25v-83q28 41 72.5 64t93.5 23z" />
    <glyph glyph-name="s" unicode="s" horiz-adv-x="544" 
d="M213 484q0 -31 23 -54.5t57 -43.5t74 -40.5t74 -46t57 -59t23 -79.5q0 -52 -24.5 -85t-62 -51.5t-82 -25t-85.5 -6.5q-47 0 -92 8.5t-80 26.5t-56 44.5t-21 62.5q0 39 25.5 68.5t69.5 29.5q18 0 35.5 -6.5t31.5 -21.5q-16 -9 -24.5 -31.5t-8.5 -44.5t8 -39.5t21.5 -28.5
t30.5 -17t34 -6t33.5 5t29.5 16t20.5 27.5t7.5 39.5q0 32 -22 54t-55.5 40.5t-72.5 37t-72.5 44.5t-55.5 62t-22 90q0 45 22.5 76.5t57.5 51t78.5 28.5t85.5 9q61 0 104 -12.5t70 -32t39.5 -44.5t12.5 -49q0 -40 -25 -70.5t-69 -30.5q-20 0 -41 10t-38 33q21 11 31 31t10 42
q0 39 -22 60t-51 21q-31 0 -57 -22t-27 -71z" />
    <glyph glyph-name="t" unicode="t" horiz-adv-x="370" 
d="M359 576h-102v-426q0 -38 6.5 -59t16 -31.5t20.5 -15t20.5 -8.5t16 -11.5t6.5 -25.5h-61q-59 0 -98 19t-62 50.5t-32.5 74t-9.5 88.5v172.5t1 172.5h-71v42q30 10 56 20t49.5 23t46 29.5t45.5 39.5l50 6v-118h102v-42z" />
    <glyph glyph-name="u" unicode="u" horiz-adv-x="684" 
d="M425 0v76q-11 -15 -26 -30t-34.5 -26.5t-45 -19t-58.5 -7.5q-59 0 -97.5 20t-61 53.5t-31.5 76.5t-9 89v300q0 11 -9.5 15t-21.5 8t-21.5 11t-9.5 25l236 25v-125v-90t0.5 -83.5t0.5 -106.5q0 -34 2.5 -61t10.5 -46t23 -28.5t40 -9.5q27 0 56.5 24.5t56.5 70.5
q1 94 2 186.5t1 184.5q0 11 -9.5 15t-21.5 8t-21.5 11t-9.5 25l241 25q1 -141 -1.5 -278.5t-2.5 -278.5q0 -11 9.5 -15.5t21.5 -8t21.5 -11t9.5 -24.5h-241z" />
    <glyph glyph-name="v" unicode="v" horiz-adv-x="687" 
d="M687 615l-2 -2l-328 -613h-29l-257 532q-5 10 -16.5 14t-23.5 8t-21.5 11.5t-9.5 25.5l241 25l174 -391l105 261q0 27 -8 37t-17.5 16.5t-17.5 16t-8 35.5l218 25v-1z" />
    <glyph glyph-name="w" unicode="w" horiz-adv-x="1049" 
d="M1049 616q0 -2 -0.5 -1.5t-1.5 -1.5l-328 -613h-22q-42 91 -81.5 173.5t-80.5 167.5l-178 -341h-22l-264 532q-5 10 -16.5 14t-23.5 8t-21.5 11.5t-9.5 25.5l241 25l174 -391l94 172l-64 135q-5 10 -14.5 14t-19.5 8t-17 11.5t-7 25.5h305q0 -16 -8.5 -24t-18 -12t-18 -7
t-8.5 -11v-2l138 -310l105 261q0 27 -8 37t-18 16.5t-18 16t-8 35.5z" />
    <glyph glyph-name="x" unicode="x" horiz-adv-x="702" 
d="M618 59q7 -9 19 -13t24 -8.5t20.5 -12.5t8.5 -25h-241q-43 61 -84 121.5t-82 120.5q-18 -22 -34 -41t-27 -38t-17.5 -38t-6.5 -42q0 -18 4 -38.5t15 -44.5h-217q0 1 2 3q62 72 125 141.5t126 141.5q-22 34 -42 63.5t-39.5 59t-40.5 59.5t-45 64q-6 9 -18 12.5t-24 8
t-20.5 12.5t-8.5 26l221 25q42 -58 81 -115.5t78 -115.5l73 86q9 13 12.5 23.5t3.5 20.5q0 12 -4.5 22.5t-10 19.5t-11 17.5t-7.5 16.5l217 26v-1q0 -1 -1 -2l-243 -272q48 -71 95.5 -141.5t98.5 -141.5z" />
    <glyph glyph-name="y" unicode="y" horiz-adv-x="687" 
d="M687 615q0 -1 -1 -2q-80 -148 -156.5 -294.5t-154.5 -294.5q-24 -46 -51.5 -89.5t-60 -77.5t-70 -54.5t-81.5 -20.5q-27 0 -47.5 9t-34 23.5t-20 33t-6.5 37.5q0 18 6 35t18 30.5t29.5 22t40.5 8.5q0 -16 4 -32t12.5 -29t21.5 -21t32 -8q32 0 54 12t38.5 31.5t29 44
t25.5 48.5l-244 505q-5 10 -16.5 14t-23.5 8t-21.5 11.5t-9.5 25.5l241 25l174 -391l105 261q0 27 -8 37t-17.5 16.5t-17.5 16t-8 35.5l218 25v-1z" />
    <glyph glyph-name="z" unicode="z" horiz-adv-x="609" 
d="M596 199q1 1 2 1l1 -1l-37 -199h-553v41l346 534h-177q-38 -25 -71.5 -65.5t-64.5 -92.5q-1 -1 -2 -1q-2 0 -2 2l38 198h492q0 -13 -1 -20t-3 -12.5t-6 -11t-10 -14.5l-335 -516h238q38 24 76 64.5t69 92.5z" />
    <glyph glyph-name="braceleft" unicode="{" horiz-adv-x="393" 
d="M345 852q-63 0 -91.5 -25t-28.5 -85q0 -22 2 -46t2 -45q0 -82 -27 -140t-91 -95q37 -16 60.5 -41t37 -56.5t18.5 -67.5t5 -75q0 -31 -1.5 -60t-1.5 -49q0 -28 4 -45.5t16 -27.5t35 -14t61 -4v-35q-79 0 -122 6t-63.5 26t-24 59.5t-3.5 106.5q0 55 -1.5 90t-5.5 58
t-11.5 37t-20 27t-30.5 28.5t-43 40.5q23 23 40 36t29 24.5t19.5 25.5t12 39t6 65t1.5 104q0 56 4.5 90.5t25.5 53.5t65 25.5t122 6.5v-38z" />
    <glyph glyph-name="bar" unicode="|" horiz-adv-x="227" 
d="M146 878v-914h-79v914h79z" />
    <glyph glyph-name="braceright" unicode="}" horiz-adv-x="375" 
d="M231 693q0 -55 1 -90t5 -58t11.5 -37t20 -27t30.5 -28.5t43 -40.5q-23 -23 -40 -36t-29 -24.5t-19 -25.5t-11.5 -39t-6 -65t-1.5 -104q0 -56 -4.5 -90.5t-25.5 -54t-65 -26t-123 -6.5v35q62 0 91 26t29 86q0 22 -2 46t-2 45q0 84 27 142t91 95q-37 16 -61 41.5t-37 57.5
t-18 69.5t-5 76.5q0 32 1.5 59t1.5 47q0 26 -4 42.5t-16.5 26t-35 13t-60.5 3.5v38q79 0 122.5 -5.5t63.5 -26t24 -59.5t4 -106z" />
    <glyph glyph-name="asciitilde" unicode="~" horiz-adv-x="691" 
d="M658 391q-16 -49 -38.5 -82t-49 -52.5t-56 -27.5t-61.5 -8q-42 0 -86 10.5t-85.5 23.5t-79 23.5t-66.5 10.5q-26 0 -43.5 -10.5t-25.5 -37.5l-35 11q13 43 33 71t44.5 44.5t53.5 23.5t60 7q39 0 80 -7.5t81 -16.5t77.5 -16.5t69.5 -7.5t57 11t39 40z" />
    <glyph glyph-name="exclamdown" unicode="&#xa1;" horiz-adv-x="341" 
d="M95 -8q-39 0 -53.5 4t-14.5 27q0 10 2 23.5t5 32.5q9 58 25.5 121.5t32.5 128t28 127t12 117.5h74q0 -53 10.5 -115.5t25 -127.5t29.5 -129.5t24 -121.5q6 -37 6 -55q0 -12 -3 -18.5t-11 -9.5t-21.5 -3.5t-33.5 -0.5h-137zM167 651q-20 0 -37.5 7.5t-30.5 20t-20.5 29.5
t-7.5 36q0 20 7.5 37t20.5 29.5t30.5 20t37.5 7.5t37.5 -7.5t31 -20t21 -29.5t7.5 -37q0 -19 -7.5 -36t-21 -29.5t-31 -20t-37.5 -7.5z" />
    <glyph glyph-name="cent" unicode="&#xa2;" horiz-adv-x="606" 
d="M342 736v-117q45 -2 81.5 -16t62 -34t39 -44t13.5 -47q0 -35 -29.5 -61t-96.5 -26q0 20 -3 47t-11 52.5t-21.5 46t-34.5 29.5v-422q8 -2 15.5 -3t15.5 -1q51 0 91.5 17.5t60.5 42.5q7 9 17 14.5t19 5.5q19 0 19 -22q0 -25 -11 -59t-38 -65t-73 -54t-116 -26v-80h-59v81
q-61 6 -107 34t-77 70t-46 94t-15 106q0 55 15.5 108t46 96.5t76.5 73.5t107 39v120h59zM283 561q-16 -10 -29 -29.5t-22 -44.5t-13.5 -55t-4.5 -61q0 -56 16.5 -110.5t52.5 -86.5v387z" />
    <glyph glyph-name="sterling" unicode="&#xa3;" horiz-adv-x="827" 
d="M742 103q8 12 20 12q7 0 12 -5t5 -13q0 -2 -2 -10q-13 -34 -33 -55t-45 -33t-55 -16.5t-64 -4.5q-45 0 -92.5 7t-97 16.5t-99.5 19.5t-100 16q-29 -23 -62 -37.5t-71 -16.5q-58 0 -58 39q0 28 18.5 51.5t45.5 41t57.5 28.5t54.5 15q15 52 20 112t6 113h-125v48h125v35
q0 96 13.5 178.5t53 143t110.5 94.5t186 34q63 0 108.5 -19t75 -49t43.5 -67.5t14 -75.5q0 -31 -9 -60t-27 -51t-44 -36t-60 -15q-25 0 -48.5 7t-46.5 25q29 32 46 75t17 85q0 47 -25 80.5t-82 35.5q-52 0 -84 -20t-49.5 -53.5t-23.5 -77t-6 -91.5t3 -95t4 -83h215v-48h-215
q-3 -56 -17.5 -111t-52.5 -112q64 -6 121.5 -19t106.5 -26t89.5 -23t70.5 -10q40 0 53 21zM114 76q-8 0 -18 -5.5t-19.5 -13.5t-16.5 -17.5t-9 -17.5q8 1 18 6.5t19.5 13.5t17 17t8.5 17z" />
    <glyph glyph-name="currency" unicode="&#xa4;" horiz-adv-x="477" 
d="M380 307q0 -30 -9 -52t-25 -39l79 -79l-32 -33l-85 85q-34 -18 -76 -18q-43 0 -80 20l-87 -87l-32 33l81 82q-16 17 -25.5 39.5t-9.5 51.5q0 26 8.5 47t23.5 37l-81 82l32 33l87 -87q18 10 39 14.5t42 4.5q44 0 80 -18l85 86l33 -33l-80 -81q15 -17 23.5 -38.5t8.5 -49.5
zM293 268q28 0 42.5 12t14.5 26t-14 25t-43 11q-27 0 -59 1t-60 -1t-46.5 -9.5t-18.5 -25.5q0 -14 12.5 -25t38.5 -11q31 0 67.5 -1.5t65.5 -1.5z" />
    <glyph glyph-name="yen" unicode="&#xa5;" horiz-adv-x="794" 
d="M794 837q0 -2 -0.5 -2t-1.5 -2l-289 -438v-42t-1 -36h188v-48h-188q0 -17 -0.5 -33.5t-0.5 -33.5h189v-48h-189v-104q4 -7 14 -10t20 -6.5t18 -11t8 -22.5h-300q0 17 8.5 24.5t19.5 11t20.5 7.5t11.5 13v50t1 48h-188v48h189v67h-189v48h190q0 20 0.5 39.5t0.5 39.5
q-25 40 -58 85.5t-67.5 92.5t-68 92.5t-60.5 85.5q-6 9 -18 13t-23.5 8.5t-20.5 12.5t-9 25l240 26q56 -87 114.5 -183.5t115.5 -188.5q21 30 38.5 56t36 54t40 60t49.5 75q0 24 -4.5 35.5t-10.5 19.5t-10.5 17t-4.5 29z" />
    <glyph glyph-name="brokenbar" unicode="&#xa6;" horiz-adv-x="833" 
d="M136 909v-385h-69v385h69zM136 434v-470h-69v470h69z" />
    <glyph glyph-name="section" unicode="&#xa7;" horiz-adv-x="590" 
d="M573 414q0 -36 -14.5 -62t-37.5 -43.5t-52.5 -27t-60.5 -14.5q31 -23 51 -54t20 -73q0 -46 -22.5 -76t-56.5 -46.5t-74.5 -23t-77.5 -6.5q-44 0 -86 7.5t-75 23.5t-53 41t-20 59q0 18 6 34t17.5 29t28 20.5t36.5 7.5q17 0 32.5 -6.5t29.5 -20.5q-15 -8 -23 -29t-8 -41
t7.5 -36t20 -26.5t28 -16t31.5 -5.5t31 5t27 15t19 25t7 36q0 30 -20.5 50t-51.5 37t-66.5 34.5t-66.5 41t-51.5 57t-20.5 83.5q0 33 13 57.5t35 41.5t51 27t60 15q-28 23 -46 55t-18 79q0 42 20.5 71t53 47t72.5 26.5t79 8.5q56 0 95.5 -11.5t64.5 -30t37 -41t12 -45.5
q0 -37 -23.5 -65t-63.5 -28q-20 0 -38.5 9.5t-35.5 29.5q20 11 29.5 29t9.5 38q0 38 -21.5 57t-48.5 19q-13 0 -26.5 -5.5t-24 -16t-17.5 -26.5t-7 -38q0 -29 21 -50.5t52.5 -40t68.5 -38t68.5 -43t52.5 -55t21 -75.5zM344 308q23 8 39 26.5t16 50.5q0 24 -14 41.5
t-36.5 32.5t-50 28.5t-55.5 28.5q-19 -7 -34 -24.5t-15 -50.5q0 -23 13 -40.5t34 -33t48 -29.5t55 -30z" />
    <glyph glyph-name="dieresis" unicode="&#xa8;" horiz-adv-x="417" 
d="M307 823q33 0 56.5 -24t23.5 -58q0 -35 -23.5 -59t-56.5 -24t-56.5 24t-23.5 59q0 34 23.5 58t56.5 24zM100 823q33 0 56 -24t23 -58q0 -35 -23 -59t-56 -24t-56.5 24t-23.5 59q0 34 23.5 58t56.5 24z" />
    <glyph glyph-name="copyright" unicode="&#xa9;" horiz-adv-x="555" 
d="M537 704q0 -50 -20.5 -94t-55.5 -77t-82 -52t-100 -19t-100 19t-82.5 52t-56 77t-20.5 94t20.5 94t55.5 77t82 52t101 19q51 0 97.5 -18t82.5 -50.5t57 -76.5t21 -97zM500 704q0 43 -17 80.5t-47 65t-70.5 43.5t-86.5 16t-86.5 -16t-70.5 -43.5t-47.5 -65t-17.5 -80.5
t17.5 -80.5t48 -65t71 -43.5t85.5 -16q43 0 83 15t70.5 42.5t49 65t18.5 82.5zM295 821q-17 0 -30 -10.5t-22 -27t-13.5 -38t-4.5 -43.5q0 -21 4 -41.5t12.5 -36t21 -25.5t29.5 -10q16 0 30 7.5t25 19t20 25.5t15 27q0 -13 -1 -31.5t-1 -31.5q-23 -11 -46.5 -22t-51.5 -11
q-30 0 -52 11.5t-37 30t-22.5 42t-7.5 48.5t7.5 49t22.5 43t37 30.5t52 11.5q28 0 49.5 -7t44.5 -18q0 -6 1 -17.5t2 -24.5t2 -25t1 -18l-1 -1q-7 14 -14 30.5t-17 30.5t-23 23.5t-32 9.5z" />
    <glyph glyph-name="ordfeminine" unicode="&#xaa;" horiz-adv-x="296" 
d="M154 838q33 0 52.5 -11.5t30 -30t14 -42.5t3.5 -48q0 -21 -1.5 -41.5t-1.5 -37.5q0 -22 4.5 -31t10.5 -12.5t10.5 -6.5t4.5 -13v-4h-24q-22 0 -41 10t-29 27q-12 -20 -29.5 -30t-45.5 -10q-50 0 -74 26.5t-24 60.5q0 19 7.5 37.5t22 33.5t36 24t49.5 9q12 0 26 -5t21 -11
q0 5 0.5 11.5t0.5 13.5q0 11 -1.5 22t-6 20t-12 14.5t-20.5 5.5q-9 0 -19.5 -3.5t-19 -12t-14.5 -21.5t-6 -32q-12 -5 -24 -5q-14 0 -25 6.5t-11 20.5q0 11 7.5 23t24 21.5t42.5 15.5t62 6zM174 673q0 25 -12.5 37t-26.5 12t-26.5 -13t-12.5 -38v-26q0 -22 7 -41t30 -19
q22 0 31.5 18t9.5 41v29z" />
    <glyph glyph-name="guillemotleft" unicode="&#xab;" horiz-adv-x="457" 
d="M250 166v-85l-210 169v52l210 167v-80l-158 -112zM401 166v-85l-210 174v43l210 171v-80l-158 -112z" />
    <glyph glyph-name="registered" unicode="&#xae;" horiz-adv-x="576" 
d="M547 704q0 -50 -20.5 -94t-55.5 -77t-82 -52t-100 -19t-100 19t-82.5 52t-56 77t-20.5 94t20.5 94t55.5 77t82 52t101 19q51 0 97.5 -18t82.5 -50.5t57 -76.5t21 -97zM510 704q0 43 -17 80.5t-47 65t-70.5 43.5t-86.5 16t-86.5 -16t-70.5 -43.5t-47.5 -65t-17.5 -80.5
t17.5 -80.5t48 -65t71 -43.5t85.5 -16q43 0 83 15t70.5 42.5t49 65t18.5 82.5zM403 592q2 -3 6 -4t7.5 -2.5t6.5 -4t3 -7.5h-76l-68 104h-13t-8 1q-1 -23 -1 -44.5v-44.5q1 -2 4.5 -3t7 -2.5t6 -3.5t2.5 -7h-95q0 5 2.5 7t6 3.5t6.5 2.5t4 4v219q0 4 -3 5t-6.5 2.5t-6.5 3.5
t-3 8l75 8h58q21 0 36.5 -7t26 -18.5t15.5 -25.5t5 -29q0 -25 -14 -46.5t-42 -29.5zM309 699q18 5 26.5 22t8.5 37q0 30 -14 46.5t-40 16.5h-29v-123h10.5h15.5t14.5 0.5t7.5 0.5z" />
    <glyph glyph-name="plusminus" unicode="&#xb1;" horiz-adv-x="606" 
d="M559 410v-66h-225v-193h-66v193h-224v66h224v200h66v-200h225zM54 102h496l9 -66h-505v66z" />
    <glyph glyph-name="twosuperior" unicode="&#xb2;" horiz-adv-x="370" 
d="M75 699q-20 1 -30.5 13.5t-10.5 29.5q0 15 8.5 32t26.5 31t46 23.5t67 9.5q68 0 104.5 -28t36.5 -68q0 -34 -21 -68t-69 -66q-37 -25 -75.5 -46t-62.5 -42q20 10 35.5 14t29.5 4q19 0 34 -5.5t29.5 -12.5t29 -12.5t32.5 -5.5q17 0 25 9t16 9q10 0 10 -11q0 -4 -1 -6
q-16 -40 -38.5 -52.5t-48.5 -12.5q-17 0 -35.5 4t-38 8.5t-39 8.5t-38.5 4q-18 0 -31 -4t-17 -18h-16q-1 7 -1.5 11.5t-0.5 9.5q1 35 16.5 60t38 45.5t49 38.5t48.5 38.5t37 46t15 60.5q0 26 -13 43.5t-43 17.5q-19 0 -32 -8.5t-20.5 -22t-10.5 -30t-3 -32.5v-9
q-19 -11 -38 -11z" />
    <glyph glyph-name="threesuperior" unicode="&#xb3;" horiz-adv-x="360" 
d="M249 636q40 -14 59.5 -39.5t19.5 -53.5q0 -20 -10 -39t-30.5 -34t-50.5 -24.5t-70 -9.5t-68.5 9.5t-47 24t-27 31.5t-8.5 33q0 17 10.5 29.5t30.5 14.5q17 0 38 -11q0 -4 -0.5 -7t-0.5 -7q0 -50 22.5 -70t51.5 -20q18 0 31.5 7t23 18.5t14 25.5t4.5 29q0 14 -4.5 28.5
t-14 25.5t-23 18t-31.5 7h-17q0 16 3.5 21.5t13.5 5.5q34 0 50.5 25t16.5 56q0 30 -16.5 55t-50.5 25q-28 0 -46 -18.5t-18 -62.5v-9t1 -9q-8 -5 -16 -7t-15 -2q-23 0 -35.5 12t-12.5 32q0 15 8 31t25 29.5t43.5 22t63.5 8.5q39 0 68.5 -9t49 -24t29.5 -34.5t10 -39.5
q0 -28 -18.5 -53.5t-55.5 -40.5z" />
    <glyph glyph-name="acute" unicode="&#xb4;" horiz-adv-x="254" 
d="M226 754l-182 -96l-20 25l139 156z" />
    <glyph glyph-name="cedilla" unicode="&#xb8;" horiz-adv-x="361" 
d="M216 -25q27 0 47 -9.5t33 -25t19.5 -36t6.5 -42.5q0 -27 -9.5 -54t-27.5 -48.5t-44.5 -35.5t-61.5 -14q-42 0 -68.5 12.5t-41.5 31.5t-20 41t-5 41q0 11 1.5 19.5t3.5 12.5q14 -31 41.5 -48t55.5 -17q36 0 53.5 23.5t17.5 50.5q0 23 -12.5 41t-36.5 18h-9t-9 -2l3 78h8
t12.5 -0.5t12 -0.5h6.5q0 -11 -0.5 -20t-0.5 -20q8 4 19 4h6z" />
    <glyph glyph-name="onesuperior" unicode="&#xb9;" horiz-adv-x="178" 
d="M12 441q0 8 4 11t9.5 5t10 3.5t5.5 5.5v304q0 7 -4.5 10t-10 4.5t-10 4t-4.5 9.5l114 39v-372q2 -4 6.5 -5.5t9.5 -3t9 -4.5t4 -11h-143z" />
    <glyph glyph-name="ordmasculine" unicode="&#xba;" horiz-adv-x="378" 
d="M189 833q38 0 66.5 -17t48 -45t29 -63t9.5 -72q0 -36 -9.5 -70.5t-29 -61.5t-48.5 -43.5t-68 -16.5q-40 0 -70 16t-49.5 42t-29.5 60.5t-10 71.5t10 72.5t30.5 63.5t50.5 45.5t70 17.5zM186 474q18 0 33.5 23.5t15.5 58.5q0 37 1.5 80t-1.5 80t-13 61.5t-33 24.5
q-19 0 -35.5 -19.5t-16.5 -54.5q0 -40 -2 -87t-2 -85q0 -35 16.5 -58.5t36.5 -23.5z" />
    <glyph glyph-name="guillemotright" unicode="&#xbb;" horiz-adv-x="452" 
d="M349 277l-156 112v80l208 -167v-52l-210 -169v85zM198 277l-156 112v80l208 -171v-43l-210 -174v85z" />
    <glyph glyph-name="onequarter" unicode="&#xbc;" horiz-adv-x="553" 
d="M493 40q2 -4 6.5 -5.5t9.5 -3t9 -4.5t4 -11h-143q0 8 4 11t9.5 5t10 3.5t5.5 5.5v73h-150q-1 -10 -10 -10.5t-23 -0.5v18q0 28 12 52.5t29.5 47.5t38 45.5t38.5 45.5t30.5 47.5t12.5 52.5h101v-10q0 -41 -29 -76t-67.5 -67t-75 -62t-51.5 -61h144q-1 8 0 19t1 27
q0 7 -4.5 10t-10.5 4.5t-10.5 4t-4.5 9.5l115 85v-53t-0.5 -39.5t-0.5 -33v-33.5h11q9 0 13.5 -3.5t4.5 -7.5q0 -11 -18 -11h-11v-74zM414 823l-325 -825h-56l325 825h56zM12 441q0 8 4 11t9.5 5t10 3.5t5.5 5.5v304q0 7 -4.5 10t-10 4.5t-10 4t-4.5 9.5l114 39v-372
q2 -4 6.5 -5.5t9.5 -3t9 -4.5t4 -11h-143z" />
    <glyph glyph-name="onehalf" unicode="&#xbd;" horiz-adv-x="610" 
d="M94 -2h-56l325 825h56zM328 275q-20 1 -30.5 13.5t-10.5 29.5q0 15 8.5 32t26.5 31t46 23.5t67 9.5q68 0 104.5 -28t36.5 -68q0 -34 -21 -68t-69 -66q-37 -25 -75.5 -46t-62.5 -42q20 10 35.5 14t29.5 4q19 0 34 -5.5t29.5 -12.5t29 -12.5t32.5 -5.5q17 0 25 9t16 9
q10 0 10 -11q0 -4 -1 -6q-16 -40 -38.5 -52.5t-48.5 -12.5q-17 0 -35.5 4t-38 8.5t-39 8.5t-38.5 4q-18 0 -31 -4t-17 -18h-16q-1 7 -1.5 11.5t-0.5 9.5q1 35 16.5 60t38 45.5t49 38.5t48.5 38.5t37 46t15 60.5q0 26 -13 43.5t-43 17.5q-19 0 -32 -8.5t-20.5 -22t-10.5 -30
t-3 -32.5v-9q-19 -11 -38 -11zM17 798l114 25v-358q2 -4 6.5 -5.5t9.5 -3t9 -4.5t4 -11h-143q0 8 4 11t9.5 5t10 3.5t5.5 5.5v304q0 7 -4.5 10t-10 4.5t-10 4t-4.5 9.5z" />
    <glyph glyph-name="threequarters" unicode="&#xbe;" horiz-adv-x="711" 
d="M249 636q40 -14 59.5 -39.5t19.5 -53.5q0 -20 -10 -39t-30.5 -34t-50.5 -24.5t-70 -9.5t-68.5 9.5t-47 24t-27 31.5t-8.5 33q0 17 10.5 29.5t30.5 14.5q17 0 38 -11q0 -4 -0.5 -7t-0.5 -7q0 -50 22.5 -70t51.5 -20q18 0 31.5 7t23 18.5t14 25.5t4.5 29q0 14 -4.5 28.5
t-14 25.5t-23 18t-31.5 7h-17q0 16 3.5 21.5t13.5 5.5q34 0 50.5 25t16.5 56q0 30 -16.5 55t-50.5 25q-28 0 -46 -18.5t-18 -62.5v-9t1 -9q-8 -5 -16 -7t-15 -2q-23 0 -35.5 12t-12.5 32q0 15 8 31t25 29.5t43.5 22t63.5 8.5q39 0 68.5 -9t49 -24t29.5 -34.5t10 -39.5
q0 -28 -18.5 -53.5t-55.5 -40.5zM640 40q2 -4 6.5 -5.5t9.5 -3t9 -4.5t4 -11h-143q0 8 4 11t9 5t10 3.5t6 5.5v73h-151q-1 -10 -9.5 -10.5t-22.5 -0.5v18q0 28 12 52.5t29.5 47.5t38 45.5t38.5 45.5t30 47.5t12 52.5h101v-10q0 -41 -29 -76t-67.5 -67t-75 -62t-51.5 -61h145
v46q0 7 -4.5 10t-10 4.5t-10 4t-4.5 9.5l114 85v-159h11q8 0 12.5 -3.5t4.5 -7.5q0 -11 -17 -11h-11v-74zM563 823l-325 -825h-56l325 825h56z" />
    <glyph glyph-name="questiondown" unicode="&#xbf;" horiz-adv-x="565" 
d="M287 -7q-50 0 -98 9.5t-86 31t-61 57t-23 86.5q0 37 14.5 68t36 59.5t47 56.5t47 59.5t36 67.5t14.5 81h69q0 -66 -13.5 -113t-29.5 -87.5t-29.5 -79.5t-14.5 -88q0 -32 7.5 -57t20 -42t29 -25.5t33.5 -8.5q16 0 31 7.5t27 21.5t19 33.5t7 43.5q0 37 -13 73t-33 59
q23 18 46.5 26.5t45.5 8.5q27 0 49 -12t38 -31.5t24.5 -45.5t9.5 -54q0 -36 -13 -72.5t-43 -65.5t-77.5 -48t-116.5 -19zM252 647q-20 0 -37.5 7.5t-31 20t-21 29.5t-7.5 36t7.5 36t21 29.5t31 20t37.5 7.5t37.5 -7.5t30.5 -20t20.5 -29.5t7.5 -36t-7.5 -36t-20.5 -29.5
t-30.5 -20t-37.5 -7.5z" />
    <glyph glyph-name="Agrave" unicode="&#xc0;" horiz-adv-x="863" 
d="M557 913l-20 -25l-182 96l62 85zM792 59q5 -10 16.5 -14t23.5 -8.5t21.5 -12t9.5 -24.5h-252l-101 254h-262q-5 -13 -17 -41t-24.5 -58t-22 -55.5t-9.5 -31.5q0 -18 10 -23t21.5 -8t21.5 -9.5t10 -27.5h-238q0 18 7.5 24.5t18.5 11t24 13t23 30.5l358 757h29zM486 316
l-88 225l15 113l-142 -338h215z" />
    <glyph glyph-name="Aacute" unicode="&#xc1;" horiz-adv-x="863" 
d="M485 1069l62 -85l-182 -96l-20 25zM792 59q5 -10 16.5 -14t23.5 -8.5t21.5 -12t9.5 -24.5h-252l-101 254h-262q-5 -13 -17 -41t-24.5 -58t-22 -55.5t-9.5 -31.5q0 -18 10 -23t21.5 -8t21.5 -9.5t10 -27.5h-238q0 18 7.5 24.5t18.5 11t24 13t23 30.5l358 757h29zM486 316
l-88 225l15 113l-142 -338h215z" />
    <glyph glyph-name="Acircumflex" unicode="&#xc2;" horiz-adv-x="863" 
d="M601 888h-45l-115 57l-111 -57h-41l133 154h39zM792 59q5 -10 16.5 -14t23.5 -8.5t21.5 -12t9.5 -24.5h-252l-101 254h-262q-5 -13 -17 -41t-24.5 -58t-22 -55.5t-9.5 -31.5q0 -18 10 -23t21.5 -8t21.5 -9.5t10 -27.5h-238q0 18 7.5 24.5t18.5 11t24 13t23 30.5l358 757
h29zM486 316l-88 225l15 113l-142 -338h215z" />
    <glyph glyph-name="Atilde" unicode="&#xc3;" horiz-adv-x="863" 
d="M619 997q-21 -62 -55 -84t-73 -22q-27 0 -54.5 6.5t-53.5 14.5t-49.5 14.5t-41.5 6.5q-16 0 -27 -6.5t-16 -23.5l-22 7q17 54 49 72.5t71 18.5q24 0 50 -4.5t50.5 -10t48 -10t43.5 -4.5t36 7t24 25zM792 59q5 -10 16.5 -14t23.5 -8.5t21.5 -12t9.5 -24.5h-252l-101 254
h-262q-5 -13 -17 -41t-24.5 -58t-22 -55.5t-9.5 -31.5q0 -18 10 -23t21.5 -8t21.5 -9.5t10 -27.5h-238q0 18 7.5 24.5t18.5 11t24 13t23 30.5l358 757h29zM486 316l-88 225l15 113l-142 -338h215z" />
    <glyph glyph-name="Adieresis" unicode="&#xc4;" horiz-adv-x="863" 
d="M553 1045q33 0 56.5 -24t23.5 -58q0 -35 -23.5 -59t-56.5 -24t-56.5 24t-23.5 59q0 34 23.5 58t56.5 24zM346 1045q33 0 56 -24t23 -58q0 -35 -23 -59t-56 -24t-56.5 24t-23.5 59q0 34 23.5 58t56.5 24zM792 59q5 -10 16.5 -14t23.5 -8.5t21.5 -12t9.5 -24.5h-252
l-101 254h-262q-5 -13 -17 -41t-24.5 -58t-22 -55.5t-9.5 -31.5q0 -18 10 -23t21.5 -8t21.5 -9.5t10 -27.5h-238q0 18 7.5 24.5t18.5 11t24 13t23 30.5l358 757h29zM486 316l-88 225l15 113l-142 -338h215z" />
    <glyph glyph-name="Aring" unicode="&#xc5;" horiz-adv-x="863" 
d="M792 59q5 -10 16.5 -14t23.5 -8.5t21.5 -12t9.5 -24.5h-252l-101 254h-262q-5 -13 -17 -41t-24.5 -58t-22 -55.5t-9.5 -31.5q0 -18 10 -23t21.5 -8t21.5 -9.5t10 -27.5h-238q0 18 7.5 24.5t18.5 11t24 13t23 30.5l358 757h29zM486 316l-88 225l15 113l-142 -338h215z
M517 937q0 -32 -22.5 -48t-50.5 -16q-15 0 -29.5 4.5t-26 14.5t-19 24.5t-7.5 33.5q0 32 21.5 48.5t49.5 16.5q29 0 54 -18t30 -54v-6zM406 963q-11 0 -17.5 -6t-6.5 -14t7 -14t21 -6l68 1q11 0 16 6.5t5 12.5q0 8 -6 14t-18 6h-69z" />
    <glyph glyph-name="AE" unicode="&#xc6;" horiz-adv-x="1194" 
d="M1143 290q2 3 4 3q1 0 3 -2q0 -42 -3.5 -75.5t-8 -66.5t-8.5 -68.5t-4 -80.5h-574q0 11 4 18t10.5 10.5t14.5 6t15 4.5l-85 215h-262q-5 -13 -17 -41t-24.5 -58t-22 -55.5t-9.5 -31.5q0 -18 10 -23t21.5 -8t21.5 -9.5t10 -27.5h-238q0 18 7.5 24.5t18.5 11t24 13t23 30.5
l358 757h29l152 -357q-1 69 0 136.5t1 136.5q0 11 -9.5 15.5t-21.5 8t-21.5 11t-9.5 24.5l242 25h332q0 -45 4 -80t8.5 -68t8 -66.5t3.5 -75.5q-1 -3 -3 -3q-3 0 -4 4q-16 41 -30.5 73.5t-31 59t-36.5 49.5t-47 45h-204q0 -85 -0.5 -169t-0.5 -169l78 3q26 5 45.5 11.5
t36 17.5t31 28t29.5 43q2 3 5 3q1 0 3 -2v-259q-1 -2 -3 -2q-3 0 -5 3q-20 34 -39.5 53.5t-44 30t-57 14t-79.5 5.5v-323h206q27 23 47 45.5t36 49.5t30.5 59t30.5 74zM487 316l-88 225l15 113l-142 -338h215z" />
    <glyph glyph-name="Ccedilla" unicode="&#xc7;" horiz-adv-x="756" 
d="M708 299q0 2 4 2q3 0 4 -3q0 -20 -1 -46.5t-2.5 -54t-3 -54t-1.5 -46.5q-34 -17 -68.5 -34.5t-70 -32t-72.5 -24.5t-78 -12v-31q6 3 13 3.5t13 0.5q27 0 46.5 -8.5t32.5 -23t19.5 -33.5t6.5 -40q0 -24 -9 -49t-27 -45t-44.5 -32.5t-61.5 -12.5q-42 0 -68.5 12.5
t-41.5 31.5t-20 41t-5 41q0 11 1.5 19.5t3.5 12.5q14 -31 41.5 -48t55.5 -17q36 0 53.5 21t17.5 45q0 21 -12.5 37.5t-37.5 16.5h-9t-9 -2l2 60q-86 3 -151 40.5t-108 96t-64.5 133t-21.5 151.5q0 79 22.5 155t68 135t113.5 95.5t159 36.5q44 0 82.5 -5.5t74 -16t70.5 -25
t71 -31.5q0 -20 3 -57.5t7 -78t7 -78t3 -57.5q-1 -3 -4 -3t-4 4q-13 29 -27 62t-30.5 66t-36.5 63t-45.5 53t-57 37t-71.5 14q-55 0 -97 -32.5t-70 -86t-42 -121.5t-14 -139q0 -67 13 -131.5t39.5 -114.5t66.5 -80.5t94 -30.5q51 0 94.5 23t78 59.5t61 81t44.5 87.5z" />
    <glyph glyph-name="Egrave" unicode="&#xc8;" horiz-adv-x="664" 
d="M457 913l-20 -25l-182 96l62 85zM613 290q2 3 4 3q1 0 3 -2q0 -42 -3.5 -75.5t-8 -66.5t-8.5 -68.5t-4 -80.5h-574q0 16 8.5 23.5t19.5 11t20.5 7t12.5 11.5q1 176 0.5 349.5t0.5 349.5q0 11 -9.5 15.5t-21.5 8t-21.5 11t-9.5 24.5l242 25h332q0 -45 4 -80t8.5 -68
t8 -66.5t3.5 -75.5q-1 -3 -3 -3q-3 0 -4 4q-16 41 -30.5 73.5t-31 59t-36.5 49.5t-47 45h-204q0 -85 -0.5 -169t-0.5 -169l78 3q26 5 45.5 11.5t36 17.5t31 28t29.5 43q2 3 5 3q1 0 3 -2v-259q-1 -2 -3 -2q-3 0 -5 3q-20 34 -39.5 53.5t-44 30t-57 14t-79.5 5.5v-323h206
q27 23 47 45.5t36 49.5t30.5 59t30.5 74z" />
    <glyph glyph-name="Eacute" unicode="&#xc9;" horiz-adv-x="664" 
d="M395 1069l62 -85l-182 -96l-20 25zM613 290q2 3 4 3q1 0 3 -2q0 -42 -3.5 -75.5t-8 -66.5t-8.5 -68.5t-4 -80.5h-574q0 16 8.5 23.5t19.5 11t20.5 7t12.5 11.5q1 176 0.5 349.5t0.5 349.5q0 11 -9.5 15.5t-21.5 8t-21.5 11t-9.5 24.5l242 25h332q0 -45 4 -80t8.5 -68
t8 -66.5t3.5 -75.5q-1 -3 -3 -3q-3 0 -4 4q-16 41 -30.5 73.5t-31 59t-36.5 49.5t-47 45h-204q0 -85 -0.5 -169t-0.5 -169l78 3q26 5 45.5 11.5t36 17.5t31 28t29.5 43q2 3 5 3q1 0 3 -2v-259q-1 -2 -3 -2q-3 0 -5 3q-20 34 -39.5 53.5t-44 30t-57 14t-79.5 5.5v-323h206
q27 23 47 45.5t36 49.5t30.5 59t30.5 74z" />
    <glyph glyph-name="Ecircumflex" unicode="&#xca;" horiz-adv-x="664" 
d="M491 888h-45l-115 57l-111 -57h-41l133 154h39zM613 290q2 3 4 3q1 0 3 -2q0 -42 -3.5 -75.5t-8 -66.5t-8.5 -68.5t-4 -80.5h-574q0 16 8.5 23.5t19.5 11t20.5 7t12.5 11.5q1 176 0.5 349.5t0.5 349.5q0 11 -9.5 15.5t-21.5 8t-21.5 11t-9.5 24.5l242 25h332q0 -45 4 -80
t8.5 -68t8 -66.5t3.5 -75.5q-1 -3 -3 -3q-3 0 -4 4q-16 41 -30.5 73.5t-31 59t-36.5 49.5t-47 45h-204q0 -85 -0.5 -169t-0.5 -169l78 3q26 5 45.5 11.5t36 17.5t31 28t29.5 43q2 3 5 3q1 0 3 -2v-259q-1 -2 -3 -2q-3 0 -5 3q-20 34 -39.5 53.5t-44 30t-57 14t-79.5 5.5
v-323h206q27 23 47 45.5t36 49.5t30.5 59t30.5 74z" />
    <glyph glyph-name="Edieresis" unicode="&#xcb;" horiz-adv-x="664" 
d="M463 1045q33 0 56.5 -24t23.5 -58q0 -35 -23.5 -59t-56.5 -24t-56.5 24t-23.5 59q0 34 23.5 58t56.5 24zM256 1045q33 0 56 -24t23 -58q0 -35 -23 -59t-56 -24t-56.5 24t-23.5 59q0 34 23.5 58t56.5 24zM613 290q2 3 4 3q1 0 3 -2q0 -42 -3.5 -75.5t-8 -66.5t-8.5 -68.5
t-4 -80.5h-574q0 16 8.5 23.5t19.5 11t20.5 7t12.5 11.5q1 176 0.5 349.5t0.5 349.5q0 11 -9.5 15.5t-21.5 8t-21.5 11t-9.5 24.5l242 25h332q0 -45 4 -80t8.5 -68t8 -66.5t3.5 -75.5q-1 -3 -3 -3q-3 0 -4 4q-16 41 -30.5 73.5t-31 59t-36.5 49.5t-47 45h-204
q0 -85 -0.5 -169t-0.5 -169l78 3q26 5 45.5 11.5t36 17.5t31 28t29.5 43q2 3 5 3q1 0 3 -2v-259q-1 -2 -3 -2q-3 0 -5 3q-20 34 -39.5 53.5t-44 30t-57 14t-79.5 5.5v-323h206q27 23 47 45.5t36 49.5t30.5 59t30.5 74z" />
    <glyph glyph-name="Igrave" unicode="&#xcc;" horiz-adv-x="378" 
d="M278 52q3 -8 13 -11t20.5 -7t19 -11t8.5 -23h-302q0 16 8.5 23.5t19.5 11t20.5 7t12.5 11.5v704q-3 9 -12.5 12t-20.5 7t-19.5 11.5t-8.5 23.5l302 25q0 -16 -8.5 -24.5t-19 -13.5t-20.5 -9.5t-13 -12.5v-724zM287 913l-20 -25l-182 96l62 85z" />
    <glyph glyph-name="Iacute" unicode="&#xcd;" horiz-adv-x="378" 
d="M278 52q3 -8 13 -11t20.5 -7t19 -11t8.5 -23h-302q0 16 8.5 23.5t19.5 11t20.5 7t12.5 11.5v704q-3 9 -12.5 12t-20.5 7t-19.5 11.5t-8.5 23.5l302 25q0 -16 -8.5 -24.5t-19 -13.5t-20.5 -9.5t-13 -12.5v-724zM215 1069l62 -85l-182 -96l-20 25z" />
    <glyph glyph-name="Icircumflex" unicode="&#xce;" horiz-adv-x="378" 
d="M278 52q3 -8 13 -11t20.5 -7t19 -11t8.5 -23h-302q0 16 8.5 23.5t19.5 11t20.5 7t12.5 11.5v704q-3 9 -12.5 12t-20.5 7t-19.5 11.5t-8.5 23.5l302 25q0 -16 -8.5 -24.5t-19 -13.5t-20.5 -9.5t-13 -12.5v-724zM351 888h-45l-115 57l-111 -57h-41l133 154h39z" />
    <glyph glyph-name="Idieresis" unicode="&#xcf;" horiz-adv-x="378" 
d="M278 52q3 -8 13 -11t20.5 -7t19 -11t8.5 -23h-302q0 16 8.5 23.5t19.5 11t20.5 7t12.5 11.5v704q-3 9 -12.5 12t-20.5 7t-19.5 11.5t-8.5 23.5l302 25q0 -16 -8.5 -24.5t-19 -13.5t-20.5 -9.5t-13 -12.5v-724zM293 1045q33 0 56.5 -24t23.5 -58q0 -35 -23.5 -59
t-56.5 -24t-56.5 24t-23.5 59q0 34 23.5 58t56.5 24zM86 1045q33 0 56 -24t23 -58q0 -35 -23 -59t-56 -24t-56.5 24t-23.5 59q0 34 23.5 58t56.5 24z" />
    <glyph glyph-name="Eth" unicode="&#xd0;" horiz-adv-x="720" 
d="M83 402v100.5v95.5t0.5 85t0.5 69q0 11 -9.5 15.5t-21.5 8t-21.5 11t-9.5 24.5l206 25h54.5t54.5 1q86 -1 150.5 -37t108 -95.5t65 -134.5t21.5 -154q0 -76 -21 -150t-63 -132t-105 -94.5t-147 -39.5h-120h-204q0 17 9.5 24.5t21.5 11t21.5 8t9.5 15.5q0 48 -0.5 121.5
t-0.5 154.5h-130v67h130zM300 60q50 10 87 45t62.5 85.5t38 112t12.5 124.5q0 62 -12.5 122t-37 108t-62 80.5t-87.5 39.5q-9 2 -18.5 2.5t-18.5 1.5q-1 -80 -1 -177v-202h167v-67h-167v-281z" />
    <glyph glyph-name="Ntilde" unicode="&#xd1;" horiz-adv-x="793" 
d="M599 997q-21 -62 -55 -84t-73 -22q-27 0 -54.5 6.5t-53.5 14.5t-49.5 14.5t-41.5 6.5q-16 0 -27 -6.5t-16 -23.5l-22 7q17 54 49 72.5t71 18.5q24 0 50 -4.5t50.5 -10t48 -10t43.5 -4.5t36 7t24 25zM769 811q0 -16 -8.5 -23.5t-19.5 -11t-21 -7t-13 -11.5v-758h-63
q-54 75 -117 160.5t-128 174.5t-129.5 176.5t-121.5 166.5q0 -158 -0.5 -311.5t-0.5 -313.5v-53h-125q0 16 8.5 23.5t19.5 11t20.5 7t12.5 11.5q1 176 0.5 349.5t0.5 349.5q0 10 -9 14.5t-20 8t-21 10t-12 21.5v5l252 26l369 -498v498z" />
    <glyph glyph-name="Ograve" unicode="&#xd2;" horiz-adv-x="848" 
d="M425 837q71 0 139.5 -25t122 -75.5t86.5 -127t33 -180.5q0 -109 -31 -191t-83.5 -136.5t-121.5 -81.5t-146 -27q-71 0 -139.5 25.5t-122 76.5t-86 128t-32.5 180v30q0 103 32.5 179t86 126t122 74.5t140.5 24.5zM426 50q37 0 72.5 25.5t63 73t45 115.5t18.5 154
q-1 86 -18.5 153t-45.5 113.5t-63 71t-72 24.5t-73 -24t-64.5 -70t-46 -113.5t-18.5 -154.5q1 -87 19 -155.5t46 -116t64 -72t73 -24.5zM527 913l-20 -25l-182 96l62 85z" />
    <glyph glyph-name="Oacute" unicode="&#xd3;" horiz-adv-x="848" 
d="M425 837q71 0 139.5 -25t122 -75.5t86.5 -127t33 -180.5q0 -109 -31 -191t-83.5 -136.5t-121.5 -81.5t-146 -27q-71 0 -139.5 25.5t-122 76.5t-86 128t-32.5 180v30q0 103 32.5 179t86 126t122 74.5t140.5 24.5zM426 50q37 0 72.5 25.5t63 73t45 115.5t18.5 154
q-1 86 -18.5 153t-45.5 113.5t-63 71t-72 24.5t-73 -24t-64.5 -70t-46 -113.5t-18.5 -154.5q1 -87 19 -155.5t46 -116t64 -72t73 -24.5zM475 1069l62 -85l-182 -96l-20 25z" />
    <glyph glyph-name="Ocircumflex" unicode="&#xd4;" horiz-adv-x="848" 
d="M425 837q71 0 139.5 -25t122 -75.5t86.5 -127t33 -180.5q0 -109 -31 -191t-83.5 -136.5t-121.5 -81.5t-146 -27q-71 0 -139.5 25.5t-122 76.5t-86 128t-32.5 180v30q0 103 32.5 179t86 126t122 74.5t140.5 24.5zM426 50q37 0 72.5 25.5t63 73t45 115.5t18.5 154
q-1 86 -18.5 153t-45.5 113.5t-63 71t-72 24.5t-73 -24t-64.5 -70t-46 -113.5t-18.5 -154.5q1 -87 19 -155.5t46 -116t64 -72t73 -24.5zM581 888h-45l-115 57l-111 -57h-41l133 154h39z" />
    <glyph glyph-name="Otilde" unicode="&#xd5;" horiz-adv-x="848" 
d="M425 837q71 0 139.5 -25t122 -75.5t86.5 -127t33 -180.5q0 -109 -31 -191t-83.5 -136.5t-121.5 -81.5t-146 -27q-71 0 -139.5 25.5t-122 76.5t-86 128t-32.5 180v30q0 103 32.5 179t86 126t122 74.5t140.5 24.5zM426 50q37 0 72.5 25.5t63 73t45 115.5t18.5 154
q-1 86 -18.5 153t-45.5 113.5t-63 71t-72 24.5t-73 -24t-64.5 -70t-46 -113.5t-18.5 -154.5q1 -87 19 -155.5t46 -116t64 -72t73 -24.5zM619 997q-21 -62 -55 -84t-73 -22q-27 0 -54.5 6.5t-53.5 14.5t-49.5 14.5t-41.5 6.5q-16 0 -27 -6.5t-16 -23.5l-22 7q17 54 49 72.5
t71 18.5q24 0 50 -4.5t50.5 -10t48 -10t43.5 -4.5t36 7t24 25z" />
    <glyph glyph-name="Odieresis" unicode="&#xd6;" horiz-adv-x="848" 
d="M425 837q71 0 139.5 -25t122 -75.5t86.5 -127t33 -180.5q0 -109 -31 -191t-83.5 -136.5t-121.5 -81.5t-146 -27q-71 0 -139.5 25.5t-122 76.5t-86 128t-32.5 180v30q0 103 32.5 179t86 126t122 74.5t140.5 24.5zM426 50q37 0 72.5 25.5t63 73t45 115.5t18.5 154
q-1 86 -18.5 153t-45.5 113.5t-63 71t-72 24.5t-73 -24t-64.5 -70t-46 -113.5t-18.5 -154.5q1 -87 19 -155.5t46 -116t64 -72t73 -24.5zM533 1045q33 0 56.5 -24t23.5 -58q0 -35 -23.5 -59t-56.5 -24t-56.5 24t-23.5 59q0 34 23.5 58t56.5 24zM326 1045q33 0 56 -24t23 -58
q0 -35 -23 -59t-56 -24t-56.5 24t-23.5 59q0 34 23.5 58t56.5 24z" />
    <glyph glyph-name="multiply" unicode="&#xd7;" horiz-adv-x="620" 
d="M356 407l191 -190l-48 -47l-190 190l-190 -190l-47 47l190 190l-190 190l47 47l190 -190l190 190l48 -47z" />
    <glyph glyph-name="Oslash" unicode="&#xd8;" horiz-adv-x="848" 
d="M653 878l-37 -90q41 -23 75.5 -56.5t60 -78.5t40 -101t14.5 -124q0 -109 -31 -190.5t-83.5 -136t-122 -81.5t-145.5 -27q-68 0 -130 22l-21 -51h-79l34 82q-40 23 -73.5 57t-58 78.5t-38.5 99.5t-14 121v31q0 103 32.5 179t86 126t122 74.5t140.5 24.5q61 0 123 -20
l25 61h80zM426 50q37 0 72.5 25.5t63 73t45 115.5t18.5 154q-2 81 -17 145t-40 110l-240 -577q23 -24 47.5 -35t50.5 -11zM224 418q1 -79 15.5 -142t38.5 -110l238 575q-21 18 -44 28.5t-46 10.5q-37 0 -73 -24t-64.5 -70t-46 -113.5t-18.5 -154.5z" />
    <glyph glyph-name="Ugrave" unicode="&#xd9;" horiz-adv-x="753" 
d="M517 913l-20 -25l-182 96l62 85zM735 811q0 -17 -9.5 -24.5t-21.5 -11t-21.5 -8t-9.5 -15.5v-345q0 -78 -9 -152.5t-38 -132.5t-84.5 -93.5t-148.5 -35.5q-98 0 -160.5 33.5t-98 91.5t-48.5 134.5t-13 163.5q0 85 0.5 168t0.5 168q0 11 -9.5 15.5t-21.5 8t-21.5 11
t-9.5 24.5l242 26q0 -109 -0.5 -216t-0.5 -215q0 -29 0.5 -66.5t4.5 -76.5t13.5 -76.5t28 -67t47.5 -47.5t71 -19q45 0 76.5 17.5t52.5 46t33.5 65.5t19 77t8 79.5t1.5 72.5v426z" />
    <glyph glyph-name="Uacute" unicode="&#xda;" horiz-adv-x="753" 
d="M465 1069l62 -85l-182 -96l-20 25zM735 811q0 -17 -9.5 -24.5t-21.5 -11t-21.5 -8t-9.5 -15.5v-345q0 -78 -9 -152.5t-38 -132.5t-84.5 -93.5t-148.5 -35.5q-98 0 -160.5 33.5t-98 91.5t-48.5 134.5t-13 163.5q0 85 0.5 168t0.5 168q0 11 -9.5 15.5t-21.5 8t-21.5 11
t-9.5 24.5l242 26q0 -109 -0.5 -216t-0.5 -215q0 -29 0.5 -66.5t4.5 -76.5t13.5 -76.5t28 -67t47.5 -47.5t71 -19q45 0 76.5 17.5t52.5 46t33.5 65.5t19 77t8 79.5t1.5 72.5v426z" />
    <glyph glyph-name="Ucircumflex" unicode="&#xdb;" horiz-adv-x="753" 
d="M571 888h-45l-115 57l-111 -57h-41l133 154h39zM735 811q0 -17 -9.5 -24.5t-21.5 -11t-21.5 -8t-9.5 -15.5v-345q0 -78 -9 -152.5t-38 -132.5t-84.5 -93.5t-148.5 -35.5q-98 0 -160.5 33.5t-98 91.5t-48.5 134.5t-13 163.5q0 85 0.5 168t0.5 168q0 11 -9.5 15.5t-21.5 8
t-21.5 11t-9.5 24.5l242 26q0 -109 -0.5 -216t-0.5 -215q0 -29 0.5 -66.5t4.5 -76.5t13.5 -76.5t28 -67t47.5 -47.5t71 -19q45 0 76.5 17.5t52.5 46t33.5 65.5t19 77t8 79.5t1.5 72.5v426z" />
    <glyph glyph-name="Udieresis" unicode="&#xdc;" horiz-adv-x="753" 
d="M523 1045q33 0 56.5 -24t23.5 -58q0 -35 -23.5 -59t-56.5 -24t-56.5 24t-23.5 59q0 34 23.5 58t56.5 24zM316 1045q33 0 56 -24t23 -58q0 -35 -23 -59t-56 -24t-56.5 24t-23.5 59q0 34 23.5 58t56.5 24zM735 811q0 -17 -9.5 -24.5t-21.5 -11t-21.5 -8t-9.5 -15.5v-345
q0 -78 -9 -152.5t-38 -132.5t-84.5 -93.5t-148.5 -35.5q-98 0 -160.5 33.5t-98 91.5t-48.5 134.5t-13 163.5q0 85 0.5 168t0.5 168q0 11 -9.5 15.5t-21.5 8t-21.5 11t-9.5 24.5l242 26q0 -109 -0.5 -216t-0.5 -215q0 -29 0.5 -66.5t4.5 -76.5t13.5 -76.5t28 -67t47.5 -47.5
t71 -19q45 0 76.5 17.5t52.5 46t33.5 65.5t19 77t8 79.5t1.5 72.5v426z" />
    <glyph glyph-name="Yacute" unicode="&#xdd;" horiz-adv-x="794" 
d="M505 1069l62 -85l-182 -96l-20 25zM794 837q0 -2 -0.5 -2t-1.5 -2l-289 -438q0 -58 -0.5 -94.5t-1 -70t-0.5 -74v-106.5q4 -7 14 -10t20 -6.5t18 -11t8 -22.5h-300q0 17 8.5 24.5t19.5 11t20.5 7.5t11.5 13q0 91 1.5 172t2.5 168q-25 40 -58 85.5t-67.5 92.5t-68 92.5
t-60.5 85.5q-6 9 -18 13t-23.5 8.5t-20.5 12.5t-9 25l240 26q56 -87 114.5 -183.5t115.5 -188.5q21 30 38.5 56t36 54t40 60t49.5 75q0 24 -4.5 35.5t-10.5 19.5t-10.5 17t-4.5 29z" />
    <glyph glyph-name="Thorn" unicode="&#xde;" horiz-adv-x="681" 
d="M401 707q66 -1 116 -21t83.5 -53t50 -75t16.5 -86q0 -43 -16.5 -85t-50 -74.5t-83.5 -52.5t-116 -20h-22.5t-43 0.5t-50.5 1t-44 0.5v-189q3 -8 13 -11.5t20.5 -7t19 -11t8.5 -23.5h-302q0 16 8.5 23.5t19.5 11t20.5 7t12.5 11.5q1 176 0.5 349.5t0.5 349.5
q0 11 -9.5 15.5t-21.5 8t-21.5 11t-9.5 24.5l242 26v-130h159zM373 307q29 7 50.5 23.5t35.5 39.5t21 51t7 56q0 32 -8.5 63t-25 55.5t-40.5 41t-56 19.5q-25 2 -56 2.5t-59 0.5q-1 -89 -1 -177v-177h38t42.5 0.5t35 1t16.5 0.5z" />
    <glyph glyph-name="germandbls" unicode="&#xdf;" horiz-adv-x="644" 
d="M529 387q48 -31 72.5 -81t24.5 -104q0 -39 -14 -77t-43 -67t-73 -47t-104 -18q-45 0 -85 5t-79 30v-28q-28 9 -51 9q-35 0 -61 -16t-56 -36v165.5t0.5 184.5t1 184.5t0.5 165.5q0 11 -9.5 15.5t-21.5 8t-21.5 11t-9.5 24.5q36 4 61 14.5t46.5 24t42 28.5t48 27t64 20
t89.5 8q46 0 78 -14.5t52 -38.5t29 -55.5t9 -64.5q0 -39 -10.5 -76.5t-29.5 -66.5q-18 -27 -28.5 -41t-10.5 -24q0 -6 5 -12t15.5 -13.5t27.5 -18t41 -26.5zM228 572q-1 -60 -1.5 -122t-0.5 -124q0 -26 0.5 -50.5t0.5 -48.5q13 4 35 4q41 0 60 -23.5t19 -50.5q0 -11 -3 -22
q-11 7 -27 7q-18 -1 -32.5 -13t-14.5 -34q0 -15 7 -24.5t18.5 -15t25.5 -7.5t28 -2q31 0 53.5 9t37 24.5t21.5 36t7 44.5q0 50 -28.5 102t-79.5 84q-39 24 -53.5 45.5t-14.5 41.5q0 24 13 44.5t22 38.5q10 20 19.5 45t16.5 51t11 51.5t4 47.5q0 33 -10.5 54.5t-35.5 21.5
q-35 0 -54.5 -16.5t-29 -45t-12 -68t-2.5 -85.5z" />
    <glyph glyph-name="agrave" unicode="&#xe0;" 
d="M378 253q-2 55 -27 82.5t-57 27.5q-16 0 -32.5 -7.5t-29.5 -21.5t-21 -35.5t-8 -49.5t0.5 -61.5t8 -63t25 -49t50.5 -19.5q24 0 41.5 11t29 29.5t16.5 42t5 48.5v36t-1 30zM333 622q73 0 117.5 -25.5t68.5 -67t31.5 -94.5t7.5 -108q0 -49 -3 -95t-3 -84q0 -31 4 -54.5
t15 -34.5q5 -5 13.5 -8.5t16 -8t13 -12t5.5 -20.5q0 -2 -0.5 -4.5t-0.5 -5.5h-54q-48 0 -91 22t-64 60q-27 -43 -67 -66t-103 -23q-55 0 -96.5 16.5t-68.5 43.5t-40.5 62.5t-13.5 72.5q0 42 16.5 83.5t49 74.5t80.5 53.5t111 20.5q28 0 59.5 -11t47.5 -25q1 12 1.5 25
t0.5 27q0 26 -3 51.5t-13 45.5t-27.5 33t-46.5 13q-23 0 -45.5 -8t-40.5 -26t-31 -47.5t-16 -72.5q-12 -5 -26.5 -8.5t-28.5 -3.5q-30 0 -54 14.5t-24 47.5q0 24 16.5 50t52.5 47.5t94 35.5t140 14zM262 839l140 -156l-20 -25l-182 96z" />
    <glyph glyph-name="aacute" unicode="&#xe1;" 
d="M378 253q-2 55 -27 82.5t-57 27.5q-16 0 -32.5 -7.5t-29.5 -21.5t-21 -35.5t-8 -49.5t0.5 -61.5t8 -63t25 -49t50.5 -19.5q24 0 41.5 11t29 29.5t16.5 42t5 48.5v36t-1 30zM333 622q73 0 117.5 -25.5t68.5 -67t31.5 -94.5t7.5 -108q0 -49 -3 -95t-3 -84q0 -31 4 -54.5
t15 -34.5q5 -5 13.5 -8.5t16 -8t13 -12t5.5 -20.5q0 -2 -0.5 -4.5t-0.5 -5.5h-54q-48 0 -91 22t-64 60q-27 -43 -67 -66t-103 -23q-55 0 -96.5 16.5t-68.5 43.5t-40.5 62.5t-13.5 72.5q0 42 16.5 83.5t49 74.5t80.5 53.5t111 20.5q28 0 59.5 -11t47.5 -25q1 12 1.5 25
t0.5 27q0 26 -3 51.5t-13 45.5t-27.5 33t-46.5 13q-23 0 -45.5 -8t-40.5 -26t-31 -47.5t-16 -72.5q-12 -5 -26.5 -8.5t-28.5 -3.5q-30 0 -54 14.5t-24 47.5q0 24 16.5 50t52.5 47.5t94 35.5t140 14zM200 683l140 156l62 -85l-182 -96z" />
    <glyph glyph-name="acircumflex" unicode="&#xe2;" 
d="M378 253q-2 55 -27 82.5t-57 27.5q-16 0 -32.5 -7.5t-29.5 -21.5t-21 -35.5t-8 -49.5t0.5 -61.5t8 -63t25 -49t50.5 -19.5q24 0 41.5 11t29 29.5t16.5 42t5 48.5v36t-1 30zM333 622q73 0 117.5 -25.5t68.5 -67t31.5 -94.5t7.5 -108q0 -49 -3 -95t-3 -84q0 -31 4 -54.5
t15 -34.5q5 -5 13.5 -8.5t16 -8t13 -12t5.5 -20.5q0 -2 -0.5 -4.5t-0.5 -5.5h-54q-48 0 -91 22t-64 60q-27 -43 -67 -66t-103 -23q-55 0 -96.5 16.5t-68.5 43.5t-40.5 62.5t-13.5 72.5q0 42 16.5 83.5t49 74.5t80.5 53.5t111 20.5q28 0 59.5 -11t47.5 -25q1 12 1.5 25
t0.5 27q0 26 -3 51.5t-13 45.5t-27.5 33t-46.5 13q-23 0 -45.5 -8t-40.5 -26t-31 -47.5t-16 -72.5q-12 -5 -26.5 -8.5t-28.5 -3.5q-30 0 -54 14.5t-24 47.5q0 24 16.5 50t52.5 47.5t94 35.5t140 14zM321 812l140 -154h-45l-115 57l-111 -57h-41l133 154h39z" />
    <glyph glyph-name="atilde" unicode="&#xe3;" 
d="M378 253q-2 55 -27 82.5t-57 27.5q-16 0 -32.5 -7.5t-29.5 -21.5t-21 -35.5t-8 -49.5t0.5 -61.5t8 -63t25 -49t50.5 -19.5q24 0 41.5 11t29 29.5t16.5 42t5 48.5v36t-1 30zM333 622q73 0 117.5 -25.5t68.5 -67t31.5 -94.5t7.5 -108q0 -49 -3 -95t-3 -84q0 -31 4 -54.5
t15 -34.5q5 -5 13.5 -8.5t16 -8t13 -12t5.5 -20.5q0 -2 -0.5 -4.5t-0.5 -5.5h-54q-48 0 -91 22t-64 60q-27 -43 -67 -66t-103 -23q-55 0 -96.5 16.5t-68.5 43.5t-40.5 62.5t-13.5 72.5q0 42 16.5 83.5t49 74.5t80.5 53.5t111 20.5q28 0 59.5 -11t47.5 -25q1 12 1.5 25
t0.5 27q0 26 -3 51.5t-13 45.5t-27.5 33t-46.5 13q-23 0 -45.5 -8t-40.5 -26t-31 -47.5t-16 -72.5q-12 -5 -26.5 -8.5t-28.5 -3.5q-30 0 -54 14.5t-24 47.5q0 24 16.5 50t52.5 47.5t94 35.5t140 14zM469 784l20 -7q-21 -62 -55 -84t-73 -22q-27 0 -54.5 6.5t-53.5 14.5
t-49.5 14.5t-41.5 6.5q-16 0 -27 -6.5t-16 -23.5l-22 7q17 54 49 72.5t71 18.5q24 0 50 -4.5t50.5 -10t48 -10t43.5 -4.5t36 7t24 25z" />
    <glyph glyph-name="adieresis" unicode="&#xe4;" 
d="M378 253q-2 55 -27 82.5t-57 27.5q-16 0 -32.5 -7.5t-29.5 -21.5t-21 -35.5t-8 -49.5t0.5 -61.5t8 -63t25 -49t50.5 -19.5q24 0 41.5 11t29 29.5t16.5 42t5 48.5v36t-1 30zM333 622q73 0 117.5 -25.5t68.5 -67t31.5 -94.5t7.5 -108q0 -49 -3 -95t-3 -84q0 -31 4 -54.5
t15 -34.5q5 -5 13.5 -8.5t16 -8t13 -12t5.5 -20.5q0 -2 -0.5 -4.5t-0.5 -5.5h-54q-48 0 -91 22t-64 60q-27 -43 -67 -66t-103 -23q-55 0 -96.5 16.5t-68.5 43.5t-40.5 62.5t-13.5 72.5q0 42 16.5 83.5t49 74.5t80.5 53.5t111 20.5q28 0 59.5 -11t47.5 -25q1 12 1.5 25
t0.5 27q0 26 -3 51.5t-13 45.5t-27.5 33t-46.5 13q-23 0 -45.5 -8t-40.5 -26t-31 -47.5t-16 -72.5q-12 -5 -26.5 -8.5t-28.5 -3.5q-30 0 -54 14.5t-24 47.5q0 24 16.5 50t52.5 47.5t94 35.5t140 14zM200 823q33 0 56 -24t23 -58q0 -35 -23 -59t-56 -24t-56.5 24t-23.5 59
q0 34 23.5 58t56.5 24zM407 823q33 0 56.5 -24t23.5 -58q0 -35 -23.5 -59t-56.5 -24t-56.5 24t-23.5 59q0 34 23.5 58t56.5 24z" />
    <glyph glyph-name="aring" unicode="&#xe5;" 
d="M378 253q-2 55 -27 82.5t-57 27.5q-16 0 -32.5 -7.5t-29.5 -21.5t-21 -35.5t-8 -49.5t0.5 -61.5t8 -63t25 -49t50.5 -19.5q24 0 41.5 11t29 29.5t16.5 42t5 48.5v36t-1 30zM262 744q-11 0 -17.5 -6t-6.5 -14t7 -14t21 -6l68 1q11 0 16 6.5t5 12.5q0 8 -6 14t-18 6h-69z
M333 622q73 0 117.5 -25.5t68.5 -67t31.5 -94.5t7.5 -108q0 -49 -3 -95t-3 -84q0 -31 4 -54.5t15 -34.5q5 -5 13.5 -8.5t16 -8t13 -12t5.5 -20.5q0 -2 -0.5 -4.5t-0.5 -5.5h-54q-48 0 -91 22t-64 60q-27 -43 -67 -66t-103 -23q-55 0 -96.5 16.5t-68.5 43.5t-40.5 62.5
t-13.5 72.5q0 42 16.5 83.5t49 74.5t80.5 53.5t111 20.5q28 0 59.5 -11t47.5 -25q1 12 1.5 25t0.5 27q0 26 -3 51.5t-13 45.5t-27.5 33t-46.5 13q-23 0 -45.5 -8t-40.5 -26t-31 -47.5t-16 -72.5q-12 -5 -26.5 -8.5t-28.5 -3.5q-30 0 -54 14.5t-24 47.5q0 24 16.5 50
t52.5 47.5t94 35.5t140 14zM373 724v-6q0 -32 -22.5 -48t-50.5 -16q-15 0 -29.5 4.5t-26 14.5t-19 24.5t-7.5 33.5q0 32 21.5 48.5t49.5 16.5q29 0 54 -18t30 -54z" />
    <glyph glyph-name="ae" unicode="&#xe6;" horiz-adv-x="944" 
d="M868 201q7 8 17 13t19 5q19 0 19 -21q0 -26 -12 -61.5t-41.5 -67.5t-80 -54t-127.5 -22q-78 0 -131 26t-97 90q-9 -36 -29 -58.5t-47 -35.5t-58 -17.5t-62 -4.5q-55 0 -96 16.5t-68 43.5t-40.5 62t-13.5 72q0 43 16.5 84.5t49 74.5t80.5 53.5t110 20.5q28 0 59.5 -11
t47.5 -25q1 12 1.5 25t0.5 27q0 26 -3 51.5t-13 45.5t-27.5 33t-46.5 13q-23 0 -45.5 -8t-41 -26.5t-31 -48t-15.5 -71.5q-24 -12 -56 -12q-29 0 -53 14t-24 47q0 24 16.5 50t52.5 47.5t94 35.5t140 14q58 0 97.5 -16t65.5 -45v1q33 26 76 42.5t96 16.5q55 0 97 -13
t70 -34.5t42 -49.5t14 -58q0 -36 -19 -71.5t-59 -64t-101.5 -46.5t-145.5 -18q17 -57 54 -91t96 -34q52 0 92.5 17.5t60.5 43.5zM378 187q0 88 -17.5 132t-65.5 44q-16 0 -33 -7.5t-30 -21.5t-21.5 -35.5t-8.5 -50.5q0 -27 0.5 -60.5t8 -62.5t25 -49t50.5 -20
q26 0 43.5 12.5t28 31.5t15.5 42.5t5 44.5zM557 306q44 0 76 15.5t52.5 40t30 54t9.5 57.5q0 38 -16.5 65.5t-46.5 27.5q-37 0 -58.5 -21.5t-32 -54t-13.5 -70.5t-3 -70q0 -13 0.5 -24t1.5 -20z" />
    <glyph glyph-name="ccedilla" unicode="&#xe7;" horiz-adv-x="606" 
d="M360 -33q27 0 46.5 -8.5t33 -23t20 -33.5t6.5 -40q0 -24 -9 -49t-27 -45t-44.5 -32.5t-61.5 -12.5q-42 0 -68.5 12.5t-41.5 31.5t-20 41t-5 41q0 11 1.5 19.5t3.5 12.5q14 -31 41.5 -48t55.5 -17q36 0 53 20.5t17 45.5q0 21 -12.5 37.5t-37.5 16.5h-9t-9 -2l2 60
q-64 4 -112.5 31t-80.5 69.5t-48 95.5t-16 109q0 59 18 116t54 103t89.5 74t125.5 28q49 0 88.5 -13t67 -34t42.5 -46t15 -49q0 -35 -29.5 -61t-96.5 -26q0 23 -4 54t-14.5 59t-29.5 47.5t-48 19.5q-24 0 -42.5 -16.5t-32 -44.5t-20.5 -64t-7 -74q0 -42 9 -83.5t28.5 -74.5
t49.5 -53.5t72 -20.5q51 0 91.5 17.5t60.5 42.5q7 9 17 14.5t19 5.5q19 0 19 -22q0 -25 -11.5 -59.5t-39.5 -66t-75.5 -54t-119.5 -25.5v-30q8 4 19 4h7z" />
    <glyph glyph-name="egrave" unicode="&#xe8;" horiz-adv-x="599" 
d="M422 683l-20 -25l-182 96l62 85zM527 201q6 8 16 13.5t19 5.5q19 0 19 -22q0 -26 -11.5 -61.5t-41 -67.5t-80 -54t-128.5 -22q-70 0 -123 25.5t-88 68.5t-52.5 98t-17.5 114t18 116.5t54 103t89.5 73.5t125.5 28q55 0 95 -13t66.5 -34t39 -49t12.5 -58q0 -36 -17.5 -72
t-56 -64.5t-98 -46.5t-143.5 -18q17 -57 53.5 -91t96.5 -34q52 0 92.5 17.5t60.5 43.5zM317 567q-31 0 -51.5 -19t-33 -48.5t-17.5 -65t-5 -67.5q0 -17 1.5 -32.5t3.5 -27.5q44 0 76 15t52 39t29.5 53t9.5 57q0 39 -17 67t-48 29z" />
    <glyph glyph-name="eacute" unicode="&#xe9;" horiz-adv-x="599" 
d="M360 839l62 -85l-182 -96l-20 25zM527 201q6 8 16 13.5t19 5.5q19 0 19 -22q0 -26 -11.5 -61.5t-41 -67.5t-80 -54t-128.5 -22q-70 0 -123 25.5t-88 68.5t-52.5 98t-17.5 114t18 116.5t54 103t89.5 73.5t125.5 28q55 0 95 -13t66.5 -34t39 -49t12.5 -58q0 -36 -17.5 -72
t-56 -64.5t-98 -46.5t-143.5 -18q17 -57 53.5 -91t96.5 -34q52 0 92.5 17.5t60.5 43.5zM317 567q-31 0 -51.5 -19t-33 -48.5t-17.5 -65t-5 -67.5q0 -17 1.5 -32.5t3.5 -27.5q44 0 76 15t52 39t29.5 53t9.5 57q0 39 -17 67t-48 29z" />
    <glyph glyph-name="ecircumflex" unicode="&#xea;" horiz-adv-x="599" 
d="M471 658h-45l-115 57l-111 -57h-41l133 154h39zM527 201q6 8 16 13.5t19 5.5q19 0 19 -22q0 -26 -11.5 -61.5t-41 -67.5t-80 -54t-128.5 -22q-70 0 -123 25.5t-88 68.5t-52.5 98t-17.5 114t18 116.5t54 103t89.5 73.5t125.5 28q55 0 95 -13t66.5 -34t39 -49t12.5 -58
q0 -36 -17.5 -72t-56 -64.5t-98 -46.5t-143.5 -18q17 -57 53.5 -91t96.5 -34q52 0 92.5 17.5t60.5 43.5zM317 567q-31 0 -51.5 -19t-33 -48.5t-17.5 -65t-5 -67.5q0 -17 1.5 -32.5t3.5 -27.5q44 0 76 15t52 39t29.5 53t9.5 57q0 39 -17 67t-48 29z" />
    <glyph glyph-name="edieresis" unicode="&#xeb;" horiz-adv-x="599" 
d="M427 823q33 0 56.5 -24t23.5 -58q0 -35 -23.5 -59t-56.5 -24t-56.5 24t-23.5 59q0 34 23.5 58t56.5 24zM220 823q33 0 56 -24t23 -58q0 -35 -23 -59t-56 -24t-56.5 24t-23.5 59q0 34 23.5 58t56.5 24zM527 201q6 8 16 13.5t19 5.5q19 0 19 -22q0 -26 -11.5 -61.5
t-41 -67.5t-80 -54t-128.5 -22q-70 0 -123 25.5t-88 68.5t-52.5 98t-17.5 114t18 116.5t54 103t89.5 73.5t125.5 28q55 0 95 -13t66.5 -34t39 -49t12.5 -58q0 -36 -17.5 -72t-56 -64.5t-98 -46.5t-143.5 -18q17 -57 53.5 -91t96.5 -34q52 0 92.5 17.5t60.5 43.5zM317 567
q-31 0 -51.5 -19t-33 -48.5t-17.5 -65t-5 -67.5q0 -17 1.5 -32.5t3.5 -27.5q44 0 76 15t52 39t29.5 53t9.5 57q0 39 -17 67t-48 29z" />
    <glyph glyph-name="igrave" unicode="&#xec;" horiz-adv-x="316" 
d="M0 0q0 17 9 24.5t19.5 11t20.5 7.5t11 13q-1 118 1.5 238t2.5 238q0 11 -9.5 15.5t-21.5 8t-21.5 11t-9.5 24.5l240 26q-1 -143 -1.5 -283.5t-0.5 -282.5q4 -7 14 -10t20 -7t18 -11.5t8 -22.5h-300zM242 683l-20 -25l-182 96l62 85z" />
    <glyph glyph-name="iacute" unicode="&#xed;" horiz-adv-x="316" 
d="M0 0q0 17 9 24.5t19.5 11t20.5 7.5t11 13q-1 118 1.5 238t2.5 238q0 11 -9.5 15.5t-21.5 8t-21.5 11t-9.5 24.5l240 26q-1 -143 -1.5 -283.5t-0.5 -282.5q4 -7 14 -10t20 -7t18 -11.5t8 -22.5h-300zM180 839l62 -85l-182 -96l-20 25z" />
    <glyph glyph-name="icircumflex" unicode="&#xee;" horiz-adv-x="316" 
d="M0 0q0 17 9 24.5t19.5 11t20.5 7.5t11 13q-1 118 1.5 238t2.5 238q0 11 -9.5 15.5t-21.5 8t-21.5 11t-9.5 24.5l240 26q-1 -143 -1.5 -283.5t-0.5 -282.5q4 -7 14 -10t20 -7t18 -11.5t8 -22.5h-300zM311 658h-45l-115 57l-111 -57h-41l133 154h39z" />
    <glyph glyph-name="idieresis" unicode="&#xef;" horiz-adv-x="316" 
d="M0 0q0 17 9 24.5t19.5 11t20.5 7.5t11 13q-1 118 1.5 238t2.5 238q0 11 -9.5 15.5t-21.5 8t-21.5 11t-9.5 24.5l240 26q-1 -143 -1.5 -283.5t-0.5 -282.5q4 -7 14 -10t20 -7t18 -11.5t8 -22.5h-300zM257 823q33 0 56.5 -24t23.5 -58q0 -35 -23.5 -59t-56.5 -24t-56.5 24
t-23.5 59q0 34 23.5 58t56.5 24zM50 823q33 0 56 -24t23 -58q0 -35 -23 -59t-56 -24t-56.5 24t-23.5 59q0 34 23.5 58t56.5 24z" />
    <glyph glyph-name="ntilde" unicode="&#xf1;" horiz-adv-x="674" 
d="M519 777q-21 -62 -55 -84t-73 -22q-27 0 -54.5 6.5t-53.5 14.5t-49.5 14.5t-41.5 6.5q-16 0 -27 -6.5t-16 -23.5l-22 7q17 54 49 72.5t71 18.5q24 0 50 -4.5t50.5 -10t48 -10t43.5 -4.5t36 7t24 25zM600 59q0 -11 9.5 -15.5t21.5 -8t21.5 -11t9.5 -24.5h-236v125v90
t-0.5 83.5t-1.5 106.5q0 70 -14.5 106t-62.5 36q-25 0 -52.5 -21.5t-52.5 -60.5q-1 -105 -1.5 -207.5t-0.5 -207.5q4 -7 14 -10t20 -6.5t18 -11t8 -22.5h-300q0 17 9 24.5t19.5 11t20.5 7.5t11 13q-1 118 1.5 238t2.5 238q0 11 -9.5 15t-21.5 8t-21.5 11t-9.5 25l240 25v-70
q11 14 26 27t34 23.5t43.5 17t55.5 6.5q59 0 97.5 -19.5t61 -52.5t31.5 -75.5t9 -88.5v-325z" />
    <glyph glyph-name="ograve" unicode="&#xf2;" horiz-adv-x="613" 
d="M412 683l-20 -25l-182 96l62 85zM315 620q68 -1 118.5 -28.5t85 -72t51.5 -101t17 -115.5q0 -58 -17 -114t-51 -99.5t-86 -70t-121 -26.5q-71 0 -124.5 25.5t-89 68t-53 97.5t-17.5 115q0 59 18 116.5t54 102.5t89.5 73t125.5 29zM309 42q17 0 32.5 10t28 27.5t20 42
t7.5 52.5v68t-0.5 73t-0.5 72.5v66.5q0 26 -7.5 47.5t-19 36.5t-26 23.5t-28.5 8.5q-16 0 -33 -8t-30 -23t-21.5 -37.5t-8.5 -51.5q0 -31 -1 -67l-2 -72t-2 -71.5t-1 -65.5q0 -28 8 -52.5t21 -42t29.5 -27.5t34.5 -10z" />
    <glyph glyph-name="oacute" unicode="&#xf3;" horiz-adv-x="613" 
d="M350 839l62 -85l-182 -96l-20 25zM315 620q68 -1 118.5 -28.5t85 -72t51.5 -101t17 -115.5q0 -58 -17 -114t-51 -99.5t-86 -70t-121 -26.5q-71 0 -124.5 25.5t-89 68t-53 97.5t-17.5 115q0 59 18 116.5t54 102.5t89.5 73t125.5 29zM309 42q17 0 32.5 10t28 27.5t20 42
t7.5 52.5v68t-0.5 73t-0.5 72.5v66.5q0 26 -7.5 47.5t-19 36.5t-26 23.5t-28.5 8.5q-16 0 -33 -8t-30 -23t-21.5 -37.5t-8.5 -51.5q0 -31 -1 -67l-2 -72t-2 -71.5t-1 -65.5q0 -28 8 -52.5t21 -42t29.5 -27.5t34.5 -10z" />
    <glyph glyph-name="ocircumflex" unicode="&#xf4;" horiz-adv-x="613" 
d="M471 658h-45l-115 57l-111 -57h-41l133 154h39zM315 620q68 -1 118.5 -28.5t85 -72t51.5 -101t17 -115.5q0 -58 -17 -114t-51 -99.5t-86 -70t-121 -26.5q-71 0 -124.5 25.5t-89 68t-53 97.5t-17.5 115q0 59 18 116.5t54 102.5t89.5 73t125.5 29zM309 42q17 0 32.5 10
t28 27.5t20 42t7.5 52.5v68t-0.5 73t-0.5 72.5v66.5q0 26 -7.5 47.5t-19 36.5t-26 23.5t-28.5 8.5q-16 0 -33 -8t-30 -23t-21.5 -37.5t-8.5 -51.5q0 -31 -1 -67l-2 -72t-2 -71.5t-1 -65.5q0 -28 8 -52.5t21 -42t29.5 -27.5t34.5 -10z" />
    <glyph glyph-name="otilde" unicode="&#xf5;" horiz-adv-x="613" 
d="M509 777q-21 -62 -55 -84t-73 -22q-27 0 -54.5 6.5t-53.5 14.5t-49.5 14.5t-41.5 6.5q-16 0 -27 -6.5t-16 -23.5l-22 7q17 54 49 72.5t71 18.5q24 0 50 -4.5t50.5 -10t48 -10t43.5 -4.5t36 7t24 25zM315 620q68 -1 118.5 -28.5t85 -72t51.5 -101t17 -115.5
q0 -58 -17 -114t-51 -99.5t-86 -70t-121 -26.5q-71 0 -124.5 25.5t-89 68t-53 97.5t-17.5 115q0 59 18 116.5t54 102.5t89.5 73t125.5 29zM309 42q17 0 32.5 10t28 27.5t20 42t7.5 52.5v68t-0.5 73t-0.5 72.5v66.5q0 26 -7.5 47.5t-19 36.5t-26 23.5t-28.5 8.5q-16 0 -33 -8
t-30 -23t-21.5 -37.5t-8.5 -51.5q0 -31 -1 -67l-2 -72t-2 -71.5t-1 -65.5q0 -28 8 -52.5t21 -42t29.5 -27.5t34.5 -10z" />
    <glyph glyph-name="odieresis" unicode="&#xf6;" horiz-adv-x="613" 
d="M417 823q33 0 56.5 -24t23.5 -58q0 -35 -23.5 -59t-56.5 -24t-56.5 24t-23.5 59q0 34 23.5 58t56.5 24zM210 823q33 0 56 -24t23 -58q0 -35 -23 -59t-56 -24t-56.5 24t-23.5 59q0 34 23.5 58t56.5 24zM315 620q68 -1 118.5 -28.5t85 -72t51.5 -101t17 -115.5
q0 -58 -17 -114t-51 -99.5t-86 -70t-121 -26.5q-71 0 -124.5 25.5t-89 68t-53 97.5t-17.5 115q0 59 18 116.5t54 102.5t89.5 73t125.5 29zM309 42q17 0 32.5 10t28 27.5t20 42t7.5 52.5v68t-0.5 73t-0.5 72.5v66.5q0 26 -7.5 47.5t-19 36.5t-26 23.5t-28.5 8.5q-16 0 -33 -8
t-30 -23t-21.5 -37.5t-8.5 -51.5q0 -31 -1 -67l-2 -72t-2 -71.5t-1 -65.5q0 -28 8 -52.5t21 -42t29.5 -27.5t34.5 -10z" />
    <glyph glyph-name="divide" unicode="&#xf7;" horiz-adv-x="578" 
d="M287 505q-19 0 -35.5 7t-29 19t-19.5 28t-7 34t7 34t19.5 28t29 19t35.5 7t35.5 -7t28.5 -19t19 -28t7 -34t-7 -34t-19 -28t-28.5 -19t-35.5 -7zM287 303q19 0 35.5 -7t28.5 -19t19 -28t7 -34t-7 -34t-19 -27.5t-28.5 -18.5t-35.5 -7t-35.5 7t-29 18.5t-19.5 27.5t-7 34
t7 34t19.5 28t29 19t35.5 7zM26 440v-66h522v66h-522z" />
    <glyph glyph-name="oslash" unicode="&#xf8;" horiz-adv-x="613" 
d="M315 620q18 0 34 -3l35 83h80l-43 -103q41 -18 72 -49.5t52 -70.5t31.5 -84t10.5 -91q0 -58 -17 -113.5t-51.5 -99t-86.5 -70t-121 -26.5q-38 0 -70.5 7t-60.5 21l-24 -57h-79l42 100q-46 45 -68.5 107t-22.5 129q0 59 18 116.5t54 102.5t89.5 72.5t125.5 28.5zM309 42
q17 0 32.5 10t28 27.5t20 42t7.5 52.5v68t-0.5 73t-0.5 72.5v66.5q0 30 -11 57l-162 -387q11 -38 35 -60t51 -22zM222 450q0 -33 -1 -71t-3 -76l111 265q-10 2 -14 2q-16 0 -33 -8t-30 -23t-21.5 -37.5t-8.5 -51.5z" />
    <glyph glyph-name="ugrave" unicode="&#xf9;" horiz-adv-x="684" 
d="M422 683l-20 -25l-182 96l62 85zM425 0v76q-11 -15 -26 -30t-34.5 -26.5t-45 -19t-58.5 -7.5q-59 0 -97.5 20t-61 53.5t-31.5 76.5t-9 89v300q0 11 -9.5 15t-21.5 8t-21.5 11t-9.5 25l236 25v-125v-90t0.5 -83.5t0.5 -106.5q0 -34 2.5 -61t10.5 -46t23 -28.5t40 -9.5
q27 0 56.5 24.5t56.5 70.5q1 94 2 186.5t1 184.5q0 11 -9.5 15t-21.5 8t-21.5 11t-9.5 25l241 25q1 -141 -1.5 -278.5t-2.5 -278.5q0 -11 9.5 -15.5t21.5 -8t21.5 -11t9.5 -24.5h-241z" />
    <glyph glyph-name="uacute" unicode="&#xfa;" horiz-adv-x="684" 
d="M370 839l62 -85l-182 -96l-20 25zM425 0v76q-11 -15 -26 -30t-34.5 -26.5t-45 -19t-58.5 -7.5q-59 0 -97.5 20t-61 53.5t-31.5 76.5t-9 89v300q0 11 -9.5 15t-21.5 8t-21.5 11t-9.5 25l236 25v-125v-90t0.5 -83.5t0.5 -106.5q0 -34 2.5 -61t10.5 -46t23 -28.5t40 -9.5
q27 0 56.5 24.5t56.5 70.5q1 94 2 186.5t1 184.5q0 11 -9.5 15t-21.5 8t-21.5 11t-9.5 25l241 25q1 -141 -1.5 -278.5t-2.5 -278.5q0 -11 9.5 -15.5t21.5 -8t21.5 -11t9.5 -24.5h-241z" />
    <glyph glyph-name="ucircumflex" unicode="&#xfb;" horiz-adv-x="684" 
d="M481 658h-45l-115 57l-111 -57h-41l133 154h39zM425 0v76q-11 -15 -26 -30t-34.5 -26.5t-45 -19t-58.5 -7.5q-59 0 -97.5 20t-61 53.5t-31.5 76.5t-9 89v300q0 11 -9.5 15t-21.5 8t-21.5 11t-9.5 25l236 25v-125v-90t0.5 -83.5t0.5 -106.5q0 -34 2.5 -61t10.5 -46
t23 -28.5t40 -9.5q27 0 56.5 24.5t56.5 70.5q1 94 2 186.5t1 184.5q0 11 -9.5 15t-21.5 8t-21.5 11t-9.5 25l241 25q1 -141 -1.5 -278.5t-2.5 -278.5q0 -11 9.5 -15.5t21.5 -8t21.5 -11t9.5 -24.5h-241z" />
    <glyph glyph-name="udieresis" unicode="&#xfc;" horiz-adv-x="684" 
d="M437 823q33 0 56.5 -24t23.5 -58q0 -35 -23.5 -59t-56.5 -24t-56.5 24t-23.5 59q0 34 23.5 58t56.5 24zM230 823q33 0 56 -24t23 -58q0 -35 -23 -59t-56 -24t-56.5 24t-23.5 59q0 34 23.5 58t56.5 24zM425 0v76q-11 -15 -26 -30t-34.5 -26.5t-45 -19t-58.5 -7.5
q-59 0 -97.5 20t-61 53.5t-31.5 76.5t-9 89v300q0 11 -9.5 15t-21.5 8t-21.5 11t-9.5 25l236 25v-125v-90t0.5 -83.5t0.5 -106.5q0 -34 2.5 -61t10.5 -46t23 -28.5t40 -9.5q27 0 56.5 24.5t56.5 70.5q1 94 2 186.5t1 184.5q0 11 -9.5 15t-21.5 8t-21.5 11t-9.5 25l241 25
q1 -141 -1.5 -278.5t-2.5 -278.5q0 -11 9.5 -15.5t21.5 -8t21.5 -11t9.5 -24.5h-241z" />
    <glyph glyph-name="yacute" unicode="&#xfd;" horiz-adv-x="687" 
d="M687 615q0 -1 -1 -2q-80 -148 -156.5 -294.5t-154.5 -294.5q-24 -46 -51.5 -89.5t-60 -77.5t-70 -54.5t-81.5 -20.5q-27 0 -47.5 9t-34 23.5t-20 33t-6.5 37.5q0 18 6 35t18 30.5t29.5 22t40.5 8.5q0 -16 4 -32t12.5 -29t21.5 -21t32 -8q32 0 54 12t38.5 31.5t29 44
t25.5 48.5l-244 505q-5 10 -16.5 14t-23.5 8t-21.5 11.5t-9.5 25.5l241 25l174 -391l105 261q0 27 -8 37t-17.5 16.5t-17.5 16t-8 35.5l218 25v-1zM420 839l62 -85l-182 -96l-20 25z" />
    <glyph glyph-name="ydieresis" unicode="&#xff;" horiz-adv-x="687" 
d="M687 615q0 -1 -1 -2q-80 -148 -156.5 -294.5t-154.5 -294.5q-24 -46 -51.5 -89.5t-60 -77.5t-70 -54.5t-81.5 -20.5q-27 0 -47.5 9t-34 23.5t-20 33t-6.5 37.5q0 18 6 35t18 30.5t29.5 22t40.5 8.5q0 -16 4 -32t12.5 -29t21.5 -21t32 -8q32 0 54 12t38.5 31.5t29 44
t25.5 48.5l-244 505q-5 10 -16.5 14t-23.5 8t-21.5 11.5t-9.5 25.5l241 25l174 -391l105 261q0 27 -8 37t-17.5 16.5t-17.5 16t-8 35.5l218 25v-1zM487 823q33 0 56.5 -24t23.5 -58q0 -35 -23.5 -59t-56.5 -24t-56.5 24t-23.5 59q0 34 23.5 58t56.5 24zM280 823q33 0 56 -24
t23 -58q0 -35 -23 -59t-56 -24t-56.5 24t-23.5 59q0 34 23.5 58t56.5 24z" />
    <glyph glyph-name="OE" unicode="&#x152;" horiz-adv-x="1208" 
d="M1157 290q2 3 4 3q1 0 3 -2q0 -42 -3.5 -75.5t-8 -66.5t-8.5 -68.5t-4 -80.5h-540q-4 4 -13 10.5t-14 11.5q-35 -15 -72.5 -22t-75.5 -7q-71 0 -139.5 25.5t-122 76.5t-86 128t-32.5 180v30q0 103 32.5 179t86 126t122 74.5t140.5 24.5t141 -26l241 25h332q0 -45 4 -80
t8.5 -68t8 -66.5t3.5 -75.5q-1 -3 -3 -3q-3 0 -4 4q-16 41 -30.5 73.5t-31 59t-36.5 49.5t-47 45h-204q0 -85 -0.5 -169t-0.5 -169l78 3q26 5 45.5 11.5t36 17.5t31 28t29.5 43q2 3 5 3q1 0 3 -2v-259q-1 -2 -3 -2q-3 0 -5 3q-20 34 -39.5 53.5t-44 30t-57 14t-79.5 5.5
v-323h206q27 23 47 45.5t36 49.5t30.5 59t30.5 74zM427 50q37 0 72.5 25.5t63 73t45 115.5t18.5 154q-1 86 -18.5 153t-45.5 113.5t-63 71t-72 24.5t-73 -24t-64.5 -70t-46 -113.5t-18.5 -154.5q1 -87 19 -155.5t46 -116t64 -72t73 -24.5z" />
    <glyph glyph-name="oe" unicode="&#x153;" horiz-adv-x="958" 
d="M886 201q6 8 16 13.5t19 5.5q19 0 19 -22q0 -26 -11.5 -61.5t-41 -67.5t-80 -54t-128.5 -22q-60 0 -106 18t-81 50q-34 -32 -79.5 -50t-103.5 -18q-70 0 -123 25.5t-88 68.5t-52.5 98t-17.5 114t18 116.5t54 102.5t89.5 73t125.5 29q57 -1 102 -21t78 -53q35 32 82.5 53
t107.5 21q55 0 95 -13t66.5 -34t39 -49t12.5 -58q0 -36 -17.5 -72t-55 -64.5t-97 -46.5t-143.5 -18v-1q17 -57 52.5 -90.5t95.5 -33.5q52 0 92.5 17.5t60.5 43.5zM309 42q17 0 32.5 10t28 27.5t20 42t7.5 52.5v68t-0.5 73t-0.5 72.5v66.5q0 26 -7.5 47.5t-19 36.5t-26 23.5
t-28.5 8.5q-16 0 -33 -8t-30 -23t-21.5 -37.5t-8.5 -51.5q0 -31 -1 -67l-2 -72t-2 -71.5t-1 -65.5q0 -28 8 -52.5t21 -42t29.5 -27.5t34.5 -10zM676 567q-29 0 -48.5 -17t-31.5 -44t-17.5 -60t-5.5 -65q0 -20 1.5 -38t5.5 -38q44 0 74.5 15t50.5 38t29 51.5t9 56.5
q0 41 -17.5 70.5t-49.5 30.5z" />
    <glyph glyph-name="Scaron" unicode="&#x160;" horiz-adv-x="714" 
d="M199 1042h45l115 -57l111 57h41l-133 -154h-39zM375 500q51 -26 105 -52.5t98.5 -60t73 -76t28.5 -100.5q0 -67 -31.5 -109.5t-79.5 -66.5t-106 -33t-111 -9q-44 0 -83 5.5t-75 15.5t-71 24.5t-71 31.5q0 20 -3.5 57.5t-7.5 78t-7.5 78t-3.5 57.5q0 3 3 3q4 0 5 -4
q13 -29 27.5 -61t31.5 -63.5t38 -60.5t47 -50.5t58.5 -34.5t71.5 -13q38 0 70.5 10t56 27.5t36.5 40.5t13 50q0 20 -9.5 37.5t-29.5 34.5t-51.5 34.5t-75.5 38.5q-49 23 -101 47.5t-94.5 57t-69.5 75.5t-27 102t26.5 101t68.5 70t93.5 41t102.5 13q44 0 83 -3.5t75 -11
t71.5 -19.5t71.5 -29q0 -20 2.5 -51t6 -64t6 -64t2.5 -51q-1 -3 -4 -3t-4 4q-19 44 -41.5 87t-53 76.5t-72.5 54.5t-101 21q-33 0 -61 -10t-48 -26.5t-31.5 -38.5t-11.5 -47q0 -30 13 -53t35.5 -41.5t52 -34.5t63.5 -33z" />
    <glyph glyph-name="scaron" unicode="&#x161;" horiz-adv-x="544" 
d="M116 812h45l115 -57l111 57h41l-133 -154h-39zM213 484q0 -31 23 -54.5t57 -43.5t74 -40.5t74 -46t57 -59t23 -79.5q0 -52 -24.5 -85t-62 -51.5t-82 -25t-85.5 -6.5q-47 0 -92 8.5t-80 26.5t-56 44.5t-21 62.5q0 39 25.5 68.5t69.5 29.5q18 0 35.5 -6.5t31.5 -21.5
q-16 -9 -24.5 -31.5t-8.5 -44.5t8 -39.5t21.5 -28.5t30.5 -17t34 -6t33.5 5t29.5 16t20.5 27.5t7.5 39.5q0 32 -22 54t-55.5 40.5t-72.5 37t-72.5 44.5t-55.5 62t-22 90q0 45 22.5 76.5t57.5 51t78.5 28.5t85.5 9q61 0 104 -12.5t70 -32t39.5 -44.5t12.5 -49
q0 -40 -25 -70.5t-69 -30.5q-20 0 -41 10t-38 33q21 11 31 31t10 42q0 39 -22 60t-51 21q-31 0 -57 -22t-27 -71z" />
    <glyph glyph-name="Ydieresis" unicode="&#x178;" horiz-adv-x="794" 
d="M543 1045q33 0 56.5 -24t23.5 -58q0 -35 -23.5 -59t-56.5 -24t-56.5 24t-23.5 59q0 34 23.5 58t56.5 24zM336 1045q33 0 56 -24t23 -58q0 -35 -23 -59t-56 -24t-56.5 24t-23.5 59q0 34 23.5 58t56.5 24zM794 837q0 -2 -0.5 -2t-1.5 -2l-289 -438q0 -58 -0.5 -94.5t-1 -70
t-0.5 -74v-106.5q4 -7 14 -10t20 -6.5t18 -11t8 -22.5h-300q0 17 8.5 24.5t19.5 11t20.5 7.5t11.5 13q0 91 1.5 172t2.5 168q-25 40 -58 85.5t-67.5 92.5t-68 92.5t-60.5 85.5q-6 9 -18 13t-23.5 8.5t-20.5 12.5t-9 25l240 26q56 -87 114.5 -183.5t115.5 -188.5
q21 30 38.5 56t36 54t40 60t49.5 75q0 24 -4.5 35.5t-10.5 19.5t-10.5 17t-4.5 29z" />
    <glyph glyph-name="Zcaron" unicode="&#x17d;" horiz-adv-x="765" 
d="M279 1042h45l115 -57l111 57h41l-133 -154h-39zM723 199q1 0 1.5 0.5t1.5 0.5t1 -1l-38 -199h-667v41l476 732h-285q-19 -12 -34.5 -25t-30 -29t-28.5 -36t-29 -46q-1 -1 -2 -1q-2 0 -2 2l38 199h611q0 -13 -1 -20.5t-3 -13t-6 -11t-10 -14.5l-466 -715h342
q38 25 69.5 54.5t61.5 81.5z" />
    <glyph glyph-name="zcaron" unicode="&#x17e;" horiz-adv-x="609" 
d="M596 199q1 1 2 1l1 -1l-37 -199h-553v41l346 534h-177q-38 -25 -71.5 -65.5t-64.5 -92.5q-1 -1 -2 -1q-2 0 -2 2l38 198h492q0 -13 -1 -20t-3 -12.5t-6 -11t-10 -14.5l-335 -516h238q38 24 76 64.5t69 92.5zM151 812h45l115 -57l111 57h41l-133 -154h-39z" />
    <glyph glyph-name="tilde" unicode="&#x2dc;" horiz-adv-x="447" 
d="M419 777q-21 -62 -55 -84t-73 -22q-27 0 -54.5 6.5t-53.5 14.5t-49.5 14.5t-41.5 6.5q-16 0 -27 -6.5t-16 -23.5l-22 7q17 54 49 72.5t71 18.5q24 0 50 -4.5t50.5 -10t48 -10t43.5 -4.5t36 7t24 25z" />
    <glyph glyph-name="endash" unicode="&#x2013;" horiz-adv-x="627" 
d="M582 340v-66h-542v66h542z" />
    <glyph glyph-name="emdash" unicode="&#x2014;" horiz-adv-x="833" 
d="M798 340v-66h-758v66h758z" />
    <glyph glyph-name="quoteleft" unicode="&#x2018;" horiz-adv-x="223" 
d="M96 651q-32 0 -56.5 21t-24.5 61q0 21 9.5 45.5t26 50t40 50t51.5 45.5l2 1q2 0 2 -2v-1q-9 -16 -23 -37.5t-14 -39.5q0 -10 9 -22.5t29 -21.5t29 -25.5t9 -35.5q0 -16 -6 -32t-17.5 -28.5t-28 -20.5t-37.5 -8z" />
    <glyph glyph-name="quoteright" unicode="&#x2019;" horiz-adv-x="213" 
d="M106 927q32 0 56.5 -21t24.5 -61q0 -21 -9.5 -45.5t-26 -50t-40 -50t-51.5 -45.5q-2 -2 -3 -2q-2 0 -2 2q0 1 1 2q9 16 23 37.5t14 39.5q0 10 -9 22.5t-29 21.5q-20 8 -29 24.5t-9 36.5q0 16 6 32t17.5 28.5t28 20.5t37.5 8z" />
    <glyph glyph-name="quotesinglbase" unicode="&#x201a;" horiz-adv-x="244" 
d="M119 162q32 0 56.5 -20.5t24.5 -61.5q0 -21 -9.5 -45.5t-26 -49.5t-40 -50t-51.5 -46q-1 -1 -3 -1t-2 1t1 2q9 16 23 37.5t14 39.5q0 11 -9 23t-29 21q-20 8 -29 24.5t-9 36.5q0 16 6 32t17.5 28.5t28 20.5t37.5 8z" />
    <glyph glyph-name="quotedblleft" unicode="&#x201c;" horiz-adv-x="432" 
d="M111 651q-32 0 -56.5 21t-24.5 61q0 21 9.5 45.5t26 50t40 50t51.5 45.5q0 1 2 1t2 -2v-1q-9 -16 -23 -37.5t-14 -39.5q0 -10 9 -22.5t29 -21.5t29 -25.5t9 -35.5q0 -16 -6 -32t-17.5 -28.5t-28 -20.5t-37.5 -8zM306 651q-32 0 -56.5 21t-24.5 61q0 21 9.5 45.5t26 50
t40 50t51.5 45.5l2 1q2 0 2 -2v-1q-9 -16 -23 -37.5t-14 -39.5q0 -10 9 -22.5t29 -21.5t29 -25.5t9 -35.5q0 -16 -6 -32t-17.5 -28.5t-28 -20.5t-37.5 -8z" />
    <glyph glyph-name="quotedblright" unicode="&#x201d;" horiz-adv-x="427" 
d="M306 927q32 0 56.5 -21t24.5 -61q0 -21 -9.5 -45.5t-26 -50t-40 -50t-51.5 -45.5q0 -2 -2 -2q-3 0 -3 2q0 1 0.5 1t0.5 1q9 16 23 37.5t14 39.5q0 10 -9 22.5t-29 21.5q-20 8 -29 24.5t-9 36.5q0 16 6 32t17.5 28.5t28 20.5t37.5 8zM111 927q32 0 56.5 -21t24.5 -61
q0 -21 -9.5 -45.5t-26 -50t-40 -50t-51.5 -45.5q-2 -2 -3 -2q-2 0 -2 2q0 1 1 2q9 16 23 37.5t14 39.5q0 10 -9 22.5t-29 21.5q-20 8 -29 24.5t-9 36.5q0 16 6 32t17.5 28.5t28 20.5t37.5 8z" />
    <glyph glyph-name="quotedblbase" unicode="&#x201e;" horiz-adv-x="442" 
d="M319 162q32 0 56.5 -20.5t24.5 -61.5q0 -21 -9.5 -45.5t-26 -49.5t-40 -50t-51.5 -46q-1 -1 -3 -1t-2 1t1 2q9 16 23 37.5t14 39.5q0 11 -9 23t-29 21q-20 8 -29 24.5t-9 36.5q0 16 6 32t17.5 28.5t28 20.5t37.5 8zM119 162q32 0 56.5 -20.5t24.5 -61.5q0 -21 -9.5 -45.5
t-26 -49.5t-40 -50t-51.5 -46q-1 -1 -3 -1t-2 1t1 2q9 16 23 37.5t14 39.5q0 11 -9 23t-29 21q-20 8 -29 24.5t-9 36.5q0 16 6 32t17.5 28.5t28 20.5t37.5 8z" />
    <glyph glyph-name="daggerdbl" unicode="&#x2021;" horiz-adv-x="296" 
d="M153 553l105 328l79 -6l-103 -322h217v-66h-238l-51 -161h289v-66h-310l-94 -298l-79 6l92 292h-214v66h235l51 161h-286v66h307z" />
    <glyph glyph-name="bullet" unicode="&#x2022;" horiz-adv-x="311" 
d="M151 408q24 0 45.5 -9t37.5 -25t25 -37.5t9 -46.5q0 -24 -9 -45.5t-25 -37.5t-37.5 -25t-45.5 -9t-46 9t-38 25t-25.5 37.5t-9.5 45.5q0 25 9.5 46.5t25.5 37.5t38 25t46 9z" />
    <glyph glyph-name="ellipsis" unicode="&#x2026;" horiz-adv-x="792" 
d="M123 164q19 0 35.5 -7t28.5 -18.5t19 -27.5t7 -34q0 -37 -26 -62.5t-64 -25.5t-64.5 25.5t-26.5 62.5q0 18 7 34t19.5 27.5t29 18.5t35.5 7zM387 164q19 0 35.5 -7t28.5 -18.5t19 -27.5t7 -34q0 -37 -26 -62.5t-64 -25.5t-64.5 25.5t-26.5 62.5q0 18 7 34t19.5 27.5
t29 18.5t35.5 7zM651 164q19 0 35.5 -7t28.5 -18.5t19 -27.5t7 -34q0 -37 -26 -62.5t-64 -25.5t-64.5 25.5t-26.5 62.5q0 18 7 34t19.5 27.5t29 18.5t35.5 7z" />
    <glyph glyph-name="perthousand" unicode="&#x2030;" horiz-adv-x="743" 
d="M614 283q25 -2 43.5 -12.5t30.5 -27t18 -37t6 -42.5q0 -25 -8 -50t-23 -44.5t-37.5 -31.5t-51.5 -12q-52 0 -78.5 28.5t-31.5 68.5q-10 -39 -39 -68t-75 -29q-29 0 -50 9.5t-35 25.5t-20.5 37t-6.5 44q0 26 8.5 51t24 45t39 32.5t53.5 12.5q49 0 74.5 -30t30.5 -71
q11 41 41.5 71t78.5 30h8zM444 816l-304 -808h-67l304 808h67zM177 799q48 -4 70 -37t22 -75q0 -26 -8.5 -52t-24.5 -47t-39.5 -34t-53.5 -13q-27 0 -47 9t-33 24t-19.5 34.5t-6.5 41.5q0 27 9 53.5t26 47.5t42 34.5t56 13.5h7zM639 222q0 17 -8.5 29t-18.5 12
q-14 0 -27.5 -11.5t-16.5 -35.5q-4 -28 -10 -63t-6 -59q0 -20 10 -34t23 -14q18 0 28 17t15 42t7 54t4 54v9zM414 222q0 17 -8.5 29t-18.5 12q-14 0 -27.5 -11.5t-16.5 -35.5q-4 -28 -10 -63t-6 -59q0 -20 10 -34t23 -14q18 0 28 17t15 42t7 54t4 54v9zM108 618
q-1 -4 -1 -12q0 -18 8.5 -31t21.5 -13q14 0 27.5 13.5t17.5 38.5l17 115q1 4 1 11q0 19 -9 28.5t-20 9.5q-17 0 -28 -16t-17.5 -40t-10.5 -52t-7 -52z" />
    <glyph glyph-name="Euro" unicode="&#x20ac;" horiz-adv-x="794" 
d="M645 294q23 0 42 -9.5t32 -26t20 -38t7 -45.5q0 -31 -13.5 -63.5t-42.5 -59t-74.5 -43t-109.5 -16.5q-81 0 -145 27t-110.5 73t-75.5 106.5t-41 127.5h-95v47h89q-3 23 -3 44q0 10 0.5 19t1.5 18h-88v48h93q11 67 39 127.5t73.5 106.5t108 73t141.5 27q68 0 118 -17
t83 -43.5t49.5 -58.5t16.5 -62q0 -41 -28 -67.5t-85 -26.5q-30 0 -56 9q19 51 19 90q0 33 -11 57t-28.5 39t-38 22.5t-38.5 7.5q-46 0 -81 -23t-60.5 -62t-41.5 -90.5t-22 -108.5h298v-48h-301q-1 -8 -1 -16.5v-17.5q0 -11 0.5 -23t1.5 -24h300v-47h-295q8 -56 24 -106.5
t40.5 -89t57.5 -61t74 -22.5q26 0 47 10.5t35.5 28t22 40t7.5 46.5q0 25 -8.5 49t-26.5 44q19 14 39 21t40 7z" />
    <glyph glyph-name="trademark" unicode="&#x2122;" horiz-adv-x="569" 
d="M525 590q1 -3 4.5 -4l7 -2t6 -3t2.5 -7h-96q0 10 8.5 10.5t10.5 5.5v171l-73 -187h-23l-68 189v-189h-39q0 5 2.5 7t6 3t6.5 2t4 4v220q0 5 -9 7t-10 10v2l79 8l59 -190l59 158q0 8 -2 11.5t-4 6t-4 5.5t-2 9l95 -8q0 -6 -3 -8t-7 -3.5t-7 -2.5t-3 -5v-220zM19 836h219
q1 -28 4.5 -46.5t3.5 -44.5q-1 -1 -2 -1q-11 27 -20 43t-26 30h-41q-1 -3 -1 -13v-215q3 -4 11 -5t8 -10h-95q0 9 8 10t11 5q0 54 0.5 107.5t0.5 107.5v7t-1 6h-38q-17 -14 -26.5 -30t-21.5 -42q0 26 2.5 44.5t3.5 46.5z" />
    <glyph glyph-name="minus" unicode="&#x2212;" horiz-adv-x="654" 
d="M602 440v-66h-562v66h562z" />
    <glyph glyph-name="uniE000" unicode="&#xe000;" 
d="M668 -45q8 13 26.5 20.5t40.5 7.5q15 0 30 -4t26.5 -13.5t19 -24.5t7.5 -36q0 -24 -10.5 -49t-34 -45.5t-61 -33.5t-90.5 -13q-69 0 -115 20.5t-74.5 57t-40.5 88.5t-12 115q-25 -26 -59 -39t-82 -13q-55 0 -96.5 16.5t-68.5 43.5t-40.5 62.5t-13.5 72.5q0 42 16.5 83.5
t49 74.5t80 53.5t110.5 20.5q26 0 55.5 -9.5t46.5 -22.5q0 31 -0.5 63.5t-7.5 59t-23 43.5t-46 17q-20 0 -39.5 -9t-35.5 -24t-28 -35.5t-18 -43.5q-8 -29 -27.5 -42t-41.5 -13q-27 0 -49.5 17.5t-22.5 49.5q0 24 16 53q19 33 49.5 52t69.5 29t85 12.5t96 2.5q61 0 100 -23
t61 -58t30 -76.5t8 -78.5q0 -64 -0.5 -130.5t-0.5 -133.5q0 -51 0.5 -100t1.5 -97q1 -38 21.5 -56t44.5 -18t45.5 18.5t21.5 50.5q0 14 -5 24.5t-15 12.5zM287 56q24 0 41.5 11t29 29.5t16.5 42t5 48.5q0 88 -17.5 132t-65.5 44q-16 0 -33 -7t-30 -21t-21.5 -35.5
t-8.5 -50.5q0 -27 0.5 -60.5t8 -63t25 -49.5t50.5 -20z" />
    <glyph glyph-name="uniE001" unicode="&#xe001;" horiz-adv-x="1170" 
d="M1025 426q34 -1 61 -21t46 -54t29 -79t10 -95q0 -47 -9.5 -96.5t-30 -95.5t-52.5 -87t-76 -71.5t-101.5 -48t-128.5 -17.5q-69 0 -138 16t-124 50.5t-90.5 89t-38.5 131.5q-26 -27 -60.5 -41t-83.5 -14q-55 0 -96.5 16.5t-68.5 43.5t-40.5 62.5t-13.5 72.5
q0 42 16.5 83.5t49 74.5t80 53.5t110.5 20.5q28 0 59.5 -11t48.5 -25q1 12 1.5 25t0.5 27q0 26 -3 51.5t-13 45.5t-27.5 33t-46.5 13q-22 0 -44.5 -8t-41 -26t-31.5 -47.5t-16 -72.5q-12 -5 -26.5 -8.5t-28.5 -3.5q-30 0 -54 14.5t-24 47.5q0 24 16.5 50t52.5 47t94 35
t140 14q60 0 100 -17t65 -46.5t38 -68.5t18 -82.5t5 -89v-87.5q0 -43 -0.5 -85.5t-0.5 -85.5t14 -85t41.5 -75.5t68 -54t92.5 -20.5q65 0 112 25.5t77.5 66t45 92t14.5 102.5q0 38 -7.5 74.5t-22 66.5t-36 51.5t-49.5 31.5q6 26 19 43.5t29.5 28.5t35 15.5t34.5 4.5zM286 56
q24 0 41.5 11t29 29.5t16.5 42t5 48.5q0 88 -17.5 132t-65.5 44q-16 0 -33 -7t-30 -21t-21.5 -35.5t-8.5 -50.5q0 -27 0.5 -60.5t8 -63t25 -49.5t50.5 -20z" />
    <glyph glyph-name="uniE002" unicode="&#xe002;" horiz-adv-x="656" 
d="M356 620q67 -1 117.5 -28t84 -70.5t50.5 -99.5t17 -114q0 -59 -17.5 -115.5t-52 -101t-87 -71.5t-123.5 -27q-283 0 -285 324v111.5t0.5 97.5t1 99.5t0.5 118.5q0 11 -9.5 15.5t-21.5 8t-21.5 11t-9.5 24.5l241 34l-2 -267q48 50 117 50zM333 43q20 0 39 12t34 36
t24.5 59.5t9.5 82.5q0 48 -2.5 108t-2.5 118q0 28 -8 48.5t-21.5 34t-30 20.5t-34.5 7q-19 0 -37.5 -7.5t-33 -22t-23.5 -36t-9 -50.5q0 -54 -0.5 -108t-0.5 -108q0 -98 27.5 -145.5t68.5 -48.5z" />
    <glyph glyph-name="uniE003" unicode="&#xe003;" horiz-adv-x="613" 
d="M525 200q7 8 17.5 14t19.5 6q8 0 13 -5t5 -17q0 -26 -12 -61.5t-41.5 -67.5t-80 -54t-127.5 -22q-70 0 -123 25.5t-88 68.5t-52.5 98t-17.5 114t18 116.5t54 102.5t89.5 73t125.5 29q54 0 96 -18t73 -49t52 -71.5t34 -85.5l-199 -32q0 4 3.5 10.5t8 13t8 13.5t3.5 11
q-4 27 -9.5 55t-15 51t-24.5 37.5t-39 14.5t-42.5 -16.5t-32 -44.5t-20.5 -64t-7 -74q0 -42 9 -83.5t28.5 -74t49.5 -53t72 -20.5q51 0 91.5 17.5t60.5 42.5z" />
    <glyph glyph-name="uniE004" unicode="&#xe004;" horiz-adv-x="662" 
d="M595 837q-1 -211 -1.5 -418.5t-0.5 -418.5l-115 57q-29 -25 -72.5 -44.5t-93.5 -19.5q-71 0 -124 27t-88 71t-52.5 100.5t-17.5 116.5q0 58 17 114t51 100t84 71t117 27q69 0 117 -50v174q0 11 -9.5 15.5t-21.5 8t-21.5 11t-9.5 24.5zM416 186q1 40 1.5 78.5t0.5 77.5
q0 28 -0.5 55.5t-0.5 55.5t-8.5 49.5t-23 36.5t-32.5 22.5t-37 7.5q-18 0 -35 -6.5t-30.5 -20t-22 -34t-8.5 -49.5l-4 -226q0 -47 9.5 -82.5t24.5 -59.5t34 -36t39 -12q34 0 60 36t33 107z" />
    <glyph glyph-name="uniE005" unicode="&#xe005;" horiz-adv-x="622" 
d="M527 201q6 8 16 13.5t19 5.5q19 0 19 -22q0 -26 -11.5 -61.5t-41 -67.5t-80 -54t-128.5 -22q-70 0 -123 25.5t-88 68.5t-52.5 98t-17.5 114t18 116.5t54 102.5t89.5 73t125.5 29q63 0 109.5 -24.5t79 -64t52 -91t29.5 -106.5l-372 -69q17 -57 53.5 -91t96.5 -34
q52 0 92.5 17.5t60.5 43.5zM317 570q-24 0 -43.5 -17t-34 -45t-22 -64.5t-7.5 -75.5q0 -15 1 -30.5t4 -30.5l193 35q0 25 -1 64t-9 75.5t-26.5 62.5t-54.5 26z" />
    <glyph glyph-name="uniE006" unicode="&#xe006;" horiz-adv-x="385" 
d="M261 618h85v-42h-85v-367q0 -38 0.5 -75t0.5 -75q0 -11 9.5 -15.5t21.5 -8t21.5 -11t9.5 -24.5h-301q0 16 8.5 23.5t19 11t20 6.5t12.5 11q0 31 0.5 62t0.5 63v399h-79v42h80q1 44 11 84t33 70t61.5 47.5t95.5 17.5q15 0 30 -0.5t31 -0.5q0 -27 -6.5 -38.5t-16 -15.5
t-20.5 -5.5t-20.5 -9t-16 -26t-6.5 -56.5v-67z" />
    <glyph glyph-name="uniE007" unicode="&#xe007;" horiz-adv-x="380" 
d="M571 773q0 -39 -21.5 -63t-52.5 -24q-27 0 -51 20q5 17 5.5 33t0.5 30q0 39 -22.5 61.5t-52.5 22.5q-24 0 -45 -12.5t-36.5 -40t-25 -70.5t-9.5 -104h142v-42h-142v-428q0 -69 -14 -137t-45.5 -121t-83 -86t-127.5 -33q-60 0 -101 11.5t-66.5 30t-37 41.5t-11.5 45
q0 38 21 62t52 24q26 0 51 -19q-4 -17 -4.5 -33t-0.5 -30q0 -39 22.5 -61.5t51.5 -22.5q20 0 40.5 11t37.5 34t27.5 60t10.5 89v257t1 258v24t1 24h-86v42h91q8 56 26 106t50 87.5t78.5 59.5t109.5 22q60 0 100.5 -11.5t66 -30t37 -41.5t12.5 -45z" />
    <glyph glyph-name="uniE008" unicode="&#xe008;" horiz-adv-x="647" 
d="M580 617l-2 -490q0 -61 -7.5 -122.5t-31 -111.5t-68 -81.5t-120.5 -31.5q-83 0 -140.5 14t-93.5 36t-52 47.5t-16 49.5q0 33 23.5 47t53.5 14q14 0 29 -3t27 -9q3 -43 15.5 -72.5t30.5 -47.5t40.5 -26t46.5 -8q26 0 42.5 17.5t26 45.5t13.5 62.5t5 68.5q-34 -23 -91 -23
q-70 0 -122.5 26.5t-87 70t-51.5 99t-17 114.5t17 115.5t51.5 101t85.5 72t119 28.5q30 -1 53 -8t41 -21zM311 42q30 0 56.5 28t34.5 73q-1 83 -1 165v166q-6 47 -32.5 71.5t-55.5 24.5q-18 0 -34 -8.5t-28 -23.5t-19 -36t-7 -47q0 -31 -0.5 -67t-0.5 -73t-0.5 -73t-0.5 -68
q0 -28 7.5 -52t20 -42t28.5 -28t32 -10z" />
    <glyph glyph-name="uniE009" unicode="&#xe009;" horiz-adv-x="679" 
d="M715 -45q7 13 25.5 20.5t40.5 7.5q15 0 30 -4t26.5 -13.5t19 -24.5t7.5 -36q0 -23 -10.5 -48t-34 -45.5t-60.5 -33.5t-90 -13q-78 0 -125.5 21t-73.5 55t-35 77t-9 88v96t-0.5 101.5l-1 103t-0.5 99.5q0 69 -14.5 105t-62.5 36q-25 0 -52.5 -21.5t-53.5 -61.5v-405
q0 -11 9.5 -15.5t21.5 -8t21.5 -11t9.5 -24.5h-303q0 18 9.5 25t21.5 11t21.5 8t9.5 15v693q0 11 -9.5 15.5t-21.5 8t-21.5 11t-9.5 24.5l242 26v-146.5t-1 -145.5q23 28 60.5 51.5t99.5 23.5q59 0 97.5 -19.5t61 -52.5t31.5 -75.5t9 -88.5v-184q-2 -72 0 -142.5t2 -133.5
q0 -38 20 -56t43 -18q25 0 47 17.5t22 51.5q0 14 -4.5 24t-14.5 12z" />
    <glyph glyph-name="uniE00A" unicode="&#xe00a;" horiz-adv-x="316" 
d="M349 -45q8 13 26 20.5t40 7.5q15 0 30 -4.5t27 -14t19.5 -24.5t7.5 -36q0 -24 -11 -47.5t-34.5 -43t-60.5 -31.5t-90 -12q-78 0 -125.5 21t-73.5 55t-34.5 77.5t-8.5 87.5q0 38 -0.5 76t-0.5 76q0 94 1 185.5t1 183.5q0 11 -9.5 15t-21.5 8t-21.5 11t-9.5 25l241 26
q-1 -102 -2 -204.5t-1 -205.5q0 -141 3 -278q1 -39 20.5 -57t43.5 -18q11 0 22.5 4.5t20.5 13t15 20t6 26.5q0 14 -5 24.5t-15 12.5zM152 671q-18 0 -34 6.5t-27.5 18t-18.5 27t-7 32.5t7 32.5t18.5 27t27.5 18t34 6.5t34 -6.5t27.5 -18t18.5 -27t7 -32.5t-7 -32.5
t-18.5 -27t-27.5 -18t-34 -6.5z" />
    <glyph glyph-name="uniE00B" unicode="&#xe00b;" horiz-adv-x="297" 
d="M241 617l-2 -577q0 -53 -6.5 -100.5t-27 -83t-60 -56.5t-106.5 -21q-48 1 -81.5 11.5t-54 27t-30 36.5t-9.5 40q0 16 5.5 31t15 27t23 19t30.5 7q15 0 30 -6t29 -21q-22 -23 -22 -54q0 -29 21.5 -44.5t46.5 -15.5q26 0 48 17t22 57q0 17 -7.5 28.5t-16.5 21t-17 18
t-9 19.5q-1 131 -1 262.5v263.5q0 11 -9.5 15.5t-21.5 8t-21.5 11t-9.5 24.5zM147 671q-18 0 -34 6.5t-27.5 18t-18.5 27t-7 32.5t7 32.5t18.5 27t27.5 18t34 6.5t34 -6.5t27.5 -18t18.5 -27t7 -32.5t-7 -32.5t-18.5 -27t-27.5 -18t-34 -6.5z" />
    <glyph glyph-name="uniE00C" unicode="&#xe00c;" horiz-adv-x="664" 
d="M790 -59q8 13 26 20.5t40 7.5q15 0 30 -4.5t27 -14t19.5 -24.5t7.5 -36q0 -37 -18 -64t-45.5 -44.5t-61 -26t-65.5 -8.5t-65 7.5t-64.5 23.5t-60.5 41.5t-53 61.5q-36 55 -68 102.5t-62.5 93.5t-61.5 93t-66 101l-8 -13v-199q0 -11 9.5 -15.5t21.5 -8t21.5 -11t9.5 -24.5
h-303q0 18 9.5 25t21.5 11t21.5 8t9.5 15v693q0 11 -9.5 15.5t-21.5 8t-21.5 11t-9.5 24.5l242 26q0 -123 -0.5 -244.5t-0.5 -243.5q32 65 71 132t83 122.5t93.5 90.5t102.5 35q54 0 78 -26t24 -59q0 -24 -11 -48q-40 14 -75 14q-63 0 -122.5 -44t-131.5 -139
q43 -66 81.5 -127t76 -121t75 -121.5t78.5 -127.5q8 -12 17 -28.5t20.5 -30.5t25 -24t29.5 -10q32 0 45.5 19t13.5 40q0 17 -7 29.5t-18 15.5z" />
    <glyph glyph-name="uniE00D" unicode="&#xe00d;" horiz-adv-x="665" 
d="M783 -44q8 13 26.5 20.5t40.5 7.5q15 0 30 -4t26.5 -13.5t19 -24.5t7.5 -37q0 -32 -15 -58t-40.5 -44.5t-59.5 -29t-71 -10.5q-33 0 -66.5 7t-65.5 23t-61.5 41.5t-53.5 61.5q-37 57 -68.5 103.5t-61 91t-60.5 91.5t-69 105v-228q0 -11 9.5 -15.5t21.5 -8t21.5 -11
t9.5 -24.5h-303q0 18 9.5 25t21.5 11t21.5 8t9.5 15v693q0 11 -9.5 15.5t-21.5 8t-21.5 11t-9.5 24.5l242 26q0 -125 -0.5 -247t-0.5 -246l171 160q0 22 -9.5 31.5t-21.5 16t-21.5 14t-9.5 25.5l239 26q0 -2 -0.5 -2t-1.5 -1l-220 -208q43 -66 78.5 -121t68.5 -108.5
t67.5 -109t75.5 -122.5q8 -12 17 -28t20.5 -30t25 -24t29.5 -10q32 0 45.5 19t13.5 40q0 16 -7 28.5t-18 15.5z" />
    <glyph glyph-name="uniE00E" unicode="&#xe00e;" horiz-adv-x="666" 
d="M858 -162q8 13 26 20.5t40 7.5q15 0 30 -4t27 -13.5t19.5 -24.5t7.5 -36q0 -32 -15 -58t-40.5 -45.5t-59 -30t-71.5 -10.5q-66 0 -132.5 30.5t-114.5 103.5q-37 57 -80 122t-87 132t-86.5 132t-80.5 123v-228q0 -11 9.5 -15.5t21.5 -8t21.5 -11t9.5 -24.5h-303
q0 18 9.5 25t21.5 11t21.5 8t9.5 15v693q0 11 -9.5 15.5t-21.5 8t-21.5 11t-9.5 24.5l242 26q0 -125 -0.5 -247t-0.5 -246l171 160q0 22 -9.5 31.5t-21.5 16t-21.5 14t-9.5 25.5l239 26q0 -2 -0.5 -2t-1.5 -1l-220 -208q44 -66 91 -139.5t94 -149t93 -150t87 -140.5
q8 -12 17.5 -28t21 -30t25 -24t28.5 -10q32 0 45.5 19t13.5 40q0 16 -7 28.5t-18 15.5z" />
    <glyph glyph-name="uniE00F" unicode="&#xe00f;" horiz-adv-x="338" 
d="M0 0q0 17 9 24.5t19.5 11t20.5 7.5t11 13v95t0.5 120.5t1 133t1 132.5t1 119.5t0.5 94.5q0 11 -9.5 15.5t-21.5 8t-21.5 11t-9.5 24.5l240 26q0 -47 -0.5 -110.5t-0.5 -134.5t-0.5 -145.5t-0.5 -145.5v-134v-110q6 -10 16.5 -14.5t20 -8.5t16.5 -11t7 -22h-300z" />
    <glyph glyph-name="uniE010" unicode="&#xe010;" horiz-adv-x="345" 
d="M348 -44q8 13 26 20.5t40 7.5q15 0 30 -4.5t27 -14t19.5 -24.5t7.5 -36q0 -24 -11 -48.5t-34.5 -45t-60.5 -33.5t-90 -13q-78 0 -125.5 21t-73.5 55.5t-34.5 77.5t-8.5 88q0 51 -0.5 100t-0.5 100q0 137 1.5 272t1.5 272q0 11 -9.5 15.5t-21.5 8t-21.5 11t-9.5 24.5
l241 26q-1 -147 -2.5 -293.5t-1.5 -294.5q0 -162 3 -323q1 -38 18 -56t41 -18t46.5 17t22.5 52q0 14 -5 24t-15 12z" />
    <glyph glyph-name="uniE011" unicode="&#xe011;" horiz-adv-x="851" 
d="M705 426q34 -1 61 -21t46 -54t29 -78.5t10 -94.5q0 -71 -22 -145t-70 -134.5t-124 -99t-183 -38.5q-70 0 -140 16.5t-126 52.5t-90.5 93t-34.5 138v344.5t1 345.5q0 11 -9.5 15.5t-21.5 8t-21.5 11t-9.5 24.5l241 26q-3 -388 -3 -777q0 -43 14 -85t41 -75.5t67 -54
t92 -20.5q65 0 112.5 25.5t78 66t45 91.5t14.5 103q0 38 -7.5 74.5t-22.5 66.5t-36.5 51.5t-49.5 31.5q6 26 19.5 43.5t30 28.5t35 15.5t34.5 4.5z" />
    <glyph glyph-name="uniE012" unicode="&#xe012;" horiz-adv-x="1041" 
d="M1079 -44q8 13 26 20.5t40 7.5q15 0 30 -4.5t27 -14t19.5 -24.5t7.5 -36q0 -24 -11 -48.5t-35 -45t-61 -33.5t-89 -13q-78 0 -126 21t-73.5 55.5t-34 77.5t-8.5 88l-2 399q0 35 -3.5 61t-12 44t-23.5 27t-39 9q-21 0 -39 -11.5t-32.5 -27.5t-25.5 -33t-19 -28
q2 -15 3 -31l2 -32v-325q0 -11 9.5 -15t21.5 -8t21.5 -11t9.5 -25h-236v125v90t-0.5 84t-1.5 107q0 69 -14.5 105t-62.5 36q-25 0 -52.5 -21.5t-53.5 -61.5v-413q3 -7 13 -10t20.5 -7t18.5 -11t8 -23h-301q0 16 8 23t18.5 11t20.5 7.5t13 10.5l3 480q0 11 -9.5 15.5t-21.5 8
t-21.5 11t-9.5 24.5l240 26v-72q23 28 60.5 51.5t99.5 23.5q75 0 117 -31t62 -80q11 16 25.5 35.5t36 36t51.5 28t72 11.5q59 0 97.5 -19.5t61 -52.5t31.5 -75.5t9 -88.5v-183v-142.5t2 -133.5q1 -38 20.5 -56t43.5 -18t46 17t22 52q0 14 -4 24t-15 12z" />
    <glyph glyph-name="uniE013" unicode="&#xe013;" horiz-adv-x="1578" 
d="M1432 426q34 -1 61 -21t46 -54t29 -79t10 -95q0 -47 -9.5 -96.5t-30 -95.5t-52.5 -87t-76 -71.5t-101.5 -48t-128.5 -17.5t-141 16.5t-126 52.5t-90.5 93t-34.5 138q0 70 0.5 138.5t0.5 137.5q0 51 -1 90t-8 65.5t-23 40.5t-46 14q-21 0 -39 -11.5t-32.5 -27.5t-26 -33
t-18.5 -28q2 -15 3 -31l2 -32v-325q0 -11 9.5 -15t21.5 -8t21.5 -11t9.5 -25h-236v125v90t-0.5 84t-1.5 107q0 35 -3.5 61t-11.5 44t-23 27t-39 9q-25 0 -52.5 -21.5t-53.5 -61.5v-413q3 -7 13 -10t20.5 -7t18.5 -11t8 -23h-301q0 16 8 23t18.5 11t20.5 7.5t13 10.5l3 480
q0 11 -9.5 15.5t-21.5 8t-21.5 11t-9.5 24.5l240 26v-72q23 28 60.5 51.5t99.5 23.5q75 0 117 -31t62 -80q11 16 25.5 35.5t36 36t51.5 28t72 11.5q59 0 97.5 -19.5t61 -52.5t31.5 -75.5t9 -88.5v-325q0 -43 14 -85t41.5 -75.5t68 -54t92.5 -20.5q65 0 112 25.5t77.5 66
t45 92t14.5 102.5q0 38 -7.5 74.5t-22 66.5t-36 51.5t-49.5 31.5q6 26 19 43.5t29.5 28.5t35 15.5t34.5 4.5z" />
    <glyph glyph-name="uniE014" unicode="&#xe014;" horiz-adv-x="674" 
d="M715 -44q7 13 25.5 20.5t40.5 7.5q15 0 30 -4t26.5 -13.5t19 -24.5t7.5 -36q0 -24 -10.5 -49t-34 -45.5t-60.5 -33.5t-90 -13q-78 0 -125.5 21t-73.5 55.5t-35 77.5t-9 88v96t-0.5 101.5t-1 102.5t-0.5 99q0 69 -14.5 105t-62.5 36q-25 0 -52.5 -21.5t-52.5 -60.5
q-1 -105 -1.5 -207.5t-0.5 -207.5q4 -7 14 -10t20 -6.5t18 -11t8 -22.5h-300q0 17 9 24.5t19.5 11t20.5 7.5t11 13q-1 118 1.5 238t2.5 238q0 11 -9.5 15t-21.5 8t-21.5 11t-9.5 25l240 26v-71q11 14 26 27t34 23.5t43.5 17t55.5 6.5q59 0 97.5 -19.5t61 -52.5t31.5 -75.5
t9 -88.5v-231v-118t1 -110q1 -38 21 -56t43 -18q25 0 47 17t22 52q0 14 -4.5 24t-14.5 12z" />
    <glyph glyph-name="uniE015" unicode="&#xe015;" horiz-adv-x="1214" 
d="M1068 426q34 -1 61 -21t46 -54t29 -78.5t10 -94.5q0 -71 -22 -145t-70 -134.5t-124 -99t-183 -38.5q-70 0 -140 16.5t-126 52.5t-90.5 93t-34.5 138v230q0 60 0.5 107.5t-6 80.5t-22.5 50.5t-49 17.5q-25 0 -52.5 -21.5t-52.5 -60.5q-1 -105 -1.5 -207.5t-0.5 -207.5
q4 -7 14 -10t20 -6.5t18 -11t8 -22.5h-300q0 17 9 24.5t19.5 11t20.5 7.5t11 13q-1 118 1.5 238t2.5 238q0 11 -9.5 15t-21.5 8t-21.5 11t-9.5 25l240 26v-71q11 14 26 27t34 23.5t43.5 17t55.5 6.5q59 0 97.5 -19.5t61 -52.5t31.5 -75.5t9 -88.5q0 -81 -0.5 -162t-0.5 -163
q0 -43 14 -85t41.5 -75.5t68 -54t92.5 -20.5q65 0 112.5 25.5t78 66t45 91.5t14.5 103q0 38 -7.5 74.5t-22.5 66.5t-36.5 51.5t-49.5 31.5q6 26 19.5 43.5t30 28.5t35 15.5t34.5 4.5z" />
    <glyph glyph-name="uniE016" unicode="&#xe016;" horiz-adv-x="370" 
d="M550 875q49 0 72 -26.5t23 -61.5q0 -22 -8.5 -44t-25.5 -39.5t-42 -28.5t-58 -11q-11 0 -14 5t-3 13v17q0 11 -5 18.5t-25 7.5q-28 0 -55 -21.5t-51.5 -56.5t-45.5 -78.5t-36.5 -87t-24.5 -82.5t-10 -65q-1 -71 -1 -141.5v-142.5q4 -7 14 -10t20 -6.5t18 -11t8 -22.5
h-300q0 17 9 24.5t19.5 11t20.5 7.5t11 13q-1 118 1.5 238t2.5 238q0 11 -9.5 15t-21.5 8t-21.5 11t-9.5 25l240 26v-71q23 57 56 115.5t72.5 106t85 77.5t94.5 30z" />
    <glyph glyph-name="uniE017" unicode="&#xe017;" horiz-adv-x="544" 
d="M212 484q0 -31 23 -55t57 -46.5t74.5 -45.5t74.5 -51.5t57 -65t23 -86.5q0 -52 -19.5 -89t-53.5 -60.5t-81 -34.5t-101 -11q-68 0 -116.5 17.5t-80 45t-46 61t-14.5 65.5q0 24 7 45t21 36.5t34 25t45 9.5q37 0 71 -25.5t48 -73.5q-29 -11 -43.5 -36t-14.5 -51t16 -47.5
t50 -21.5q37 0 63.5 29.5t26.5 74.5q0 43 -22.5 72.5t-56 52.5t-72.5 44t-72.5 47t-56 59.5t-22.5 83.5q0 48 22.5 80.5t58 52t79 27.5t85.5 8q60 0 103 -12.5t70.5 -32.5t40 -44.5t12.5 -49.5q0 -40 -25 -70.5t-69 -30.5q-21 0 -42 11t-38 32q20 12 31 31.5t11 41.5
q0 40 -23.5 61t-52.5 21q-15 0 -29 -6t-25.5 -17.5t-19 -29t-8.5 -41.5z" />
    <glyph glyph-name="uniE018" unicode="&#xe018;" horiz-adv-x="869" 
d="M724 426q34 -1 61 -21t45.5 -54t28.5 -79t10 -95q0 -71 -22 -145t-70 -134t-123.5 -98.5t-182.5 -38.5q-71 0 -141 16.5t-125.5 52.5t-90 93t-34.5 138v511v4h-70v42q57 17 106 43.5t91 68.5l50 6v-118h102v-42h-102v-517q0 -43 14 -85t41 -75.5t67 -54t92 -20.5
q65 0 112.5 25.5t78 66t45 91.5t14.5 103q0 38 -7.5 74.5t-22.5 66.5t-36.5 51.5t-49.5 31.5q6 26 19.5 43.5t30 28.5t35 15.5t34.5 4.5z" />
    <glyph glyph-name="uniE019" unicode="&#xe019;" horiz-adv-x="370" 
d="M596 795q0 -45 -16 -75.5t-42.5 -50t-61.5 -30t-72.5 -15t-75.5 -5t-71 -0.5v-469q0 -38 6.5 -58.5t16 -31.5t20.5 -15t20.5 -8.5t16 -12t6.5 -25.5h-61q-60 0 -98.5 18t-60.5 49.5t-32 73t-12 89t-0.5 98t1.5 98.5v100.5t1 93.5h-71v42q33 9 58 18t47 21t44 29t48 44
l50 6v-117q11 0 24.5 -0.5t27.5 -0.5q29 0 60.5 2.5t57.5 11.5t42.5 26t16.5 47q0 26 -13.5 37t-28.5 11q-11 0 -20.5 -6.5t-11.5 -15.5q-14 8 -21 21.5t-7 29.5t5.5 32t17.5 28.5t31 20.5t45 8q21 0 41 -7t36 -21t26 -36.5t10 -54.5z" />
    <glyph glyph-name="uniE01A" unicode="&#xe01a;" horiz-adv-x="370" 
d="M633 756q0 -39 -14.5 -66.5t-39 -46t-56.5 -29t-67.5 -16t-72.5 -7t-71 -1.5h-55v-440q0 -38 6.5 -58.5t16 -31.5t20.5 -15t20.5 -8.5t16 -12t6.5 -25.5h-61q-59 0 -97.5 18t-61 48.5t-32 71.5t-12 87t-1 94t1.5 93v91t1 88h-71v42q33 9 58 18t47 21t44 29.5t48 44.5
l50 5v-117h52q33 0 70.5 2t69.5 10t53 23t21 42q0 17 -12.5 28t-27 21.5t-27 23t-12.5 33.5q0 23 19 41t57 18q21 0 41 -7t36 -21t26 -36.5t10 -54.5z" />
    <glyph glyph-name="uniE01B" unicode="&#xe01b;" horiz-adv-x="684" 
d="M716 -44q8 13 26 20.5t40 7.5q15 0 30 -4.5t27 -14t19.5 -24.5t7.5 -36q0 -24 -11 -48.5t-35 -45t-61 -33.5t-89 -13q-78 0 -125.5 21t-73.5 55.5t-34.5 77.5t-8.5 88v72q-11 -15 -26 -30.5t-35.5 -27.5t-46.5 -20t-59 -8q-59 0 -97.5 20t-61 53.5t-31.5 77t-9 89.5v299
q0 11 -9.5 15t-21.5 8t-21.5 11t-9.5 25l236 26v-125.5v-90.5t0.5 -83.5t0.5 -106.5q0 -35 2.5 -62t11 -45.5t23.5 -28t41 -9.5t56 26.5t57 71.5q0 92 0.5 183t0.5 185q0 11 -9.5 15t-21.5 8t-21.5 11t-9.5 25l241 26q0 -131 -2 -259.5t-2 -259.5q0 -44 0.5 -86.5t1.5 -86.5
q1 -38 19 -56t42 -18t46 17t22 52q0 14 -4 24t-15 12z" />
    <glyph glyph-name="uniE01C" unicode="&#xe01c;" horiz-adv-x="1220" 
d="M1074 426q34 -1 61 -21t46 -54t29 -78.5t10 -94.5q0 -71 -22 -145t-70 -134.5t-124 -99t-183 -38.5q-104 0 -177 20.5t-119.5 60.5t-69.5 99.5t-28 137.5q-11 -15 -26 -30.5t-35 -28t-46 -20t-59 -7.5q-59 0 -97.5 20t-61 53.5t-31.5 77t-9 89.5v299q0 11 -9.5 15
t-21.5 8t-21.5 11t-9.5 25l236 26v-125.5v-90.5t0.5 -83.5t0.5 -106.5q0 -35 2.5 -62t11 -45.5t23.5 -28t41 -9.5t55.5 25.5t55.5 69.5q1 94 2 187t1 184q0 11 -9.5 15t-21.5 8t-21.5 11t-9.5 25l241 26q0 -121 -1 -238.5t-3 -236.5q0 -53 6.5 -109t29 -102.5t65.5 -76.5
t116 -30q65 0 112.5 25.5t78 66t45 91.5t14.5 103q0 38 -7.5 74.5t-22.5 66.5t-36.5 51.5t-49.5 31.5q6 26 19.5 43.5t30 28.5t35 15.5t34.5 4.5z" />
    <glyph glyph-name="uniE01D" unicode="&#xe01d;" horiz-adv-x="687" 
d="M860 926q54 0 80 -29t26 -68q0 -29 -14 -60q-16 6 -34 6q-39 0 -80 -26.5t-81.5 -71.5t-80.5 -104t-77.5 -124t-72 -132t-63 -127t-51.5 -109.5t-38 -80.5h-46l-257 532q-5 10 -16.5 14t-23.5 8t-21.5 11.5t-9.5 25.5l241 26l174 -392q11 31 28.5 77.5t40.5 102t50 115.5
t57.5 118t63.5 110t67 91.5t69 63t69 23.5z" />
    <glyph glyph-name="uniE01E" unicode="&#xe01e;" horiz-adv-x="687" 
d="M526 934q25 0 51 -11t47.5 -35.5t35 -62.5t13.5 -92q0 -47 -16 -106t-42.5 -124t-60.5 -133.5t-69 -134.5t-68.5 -126t-59.5 -109h-29l-257 532q-5 10 -16.5 14t-23.5 8t-21.5 11.5t-9.5 25.5l241 26l174 -392q14 34 36 85t43 110t36 121t15 118q0 62 -25 111.5t-89 72.5
q0 43 28.5 67t66.5 24z" />
    <glyph glyph-name="uniE01F" unicode="&#xe01f;" horiz-adv-x="1049" 
d="M1230 926q54 0 79.5 -29t25.5 -68q0 -29 -14 -60q-16 6 -34 6q-39 0 -81 -26.5t-84 -71.5t-83.5 -104t-81 -124t-75 -132t-65.5 -127t-53.5 -109.5t-38.5 -80.5h-28l-163 339l-177 -339h-22l-264 532q-5 10 -16.5 14t-23.5 8t-21.5 11.5t-9.5 25.5l241 25l174 -391
l94 172l-64 135q-5 10 -14.5 14t-19.5 8t-17 11.5t-7 25.5h305q0 -16 -8.5 -24t-18 -12t-18 -7t-8.5 -11v-2q35 -78 70 -155t70 -157q15 42 41.5 110t61.5 146t76.5 157.5t86.5 144t92.5 105t92.5 40.5z" />
    <glyph glyph-name="uniE020" unicode="&#xe020;" horiz-adv-x="1049" 
d="M897 934q25 0 51 -11t47 -35.5t34.5 -62.5t13.5 -92q0 -47 -16.5 -106t-43 -124t-61 -133.5t-70 -134.5t-69.5 -126t-60 -109h-24l-164 340l-178 -340h-22l-264 532q-5 10 -16.5 14t-23.5 8t-21.5 11.5t-9.5 25.5l241 25l174 -391l94 172l-64 135q-5 10 -14.5 14t-19.5 8
t-17 11.5t-7 25.5h305q0 -16 -8.5 -24t-18 -12t-18 -7t-8.5 -11v-2q35 -78 70 -155.5t70 -156.5q14 35 36.5 86.5t44.5 111t37.5 122.5t15.5 119q0 62 -25 110t-87 70q0 22 8 39t21 29t30.5 18t36.5 6z" />
    <glyph glyph-name="uniE021" unicode="&#xe021;" horiz-adv-x="702" 
d="M943 859q54 0 87 -27.5t33 -69.5q0 -18 -6.5 -37t-20.5 -39q-34 19 -78 19q-48 0 -98 -17t-98.5 -46t-96 -66.5t-90.5 -77.5t-81.5 -80.5t-69.5 -75.5q48 -71 95.5 -141.5t98.5 -141.5q7 -9 19 -13t24 -8.5t20.5 -12.5t8.5 -25h-241q-43 61 -84 121.5t-82 120.5
q-18 -22 -34 -41t-27 -38t-17.5 -38t-6.5 -42q0 -18 4 -38.5t15 -44.5h-217q0 1 2 3q62 72 125 141.5t126 141.5q-22 34 -42 63.5t-39.5 59t-40.5 59.5t-45 64q-6 9 -18 12.5t-24 8t-20.5 12.5t-8.5 26l221 25q42 -58 81 -115.5t78 -115.5q32 38 71 87.5t83.5 102
t92.5 103.5t98 91t101 65t102 25z" />
    <glyph glyph-name="uniE022" unicode="&#xe022;" horiz-adv-x="687" 
d="M687 615q0 -1 -1 -2q-78 -146 -156 -291.5t-153 -293.5q-33 -65 -69.5 -132.5t-83 -123t-106 -91t-137.5 -35.5q-56 0 -96.5 15.5t-66.5 40t-39 55.5t-13 62q0 28 10 54.5t29 46.5t47.5 32.5t65.5 12.5q-2 -11 -3 -22t-1 -22q0 -29 8 -54.5t24.5 -44.5t42.5 -29.5
t62 -10.5q52 0 91.5 23.5t70.5 60t55 80.5t45 85l-242 501q-5 10 -16.5 14t-23.5 8t-21.5 11.5t-9.5 25.5l241 25l174 -389l105 259q0 27 -8 37t-17.5 16.5t-17.5 16t-8 35.5l218 25v-1z" />
    <glyph glyph-name="uniE023" unicode="&#xe023;" horiz-adv-x="686" 
d="M860 835q54 0 79.5 -26.5t25.5 -64.5q0 -29 -13 -58q-19 6 -38 6q-49 0 -100.5 -37t-102.5 -96t-99 -133.5t-90 -148.5t-77.5 -141t-59.5 -112q-33 -62 -69.5 -128.5t-82.5 -122t-105 -91.5t-137 -36q-56 0 -96.5 15.5t-66.5 40t-39 55.5t-13 62q0 28 10 54.5t29 46.5
t47.5 32.5t65.5 12.5q-2 -11 -3 -22t-1 -22q0 -29 8 -54.5t24.5 -44.5t42.5 -29.5t62 -10.5q51 0 89.5 22t68.5 56.5t54 76.5t45 83l-247 512q-5 10 -16.5 14t-23.5 8t-21.5 11.5t-9.5 25.5l240 25l179 -402q19 40 46 102t61 131t73.5 138t82 124.5t87.5 90.5t91 35z" />
    <glyph glyph-name="uniE024" unicode="&#xe024;" horiz-adv-x="706" 
d="M706 195q0 -51 -31 -94.5t-98 -66.5q-33 -11 -70.5 -17.5t-75 -10t-73.5 -5t-66 -1.5h-282v41l346 534h-177q-38 -25 -71.5 -65.5t-64.5 -92.5q-1 -1 -2 -1q-2 0 -2 2l38 198h492q0 -13 -1 -20t-3 -12.5t-6 -11t-10 -14.5l-335 -516h60q21 0 49 2t58 6.5t59.5 13.5
t52.5 23.5t37.5 34.5t14.5 48q0 20 -5.5 38.5t-19 34.5t-36.5 29t-58 22q18 27 49 40.5t66 13.5q39 0 70 -13t52 -34t32 -48.5t11 -57.5z" />
    <glyph glyph-name="uniE025" unicode="&#xe025;" horiz-adv-x="1837" 
d="M1745 53q3 -8 13 -11.5t20.5 -7t19 -11t8.5 -23.5h-302q0 16 8.5 23.5t19.5 11t20.5 7t12.5 11.5q1 59 1 117v117l-312 -4q-52 -76 -108 -152t-116.5 -145.5t-127 -129t-140.5 -103t-156 -68.5t-174 -25q-99 0 -178.5 34t-135.5 91t-86 130.5t-30 152.5q0 76 28 151.5
t88 141.5l221 -129q-10 -11 -25 -13.5t-32 -2.5q-8 0 -15 0.5t-14 0.5q-11 0 -19.5 -1.5t-11.5 -6.5q-34 -51 -50 -105.5t-16 -106.5q0 -56 19 -105.5t54.5 -87t86.5 -59.5t116 -22q101 0 190 34t168 91.5t150 134.5t136 163.5t126 177t120 176.5t117.5 161.5t119.5 131.5
q-9 34 -26 65t-42.5 54t-59.5 37t-77 14q-65 0 -112 -25.5t-77.5 -66t-45 -91.5t-14.5 -103q0 -38 7.5 -74t22.5 -66t36.5 -52t49.5 -32q-6 -25 -19 -42.5t-29.5 -28.5t-34.5 -16t-34 -5q-34 0 -61.5 20t-47 54t-29.5 79t-10 95q0 71 22 145t70 134.5t123.5 99t182.5 38.5
q50 0 99.5 -8t94.5 -25t83.5 -43.5t65.5 -63.5q20 9 43 15.5t44 6.5q16 0 23.5 -9t7.5 -21q0 -15 -7.5 -22t-19.5 -11.5t-27.5 -7.5t-32.5 -10q18 -43 18 -101q0 -170 -0.5 -337t-0.5 -336zM1566 356q0 89 0.5 177t0.5 176q-73 -76 -145.5 -181.5t-150.5 -220.5
q16 10 30 21.5t15 25.5zM1380 208q10 -15 19.5 -27t20 -22.5t22.5 -20t27 -20.5q-27 -18 -49 -41t-40 -49q-20 30 -41.5 51.5t-49.5 39.5q24 17 47.5 40t43.5 49z" />
    <glyph glyph-name="uniE026" unicode="&#xe026;" horiz-adv-x="863" 
d="M1126 -69q38 -11 58.5 -39.5t20.5 -63.5q0 -27 -12.5 -53.5t-39.5 -48.5t-68 -35.5t-98 -13.5q-67 0 -122.5 28.5t-102 75.5t-84 107.5t-68 124.5t-55.5 127t-45 114h-262q-7 -17 -19 -45.5l-24 -57t-21 -52t-9 -31.5q0 -18 10 -23t21.5 -8t21.5 -9.5t10 -27.5h-238
q0 18 7.5 24.5t19 11t23.5 11.5t21 26l360 764h29q57 -134 120 -284.5t124 -296.5q14 -32 31.5 -74.5t39.5 -87.5t48.5 -88t58.5 -76.5t69 -54.5t81 -21q35 0 59 17.5t35 59.5zM486 316l-90 216l17 123l-142 -339h215z" />
    <glyph glyph-name="uniE027" unicode="&#xe027;" horiz-adv-x="1003" 
d="M660 0q0 17 9 24.5t19.5 11t20.5 7.5t11 13v69t0.5 83t0.5 92v96l-242 -2v-251q0 -26 0.5 -51t0.5 -50q0 -53 -6.5 -101t-30 -84t-69.5 -57t-126 -21q-56 0 -95.5 12.5t-64 32.5t-36 44t-11.5 48q0 37 23 65t62 28q28 0 53 -27q-28 -21 -28 -55q0 -16 5.5 -31.5t16.5 -28
t26.5 -20t36.5 -7.5t34 8t19.5 21.5t9 29.5t2.5 33q0 32 -0.5 57t-0.5 49t-0.5 49.5t-0.5 56.5v738q-36 -31 -64 -68.5t-47.5 -78t-30 -81t-10.5 -76.5q0 -46 17 -79.5t55 -47.5q-6 -25 -19 -42.5t-29.5 -28.5t-34.5 -16t-34 -5q-51 0 -76.5 42.5t-25.5 108.5
q0 49 14.5 106.5t43 115t71 111t99 95t127.5 66t155 24.5q71 0 140.5 -17t125.5 -54t90.5 -94t34.5 -138v-92v-112.5v-123v-123.5t-0.5 -113t-0.5 -91v-20q4 -7 14 -10t20 -6.5t17.5 -11t7.5 -22.5h-299zM721 465q1 76 1 144v117q0 43 -13.5 85.5t-40.5 76.5t-66.5 55
t-91.5 21q-44 0 -83.5 -11.5t-74.5 -32.5l127 29v-526q8 8 13 18t5 24h224z" />
    <glyph glyph-name="uniE028" unicode="&#xe028;" horiz-adv-x="878" 
d="M686 421q35 -15 61.5 -36.5t44 -47.5t26.5 -56t9 -60q0 -42 -17 -81.5t-50.5 -70.5t-83.5 -50t-117 -19h-181q-4 -46 -18 -86.5t-41.5 -70.5t-70 -47.5t-103.5 -17.5q-56 0 -95.5 12.5t-64.5 32t-36.5 44t-11.5 48.5q0 38 24 65.5t63 27.5q14 0 27.5 -8t24.5 -19
q-28 -21 -28 -55q0 -21 7 -37.5t18 -28t25 -17t29 -5.5q28 0 50.5 18t22.5 59q0 204 0.5 406.5t0.5 406.5q0 43 -13.5 85t-40.5 75.5t-66.5 54t-92.5 20.5q-65 0 -112 -25.5t-77.5 -66t-45 -91.5t-14.5 -103q0 -38 7.5 -74t22.5 -66t36.5 -52t49.5 -32q-6 -25 -19 -42.5
t-29.5 -28.5t-34.5 -16t-34 -5q-35 0 -62 20t-46.5 54t-29.5 79t-10 95q0 71 22 145t70 134.5t123.5 99t182.5 38.5q59 0 117 -11t108.5 -35t89.5 -61t59 -90q42 4 85 6t97 2q66 0 116 -19.5t83.5 -51t50 -71.5t16.5 -82q0 -57 -30.5 -109.5t-93.5 -82.5zM373 790
q6 -28 8 -66t2 -80q0 -51 -1.5 -101t-1.5 -88q8 0 29.5 0.5t44.5 0.5h41.5h20.5q29 7 50.5 23t35.5 38t21 48t7 53q0 30 -8.5 59.5t-25 53.5t-41 39.5t-56.5 18.5q-33 3 -67 3q-15 0 -30 -0.5t-29 -1.5zM533 60q29 7 50.5 23.5t35.5 38.5t21 48.5t7 53.5q0 29 -7 56.5
t-21.5 50.5t-35.5 39.5t-48 22.5h-34t-46 0.5t-45 0.5h-30q0 -85 -0.5 -168.5t-0.5 -168.5q9 0 33 0.5t50.5 1t47.5 1t23 0.5z" />
    <glyph glyph-name="uniE029" unicode="&#xe029;" horiz-adv-x="1460" 
d="M1269 421q35 -15 61 -36.5t43.5 -47.5t26.5 -55.5t9 -59.5q0 -42 -16.5 -81.5t-50 -71t-84 -50.5t-117.5 -19h-186q-16 -77 -64.5 -139.5t-117 -107t-149.5 -69t-163 -24.5q-100 0 -184.5 34t-146 91t-96 130.5t-34.5 152.5q0 76 28 151.5t88 141.5l221 -129
q-10 -11 -25 -13.5t-32 -2.5q-8 0 -15 0.5t-14 0.5q-11 0 -19.5 -1.5t-11.5 -6.5q-34 -51 -50 -105.5t-16 -106.5q0 -56 23.5 -105.5t65 -87t97.5 -59.5t121 -22q81 0 140 23t98.5 65.5t59.5 103.5t23 138q1 170 1 337.5v337.5q0 43 -13.5 85t-40.5 75.5t-66.5 54
t-91.5 20.5q-65 0 -112.5 -25.5t-78 -66t-45 -92t-14.5 -102.5q0 -38 7.5 -74t22.5 -66t36.5 -52t49.5 -32q-6 -25 -19 -42.5t-29.5 -28.5t-34 -16t-34.5 -5q-34 0 -61.5 20t-46.5 54t-29.5 79t-10.5 95q0 71 22 145t70 134.5t124 99t183 38.5q58 0 116 -11t108.5 -35
t89.5 -61t59 -90q42 4 85 6t97 2q66 0 116 -19.5t83.5 -51t50 -71.5t16.5 -82q0 -57 -30.5 -109.5t-92.5 -82.5zM1115 60q29 7 50.5 23.5t35.5 38.5t21 48.5t7 53.5q0 29 -7 56.5t-21.5 50.5t-35.5 39.5t-48 22.5h-34t-46 0.5t-45 0.5h-30v-337q8 0 32 0.5t50.5 1t47.5 1
t23 0.5zM1081 789q-33 3 -67 3q-14 0 -29 -0.5t-30 -1.5q6 -28 8 -66t2 -80q0 -51 -1.5 -101t-1.5 -88q8 0 29 0.5t44 0.5h42h22q29 7 50 23t35 37.5t21 47.5t7 53q0 31 -8.5 60.5t-25 53.5t-41 39.5t-56.5 18.5z" />
    <glyph glyph-name="uniE02A" unicode="&#xe02a;" horiz-adv-x="761" 
d="M703 280q2 2 4 2q3 0 4 -3v-181q-37 -18 -74 -37t-75.5 -34t-79.5 -24.5t-86 -9.5q-90 0 -158 36.5t-113 96t-67.5 135t-22.5 154.5t22.5 155t68 135t113.5 95.5t159 36.5q59 0 100.5 -9t76.5 -22.5t70.5 -28.5t83.5 -27q-37 -49 -54 -101.5t-17 -97.5q0 -48 18.5 -78.5
t53.5 -30.5q0 -21 -9 -38t-23.5 -29.5t-33.5 -19t-39 -6.5q-49 0 -73 29.5t-24 71.5q0 33 10 62t22 56t22 52.5t10 52.5q0 20 -8 40t-26 35.5t-47 25.5t-71 10q-55 0 -97 -32.5t-70 -86t-42 -121.5t-14 -139q0 -67 13 -131.5t39.5 -114.5t66.5 -80.5t94 -30.5q48 0 90 21
t77 54t62 74.5t44 82.5z" />
    <glyph glyph-name="uniE02B" unicode="&#xe02b;" horiz-adv-x="1425" 
d="M1035 837q86 -1 151 -37t108.5 -95.5t65 -134.5t21.5 -154q0 -76 -21 -150t-63 -132t-105 -94.5t-147 -39.5h-90q-16 -77 -64.5 -139.5t-117 -107t-149.5 -69t-163 -24.5q-100 0 -184.5 34t-146 91t-96 130.5t-34.5 152.5q0 76 28 151.5t88 141.5l221 -129
q-10 -11 -25 -13.5t-32 -2.5q-8 0 -15 0.5t-14 0.5q-11 0 -19.5 -1.5t-11.5 -6.5q-34 -51 -50 -105.5t-16 -106.5q0 -56 23.5 -105.5t65 -87t97.5 -59.5t121 -22q78 0 138 22.5t100.5 65t61.5 104t21 138.5q0 167 0.5 336.5t0.5 338.5q0 43 -13.5 85t-40.5 75.5t-66.5 54
t-91.5 20.5q-65 0 -112.5 -25.5t-78 -66t-45 -92t-14.5 -102.5q0 -38 7.5 -74t22.5 -66t36.5 -52t49.5 -32q-6 -25 -19 -42.5t-29.5 -28.5t-34 -16t-34.5 -5q-34 0 -61.5 20t-46.5 54t-29.5 79t-10.5 95q0 71 22 145t70 134.5t124 99t183 38.5q57 0 114 -10.5t106.5 -33.5
t89 -59t60.5 -86h94zM999 60q50 10 87 45t62 85.5t37.5 112t12.5 124.5q0 71 -15 135t-45 112.5t-75 77t-106 28.5q5 -28 5 -54v-338.5t-1 -333.5z" />
    <glyph glyph-name="uniE02C" unicode="&#xe02c;" horiz-adv-x="1246" 
d="M862 837q86 -1 150.5 -37t108 -95.5t65 -134.5t21.5 -154q0 -76 -21 -150t-63 -132t-105 -94.5t-147 -39.5h-87q-16 -75 -80 -113t-165 -38q-35 0 -65.5 9t-53 24t-35 34.5t-12.5 40.5q0 24 12 40.5t31.5 27.5t44.5 16.5t51.5 8t51.5 3t45 0.5q0 170 0.5 337.5t0.5 337.5
q0 43 -13.5 85t-40.5 75.5t-66.5 54t-92.5 20.5q-65 0 -112 -25.5t-77.5 -66t-45 -91.5t-14.5 -103q0 -38 7.5 -74t22.5 -66t36.5 -52t49.5 -32q-6 -25 -19 -42.5t-29.5 -28.5t-34.5 -16t-34 -5q-34 0 -61.5 20t-47 54t-29.5 79t-10 95q0 71 22 145t70 134.5t123.5 99
t182.5 38.5q57 0 114.5 -10.5t107 -33.5t89 -59t60.5 -86h94zM825 60q50 10 87 45t62.5 85.5t38 112t12.5 124.5q0 71 -15 135t-45 112.5t-75.5 77t-105.5 28.5q5 -28 5 -54v-338.5t-1 -333.5zM541 -77q28 0 50.5 16.5t22.5 60.5h-24q-16 0 -34.5 -1t-34.5 -5t-27 -11.5
t-11 -20.5q0 -14 17.5 -26.5t40.5 -12.5z" />
    <glyph glyph-name="uniE02D" unicode="&#xe02d;" horiz-adv-x="664" 
d="M966 -113q0 -24 -12 -48t-38 -43t-67 -31t-98 -12q-67 0 -125 18.5t-111 45.5t-103 59.5t-102 59.5t-107.5 45.5t-119.5 18.5v190.5t0.5 186t1 186t0.5 190.5q0 11 -9.5 15t-21.5 8t-21.5 11t-9.5 25l242 25h333q0 -45 4 -80t8.5 -68t8 -67t3.5 -76q-1 -3 -4 -3t-4 4
q-16 42 -30.5 74t-31 58.5t-36 49.5t-46.5 45h-79t-126 1v-169t-1 -169q47 0 80 3.5t57.5 14.5t44 31t39.5 53q1 4 4 4q2 0 3 -3v-258q-1 -3 -3 -3t-4 3q-20 33 -40 53t-45 31.5t-58 15t-78 3.5v-364q71 -18 126.5 -40t107 -41t105 -32t119.5 -13q28 0 54 4t46 14.5t32 29
t12 46.5q48 -8 73.5 -37.5t26.5 -64.5z" />
    <glyph glyph-name="uniE02E" unicode="&#xe02e;" horiz-adv-x="839" 
d="M772 837q0 -45 4 -80.5t8.5 -68.5t8 -66.5t3.5 -75.5q-1 -3 -3 -3q-4 0 -5 4q-16 41 -30.5 73.5t-30.5 59t-35.5 49.5t-46.5 45h-206v-338l78 3q26 5 45.5 11.5t36 17.5t31 28t29.5 43q3 3 5 3t3 -2v-259q-1 -2 -3 -2q-3 0 -5 3q-19 33 -39.5 53.5t-46 31.5t-58 14.5
t-76.5 3.5v-113q0 -18 0.5 -36t-0.5 -35q0 -54 -6 -103t-29.5 -86t-69.5 -58.5t-127 -21.5q-56 0 -95.5 12.5t-64 32t-36 44t-11.5 48.5q0 37 23 64.5t62 27.5q29 0 53 -26q-14 -11 -20.5 -25t-6.5 -30t5.5 -32t16 -28.5t26 -20t36.5 -7.5q22 0 35 9.5t20 24t9 32t2 33.5
q0 115 -1 228t-1 227q0 52 0.5 103t0.5 103q0 11 -9.5 15.5t-21.5 8t-21.5 11t-9.5 24.5l241 26h333z" />
    <glyph glyph-name="uniE02F" unicode="&#xe02f;" horiz-adv-x="1254" 
d="M1362 997q0 -24 -12 -53t-35.5 -53.5t-58 -41.5t-79.5 -17q-80 0 -166 10.5t-173 19.5l123 -25q-1 -101 -1 -200.5v-200.5l77 3q26 5 45.5 11.5t36 17.5t31 28t30.5 43q2 3 4 3t3 -2v-259q-1 -2 -3 -2t-4 3q-20 33 -40 53t-45 31.5t-58 15t-78 3.5v-332
q-2 -61 -25 -113.5t-60 -96.5t-86 -78t-104 -57.5t-113 -35.5t-113 -12q-100 0 -184.5 34t-146 91t-96 130.5t-34.5 152.5q0 76 28 151.5t88 141.5l221 -129q-10 -11 -25 -13.5t-32 -2.5q-8 0 -15 0.5t-14 0.5q-11 0 -19.5 -1.5t-11.5 -6.5q-34 -51 -50 -105.5t-16 -106.5
q0 -56 23.5 -105.5t65 -87t97.5 -59.5t121 -22q78 0 138 22.5t100.5 65t61.5 104t21 138.5v407.5t1 407.5q-32 3 -63.5 5t-61.5 2q-47 0 -87 -22t-69.5 -56.5t-46 -78t-16.5 -86.5q0 -29 8 -56t25.5 -49.5t45 -39.5t65.5 -26q-6 -25 -19.5 -43.5t-30.5 -30.5t-35.5 -18
t-35.5 -6q-34 0 -61.5 19t-47 50.5t-29.5 74t-10 88.5q0 64 21 130.5t66.5 121t117 89t173.5 34.5q35 0 95 -3t129.5 -6.5t142 -6.5t132.5 -3q55 0 75 13.5t20 33.5q0 19 -12 36q30 15 50 15q22 0 31.5 -15.5t9.5 -36.5z" />
    <glyph glyph-name="uniE030" unicode="&#xe030;" horiz-adv-x="945" 
d="M1053 997q0 -24 -12 -53t-36 -53.5t-58.5 -41.5t-79.5 -17q-80 0 -165.5 10.5t-172.5 19.5l123 -25q-1 -101 -1.5 -200.5t-0.5 -200.5l78 3q26 5 45.5 11.5t36 17.5t31 28t29.5 43q3 3 5 3t3 -2v-259q-1 -2 -3 -2q-3 0 -5 3q-19 33 -39.5 53.5t-46 31.5t-58 14.5
t-76.5 3.5v-299q0 -54 -6 -103t-29.5 -86t-69.5 -59t-127 -22q-56 0 -95.5 12.5t-64 32.5t-36 44t-11.5 48q0 37 23 65t62 28q29 0 54 -27q-15 -11 -21.5 -25t-6.5 -30t5.5 -31.5t16 -28t26 -20t36.5 -7.5q23 0 36 9t19.5 23.5t8.5 32t2 34.5q0 103 -1.5 212.5t-1.5 221.5
q0 115 0.5 229t0.5 229q-32 3 -63 5t-62 2q-47 0 -87 -22t-69.5 -56.5t-46 -78t-16.5 -86.5q0 -29 8 -56t25.5 -49.5t45 -39.5t65.5 -26q-6 -25 -19.5 -43.5t-30.5 -30.5t-35.5 -18t-34.5 -6q-35 0 -62.5 19t-47 50.5t-29.5 74t-10 88.5q0 64 21 130.5t67 121t117.5 89
t173.5 34.5q35 0 94.5 -3t129 -6.5t142 -6.5t133.5 -3q54 0 74 13.5t20 33.5q0 10 -3 19t-8 17q30 15 49 15q22 0 32 -15.5t10 -36.5z" />
    <glyph glyph-name="uniE031" unicode="&#xe031;" horiz-adv-x="1365" 
d="M1298 837q0 -45 4 -80.5t8.5 -68.5t8 -66.5t3.5 -75.5q-1 -3 -4 -3t-4 4q-16 41 -30.5 73.5t-30.5 59t-35.5 49.5t-46.5 45h-206v-338l77 3q26 5 45.5 11.5t36 17.5t31 28t30.5 43q2 3 4 3t3 -2v-259q-1 -2 -3 -2t-4 3q-20 33 -40 53t-45 31.5t-58 15t-78 3.5v-332
q-2 -61 -25 -113.5t-60 -96.5t-86 -78t-104 -57.5t-113 -35.5t-113 -12q-100 0 -184.5 34t-146 91t-96 130.5t-34.5 152.5q0 76 28 151.5t88 141.5l221 -129q-10 -11 -25 -13.5t-32 -2.5q-8 0 -15 0.5t-14 0.5q-11 0 -19.5 -1.5t-11.5 -6.5q-34 -51 -50 -105.5t-16 -106.5
q0 -56 23.5 -105.5t65 -87t97.5 -59.5t121 -22q78 0 138 22.5t100.5 65t61.5 104t21 138.5q0 140 0.5 282.5t0.5 285.5v108q0 8 -0.5 16t-1.5 16q-4 7 -14 10t-20.5 6.5t-18 11t-7.5 22.5l48 5q-10 31 -28 58t-42.5 47t-56.5 31.5t-71 11.5q-65 0 -112.5 -25.5t-78 -66
t-45 -91.5t-14.5 -103q0 -38 7.5 -74t22.5 -66t36.5 -52t49.5 -32q-6 -25 -19 -42.5t-29.5 -28.5t-34 -16t-34.5 -5q-34 0 -61.5 20t-46.5 54t-29.5 79t-10.5 95q0 71 22 145.5t70 135t124 99t183 38.5q57 0 114.5 -10.5t107.5 -34t89 -60t60 -87.5q88 0 177 0.5t177 0.5z
" />
    <glyph glyph-name="uniE032" unicode="&#xe032;" horiz-adv-x="808" 
d="M757 368v-368h-22l-131 41q-48 -21 -98.5 -34.5t-106.5 -13.5q-90 0 -158 36.5t-113 95.5t-67.5 135t-22.5 155t22.5 155t68 135t113.5 95.5t159 36.5q73 0 131 -15t116 -41q8 14 19 17.5t28 3.5h35q-10 -13 -21 -35t-20 -48t-15 -53.5t-6 -53.5q0 -19 4 -35t13 -28
t23.5 -19t36.5 -7q-11 -45 -44.5 -69.5t-68.5 -24.5q-32 0 -56 22.5t-24 70.5q0 39 15.5 84.5t35.5 88.5q-23 39 -66 64t-94 25q-55 0 -97 -32.5t-70 -86t-42 -121.5t-14 -139q0 -67 13 -131.5t39.5 -114.5t66.5 -80.5t94 -30.5q48 0 88 20t75 53q1 49 1 85v77q0 8 -12 12
t-29.5 6.5t-38 5t-38 6.5t-29.5 10.5t-12 18.5z" />
    <glyph glyph-name="uniE033" unicode="&#xe033;" horiz-adv-x="801" 
d="M735 29q0 -60 -12.5 -106.5t-41 -78.5t-75 -48.5t-113.5 -16.5q-55 0 -95 13.5t-66.5 34.5t-39 47t-12.5 50q0 31 20.5 55t59.5 24q19 0 34.5 -7.5t26.5 -24.5q-14 -10 -21 -24.5t-7 -30.5q0 -21 8 -35.5t20.5 -23.5t28 -13.5t30.5 -4.5q35 0 56.5 11.5t33 31t15.5 45.5
t4 55v95q-46 -19 -94.5 -31.5t-102.5 -12.5q-90 0 -158 34.5t-113 91t-67.5 129t-22.5 147.5t22.5 147.5t68 129t113.5 91t159 34.5q44 0 82 -5.5t73.5 -16t70 -25t70.5 -31.5q0 -20 3.5 -57.5t7.5 -78t7.5 -78t3.5 -57.5q-1 -3 -4 -3t-4 4q-13 29 -27 62t-30.5 66t-36.5 63
t-45.5 53t-57 37t-71.5 14q-55 0 -97 -31t-70 -81.5t-42 -115t-14 -131.5q0 -63 13 -124t39.5 -108t66.5 -76t94 -29q48 0 88 20t75 53q0 24 0.5 38t0.5 24.5v22v31.5q0 11 -9.5 15t-21.5 8t-21.5 11t-9.5 25l207 60v-367z" />
    <glyph glyph-name="uniE034" unicode="&#xe034;" horiz-adv-x="1334" 
d="M1247 51q4 -7 13.5 -10t20 -7t18.5 -11t8 -23h-301q0 15 8 22.5t18.5 11.5t20 7t13.5 10v339h-277v-351q0 -53 -11.5 -100.5t-38.5 -83t-72 -56.5t-112 -21q-55 0 -94.5 12.5t-64.5 32t-36.5 44t-11.5 48.5q0 38 24 65.5t63 27.5q14 0 27.5 -8t24.5 -19q-28 -21 -28 -55
q0 -16 6 -32t17 -28.5t27 -20t37 -7.5q25 0 44.5 17.5t19.5 59.5v351q0 116 0.5 231t0.5 231q0 43 -13.5 85t-40.5 75.5t-66.5 54t-92.5 20.5q-65 0 -112 -25.5t-77.5 -66t-45 -91.5t-14.5 -103q0 -38 7.5 -74t22.5 -66t36.5 -52t49.5 -32q-6 -25 -19 -42.5t-29.5 -28.5
t-34.5 -16t-34 -5q-34 0 -61.5 20t-47 54t-29.5 79t-10 95q0 71 22 145t70 134.5t123.5 99t182.5 38.5q71 0 141 -16.5t126 -52.5t90.5 -93t34.5 -138v-137t-1 -137h277v385l241 -26q0 -17 -9.5 -24.5t-21.5 -11t-21.5 -8t-9.5 -15.5q2 -176 1.5 -350t0.5 -351z" />
    <glyph glyph-name="uniE035" unicode="&#xe035;" horiz-adv-x="1342" 
d="M1255 51q4 -7 13.5 -10t20 -7t18.5 -11t8 -23h-301q0 15 8 22.5t18.5 11.5t20 7t13.5 10v339h-277v-336q2 -9 12 -12t21 -7t19.5 -11t8.5 -24h-302q0 17 9 24t20 11t21 7.5t12 12.5q1 170 1 337v336q0 43 -13.5 85t-40.5 75.5t-66.5 54t-91.5 20.5q-65 0 -112.5 -25.5
t-78 -66t-45 -92t-14.5 -102.5q0 -38 7.5 -74t22.5 -66t36.5 -52t49.5 -32q-6 -25 -19 -42.5t-29.5 -28.5t-34.5 -16t-34 -5q-34 0 -61.5 20t-46.5 54t-29.5 79t-10.5 95q0 71 22 145t70 134.5t124 99t183 38.5q71 0 140.5 -16.5t125.5 -52.5t90.5 -93t34.5 -138v-137
t-1 -137h277v385l241 -26q0 -17 -9.5 -24.5t-21.5 -11t-21.5 -8t-9.5 -15.5q0 -40 0.5 -94.5t0.5 -117t0.5 -129t0.5 -131v-123.5v-106z" />
    <glyph glyph-name="uniE036" unicode="&#xe036;" horiz-adv-x="716" 
d="M701 885q0 -32 -23 -52.5t-62 -34.5v-746q3 -8 13 -11t20.5 -6.5t18.5 -11t8 -23.5h-301q0 16 8.5 23.5t19.5 11t20.5 7t12.5 11.5q1 172 1 342.5v342.5q0 18 -5.5 23.5t-23.5 5.5q-45 0 -86 -2.5t-86 -20.5q-46 -18 -68.5 -56t-22.5 -80q0 -27 9 -52.5t27 -46
t44.5 -32.5t61.5 -12q0 -22 -7.5 -41t-20.5 -32.5t-29.5 -21t-34.5 -7.5q-43 0 -79 18t-61.5 48t-39.5 68t-14 78q0 45 18.5 89t59 80t104.5 59.5t155 25.5q24 1 38.5 1t25.5 0.5l22 1t27 1.5t41 2t65 2q39 2 55.5 12t16.5 26q0 12 -6 18.5t-14 14.5q10 10 23.5 17t26.5 7
q17 0 29.5 -12.5t12.5 -34.5z" />
    <glyph glyph-name="uniE037" unicode="&#xe037;" horiz-adv-x="709" 
d="M657 932q17 0 29.5 -12.5t12.5 -34.5q0 -26 -14 -43.5t-40 -30.5v-114t-0.5 -134.5t-0.5 -144t-0.5 -142.5t-0.5 -130v-106q0 -53 -11 -100.5t-37.5 -83t-71 -56.5t-111.5 -21q-56 0 -95.5 12.5t-64 32.5t-36 44t-11.5 48q0 37 23 65t62 28q29 0 54 -27
q-15 -11 -21.5 -25t-6.5 -30t6.5 -31.5t18 -28t28 -20t37.5 -7.5q26 0 44.5 17t18.5 60v73.5t-0.5 124t-1 156l-1 169t-0.5 164v140.5q0 14 -18.5 19.5t-45.5 5.5q-23 0 -50 -3t-51 -7t-42.5 -8t-24.5 -7q-46 -17 -68.5 -56t-22.5 -80q0 -27 9 -52.5t27 -46t44.5 -32.5
t61.5 -12q0 -22 -7.5 -41t-20.5 -32.5t-29 -21t-34 -7.5q-44 0 -80 18t-61.5 48t-39.5 68.5t-14 78.5q0 44 18.5 88.5t59 80t104.5 59t155 25.5q24 1 38.5 1t25.5 0.5l22 1t27 1.5t41 2t65 2q39 2 55.5 12t16.5 26q0 12 -6 18.5t-14 14.5q10 11 23.5 17t26.5 7z" />
    <glyph glyph-name="uniE038" unicode="&#xe038;" horiz-adv-x="1494" 
d="M1390 59q6 -9 18 -13t23.5 -8.5t20.5 -12t9 -25.5h-241l-233 358l-13 -14v-291q-2 -61 -25 -113.5t-60 -96.5t-86 -78t-104 -57.5t-113 -35.5t-113 -12q-100 0 -184.5 34t-146 91t-96 130.5t-34.5 152.5q0 76 28 151.5t88 141.5l221 -129q-10 -11 -25 -13.5t-32 -2.5
q-8 0 -15 0.5t-14 0.5q-11 0 -19.5 -1.5t-11.5 -6.5q-34 -51 -50 -105.5t-16 -107.5q0 -56 23.5 -105.5t65 -86.5t97.5 -59t121 -22q78 0 138 22.5t100.5 65t61.5 104t21 138.5q0 170 0.5 338t0.5 338q0 43 -13.5 85t-40.5 75.5t-66.5 54t-91.5 20.5q-65 0 -112.5 -25.5
t-78 -66t-45 -91.5t-14.5 -103q0 -38 7.5 -74t22.5 -66t36.5 -52t49.5 -32q-6 -25 -19 -42.5t-29.5 -28.5t-34 -16t-34.5 -5q-34 0 -61.5 20t-46.5 54t-29.5 79t-10.5 95q0 71 22 145.5t70 135t124 99t183 38.5q71 0 140.5 -16.5t125.5 -52.5t90.5 -93t34.5 -138v-312
l292 319q0 20 -9.5 30t-21.5 17.5t-21.5 15.5t-9.5 24h211q0 -2 -0.5 -1.5t-1.5 -1.5l-354 -383q27 0 51.5 -12.5t46 -32.5t40.5 -44.5t34 -47.5z" />
    <glyph glyph-name="uniE039" unicode="&#xe039;" horiz-adv-x="783" 
d="M1057 -59q19 -18 28 -41t9 -47q0 -27 -11.5 -54t-34.5 -48t-57.5 -34t-79.5 -13q-65 0 -123 26.5t-110.5 71.5t-98 104.5t-85 125.5t-73.5 134.5t-61 131.5q-12 27 -24.5 51t-35.5 36l-37 -40v-293q3 -8 13 -11t20.5 -6.5t19 -11t8.5 -23.5h-302q0 16 8.5 23.5t19.5 11
t20.5 7t12.5 11.5q1 176 0.5 349.5t0.5 349.5q0 11 -9.5 15.5t-21.5 8t-21.5 11t-9.5 24.5l242 25q0 -106 -0.5 -209.5t-0.5 -209.5l291 318q0 20 -9.5 29.5t-21.5 17t-21.5 16t-9.5 24.5h211q0 -2 -0.5 -1.5t-1.5 -1.5l-355 -384q33 11 57 11q42 0 69.5 -26.5t49.5 -75.5
q20 -44 45 -94.5t55.5 -100.5t66 -95.5t75 -80.5t84 -56t92.5 -21q30 0 59.5 10.5t57.5 34.5z" />
    <glyph glyph-name="uniE03A" unicode="&#xe03a;" horiz-adv-x="760" 
d="M309 395q21 -16 65 -48.5t100 -65.5t117.5 -57.5t116.5 -24.5v-206q-48 0 -97 23t-94.5 58t-86 77.5t-73.5 82.5t-56.5 71t-34.5 44l-3 -4v-293q3 -8 13 -11t20.5 -6.5t19 -11t8.5 -23.5h-302q0 16 8.5 23.5t19.5 11t20.5 7t12.5 11.5q1 176 0.5 349.5t0.5 349.5
q0 11 -9.5 15.5t-21.5 8t-21.5 11t-9.5 24.5l242 25q0 -106 -0.5 -209.5t-0.5 -209.5l291 318q0 20 -9.5 29.5t-21.5 17t-21.5 16t-9.5 24.5h211q0 -2 -0.5 -1.5t-1.5 -1.5z" />
    <glyph glyph-name="uniE03B" unicode="&#xe03b;" horiz-adv-x="405" 
d="M965 -113q0 -24 -12 -48t-38.5 -43t-67 -31t-97.5 -12q-67 0 -125 18.5t-111 45.5t-103 59.5t-102 59.5t-107.5 45.5t-119.5 18.5v190.5t0.5 186t1 186t0.5 190.5q0 11 -9.5 15t-21.5 8t-21.5 11t-9.5 25l242 25q0 -207 -0.5 -409t-0.5 -407q71 -18 126.5 -40t107 -41
t105 -32t119.5 -13q28 0 54 4t46 14.5t32 29t12 46.5q48 -8 73.5 -37.5t26.5 -64.5z" />
    <glyph glyph-name="uniE03C" unicode="&#xe03c;" horiz-adv-x="926" 
d="M1539 -39q52 -9 77.5 -37t25.5 -63q0 -29 -18 -59.5t-54 -55t-89.5 -40t-124.5 -15.5q-79 -1 -148 17.5t-132.5 46t-123 59.5t-118 59.5t-118.5 46t-125 18.5q-22 0 -37 -6.5t-24 -16.5t-13 -23t-4 -26v-8q-3 0 -5.5 -0.5t-4.5 -0.5q-38 0 -60 23t-22 53q0 21 10.5 41
t33.5 36t59.5 27t89.5 12q1 171 1.5 339.5t0.5 339.5q0 43 -13.5 85t-40.5 75.5t-66.5 54t-92.5 20.5q-65 0 -112 -25.5t-77.5 -66t-45 -91.5t-14.5 -103q0 -38 7.5 -74t22.5 -66t36.5 -52t49.5 -32q-6 -25 -19 -42.5t-29.5 -28.5t-34.5 -16t-34 -5q-34 0 -61.5 20t-47 54
t-29.5 79t-10 95q0 71 22 145t70 134.5t123.5 99t182.5 38.5q71 0 141 -16.5t126 -52.5t90.5 -93t34.5 -138q0 -176 -0.5 -349.5t-0.5 -349.5q71 -18 139.5 -44t135.5 -50.5t133 -42t133 -17.5q37 0 70.5 3t60.5 12.5t46 27t27 45.5z" />
    <glyph glyph-name="uniE03D" unicode="&#xe03d;" horiz-adv-x="1647" 
d="M1553 53q3 -8 12.5 -11.5t20.5 -7t19.5 -11t8.5 -23.5h-303q0 16 8.5 23.5t19 11t20.5 7t13 11.5q-1 137 -1 271.5v271.5l-234 -594h-72l-215 597v-220q0 -83 -0.5 -164t-1.5 -159q-1 -88 -33 -161t-87.5 -125t-131 -81t-164.5 -29q-99 0 -178.5 34t-135.5 91t-86 130.5
t-30 152.5q0 76 28 151.5t88 141.5l221 -129q-10 -11 -25 -13.5t-32 -2.5q-8 0 -15 0.5t-14 0.5q-11 0 -19.5 -1.5t-11.5 -6.5q-34 -51 -50 -105.5t-16 -107.5q0 -56 19 -105.5t54.5 -86.5t86.5 -59t116 -22q80 0 145 23.5t111 67.5t71 107.5t25 143.5v343.5t1 343.5v19
q-8 32 -23.5 66t-40 62t-58 46t-78.5 18q-65 0 -112.5 -25.5t-78 -66t-45 -92t-14.5 -102.5q0 -38 7.5 -74t22.5 -66t36.5 -52t49.5 -32q-6 -25 -19 -42.5t-29.5 -28.5t-34.5 -16t-34 -5q-34 0 -61.5 20t-46.5 54t-29.5 79t-10.5 95q0 71 22 145t70 134.5t124 99t183 38.5
q69 0 134.5 -16t120 -47.5t95 -78t59.5 -106.5l168 -545l188 503q0 24 -6 35.5t-13 19.5t-13 17t-6 29l302 -26q0 -17 -9.5 -24.5t-21.5 -11t-21.5 -8t-9.5 -15.5q1 -176 0.5 -349.5t0.5 -349.5z" />
    <glyph glyph-name="uniE03E" unicode="&#xe03e;" horiz-adv-x="1541" 
d="M1622 -190q32 -11 47.5 -28.5t15.5 -38.5q0 -20 -15.5 -41.5t-43 -38.5t-64.5 -28t-80 -11q-106 0 -190.5 44t-153 118t-123 171.5t-101 205t-88 218.5t-83.5 211v-592h-126q0 16 8.5 23.5t19.5 11t21 7t13 11.5v541q0 72 -19.5 136.5t-58 113.5t-96.5 78t-135 29
q-49 0 -88 -18.5t-66 -48.5t-41.5 -68t-14.5 -77q0 -41 17 -78t53 -63q-20 -33 -48 -47t-56 -14q-32 0 -56.5 12t-41 32.5t-25 48.5t-8.5 60q0 53 24 112t72.5 108.5t123 81.5t175.5 32q95 0 172 -31t141 -85.5t115.5 -128t95 -159t80.5 -178t72 -184.5l178 478
q0 24 -6 35.5t-13 19.5t-13 17t-6 29l302 -26q0 -17 -9.5 -24.5t-21.5 -11t-21.5 -8t-9.5 -15.5q1 -176 0.5 -349.5t0.5 -349.5q3 -8 12.5 -11.5t20.5 -7t19.5 -11t8.5 -23.5h-303q0 16 8.5 23.5t19 11t20.5 6.5t13 11q0 138 -0.5 272.5t-0.5 271.5l-167 -425
q38 -101 76 -186.5t82.5 -148t96.5 -97.5t118 -35q38 0 71 24t45 65q5 19 21 19h6.5t7.5 -2z" />
    <glyph glyph-name="uniE03F" unicode="&#xe03f;" horiz-adv-x="1489" 
d="M1465 811q0 -16 -8.5 -23.5t-19.5 -11t-21 -7t-13 -11.5v-758h-63q-54 75 -116.5 160.5t-128 174.5t-130 176.5t-121.5 166.5q0 -88 0.5 -176t0.5 -177q0 -66 -0.5 -131.5t-1.5 -131.5q-1 -90 -32.5 -164t-87 -127t-131 -82t-165.5 -29q-99 0 -178.5 34t-135.5 91
t-86 130.5t-30 152.5q0 76 28 151.5t88 141.5l221 -129q-10 -11 -25 -13.5t-32 -2.5q-8 0 -15 0.5t-14 0.5q-11 0 -19.5 -1.5t-11.5 -6.5q-34 -51 -50 -105.5t-16 -107.5q0 -56 19 -105.5t54.5 -86.5t86.5 -59t116 -22q80 0 145 23.5t110.5 67t71 106.5t25.5 143
q1 188 1.5 373.5t0.5 374.5q-3 10 -17 35t-39 51t-61.5 46t-83.5 20q-65 0 -112.5 -25.5t-78 -66t-45 -92t-14.5 -102.5q0 -38 7.5 -74t22.5 -66t36.5 -52t49.5 -32q-6 -25 -19 -42.5t-29.5 -28.5t-34.5 -16t-34 -5q-34 0 -61.5 20t-46.5 54t-29.5 79t-10.5 95q0 71 22 145
t70 134.5t124 99t183 38.5q63 0 124 -15t114.5 -43t97.5 -67.5t72 -87.5l351 -474q-1 112 0 222.5t1 222.5v12t-0.5 7t-0.5 11v23z" />
    </font>
</defs>
</svg>
