<?xml version="1.0" standalone="no"?>
<!DOCTYPE svg PUBLIC "-//W3C//DTD SVG 1.1//EN" "http://www.w3.org/Graphics/SVG/1.1/DTD/svg11.dtd" >
<svg xmlns="http://www.w3.org/2000/svg" xmlns:xlink="http://www.w3.org/1999/xlink" version="1.1">
<metadata>
Created by FontForge 20170731 at Sun May 28 16:57:01 2023
 By Aleksey,,,
Copyright  2018 by Luciano Vergara. All rights reserved.
</metadata>
<defs>
<font id="FONTSPRINGDEMO-AaltoSansEssentialAltSmBoldRegular" horiz-adv-x="1020" >
  <font-face 
    font-family="FSP DEMO - ltSnsssntlltSmBld"
    font-weight="600"
    font-stretch="normal"
    units-per-em="2048"
    panose-1="0 0 7 0 0 0 0 0 0 0"
    ascent="1638"
    descent="-410"
    x-height="896"
    cap-height="1195"
    bbox="-75 -352 1686 1350"
    underline-thickness="85"
    underline-position="-255"
    unicode-range="U+0020-007E"
  />
<missing-glyph 
d="M172 336q-12 0 -15 -1v-168q1 -1 15 -1q31 0 42 20.5t11 64.5q0 45 -11 65t-42 20zM432 275v-41h-68v-65h80v-41h-130v247h130v-42h-80v-58h68zM169 125q-39 0 -61 3v244q51 7 63 7q56 0 80 -31t24 -97t-24.5 -96t-81.5 -30zM488 375h67l32 -136l33 136h68q3 -59 10 -247
h-49q0 61 -6 177l-34 -139h-46l-34 139h-2q-3 -87 -3 -177h-48q4 147 12 247zM823 125q-50 0 -70.5 29.5t-20.5 96.5t20.5 97.5t70.5 30.5t71 -30.5t21 -97.5q0 -66 -21 -96t-71 -30zM823 336q-24 0 -32.5 -20t-8.5 -65t8.5 -65t32.5 -20q25 0 33.5 20t8.5 65
q0 46 -8.5 65.5t-33.5 19.5zM806 847q41 0 66 -20.5t32 -42.5t7 -45q0 -36 -28 -60.5t-60 -28.5q-178 -20 -284 -123q5 13 14.5 34.5t38.5 77t59 97.5t72.5 76.5t82.5 34.5zM237 758q45 0 89 -33t74.5 -80t54.5 -93.5t36 -79.5l12 -33q-96 122 -266 122q-42 0 -74 25.5
t-32 63.5q0 44 28 76t78 32zM536 1012q32 -31 40.5 -85t-2.5 -109.5t-26.5 -106t-29.5 -82.5l-15 -32q17 160 -104 275q-30 30 -35.5 68.5t20.5 69.5q31 31 71 33.5t81 -31.5z" />
    <glyph glyph-name=".notdef" 
d="M172 336q-12 0 -15 -1v-168q1 -1 15 -1q31 0 42 20.5t11 64.5q0 45 -11 65t-42 20zM432 275v-41h-68v-65h80v-41h-130v247h130v-42h-80v-58h68zM169 125q-39 0 -61 3v244q51 7 63 7q56 0 80 -31t24 -97t-24.5 -96t-81.5 -30zM488 375h67l32 -136l33 136h68q3 -59 10 -247
h-49q0 61 -6 177l-34 -139h-46l-34 139h-2q-3 -87 -3 -177h-48q4 147 12 247zM823 125q-50 0 -70.5 29.5t-20.5 96.5t20.5 97.5t70.5 30.5t71 -30.5t21 -97.5q0 -66 -21 -96t-71 -30zM823 336q-24 0 -32.5 -20t-8.5 -65t8.5 -65t32.5 -20q25 0 33.5 20t8.5 65
q0 46 -8.5 65.5t-33.5 19.5zM806 847q41 0 66 -20.5t32 -42.5t7 -45q0 -36 -28 -60.5t-60 -28.5q-178 -20 -284 -123q5 13 14.5 34.5t38.5 77t59 97.5t72.5 76.5t82.5 34.5zM237 758q45 0 89 -33t74.5 -80t54.5 -93.5t36 -79.5l12 -33q-96 122 -266 122q-42 0 -74 25.5
t-32 63.5q0 44 28 76t78 32zM536 1012q32 -31 40.5 -85t-2.5 -109.5t-26.5 -106t-29.5 -82.5l-15 -32q17 160 -104 275q-30 30 -35.5 68.5t20.5 69.5q31 31 71 33.5t81 -31.5z" />
    <glyph glyph-name=".null" horiz-adv-x="0" 
 />
    <glyph glyph-name="nonmarkingreturn" horiz-adv-x="682" 
 />
    <glyph glyph-name="space" unicode=" " horiz-adv-x="382" 
 />
    <glyph glyph-name="exclam" unicode="!" 
d="M172 336q-12 0 -15 -1v-168q1 -1 15 -1q31 0 42 20.5t11 64.5q0 45 -11 65t-42 20zM432 275v-41h-68v-65h80v-41h-130v247h130v-42h-80v-58h68zM169 125q-39 0 -61 3v244q51 7 63 7q56 0 80 -31t24 -97t-24.5 -96t-81.5 -30zM488 375h67l32 -136l33 136h68q3 -59 10 -247
h-49q0 61 -6 177l-34 -139h-46l-34 139h-2q-3 -87 -3 -177h-48q4 147 12 247zM823 125q-50 0 -70.5 29.5t-20.5 96.5t20.5 97.5t70.5 30.5t71 -30.5t21 -97.5q0 -66 -21 -96t-71 -30zM823 336q-24 0 -32.5 -20t-8.5 -65t8.5 -65t32.5 -20q25 0 33.5 20t8.5 65
q0 46 -8.5 65.5t-33.5 19.5zM806 847q41 0 66 -20.5t32 -42.5t7 -45q0 -36 -28 -60.5t-60 -28.5q-178 -20 -284 -123q5 13 14.5 34.5t38.5 77t59 97.5t72.5 76.5t82.5 34.5zM237 758q45 0 89 -33t74.5 -80t54.5 -93.5t36 -79.5l12 -33q-96 122 -266 122q-42 0 -74 25.5
t-32 63.5q0 44 28 76t78 32zM536 1012q32 -31 40.5 -85t-2.5 -109.5t-26.5 -106t-29.5 -82.5l-15 -32q17 160 -104 275q-30 30 -35.5 68.5t20.5 69.5q31 31 71 33.5t81 -31.5z" />
    <glyph glyph-name="quotedbl" unicode="&#x22;" 
d="M172 336q-12 0 -15 -1v-168q1 -1 15 -1q31 0 42 20.5t11 64.5q0 45 -11 65t-42 20zM432 275v-41h-68v-65h80v-41h-130v247h130v-42h-80v-58h68zM169 125q-39 0 -61 3v244q51 7 63 7q56 0 80 -31t24 -97t-24.5 -96t-81.5 -30zM488 375h67l32 -136l33 136h68q3 -59 10 -247
h-49q0 61 -6 177l-34 -139h-46l-34 139h-2q-3 -87 -3 -177h-48q4 147 12 247zM823 125q-50 0 -70.5 29.5t-20.5 96.5t20.5 97.5t70.5 30.5t71 -30.5t21 -97.5q0 -66 -21 -96t-71 -30zM823 336q-24 0 -32.5 -20t-8.5 -65t8.5 -65t32.5 -20q25 0 33.5 20t8.5 65
q0 46 -8.5 65.5t-33.5 19.5zM806 847q41 0 66 -20.5t32 -42.5t7 -45q0 -36 -28 -60.5t-60 -28.5q-178 -20 -284 -123q5 13 14.5 34.5t38.5 77t59 97.5t72.5 76.5t82.5 34.5zM237 758q45 0 89 -33t74.5 -80t54.5 -93.5t36 -79.5l12 -33q-96 122 -266 122q-42 0 -74 25.5
t-32 63.5q0 44 28 76t78 32zM536 1012q32 -31 40.5 -85t-2.5 -109.5t-26.5 -106t-29.5 -82.5l-15 -32q17 160 -104 275q-30 30 -35.5 68.5t20.5 69.5q31 31 71 33.5t81 -31.5z" />
    <glyph glyph-name="numbersign" unicode="#" 
d="M172 336q-12 0 -15 -1v-168q1 -1 15 -1q31 0 42 20.5t11 64.5q0 45 -11 65t-42 20zM432 275v-41h-68v-65h80v-41h-130v247h130v-42h-80v-58h68zM169 125q-39 0 -61 3v244q51 7 63 7q56 0 80 -31t24 -97t-24.5 -96t-81.5 -30zM488 375h67l32 -136l33 136h68q3 -59 10 -247
h-49q0 61 -6 177l-34 -139h-46l-34 139h-2q-3 -87 -3 -177h-48q4 147 12 247zM823 125q-50 0 -70.5 29.5t-20.5 96.5t20.5 97.5t70.5 30.5t71 -30.5t21 -97.5q0 -66 -21 -96t-71 -30zM823 336q-24 0 -32.5 -20t-8.5 -65t8.5 -65t32.5 -20q25 0 33.5 20t8.5 65
q0 46 -8.5 65.5t-33.5 19.5zM806 847q41 0 66 -20.5t32 -42.5t7 -45q0 -36 -28 -60.5t-60 -28.5q-178 -20 -284 -123q5 13 14.5 34.5t38.5 77t59 97.5t72.5 76.5t82.5 34.5zM237 758q45 0 89 -33t74.5 -80t54.5 -93.5t36 -79.5l12 -33q-96 122 -266 122q-42 0 -74 25.5
t-32 63.5q0 44 28 76t78 32zM536 1012q32 -31 40.5 -85t-2.5 -109.5t-26.5 -106t-29.5 -82.5l-15 -32q17 160 -104 275q-30 30 -35.5 68.5t20.5 69.5q31 31 71 33.5t81 -31.5z" />
    <glyph glyph-name="dollar" unicode="$" 
d="M172 336q-12 0 -15 -1v-168q1 -1 15 -1q31 0 42 20.5t11 64.5q0 45 -11 65t-42 20zM432 275v-41h-68v-65h80v-41h-130v247h130v-42h-80v-58h68zM169 125q-39 0 -61 3v244q51 7 63 7q56 0 80 -31t24 -97t-24.5 -96t-81.5 -30zM488 375h67l32 -136l33 136h68q3 -59 10 -247
h-49q0 61 -6 177l-34 -139h-46l-34 139h-2q-3 -87 -3 -177h-48q4 147 12 247zM823 125q-50 0 -70.5 29.5t-20.5 96.5t20.5 97.5t70.5 30.5t71 -30.5t21 -97.5q0 -66 -21 -96t-71 -30zM823 336q-24 0 -32.5 -20t-8.5 -65t8.5 -65t32.5 -20q25 0 33.5 20t8.5 65
q0 46 -8.5 65.5t-33.5 19.5zM806 847q41 0 66 -20.5t32 -42.5t7 -45q0 -36 -28 -60.5t-60 -28.5q-178 -20 -284 -123q5 13 14.5 34.5t38.5 77t59 97.5t72.5 76.5t82.5 34.5zM237 758q45 0 89 -33t74.5 -80t54.5 -93.5t36 -79.5l12 -33q-96 122 -266 122q-42 0 -74 25.5
t-32 63.5q0 44 28 76t78 32zM536 1012q32 -31 40.5 -85t-2.5 -109.5t-26.5 -106t-29.5 -82.5l-15 -32q17 160 -104 275q-30 30 -35.5 68.5t20.5 69.5q31 31 71 33.5t81 -31.5z" />
    <glyph glyph-name="percent" unicode="%" 
d="M172 336q-12 0 -15 -1v-168q1 -1 15 -1q31 0 42 20.5t11 64.5q0 45 -11 65t-42 20zM432 275v-41h-68v-65h80v-41h-130v247h130v-42h-80v-58h68zM169 125q-39 0 -61 3v244q51 7 63 7q56 0 80 -31t24 -97t-24.5 -96t-81.5 -30zM488 375h67l32 -136l33 136h68q3 -59 10 -247
h-49q0 61 -6 177l-34 -139h-46l-34 139h-2q-3 -87 -3 -177h-48q4 147 12 247zM823 125q-50 0 -70.5 29.5t-20.5 96.5t20.5 97.5t70.5 30.5t71 -30.5t21 -97.5q0 -66 -21 -96t-71 -30zM823 336q-24 0 -32.5 -20t-8.5 -65t8.5 -65t32.5 -20q25 0 33.5 20t8.5 65
q0 46 -8.5 65.5t-33.5 19.5zM806 847q41 0 66 -20.5t32 -42.5t7 -45q0 -36 -28 -60.5t-60 -28.5q-178 -20 -284 -123q5 13 14.5 34.5t38.5 77t59 97.5t72.5 76.5t82.5 34.5zM237 758q45 0 89 -33t74.5 -80t54.5 -93.5t36 -79.5l12 -33q-96 122 -266 122q-42 0 -74 25.5
t-32 63.5q0 44 28 76t78 32zM536 1012q32 -31 40.5 -85t-2.5 -109.5t-26.5 -106t-29.5 -82.5l-15 -32q17 160 -104 275q-30 30 -35.5 68.5t20.5 69.5q31 31 71 33.5t81 -31.5z" />
    <glyph glyph-name="ampersand" unicode="&#x26;" 
d="M172 336q-12 0 -15 -1v-168q1 -1 15 -1q31 0 42 20.5t11 64.5q0 45 -11 65t-42 20zM432 275v-41h-68v-65h80v-41h-130v247h130v-42h-80v-58h68zM169 125q-39 0 -61 3v244q51 7 63 7q56 0 80 -31t24 -97t-24.5 -96t-81.5 -30zM488 375h67l32 -136l33 136h68q3 -59 10 -247
h-49q0 61 -6 177l-34 -139h-46l-34 139h-2q-3 -87 -3 -177h-48q4 147 12 247zM823 125q-50 0 -70.5 29.5t-20.5 96.5t20.5 97.5t70.5 30.5t71 -30.5t21 -97.5q0 -66 -21 -96t-71 -30zM823 336q-24 0 -32.5 -20t-8.5 -65t8.5 -65t32.5 -20q25 0 33.5 20t8.5 65
q0 46 -8.5 65.5t-33.5 19.5zM806 847q41 0 66 -20.5t32 -42.5t7 -45q0 -36 -28 -60.5t-60 -28.5q-178 -20 -284 -123q5 13 14.5 34.5t38.5 77t59 97.5t72.5 76.5t82.5 34.5zM237 758q45 0 89 -33t74.5 -80t54.5 -93.5t36 -79.5l12 -33q-96 122 -266 122q-42 0 -74 25.5
t-32 63.5q0 44 28 76t78 32zM536 1012q32 -31 40.5 -85t-2.5 -109.5t-26.5 -106t-29.5 -82.5l-15 -32q17 160 -104 275q-30 30 -35.5 68.5t20.5 69.5q31 31 71 33.5t81 -31.5z" />
    <glyph glyph-name="quotesingle" unicode="'" 
d="M172 336q-12 0 -15 -1v-168q1 -1 15 -1q31 0 42 20.5t11 64.5q0 45 -11 65t-42 20zM432 275v-41h-68v-65h80v-41h-130v247h130v-42h-80v-58h68zM169 125q-39 0 -61 3v244q51 7 63 7q56 0 80 -31t24 -97t-24.5 -96t-81.5 -30zM488 375h67l32 -136l33 136h68q3 -59 10 -247
h-49q0 61 -6 177l-34 -139h-46l-34 139h-2q-3 -87 -3 -177h-48q4 147 12 247zM823 125q-50 0 -70.5 29.5t-20.5 96.5t20.5 97.5t70.5 30.5t71 -30.5t21 -97.5q0 -66 -21 -96t-71 -30zM823 336q-24 0 -32.5 -20t-8.5 -65t8.5 -65t32.5 -20q25 0 33.5 20t8.5 65
q0 46 -8.5 65.5t-33.5 19.5zM806 847q41 0 66 -20.5t32 -42.5t7 -45q0 -36 -28 -60.5t-60 -28.5q-178 -20 -284 -123q5 13 14.5 34.5t38.5 77t59 97.5t72.5 76.5t82.5 34.5zM237 758q45 0 89 -33t74.5 -80t54.5 -93.5t36 -79.5l12 -33q-96 122 -266 122q-42 0 -74 25.5
t-32 63.5q0 44 28 76t78 32zM536 1012q32 -31 40.5 -85t-2.5 -109.5t-26.5 -106t-29.5 -82.5l-15 -32q17 160 -104 275q-30 30 -35.5 68.5t20.5 69.5q31 31 71 33.5t81 -31.5z" />
    <glyph glyph-name="parenleft" unicode="(" 
d="M172 336q-12 0 -15 -1v-168q1 -1 15 -1q31 0 42 20.5t11 64.5q0 45 -11 65t-42 20zM432 275v-41h-68v-65h80v-41h-130v247h130v-42h-80v-58h68zM169 125q-39 0 -61 3v244q51 7 63 7q56 0 80 -31t24 -97t-24.5 -96t-81.5 -30zM488 375h67l32 -136l33 136h68q3 -59 10 -247
h-49q0 61 -6 177l-34 -139h-46l-34 139h-2q-3 -87 -3 -177h-48q4 147 12 247zM823 125q-50 0 -70.5 29.5t-20.5 96.5t20.5 97.5t70.5 30.5t71 -30.5t21 -97.5q0 -66 -21 -96t-71 -30zM823 336q-24 0 -32.5 -20t-8.5 -65t8.5 -65t32.5 -20q25 0 33.5 20t8.5 65
q0 46 -8.5 65.5t-33.5 19.5zM806 847q41 0 66 -20.5t32 -42.5t7 -45q0 -36 -28 -60.5t-60 -28.5q-178 -20 -284 -123q5 13 14.5 34.5t38.5 77t59 97.5t72.5 76.5t82.5 34.5zM237 758q45 0 89 -33t74.5 -80t54.5 -93.5t36 -79.5l12 -33q-96 122 -266 122q-42 0 -74 25.5
t-32 63.5q0 44 28 76t78 32zM536 1012q32 -31 40.5 -85t-2.5 -109.5t-26.5 -106t-29.5 -82.5l-15 -32q17 160 -104 275q-30 30 -35.5 68.5t20.5 69.5q31 31 71 33.5t81 -31.5z" />
    <glyph glyph-name="parenright" unicode=")" 
d="M172 336q-12 0 -15 -1v-168q1 -1 15 -1q31 0 42 20.5t11 64.5q0 45 -11 65t-42 20zM432 275v-41h-68v-65h80v-41h-130v247h130v-42h-80v-58h68zM169 125q-39 0 -61 3v244q51 7 63 7q56 0 80 -31t24 -97t-24.5 -96t-81.5 -30zM488 375h67l32 -136l33 136h68q3 -59 10 -247
h-49q0 61 -6 177l-34 -139h-46l-34 139h-2q-3 -87 -3 -177h-48q4 147 12 247zM823 125q-50 0 -70.5 29.5t-20.5 96.5t20.5 97.5t70.5 30.5t71 -30.5t21 -97.5q0 -66 -21 -96t-71 -30zM823 336q-24 0 -32.5 -20t-8.5 -65t8.5 -65t32.5 -20q25 0 33.5 20t8.5 65
q0 46 -8.5 65.5t-33.5 19.5zM806 847q41 0 66 -20.5t32 -42.5t7 -45q0 -36 -28 -60.5t-60 -28.5q-178 -20 -284 -123q5 13 14.5 34.5t38.5 77t59 97.5t72.5 76.5t82.5 34.5zM237 758q45 0 89 -33t74.5 -80t54.5 -93.5t36 -79.5l12 -33q-96 122 -266 122q-42 0 -74 25.5
t-32 63.5q0 44 28 76t78 32zM536 1012q32 -31 40.5 -85t-2.5 -109.5t-26.5 -106t-29.5 -82.5l-15 -32q17 160 -104 275q-30 30 -35.5 68.5t20.5 69.5q31 31 71 33.5t81 -31.5z" />
    <glyph glyph-name="asterisk" unicode="*" 
d="M172 336q-12 0 -15 -1v-168q1 -1 15 -1q31 0 42 20.5t11 64.5q0 45 -11 65t-42 20zM432 275v-41h-68v-65h80v-41h-130v247h130v-42h-80v-58h68zM169 125q-39 0 -61 3v244q51 7 63 7q56 0 80 -31t24 -97t-24.5 -96t-81.5 -30zM488 375h67l32 -136l33 136h68q3 -59 10 -247
h-49q0 61 -6 177l-34 -139h-46l-34 139h-2q-3 -87 -3 -177h-48q4 147 12 247zM823 125q-50 0 -70.5 29.5t-20.5 96.5t20.5 97.5t70.5 30.5t71 -30.5t21 -97.5q0 -66 -21 -96t-71 -30zM823 336q-24 0 -32.5 -20t-8.5 -65t8.5 -65t32.5 -20q25 0 33.5 20t8.5 65
q0 46 -8.5 65.5t-33.5 19.5zM806 847q41 0 66 -20.5t32 -42.5t7 -45q0 -36 -28 -60.5t-60 -28.5q-178 -20 -284 -123q5 13 14.5 34.5t38.5 77t59 97.5t72.5 76.5t82.5 34.5zM237 758q45 0 89 -33t74.5 -80t54.5 -93.5t36 -79.5l12 -33q-96 122 -266 122q-42 0 -74 25.5
t-32 63.5q0 44 28 76t78 32zM536 1012q32 -31 40.5 -85t-2.5 -109.5t-26.5 -106t-29.5 -82.5l-15 -32q17 160 -104 275q-30 30 -35.5 68.5t20.5 69.5q31 31 71 33.5t81 -31.5z" />
    <glyph glyph-name="plus" unicode="+" 
d="M172 336q-12 0 -15 -1v-168q1 -1 15 -1q31 0 42 20.5t11 64.5q0 45 -11 65t-42 20zM432 275v-41h-68v-65h80v-41h-130v247h130v-42h-80v-58h68zM169 125q-39 0 -61 3v244q51 7 63 7q56 0 80 -31t24 -97t-24.5 -96t-81.5 -30zM488 375h67l32 -136l33 136h68q3 -59 10 -247
h-49q0 61 -6 177l-34 -139h-46l-34 139h-2q-3 -87 -3 -177h-48q4 147 12 247zM823 125q-50 0 -70.5 29.5t-20.5 96.5t20.5 97.5t70.5 30.5t71 -30.5t21 -97.5q0 -66 -21 -96t-71 -30zM823 336q-24 0 -32.5 -20t-8.5 -65t8.5 -65t32.5 -20q25 0 33.5 20t8.5 65
q0 46 -8.5 65.5t-33.5 19.5zM806 847q41 0 66 -20.5t32 -42.5t7 -45q0 -36 -28 -60.5t-60 -28.5q-178 -20 -284 -123q5 13 14.5 34.5t38.5 77t59 97.5t72.5 76.5t82.5 34.5zM237 758q45 0 89 -33t74.5 -80t54.5 -93.5t36 -79.5l12 -33q-96 122 -266 122q-42 0 -74 25.5
t-32 63.5q0 44 28 76t78 32zM536 1012q32 -31 40.5 -85t-2.5 -109.5t-26.5 -106t-29.5 -82.5l-15 -32q17 160 -104 275q-30 30 -35.5 68.5t20.5 69.5q31 31 71 33.5t81 -31.5z" />
    <glyph glyph-name="comma" unicode="," horiz-adv-x="482" 
d="M92 -283q128 131 128 259h-5q-64 0 -103 40.5t-39 108.5q0 73 44.5 114t118.5 41q174 0 174 -217q0 -91 -40 -183.5t-104 -162.5h-174z" />
    <glyph glyph-name="hyphen" unicode="-" 
d="M172 336q-12 0 -15 -1v-168q1 -1 15 -1q31 0 42 20.5t11 64.5q0 45 -11 65t-42 20zM432 275v-41h-68v-65h80v-41h-130v247h130v-42h-80v-58h68zM169 125q-39 0 -61 3v244q51 7 63 7q56 0 80 -31t24 -97t-24.5 -96t-81.5 -30zM488 375h67l32 -136l33 136h68q3 -59 10 -247
h-49q0 61 -6 177l-34 -139h-46l-34 139h-2q-3 -87 -3 -177h-48q4 147 12 247zM823 125q-50 0 -70.5 29.5t-20.5 96.5t20.5 97.5t70.5 30.5t71 -30.5t21 -97.5q0 -66 -21 -96t-71 -30zM823 336q-24 0 -32.5 -20t-8.5 -65t8.5 -65t32.5 -20q25 0 33.5 20t8.5 65
q0 46 -8.5 65.5t-33.5 19.5zM806 847q41 0 66 -20.5t32 -42.5t7 -45q0 -36 -28 -60.5t-60 -28.5q-178 -20 -284 -123q5 13 14.5 34.5t38.5 77t59 97.5t72.5 76.5t82.5 34.5zM237 758q45 0 89 -33t74.5 -80t54.5 -93.5t36 -79.5l12 -33q-96 122 -266 122q-42 0 -74 25.5
t-32 63.5q0 44 28 76t78 32zM536 1012q32 -31 40.5 -85t-2.5 -109.5t-26.5 -106t-29.5 -82.5l-15 -32q17 160 -104 275q-30 30 -35.5 68.5t20.5 69.5q31 31 71 33.5t81 -31.5z" />
    <glyph glyph-name="period" unicode="." horiz-adv-x="472" 
d="M237 -26q-76 0 -121.5 40t-45.5 114t45.5 113t121.5 39t121 -39t45 -113t-45 -114t-121 -40z" />
    <glyph glyph-name="slash" unicode="/" 
d="M172 336q-12 0 -15 -1v-168q1 -1 15 -1q31 0 42 20.5t11 64.5q0 45 -11 65t-42 20zM432 275v-41h-68v-65h80v-41h-130v247h130v-42h-80v-58h68zM169 125q-39 0 -61 3v244q51 7 63 7q56 0 80 -31t24 -97t-24.5 -96t-81.5 -30zM488 375h67l32 -136l33 136h68q3 -59 10 -247
h-49q0 61 -6 177l-34 -139h-46l-34 139h-2q-3 -87 -3 -177h-48q4 147 12 247zM823 125q-50 0 -70.5 29.5t-20.5 96.5t20.5 97.5t70.5 30.5t71 -30.5t21 -97.5q0 -66 -21 -96t-71 -30zM823 336q-24 0 -32.5 -20t-8.5 -65t8.5 -65t32.5 -20q25 0 33.5 20t8.5 65
q0 46 -8.5 65.5t-33.5 19.5zM806 847q41 0 66 -20.5t32 -42.5t7 -45q0 -36 -28 -60.5t-60 -28.5q-178 -20 -284 -123q5 13 14.5 34.5t38.5 77t59 97.5t72.5 76.5t82.5 34.5zM237 758q45 0 89 -33t74.5 -80t54.5 -93.5t36 -79.5l12 -33q-96 122 -266 122q-42 0 -74 25.5
t-32 63.5q0 44 28 76t78 32zM536 1012q32 -31 40.5 -85t-2.5 -109.5t-26.5 -106t-29.5 -82.5l-15 -32q17 160 -104 275q-30 30 -35.5 68.5t20.5 69.5q31 31 71 33.5t81 -31.5z" />
    <glyph glyph-name="zero" unicode="0" horiz-adv-x="1233" 
d="M616 -34q-254 0 -397.5 167t-143.5 464t143.5 464.5t397.5 167.5t398.5 -167.5t144.5 -464.5q0 -296 -144.5 -463.5t-398.5 -167.5zM616 191q128 0 202.5 107t74.5 299t-74.5 299.5t-202.5 107.5t-201.5 -107t-73.5 -300t73.5 -299.5t201.5 -106.5z" />
    <glyph glyph-name="one" unicode="1" horiz-adv-x="802" 
d="M568 230h190v-230h-664v230h213v695l-227 -75v242l290 103h198v-965z" />
    <glyph glyph-name="two" unicode="2" horiz-adv-x="1029" 
d="M445 229h514v-229h-884v203l347 292q118 100 166.5 169t48.5 157q0 93 -59.5 138t-166.5 45q-173 0 -324 -76v229q166 72 396 72q204 0 321.5 -96.5t117.5 -280.5q0 -84 -23 -155.5t-71 -135t-104.5 -115.5t-139.5 -113z" />
    <glyph glyph-name="three" unicode="3" horiz-adv-x="1030" 
d="M596 700q173 0 268 -89.5t95 -257.5q0 -182 -128 -282t-384 -100q-217 0 -370 73v236q167 -82 362 -82q111 0 172 42.5t61 126.5q0 152 -191 152q-89 0 -158 -17l-82 167l310 295h-464v231h819v-180l-345 -315h35z" />
    <glyph glyph-name="four" unicode="4" 
d="M172 336q-12 0 -15 -1v-168q1 -1 15 -1q31 0 42 20.5t11 64.5q0 45 -11 65t-42 20zM432 275v-41h-68v-65h80v-41h-130v247h130v-42h-80v-58h68zM169 125q-39 0 -61 3v244q51 7 63 7q56 0 80 -31t24 -97t-24.5 -96t-81.5 -30zM488 375h67l32 -136l33 136h68q3 -59 10 -247
h-49q0 61 -6 177l-34 -139h-46l-34 139h-2q-3 -87 -3 -177h-48q4 147 12 247zM823 125q-50 0 -70.5 29.5t-20.5 96.5t20.5 97.5t70.5 30.5t71 -30.5t21 -97.5q0 -66 -21 -96t-71 -30zM823 336q-24 0 -32.5 -20t-8.5 -65t8.5 -65t32.5 -20q25 0 33.5 20t8.5 65
q0 46 -8.5 65.5t-33.5 19.5zM806 847q41 0 66 -20.5t32 -42.5t7 -45q0 -36 -28 -60.5t-60 -28.5q-178 -20 -284 -123q5 13 14.5 34.5t38.5 77t59 97.5t72.5 76.5t82.5 34.5zM237 758q45 0 89 -33t74.5 -80t54.5 -93.5t36 -79.5l12 -33q-96 122 -266 122q-42 0 -74 25.5
t-32 63.5q0 44 28 76t78 32zM536 1012q32 -31 40.5 -85t-2.5 -109.5t-26.5 -106t-29.5 -82.5l-15 -32q17 160 -104 275q-30 30 -35.5 68.5t20.5 69.5q31 31 71 33.5t81 -31.5z" />
    <glyph glyph-name="five" unicode="5" horiz-adv-x="1047" 
d="M575 761q406 0 406 -370q0 -202 -127.5 -309.5t-368.5 -107.5q-232 0 -384 50v230q178 -56 358 -56q133 0 193.5 45.5t60.5 133.5q0 162 -211 162q-121 0 -220 -44l-176 80v620h799v-231h-552v-237q104 34 222 34z" />
    <glyph glyph-name="six" unicode="6" horiz-adv-x="1107" 
d="M669 758q187 0 282 -95t95 -270q0 -193 -125 -310t-353 -117q-234 0 -362.5 146.5t-128.5 445.5q0 317 154 494t429 177q180 0 294 -46v-227q-109 48 -271 48q-297 0 -331 -340q145 94 317 94zM589 183q90 0 144.5 50t54.5 139q0 179 -189 179q-124 0 -249 -82
q14 -151 73.5 -218.5t165.5 -67.5z" />
    <glyph glyph-name="seven" unicode="7" horiz-adv-x="971" 
d="M36 1195h896v-188l-456 -1007h-278l447 964h-609v231z" />
    <glyph glyph-name="eight" unicode="8" horiz-adv-x="1162" 
d="M580 -34q-252 0 -380 89.5t-128 263.5q0 221 211 304q-87 34 -123.5 99.5t-36.5 164.5q0 159 123.5 250.5t335.5 91.5q217 0 337 -88.5t120 -253.5q0 -98 -37 -162.5t-125 -101.5q112 -36 163 -109.5t51 -194.5q0 -165 -138 -259t-373 -94zM582 701q109 0 163.5 45
t54.5 114q0 77 -56.5 119t-161.5 42q-106 0 -163 -42t-57 -119q0 -71 53.5 -115t166.5 -44zM582 177q115 0 178.5 44.5t63.5 118.5q0 174 -242 174q-119 0 -181.5 -43.5t-62.5 -124.5q0 -169 244 -169z" />
    <glyph glyph-name="nine" unicode="9" horiz-adv-x="1112" 
d="M527 1229q507 0 507 -616q0 -151 -32.5 -267.5t-101 -202.5t-181 -131.5t-265.5 -45.5q-197 0 -306 54v229q116 -58 299 -58q148 0 223.5 73.5t92.5 221.5q-131 -68 -292 -68q-200 0 -304 101t-104 283q0 191 123.5 309t340.5 118zM329 824q0 -99 52.5 -147.5
t149.5 -48.5q124 0 234 63q-13 160 -73 243t-165 83q-94 0 -146 -52t-52 -141z" />
    <glyph glyph-name="colon" unicode=":" horiz-adv-x="523" 
d="M265 625q-77 0 -122.5 39t-45.5 113t46 113.5t122 39.5t120.5 -39.5t44.5 -113.5t-44.5 -113t-120.5 -39zM261 -26q-76 0 -121.5 40t-45.5 114t45.5 113t121.5 39t121 -39t45 -113t-45 -114t-121 -40z" />
    <glyph glyph-name="semicolon" unicode=";" horiz-adv-x="534" 
d="M270 625q-77 0 -122.5 39t-45.5 113t46 113.5t122 39.5t120.5 -39.5t44.5 -113.5t-44.5 -113t-120.5 -39zM116 -283q128 131 128 259h-5q-64 0 -103 40.5t-39 108.5q0 73 44 114t118 41q174 0 174 -217q0 -91 -39.5 -183.5t-103.5 -162.5h-174z" />
    <glyph glyph-name="less" unicode="&#x3c;" 
d="M172 336q-12 0 -15 -1v-168q1 -1 15 -1q31 0 42 20.5t11 64.5q0 45 -11 65t-42 20zM432 275v-41h-68v-65h80v-41h-130v247h130v-42h-80v-58h68zM169 125q-39 0 -61 3v244q51 7 63 7q56 0 80 -31t24 -97t-24.5 -96t-81.5 -30zM488 375h67l32 -136l33 136h68q3 -59 10 -247
h-49q0 61 -6 177l-34 -139h-46l-34 139h-2q-3 -87 -3 -177h-48q4 147 12 247zM823 125q-50 0 -70.5 29.5t-20.5 96.5t20.5 97.5t70.5 30.5t71 -30.5t21 -97.5q0 -66 -21 -96t-71 -30zM823 336q-24 0 -32.5 -20t-8.5 -65t8.5 -65t32.5 -20q25 0 33.5 20t8.5 65
q0 46 -8.5 65.5t-33.5 19.5zM806 847q41 0 66 -20.5t32 -42.5t7 -45q0 -36 -28 -60.5t-60 -28.5q-178 -20 -284 -123q5 13 14.5 34.5t38.5 77t59 97.5t72.5 76.5t82.5 34.5zM237 758q45 0 89 -33t74.5 -80t54.5 -93.5t36 -79.5l12 -33q-96 122 -266 122q-42 0 -74 25.5
t-32 63.5q0 44 28 76t78 32zM536 1012q32 -31 40.5 -85t-2.5 -109.5t-26.5 -106t-29.5 -82.5l-15 -32q17 160 -104 275q-30 30 -35.5 68.5t20.5 69.5q31 31 71 33.5t81 -31.5z" />
    <glyph glyph-name="equal" unicode="=" 
d="M172 336q-12 0 -15 -1v-168q1 -1 15 -1q31 0 42 20.5t11 64.5q0 45 -11 65t-42 20zM432 275v-41h-68v-65h80v-41h-130v247h130v-42h-80v-58h68zM169 125q-39 0 -61 3v244q51 7 63 7q56 0 80 -31t24 -97t-24.5 -96t-81.5 -30zM488 375h67l32 -136l33 136h68q3 -59 10 -247
h-49q0 61 -6 177l-34 -139h-46l-34 139h-2q-3 -87 -3 -177h-48q4 147 12 247zM823 125q-50 0 -70.5 29.5t-20.5 96.5t20.5 97.5t70.5 30.5t71 -30.5t21 -97.5q0 -66 -21 -96t-71 -30zM823 336q-24 0 -32.5 -20t-8.5 -65t8.5 -65t32.5 -20q25 0 33.5 20t8.5 65
q0 46 -8.5 65.5t-33.5 19.5zM806 847q41 0 66 -20.5t32 -42.5t7 -45q0 -36 -28 -60.5t-60 -28.5q-178 -20 -284 -123q5 13 14.5 34.5t38.5 77t59 97.5t72.5 76.5t82.5 34.5zM237 758q45 0 89 -33t74.5 -80t54.5 -93.5t36 -79.5l12 -33q-96 122 -266 122q-42 0 -74 25.5
t-32 63.5q0 44 28 76t78 32zM536 1012q32 -31 40.5 -85t-2.5 -109.5t-26.5 -106t-29.5 -82.5l-15 -32q17 160 -104 275q-30 30 -35.5 68.5t20.5 69.5q31 31 71 33.5t81 -31.5z" />
    <glyph glyph-name="greater" unicode="&#x3e;" 
d="M172 336q-12 0 -15 -1v-168q1 -1 15 -1q31 0 42 20.5t11 64.5q0 45 -11 65t-42 20zM432 275v-41h-68v-65h80v-41h-130v247h130v-42h-80v-58h68zM169 125q-39 0 -61 3v244q51 7 63 7q56 0 80 -31t24 -97t-24.5 -96t-81.5 -30zM488 375h67l32 -136l33 136h68q3 -59 10 -247
h-49q0 61 -6 177l-34 -139h-46l-34 139h-2q-3 -87 -3 -177h-48q4 147 12 247zM823 125q-50 0 -70.5 29.5t-20.5 96.5t20.5 97.5t70.5 30.5t71 -30.5t21 -97.5q0 -66 -21 -96t-71 -30zM823 336q-24 0 -32.5 -20t-8.5 -65t8.5 -65t32.5 -20q25 0 33.5 20t8.5 65
q0 46 -8.5 65.5t-33.5 19.5zM806 847q41 0 66 -20.5t32 -42.5t7 -45q0 -36 -28 -60.5t-60 -28.5q-178 -20 -284 -123q5 13 14.5 34.5t38.5 77t59 97.5t72.5 76.5t82.5 34.5zM237 758q45 0 89 -33t74.5 -80t54.5 -93.5t36 -79.5l12 -33q-96 122 -266 122q-42 0 -74 25.5
t-32 63.5q0 44 28 76t78 32zM536 1012q32 -31 40.5 -85t-2.5 -109.5t-26.5 -106t-29.5 -82.5l-15 -32q17 160 -104 275q-30 30 -35.5 68.5t20.5 69.5q31 31 71 33.5t81 -31.5z" />
    <glyph glyph-name="question" unicode="?" horiz-adv-x="868" 
d="M375 1212q442 0 442 -352q0 -138 -85 -237t-258 -137l-3 -121h-217l-7 285q163 7 233.5 53t70.5 137q0 82 -51.5 121t-156.5 39q-169 0 -292 -49v210q145 51 324 51zM362 280q78 0 122.5 -39t44.5 -113t-45 -114t-122 -40q-76 0 -121.5 40t-45.5 114t45.5 113t121.5 39z
" />
    <glyph glyph-name="at" unicode="@" 
d="M172 336q-12 0 -15 -1v-168q1 -1 15 -1q31 0 42 20.5t11 64.5q0 45 -11 65t-42 20zM432 275v-41h-68v-65h80v-41h-130v247h130v-42h-80v-58h68zM169 125q-39 0 -61 3v244q51 7 63 7q56 0 80 -31t24 -97t-24.5 -96t-81.5 -30zM488 375h67l32 -136l33 136h68q3 -59 10 -247
h-49q0 61 -6 177l-34 -139h-46l-34 139h-2q-3 -87 -3 -177h-48q4 147 12 247zM823 125q-50 0 -70.5 29.5t-20.5 96.5t20.5 97.5t70.5 30.5t71 -30.5t21 -97.5q0 -66 -21 -96t-71 -30zM823 336q-24 0 -32.5 -20t-8.5 -65t8.5 -65t32.5 -20q25 0 33.5 20t8.5 65
q0 46 -8.5 65.5t-33.5 19.5zM806 847q41 0 66 -20.5t32 -42.5t7 -45q0 -36 -28 -60.5t-60 -28.5q-178 -20 -284 -123q5 13 14.5 34.5t38.5 77t59 97.5t72.5 76.5t82.5 34.5zM237 758q45 0 89 -33t74.5 -80t54.5 -93.5t36 -79.5l12 -33q-96 122 -266 122q-42 0 -74 25.5
t-32 63.5q0 44 28 76t78 32zM536 1012q32 -31 40.5 -85t-2.5 -109.5t-26.5 -106t-29.5 -82.5l-15 -32q17 160 -104 275q-30 30 -35.5 68.5t20.5 69.5q31 31 71 33.5t81 -31.5z" />
    <glyph glyph-name="A" unicode="A" horiz-adv-x="1199" 
d="M901 0l-84 242h-442l-83 -242h-278l466 1195h240l466 -1195h-285zM445 440h304l-152 439z" />
    <glyph glyph-name="B" unicode="B" horiz-adv-x="1153" 
d="M911 642q166 -75 166 -280q0 -174 -113 -268t-310 -94h-516v1195h545q172 0 266 -83t94 -231q0 -162 -132 -239zM616 1002h-217v-297h215q91 0 136 40t45 110q0 71 -41.5 109t-137.5 38zM623 193q95 0 145.5 42t50.5 122q0 155 -188 155h-232v-319h224z" />
    <glyph glyph-name="C" unicode="C" horiz-adv-x="1071" 
d="M683 -34q-293 0 -452 161t-159 453q0 308 169 478.5t459 170.5q187 0 300 -50v-228q-116 54 -275 54q-188 0 -287.5 -106.5t-99.5 -311.5q0 -191 96 -293.5t281 -102.5q155 0 294 72v-229q-134 -68 -326 -68z" />
    <glyph glyph-name="D" unicode="D" horiz-adv-x="1271" 
d="M599 1195q289 0 444 -155.5t155 -442.5t-154.5 -442t-444.5 -155h-461v1195h461zM589 225q170 0 257.5 94t87.5 278t-87.5 278t-257.5 94h-190v-744h190z" />
    <glyph glyph-name="E" unicode="E" horiz-adv-x="1037" 
d="M399 213h558v-213h-819v1195h809v-214h-548v-269h500v-214h-500v-285z" />
    <glyph glyph-name="F" unicode="F" horiz-adv-x="991" 
d="M944 966h-545v-304h465v-230h-465v-432h-261v1195h806v-229z" />
    <glyph glyph-name="G" unicode="G" horiz-adv-x="1204" 
d="M870 591h250v-538q-88 -38 -210 -62.5t-232 -24.5q-286 0 -446 168t-160 457q0 294 159.5 466t461.5 172q190 0 370 -58v-232q-173 66 -360 66q-180 0 -273.5 -107t-93.5 -302q0 -188 92.5 -297.5t254.5 -109.5q95 0 187 19v383z" />
    <glyph glyph-name="H" unicode="H" horiz-adv-x="1290" 
d="M891 1195h263v-1195h-263v485h-492v-485h-261v1195h261v-471h492v471z" />
    <glyph glyph-name="I" unicode="I" horiz-adv-x="537" 
d="M138 1195h261v-1195h-261v1195z" />
    <glyph glyph-name="J" unicode="J" horiz-adv-x="916" 
d="M790 1195v-763q0 -232 -107.5 -349t-349.5 -117q-160 0 -272 48v232q106 -53 250 -53q119 0 167.5 54.5t48.5 174.5v535h-425v238h688z" />
    <glyph glyph-name="K" unicode="K" horiz-adv-x="1232" 
d="M1128 191q34 0 51 10v-204q-46 -19 -131 -19q-93 0 -147.5 31.5t-106.5 125.5l-197 355q-53 -5 -100 -5h-98v-485h-261v1195h261v-471h106q85 0 148 21t104 59t65.5 98t34.5 130t10 163h261q0 -463 -280 -627l161 -286q30 -57 53.5 -74t65.5 -17z" />
    <glyph glyph-name="L" unicode="L" horiz-adv-x="969" 
d="M399 229h546v-229h-807v1195h261v-966z" />
    <glyph glyph-name="M" unicode="M" horiz-adv-x="1506" 
d="M1132 1195h237v-1195h-244v691l1 111q-26 -51 -64 -113l-231 -366h-159l-233 366q-13 19 -58 96l1 -94v-691h-244v1195h239l379 -594z" />
    <glyph glyph-name="N" unicode="N" horiz-adv-x="1286" 
d="M905 1195h245v-1195h-230l-538 771q2 -44 2 -131v-640h-246v1195h229l539 -773q-1 23 -1 139v634z" />
    <glyph glyph-name="O" unicode="O" horiz-adv-x="1332" 
d="M667 1229q277 0 435 -169t158 -461q0 -294 -158 -463.5t-435 -169.5q-279 0 -437 168t-158 462q0 293 158.5 463t436.5 170zM667 1004q-153 0 -241 -108.5t-88 -298.5q0 -191 88 -298.5t241 -107.5q151 0 239.5 108t88.5 298q0 189 -88.5 298t-239.5 109z" />
    <glyph glyph-name="P" unicode="P" horiz-adv-x="1181" 
d="M650 1195q230 0 357.5 -107.5t127.5 -328.5q0 -202 -126.5 -323.5t-351.5 -121.5q-143 0 -258 43v-357h-261v1195h512zM628 538q121 0 183.5 56t62.5 157q0 218 -219 218h-256v-389q106 -42 229 -42z" />
    <glyph glyph-name="Q" unicode="Q" horiz-adv-x="1332" 
d="M1260 599q0 -261 -126 -425.5t-351 -199.5v-35q0 -52 19.5 -75t71.5 -23q36 0 68 12v-186q-46 -19 -143 -19q-126 0 -188.5 70t-62.5 192v64q-225 36 -350.5 199.5t-125.5 422.5q0 293 158.5 463t436.5 170q277 0 435 -169t158 -461zM338 597q0 -191 88 -298.5
t241 -107.5q151 0 239.5 108t88.5 298q0 189 -88.5 298t-239.5 109q-153 0 -241 -108.5t-88 -298.5z" />
    <glyph glyph-name="R" unicode="R" horiz-adv-x="1175" 
d="M1062 200q28 0 58 8v-213q-55 -17 -135 -17q-83 0 -140.5 36.5t-108.5 127.5l-152 266h-185v-408h-261v1195h473q222 0 341.5 -99.5t119.5 -295.5q0 -256 -227 -349l106 -176q43 -75 111 -75zM399 971v-351h198q102 0 158 44t56 136q0 86 -56.5 128.5t-157.5 42.5h-198z
" />
    <glyph glyph-name="S" unicode="S" horiz-adv-x="1054" 
d="M485 -34q-255 0 -403 73v248q167 -99 408 -99q126 0 186 33.5t60 102.5q0 65 -59 101.5t-230 76.5q-194 47 -278.5 132t-84.5 233q0 171 127 266.5t349 95.5q220 0 368 -60v-225q-173 63 -355 63q-123 0 -183.5 -29t-60.5 -92q0 -55 49 -87t197 -67q226 -55 322 -141.5
t96 -242.5q0 -186 -130 -284t-378 -98z" />
    <glyph glyph-name="T" unicode="T" horiz-adv-x="1076" 
d="M1053 1195v-229h-384v-966h-263v966h-382v229h1029z" />
    <glyph glyph-name="U" unicode="U" horiz-adv-x="1312" 
d="M1200 186q29 0 63 12v-198q-72 -22 -171 -22q-140 0 -184 106q-136 -118 -345 -118q-437 0 -437 476v753h261v-719q0 -143 53 -215t176 -72q154 0 268 99v907h261v-932q0 -77 55 -77z" />
    <glyph glyph-name="V" unicode="V" horiz-adv-x="1198" 
d="M910 1195h276l-466 -1195h-242l-463 1195h292l188 -533q22 -61 116 -355q68 229 114 355z" />
    <glyph glyph-name="W" unicode="W" horiz-adv-x="1708" 
d="M1405 1195h281l-368 -1195h-239l-226 809l-227 -809h-237l-369 1195h289l212 -835l225 835h229l218 -838z" />
    <glyph glyph-name="X" unicode="X" horiz-adv-x="1140" 
d="M1132 0h-313l-259 411l-255 -411h-296l395 597l-390 598h312l246 -408l257 408h297l-392 -589z" />
    <glyph glyph-name="Y" unicode="Y" horiz-adv-x="1181" 
d="M1164 1195l-442 -773v-422h-261v416l-442 779h317l159 -314q58 -117 101 -222q38 90 104 223l157 313h307z" />
    <glyph glyph-name="Z" unicode="Z" horiz-adv-x="1109" 
d="M647 224h404v-224h-984v189l452 581q72 92 170 206q-150 -5 -264 -5h-345v224h946v-190l-459 -590q-23 -30 -161 -197q168 6 241 6z" />
    <glyph glyph-name="bracketleft" unicode="[" 
d="M172 336q-12 0 -15 -1v-168q1 -1 15 -1q31 0 42 20.5t11 64.5q0 45 -11 65t-42 20zM432 275v-41h-68v-65h80v-41h-130v247h130v-42h-80v-58h68zM169 125q-39 0 -61 3v244q51 7 63 7q56 0 80 -31t24 -97t-24.5 -96t-81.5 -30zM488 375h67l32 -136l33 136h68q3 -59 10 -247
h-49q0 61 -6 177l-34 -139h-46l-34 139h-2q-3 -87 -3 -177h-48q4 147 12 247zM823 125q-50 0 -70.5 29.5t-20.5 96.5t20.5 97.5t70.5 30.5t71 -30.5t21 -97.5q0 -66 -21 -96t-71 -30zM823 336q-24 0 -32.5 -20t-8.5 -65t8.5 -65t32.5 -20q25 0 33.5 20t8.5 65
q0 46 -8.5 65.5t-33.5 19.5zM806 847q41 0 66 -20.5t32 -42.5t7 -45q0 -36 -28 -60.5t-60 -28.5q-178 -20 -284 -123q5 13 14.5 34.5t38.5 77t59 97.5t72.5 76.5t82.5 34.5zM237 758q45 0 89 -33t74.5 -80t54.5 -93.5t36 -79.5l12 -33q-96 122 -266 122q-42 0 -74 25.5
t-32 63.5q0 44 28 76t78 32zM536 1012q32 -31 40.5 -85t-2.5 -109.5t-26.5 -106t-29.5 -82.5l-15 -32q17 160 -104 275q-30 30 -35.5 68.5t20.5 69.5q31 31 71 33.5t81 -31.5z" />
    <glyph glyph-name="backslash" unicode="\" 
d="M172 336q-12 0 -15 -1v-168q1 -1 15 -1q31 0 42 20.5t11 64.5q0 45 -11 65t-42 20zM432 275v-41h-68v-65h80v-41h-130v247h130v-42h-80v-58h68zM169 125q-39 0 -61 3v244q51 7 63 7q56 0 80 -31t24 -97t-24.5 -96t-81.5 -30zM488 375h67l32 -136l33 136h68q3 -59 10 -247
h-49q0 61 -6 177l-34 -139h-46l-34 139h-2q-3 -87 -3 -177h-48q4 147 12 247zM823 125q-50 0 -70.5 29.5t-20.5 96.5t20.5 97.5t70.5 30.5t71 -30.5t21 -97.5q0 -66 -21 -96t-71 -30zM823 336q-24 0 -32.5 -20t-8.5 -65t8.5 -65t32.5 -20q25 0 33.5 20t8.5 65
q0 46 -8.5 65.5t-33.5 19.5zM806 847q41 0 66 -20.5t32 -42.5t7 -45q0 -36 -28 -60.5t-60 -28.5q-178 -20 -284 -123q5 13 14.5 34.5t38.5 77t59 97.5t72.5 76.5t82.5 34.5zM237 758q45 0 89 -33t74.5 -80t54.5 -93.5t36 -79.5l12 -33q-96 122 -266 122q-42 0 -74 25.5
t-32 63.5q0 44 28 76t78 32zM536 1012q32 -31 40.5 -85t-2.5 -109.5t-26.5 -106t-29.5 -82.5l-15 -32q17 160 -104 275q-30 30 -35.5 68.5t20.5 69.5q31 31 71 33.5t81 -31.5z" />
    <glyph glyph-name="bracketright" unicode="]" 
d="M172 336q-12 0 -15 -1v-168q1 -1 15 -1q31 0 42 20.5t11 64.5q0 45 -11 65t-42 20zM432 275v-41h-68v-65h80v-41h-130v247h130v-42h-80v-58h68zM169 125q-39 0 -61 3v244q51 7 63 7q56 0 80 -31t24 -97t-24.5 -96t-81.5 -30zM488 375h67l32 -136l33 136h68q3 -59 10 -247
h-49q0 61 -6 177l-34 -139h-46l-34 139h-2q-3 -87 -3 -177h-48q4 147 12 247zM823 125q-50 0 -70.5 29.5t-20.5 96.5t20.5 97.5t70.5 30.5t71 -30.5t21 -97.5q0 -66 -21 -96t-71 -30zM823 336q-24 0 -32.5 -20t-8.5 -65t8.5 -65t32.5 -20q25 0 33.5 20t8.5 65
q0 46 -8.5 65.5t-33.5 19.5zM806 847q41 0 66 -20.5t32 -42.5t7 -45q0 -36 -28 -60.5t-60 -28.5q-178 -20 -284 -123q5 13 14.5 34.5t38.5 77t59 97.5t72.5 76.5t82.5 34.5zM237 758q45 0 89 -33t74.5 -80t54.5 -93.5t36 -79.5l12 -33q-96 122 -266 122q-42 0 -74 25.5
t-32 63.5q0 44 28 76t78 32zM536 1012q32 -31 40.5 -85t-2.5 -109.5t-26.5 -106t-29.5 -82.5l-15 -32q17 160 -104 275q-30 30 -35.5 68.5t20.5 69.5q31 31 71 33.5t81 -31.5z" />
    <glyph glyph-name="asciicircum" unicode="^" 
d="M172 336q-12 0 -15 -1v-168q1 -1 15 -1q31 0 42 20.5t11 64.5q0 45 -11 65t-42 20zM432 275v-41h-68v-65h80v-41h-130v247h130v-42h-80v-58h68zM169 125q-39 0 -61 3v244q51 7 63 7q56 0 80 -31t24 -97t-24.5 -96t-81.5 -30zM488 375h67l32 -136l33 136h68q3 -59 10 -247
h-49q0 61 -6 177l-34 -139h-46l-34 139h-2q-3 -87 -3 -177h-48q4 147 12 247zM823 125q-50 0 -70.5 29.5t-20.5 96.5t20.5 97.5t70.5 30.5t71 -30.5t21 -97.5q0 -66 -21 -96t-71 -30zM823 336q-24 0 -32.5 -20t-8.5 -65t8.5 -65t32.5 -20q25 0 33.5 20t8.5 65
q0 46 -8.5 65.5t-33.5 19.5zM806 847q41 0 66 -20.5t32 -42.5t7 -45q0 -36 -28 -60.5t-60 -28.5q-178 -20 -284 -123q5 13 14.5 34.5t38.5 77t59 97.5t72.5 76.5t82.5 34.5zM237 758q45 0 89 -33t74.5 -80t54.5 -93.5t36 -79.5l12 -33q-96 122 -266 122q-42 0 -74 25.5
t-32 63.5q0 44 28 76t78 32zM536 1012q32 -31 40.5 -85t-2.5 -109.5t-26.5 -106t-29.5 -82.5l-15 -32q17 160 -104 275q-30 30 -35.5 68.5t20.5 69.5q31 31 71 33.5t81 -31.5z" />
    <glyph glyph-name="underscore" unicode="_" 
d="M172 336q-12 0 -15 -1v-168q1 -1 15 -1q31 0 42 20.5t11 64.5q0 45 -11 65t-42 20zM432 275v-41h-68v-65h80v-41h-130v247h130v-42h-80v-58h68zM169 125q-39 0 -61 3v244q51 7 63 7q56 0 80 -31t24 -97t-24.5 -96t-81.5 -30zM488 375h67l32 -136l33 136h68q3 -59 10 -247
h-49q0 61 -6 177l-34 -139h-46l-34 139h-2q-3 -87 -3 -177h-48q4 147 12 247zM823 125q-50 0 -70.5 29.5t-20.5 96.5t20.5 97.5t70.5 30.5t71 -30.5t21 -97.5q0 -66 -21 -96t-71 -30zM823 336q-24 0 -32.5 -20t-8.5 -65t8.5 -65t32.5 -20q25 0 33.5 20t8.5 65
q0 46 -8.5 65.5t-33.5 19.5zM806 847q41 0 66 -20.5t32 -42.5t7 -45q0 -36 -28 -60.5t-60 -28.5q-178 -20 -284 -123q5 13 14.5 34.5t38.5 77t59 97.5t72.5 76.5t82.5 34.5zM237 758q45 0 89 -33t74.5 -80t54.5 -93.5t36 -79.5l12 -33q-96 122 -266 122q-42 0 -74 25.5
t-32 63.5q0 44 28 76t78 32zM536 1012q32 -31 40.5 -85t-2.5 -109.5t-26.5 -106t-29.5 -82.5l-15 -32q17 160 -104 275q-30 30 -35.5 68.5t20.5 69.5q31 31 71 33.5t81 -31.5z" />
    <glyph glyph-name="grave" unicode="`" 
d="M172 336q-12 0 -15 -1v-168q1 -1 15 -1q31 0 42 20.5t11 64.5q0 45 -11 65t-42 20zM432 275v-41h-68v-65h80v-41h-130v247h130v-42h-80v-58h68zM169 125q-39 0 -61 3v244q51 7 63 7q56 0 80 -31t24 -97t-24.5 -96t-81.5 -30zM488 375h67l32 -136l33 136h68q3 -59 10 -247
h-49q0 61 -6 177l-34 -139h-46l-34 139h-2q-3 -87 -3 -177h-48q4 147 12 247zM823 125q-50 0 -70.5 29.5t-20.5 96.5t20.5 97.5t70.5 30.5t71 -30.5t21 -97.5q0 -66 -21 -96t-71 -30zM823 336q-24 0 -32.5 -20t-8.5 -65t8.5 -65t32.5 -20q25 0 33.5 20t8.5 65
q0 46 -8.5 65.5t-33.5 19.5zM806 847q41 0 66 -20.5t32 -42.5t7 -45q0 -36 -28 -60.5t-60 -28.5q-178 -20 -284 -123q5 13 14.5 34.5t38.5 77t59 97.5t72.5 76.5t82.5 34.5zM237 758q45 0 89 -33t74.5 -80t54.5 -93.5t36 -79.5l12 -33q-96 122 -266 122q-42 0 -74 25.5
t-32 63.5q0 44 28 76t78 32zM536 1012q32 -31 40.5 -85t-2.5 -109.5t-26.5 -106t-29.5 -82.5l-15 -32q17 160 -104 275q-30 30 -35.5 68.5t20.5 69.5q31 31 71 33.5t81 -31.5z" />
    <glyph glyph-name="a" unicode="a" horiz-adv-x="1099" 
d="M1004 174q36 0 63 12v-183q-76 -25 -169 -25q-143 0 -186 99q-103 -103 -272 -103q-185 0 -280 125t-95 341q0 218 119 350.5t333 132.5q148 0 246 -66l22 39h160v-645q0 -40 13.5 -58.5t45.5 -18.5zM505 189q111 0 186 86v394q-71 39 -157 39q-105 0 -160 -69.5
t-55 -191.5q0 -258 186 -258z" />
    <glyph glyph-name="b" unicode="b" horiz-adv-x="1059" 
d="M628 923q176 0 270.5 -120t94.5 -337q0 -226 -119.5 -359t-351.5 -133q-243 0 -408 55v1251h253v-447q97 90 261 90zM522 189q108 0 162.5 70.5t54.5 196.5q0 122 -47.5 187t-135.5 65q-112 0 -189 -88v-417q79 -14 155 -14z" />
    <glyph glyph-name="c" unicode="c" horiz-adv-x="839" 
d="M527 -26q-224 0 -344 125.5t-120 344.5q0 216 130 347.5t355 131.5q133 0 222 -39v-215q-83 39 -197 39q-124 0 -190 -67.5t-66 -191.5q0 -123 62.5 -191.5t181.5 -68.5q116 0 214 48v-217q-111 -46 -248 -46z" />
    <glyph glyph-name="d" unicode="d" horiz-adv-x="1100" 
d="M998 174q35 0 64 10v-184q-72 -22 -171 -22q-132 0 -176 102q-50 -52 -125 -79t-150 -27q-180 0 -277.5 118t-97.5 348q0 225 125.5 354t328.5 129q104 0 172 -20v377h254v-1029q0 -40 12.5 -58.5t40.5 -18.5zM502 189q113 0 189 87v410q-65 22 -153 22q-105 0 -162 -68
t-57 -191q0 -260 183 -260z" />
    <glyph glyph-name="e" unicode="e" horiz-adv-x="979" 
d="M321 372q17 -99 80 -147t178 -48q87 0 152 12t138 41v-203q-149 -53 -331 -53q-228 0 -350.5 122t-122.5 343q0 220 119.5 352t329.5 132q186 0 291.5 -107t105.5 -319q0 -105 -1 -125h-589zM510 715q-155 0 -187 -177h353q-10 177 -166 177z" />
    <glyph glyph-name="f" unicode="f" horiz-adv-x="689" 
d="M596 1082q-164 0 -164 -164v-42h240v-219h-240v-657h-255v657h-126v219h126v42q0 183 95.5 285.5t277.5 102.5q100 0 167 -26v-220q-60 22 -121 22z" />
    <glyph glyph-name="g" unicode="g" horiz-adv-x="1061" 
d="M790 896h159v-806q0 -226 -116 -334t-355 -108q-195 0 -321 45v217q121 -48 314 -48q121 0 173 51t52 160v46q-100 -73 -251 -73q-181 0 -279 109.5t-98 315.5q0 201 119.5 326.5t319.5 125.5q155 0 259 -71zM510 261q111 0 186 74v336q-73 37 -157 37
q-103 0 -160.5 -61.5t-57.5 -170.5q0 -104 48.5 -159.5t140.5 -55.5z" />
    <glyph glyph-name="h" unicode="h" horiz-adv-x="1105" 
d="M1017 174q36 0 63 12v-183q-74 -25 -175 -25q-52 0 -89.5 13.5t-58.5 34.5t-33 56t-15.5 68.5t-3.5 81.5v318q0 160 -149 160q-100 0 -187 -55v-655h-253v1280h253v-428q117 70 244 70q181 0 262.5 -93.5t81.5 -282.5v-295q0 -42 13.5 -59.5t46.5 -17.5z" />
    <glyph glyph-name="i" unicode="i" horiz-adv-x="515" 
d="M237 1051q-72 0 -116 39t-44 110t44 110.5t116 39.5t117 -39.5t45 -110.5t-44.5 -110t-117.5 -39zM416 174q26 0 53 9v-186q-76 -19 -146 -19q-120 0 -166 59t-46 187v672h253v-650q0 -38 12.5 -55t39.5 -17z" />
    <glyph glyph-name="j" unicode="j" horiz-adv-x="498" 
d="M254 1051q-72 0 -116 39t-44 110t44 110.5t116 39.5q74 0 118 -39.5t44 -110.5t-44 -110t-118 -39zM31 -352q-58 0 -106 12v229q44 -10 77 -10q71 0 99.5 36t28.5 112v869h252v-903q0 -174 -91 -259.5t-260 -85.5z" />
    <glyph glyph-name="k" unicode="k" horiz-adv-x="1030" 
d="M853 232q25 -39 79 -39q35 0 60 8v-203q-65 -20 -139 -20q-78 0 -129.5 26.5t-92.5 92.5l-155 246l-107 -113v-230h-253v1280h253v-746l327 362h309l-345 -372z" />
    <glyph glyph-name="l" unicode="l" horiz-adv-x="563" 
d="M362 -22q-133 0 -193 65t-60 218v1019h253v-990q0 -107 89 -107q45 0 88 15v-196q-74 -24 -177 -24z" />
    <glyph glyph-name="m" unicode="m" horiz-adv-x="1556" 
d="M1469 174q31 0 55 10v-184q-67 -22 -159 -22q-66 0 -108.5 18.5t-62.5 56.5t-26.5 78t-6.5 101v319q0 156 -117 156q-84 0 -148 -84v-623h-253v567q0 140 -124 140q-89 0 -150 -82v-625h-253v896h162l45 -94q110 120 286 120q164 0 241 -116q106 116 280 116
q76 0 132 -25t89 -71t48.5 -105t15.5 -132v-345q0 -70 54 -70z" />
    <glyph glyph-name="n" unicode="n" horiz-adv-x="1092" 
d="M1007 174q22 0 56 9l-1 -185q-70 -20 -159 -20q-53 0 -91 13.5t-59.5 34.5t-33.5 56t-15.5 68.5t-3.5 81.5v309q0 166 -145 166q-105 0 -186 -84v-623h-253v896h198l22 -80q117 107 280 107q176 0 256 -94.5t80 -282.5v-302q0 -70 55 -70z" />
    <glyph glyph-name="o" unicode="o" horiz-adv-x="1059" 
d="M527 -26q-218 0 -341 125t-123 343q0 220 126.5 350.5t344.5 130.5q216 0 339.5 -125t123.5 -344q0 -220 -126.5 -350t-343.5 -130zM531 189q99 0 155 68t56 192t-56 191.5t-155 67.5q-101 0 -157.5 -67.5t-56.5 -191.5t56.5 -192t157.5 -68z" />
    <glyph glyph-name="p" unicode="p" horiz-adv-x="1061" 
d="M630 923q170 0 267.5 -120.5t97.5 -339.5q0 -107 -28.5 -195.5t-84.5 -154.5t-146.5 -102.5t-208.5 -36.5q-81 0 -158 14v-312h-253v1220h213l16 -77q116 104 285 104zM522 189q110 0 164.5 71t54.5 192q0 125 -46 190t-135 65q-112 0 -191 -84v-413q74 -21 153 -21z" />
    <glyph glyph-name="q" unicode="q" horiz-adv-x="1061" 
d="M785 896h160v-1220h-252v382q-104 -84 -253 -84q-187 0 -280 120.5t-93 337.5q0 223 118 357t336 134q144 0 244 -66zM505 189q111 0 188 87v393q-71 39 -159 39q-103 0 -158 -69.5t-55 -191.5q0 -258 184 -258z" />
    <glyph glyph-name="r" unicode="r" horiz-adv-x="706" 
d="M596 923q51 0 80 -10v-246q-32 12 -89 12q-134 0 -218 -129v-550h-253v896h213l19 -96q102 123 248 123z" />
    <glyph glyph-name="s" unicode="s" horiz-adv-x="887" 
d="M420 -26q-213 0 -343 57v213q144 -72 322 -72q98 0 139 19.5t41 64.5q0 41 -38.5 60.5t-166.5 41.5q-153 26 -226 90.5t-73 184.5q0 140 99 215t289 75q188 0 315 -47v-204q-151 53 -304 53q-84 0 -120.5 -17t-36.5 -56q0 -26 15.5 -41t59 -27.5t135.5 -28.5
q161 -28 231.5 -92.5t70.5 -194.5q0 -145 -104 -219.5t-305 -74.5z" />
    <glyph glyph-name="t" unicode="t" horiz-adv-x="791" 
d="M580 189q83 0 178 35v-207q-106 -39 -256 -39q-177 0 -256 90.5t-79 271.5v338h-126v218h135l66 232h178v-232h322v-218h-322v-306q0 -98 36 -140.5t124 -42.5z" />
    <glyph glyph-name="u" unicode="u" horiz-adv-x="1092" 
d="M992 174q34 0 66 12v-186q-72 -22 -174 -22q-129 0 -172 99q-118 -103 -289 -103q-172 0 -244.5 88.5t-72.5 283.5v550h254v-522q0 -92 32.5 -133t104.5 -41q110 0 189 83v613h254v-655q0 -34 11.5 -50.5t40.5 -16.5z" />
    <glyph glyph-name="v" unicode="v" horiz-adv-x="1010" 
d="M700 896h268q-49 -450 -347 -896h-247l-357 896h282l213 -640q159 297 188 640z" />
    <glyph glyph-name="w" unicode="w" horiz-adv-x="1479" 
d="M1164 896h266q-26 -239 -102.5 -472t-194.5 -424h-240l-159 556l-162 -556h-239l-314 896h280l164 -616l155 616h239l164 -647q113 262 143 647z" />
    <glyph glyph-name="x" unicode="x" horiz-adv-x="974" 
d="M963 0h-306l-174 295l-178 -295h-291l303 447l-293 449h305l161 -283l172 283h292l-299 -435z" />
    <glyph glyph-name="y" unicode="y" horiz-adv-x="1017" 
d="M708 896h272q-29 -187 -89.5 -367.5t-140 -330t-160 -268t-167.5 -218.5h-292q138 151 238 291l-352 893h285l217 -645q154 305 189 645z" />
    <glyph glyph-name="z" unicode="z" horiz-adv-x="926" 
d="M396 195h478v-195h-811v154l463 547h-458v195h784v-154z" />
    <glyph glyph-name="braceleft" unicode="{" 
d="M172 336q-12 0 -15 -1v-168q1 -1 15 -1q31 0 42 20.5t11 64.5q0 45 -11 65t-42 20zM432 275v-41h-68v-65h80v-41h-130v247h130v-42h-80v-58h68zM169 125q-39 0 -61 3v244q51 7 63 7q56 0 80 -31t24 -97t-24.5 -96t-81.5 -30zM488 375h67l32 -136l33 136h68q3 -59 10 -247
h-49q0 61 -6 177l-34 -139h-46l-34 139h-2q-3 -87 -3 -177h-48q4 147 12 247zM823 125q-50 0 -70.5 29.5t-20.5 96.5t20.5 97.5t70.5 30.5t71 -30.5t21 -97.5q0 -66 -21 -96t-71 -30zM823 336q-24 0 -32.5 -20t-8.5 -65t8.5 -65t32.5 -20q25 0 33.5 20t8.5 65
q0 46 -8.5 65.5t-33.5 19.5zM806 847q41 0 66 -20.5t32 -42.5t7 -45q0 -36 -28 -60.5t-60 -28.5q-178 -20 -284 -123q5 13 14.5 34.5t38.5 77t59 97.5t72.5 76.5t82.5 34.5zM237 758q45 0 89 -33t74.5 -80t54.5 -93.5t36 -79.5l12 -33q-96 122 -266 122q-42 0 -74 25.5
t-32 63.5q0 44 28 76t78 32zM536 1012q32 -31 40.5 -85t-2.5 -109.5t-26.5 -106t-29.5 -82.5l-15 -32q17 160 -104 275q-30 30 -35.5 68.5t20.5 69.5q31 31 71 33.5t81 -31.5z" />
    <glyph glyph-name="bar" unicode="|" 
d="M172 336q-12 0 -15 -1v-168q1 -1 15 -1q31 0 42 20.5t11 64.5q0 45 -11 65t-42 20zM432 275v-41h-68v-65h80v-41h-130v247h130v-42h-80v-58h68zM169 125q-39 0 -61 3v244q51 7 63 7q56 0 80 -31t24 -97t-24.5 -96t-81.5 -30zM488 375h67l32 -136l33 136h68q3 -59 10 -247
h-49q0 61 -6 177l-34 -139h-46l-34 139h-2q-3 -87 -3 -177h-48q4 147 12 247zM823 125q-50 0 -70.5 29.5t-20.5 96.5t20.5 97.5t70.5 30.5t71 -30.5t21 -97.5q0 -66 -21 -96t-71 -30zM823 336q-24 0 -32.5 -20t-8.5 -65t8.5 -65t32.5 -20q25 0 33.5 20t8.5 65
q0 46 -8.5 65.5t-33.5 19.5zM806 847q41 0 66 -20.5t32 -42.5t7 -45q0 -36 -28 -60.5t-60 -28.5q-178 -20 -284 -123q5 13 14.5 34.5t38.5 77t59 97.5t72.5 76.5t82.5 34.5zM237 758q45 0 89 -33t74.5 -80t54.5 -93.5t36 -79.5l12 -33q-96 122 -266 122q-42 0 -74 25.5
t-32 63.5q0 44 28 76t78 32zM536 1012q32 -31 40.5 -85t-2.5 -109.5t-26.5 -106t-29.5 -82.5l-15 -32q17 160 -104 275q-30 30 -35.5 68.5t20.5 69.5q31 31 71 33.5t81 -31.5z" />
    <glyph glyph-name="braceright" unicode="}" 
d="M172 336q-12 0 -15 -1v-168q1 -1 15 -1q31 0 42 20.5t11 64.5q0 45 -11 65t-42 20zM432 275v-41h-68v-65h80v-41h-130v247h130v-42h-80v-58h68zM169 125q-39 0 -61 3v244q51 7 63 7q56 0 80 -31t24 -97t-24.5 -96t-81.5 -30zM488 375h67l32 -136l33 136h68q3 -59 10 -247
h-49q0 61 -6 177l-34 -139h-46l-34 139h-2q-3 -87 -3 -177h-48q4 147 12 247zM823 125q-50 0 -70.5 29.5t-20.5 96.5t20.5 97.5t70.5 30.5t71 -30.5t21 -97.5q0 -66 -21 -96t-71 -30zM823 336q-24 0 -32.5 -20t-8.5 -65t8.5 -65t32.5 -20q25 0 33.5 20t8.5 65
q0 46 -8.5 65.5t-33.5 19.5zM806 847q41 0 66 -20.5t32 -42.5t7 -45q0 -36 -28 -60.5t-60 -28.5q-178 -20 -284 -123q5 13 14.5 34.5t38.5 77t59 97.5t72.5 76.5t82.5 34.5zM237 758q45 0 89 -33t74.5 -80t54.5 -93.5t36 -79.5l12 -33q-96 122 -266 122q-42 0 -74 25.5
t-32 63.5q0 44 28 76t78 32zM536 1012q32 -31 40.5 -85t-2.5 -109.5t-26.5 -106t-29.5 -82.5l-15 -32q17 160 -104 275q-30 30 -35.5 68.5t20.5 69.5q31 31 71 33.5t81 -31.5z" />
    <glyph glyph-name="asciitilde" unicode="~" 
d="M172 336q-12 0 -15 -1v-168q1 -1 15 -1q31 0 42 20.5t11 64.5q0 45 -11 65t-42 20zM432 275v-41h-68v-65h80v-41h-130v247h130v-42h-80v-58h68zM169 125q-39 0 -61 3v244q51 7 63 7q56 0 80 -31t24 -97t-24.5 -96t-81.5 -30zM488 375h67l32 -136l33 136h68q3 -59 10 -247
h-49q0 61 -6 177l-34 -139h-46l-34 139h-2q-3 -87 -3 -177h-48q4 147 12 247zM823 125q-50 0 -70.5 29.5t-20.5 96.5t20.5 97.5t70.5 30.5t71 -30.5t21 -97.5q0 -66 -21 -96t-71 -30zM823 336q-24 0 -32.5 -20t-8.5 -65t8.5 -65t32.5 -20q25 0 33.5 20t8.5 65
q0 46 -8.5 65.5t-33.5 19.5zM806 847q41 0 66 -20.5t32 -42.5t7 -45q0 -36 -28 -60.5t-60 -28.5q-178 -20 -284 -123q5 13 14.5 34.5t38.5 77t59 97.5t72.5 76.5t82.5 34.5zM237 758q45 0 89 -33t74.5 -80t54.5 -93.5t36 -79.5l12 -33q-96 122 -266 122q-42 0 -74 25.5
t-32 63.5q0 44 28 76t78 32zM536 1012q32 -31 40.5 -85t-2.5 -109.5t-26.5 -106t-29.5 -82.5l-15 -32q17 160 -104 275q-30 30 -35.5 68.5t20.5 69.5q31 31 71 33.5t81 -31.5z" />
    </font>
</defs>
</svg>
