<?xml version="1.0" standalone="no"?>
<!DOCTYPE svg PUBLIC "-//W3C//DTD SVG 1.1//EN" "http://www.w3.org/Graphics/SVG/1.1/DTD/svg11.dtd" >
<svg xmlns="http://www.w3.org/2000/svg" xmlns:xlink="http://www.w3.org/1999/xlink" version="1.1">
<metadata>
Created by FontForge 20170731 at Sun May 28 16:57:00 2023
 By Aleksey,,,
Copyright  2018 by Luciano Vergara. All rights reserved.
</metadata>
<defs>
<font id="FONTSPRINGDEMO-AaltoSansEssentialAltUltraLightRegular" horiz-adv-x="1020" >
  <font-face 
    font-family="FSP DEMO - ltSnsssntlltltrLght"
    font-weight="270"
    font-stretch="normal"
    units-per-em="2048"
    panose-1="0 0 3 0 0 0 0 0 0 0"
    ascent="1638"
    descent="-410"
    x-height="896"
    cap-height="1195"
    bbox="-90 -352 1556 1306"
    underline-thickness="85"
    underline-position="-255"
    unicode-range="U+0020-007E"
  />
<missing-glyph 
d="M172 336q-12 0 -15 -1v-168q1 -1 15 -1q31 0 42 20.5t11 64.5q0 45 -11 65t-42 20zM432 275v-41h-68v-65h80v-41h-130v247h130v-42h-80v-58h68zM169 125q-39 0 -61 3v244q51 7 63 7q56 0 80 -31t24 -97t-24.5 -96t-81.5 -30zM488 375h67l32 -136l33 136h68q3 -59 10 -247
h-49q0 61 -6 177l-34 -139h-46l-34 139h-2q-3 -87 -3 -177h-48q4 147 12 247zM823 125q-50 0 -70.5 29.5t-20.5 96.5t20.5 97.5t70.5 30.5t71 -30.5t21 -97.5q0 -66 -21 -96t-71 -30zM823 336q-24 0 -32.5 -20t-8.5 -65t8.5 -65t32.5 -20q25 0 33.5 20t8.5 65
q0 46 -8.5 65.5t-33.5 19.5zM806 847q41 0 66 -20.5t32 -42.5t7 -45q0 -36 -28 -60.5t-60 -28.5q-178 -20 -284 -123q5 13 14.5 34.5t38.5 77t59 97.5t72.5 76.5t82.5 34.5zM237 758q45 0 89 -33t74.5 -80t54.5 -93.5t36 -79.5l12 -33q-96 122 -266 122q-42 0 -74 25.5
t-32 63.5q0 44 28 76t78 32zM536 1012q32 -31 40.5 -85t-2.5 -109.5t-26.5 -106t-29.5 -82.5l-15 -32q17 160 -104 275q-30 30 -35.5 68.5t20.5 69.5q31 31 71 33.5t81 -31.5z" />
    <glyph glyph-name=".notdef" 
d="M172 336q-12 0 -15 -1v-168q1 -1 15 -1q31 0 42 20.5t11 64.5q0 45 -11 65t-42 20zM432 275v-41h-68v-65h80v-41h-130v247h130v-42h-80v-58h68zM169 125q-39 0 -61 3v244q51 7 63 7q56 0 80 -31t24 -97t-24.5 -96t-81.5 -30zM488 375h67l32 -136l33 136h68q3 -59 10 -247
h-49q0 61 -6 177l-34 -139h-46l-34 139h-2q-3 -87 -3 -177h-48q4 147 12 247zM823 125q-50 0 -70.5 29.5t-20.5 96.5t20.5 97.5t70.5 30.5t71 -30.5t21 -97.5q0 -66 -21 -96t-71 -30zM823 336q-24 0 -32.5 -20t-8.5 -65t8.5 -65t32.5 -20q25 0 33.5 20t8.5 65
q0 46 -8.5 65.5t-33.5 19.5zM806 847q41 0 66 -20.5t32 -42.5t7 -45q0 -36 -28 -60.5t-60 -28.5q-178 -20 -284 -123q5 13 14.5 34.5t38.5 77t59 97.5t72.5 76.5t82.5 34.5zM237 758q45 0 89 -33t74.5 -80t54.5 -93.5t36 -79.5l12 -33q-96 122 -266 122q-42 0 -74 25.5
t-32 63.5q0 44 28 76t78 32zM536 1012q32 -31 40.5 -85t-2.5 -109.5t-26.5 -106t-29.5 -82.5l-15 -32q17 160 -104 275q-30 30 -35.5 68.5t20.5 69.5q31 31 71 33.5t81 -31.5z" />
    <glyph glyph-name=".null" horiz-adv-x="0" 
 />
    <glyph glyph-name="nonmarkingreturn" horiz-adv-x="682" 
 />
    <glyph glyph-name="space" unicode=" " horiz-adv-x="450" 
 />
    <glyph glyph-name="exclam" unicode="!" 
d="M172 336q-12 0 -15 -1v-168q1 -1 15 -1q31 0 42 20.5t11 64.5q0 45 -11 65t-42 20zM432 275v-41h-68v-65h80v-41h-130v247h130v-42h-80v-58h68zM169 125q-39 0 -61 3v244q51 7 63 7q56 0 80 -31t24 -97t-24.5 -96t-81.5 -30zM488 375h67l32 -136l33 136h68q3 -59 10 -247
h-49q0 61 -6 177l-34 -139h-46l-34 139h-2q-3 -87 -3 -177h-48q4 147 12 247zM823 125q-50 0 -70.5 29.5t-20.5 96.5t20.5 97.5t70.5 30.5t71 -30.5t21 -97.5q0 -66 -21 -96t-71 -30zM823 336q-24 0 -32.5 -20t-8.5 -65t8.5 -65t32.5 -20q25 0 33.5 20t8.5 65
q0 46 -8.5 65.5t-33.5 19.5zM806 847q41 0 66 -20.5t32 -42.5t7 -45q0 -36 -28 -60.5t-60 -28.5q-178 -20 -284 -123q5 13 14.5 34.5t38.5 77t59 97.5t72.5 76.5t82.5 34.5zM237 758q45 0 89 -33t74.5 -80t54.5 -93.5t36 -79.5l12 -33q-96 122 -266 122q-42 0 -74 25.5
t-32 63.5q0 44 28 76t78 32zM536 1012q32 -31 40.5 -85t-2.5 -109.5t-26.5 -106t-29.5 -82.5l-15 -32q17 160 -104 275q-30 30 -35.5 68.5t20.5 69.5q31 31 71 33.5t81 -31.5z" />
    <glyph glyph-name="quotedbl" unicode="&#x22;" 
d="M172 336q-12 0 -15 -1v-168q1 -1 15 -1q31 0 42 20.5t11 64.5q0 45 -11 65t-42 20zM432 275v-41h-68v-65h80v-41h-130v247h130v-42h-80v-58h68zM169 125q-39 0 -61 3v244q51 7 63 7q56 0 80 -31t24 -97t-24.5 -96t-81.5 -30zM488 375h67l32 -136l33 136h68q3 -59 10 -247
h-49q0 61 -6 177l-34 -139h-46l-34 139h-2q-3 -87 -3 -177h-48q4 147 12 247zM823 125q-50 0 -70.5 29.5t-20.5 96.5t20.5 97.5t70.5 30.5t71 -30.5t21 -97.5q0 -66 -21 -96t-71 -30zM823 336q-24 0 -32.5 -20t-8.5 -65t8.5 -65t32.5 -20q25 0 33.5 20t8.5 65
q0 46 -8.5 65.5t-33.5 19.5zM806 847q41 0 66 -20.5t32 -42.5t7 -45q0 -36 -28 -60.5t-60 -28.5q-178 -20 -284 -123q5 13 14.5 34.5t38.5 77t59 97.5t72.5 76.5t82.5 34.5zM237 758q45 0 89 -33t74.5 -80t54.5 -93.5t36 -79.5l12 -33q-96 122 -266 122q-42 0 -74 25.5
t-32 63.5q0 44 28 76t78 32zM536 1012q32 -31 40.5 -85t-2.5 -109.5t-26.5 -106t-29.5 -82.5l-15 -32q17 160 -104 275q-30 30 -35.5 68.5t20.5 69.5q31 31 71 33.5t81 -31.5z" />
    <glyph glyph-name="numbersign" unicode="#" 
d="M172 336q-12 0 -15 -1v-168q1 -1 15 -1q31 0 42 20.5t11 64.5q0 45 -11 65t-42 20zM432 275v-41h-68v-65h80v-41h-130v247h130v-42h-80v-58h68zM169 125q-39 0 -61 3v244q51 7 63 7q56 0 80 -31t24 -97t-24.5 -96t-81.5 -30zM488 375h67l32 -136l33 136h68q3 -59 10 -247
h-49q0 61 -6 177l-34 -139h-46l-34 139h-2q-3 -87 -3 -177h-48q4 147 12 247zM823 125q-50 0 -70.5 29.5t-20.5 96.5t20.5 97.5t70.5 30.5t71 -30.5t21 -97.5q0 -66 -21 -96t-71 -30zM823 336q-24 0 -32.5 -20t-8.5 -65t8.5 -65t32.5 -20q25 0 33.5 20t8.5 65
q0 46 -8.5 65.5t-33.5 19.5zM806 847q41 0 66 -20.5t32 -42.5t7 -45q0 -36 -28 -60.5t-60 -28.5q-178 -20 -284 -123q5 13 14.5 34.5t38.5 77t59 97.5t72.5 76.5t82.5 34.5zM237 758q45 0 89 -33t74.5 -80t54.5 -93.5t36 -79.5l12 -33q-96 122 -266 122q-42 0 -74 25.5
t-32 63.5q0 44 28 76t78 32zM536 1012q32 -31 40.5 -85t-2.5 -109.5t-26.5 -106t-29.5 -82.5l-15 -32q17 160 -104 275q-30 30 -35.5 68.5t20.5 69.5q31 31 71 33.5t81 -31.5z" />
    <glyph glyph-name="dollar" unicode="$" 
d="M172 336q-12 0 -15 -1v-168q1 -1 15 -1q31 0 42 20.5t11 64.5q0 45 -11 65t-42 20zM432 275v-41h-68v-65h80v-41h-130v247h130v-42h-80v-58h68zM169 125q-39 0 -61 3v244q51 7 63 7q56 0 80 -31t24 -97t-24.5 -96t-81.5 -30zM488 375h67l32 -136l33 136h68q3 -59 10 -247
h-49q0 61 -6 177l-34 -139h-46l-34 139h-2q-3 -87 -3 -177h-48q4 147 12 247zM823 125q-50 0 -70.5 29.5t-20.5 96.5t20.5 97.5t70.5 30.5t71 -30.5t21 -97.5q0 -66 -21 -96t-71 -30zM823 336q-24 0 -32.5 -20t-8.5 -65t8.5 -65t32.5 -20q25 0 33.5 20t8.5 65
q0 46 -8.5 65.5t-33.5 19.5zM806 847q41 0 66 -20.5t32 -42.5t7 -45q0 -36 -28 -60.5t-60 -28.5q-178 -20 -284 -123q5 13 14.5 34.5t38.5 77t59 97.5t72.5 76.5t82.5 34.5zM237 758q45 0 89 -33t74.5 -80t54.5 -93.5t36 -79.5l12 -33q-96 122 -266 122q-42 0 -74 25.5
t-32 63.5q0 44 28 76t78 32zM536 1012q32 -31 40.5 -85t-2.5 -109.5t-26.5 -106t-29.5 -82.5l-15 -32q17 160 -104 275q-30 30 -35.5 68.5t20.5 69.5q31 31 71 33.5t81 -31.5z" />
    <glyph glyph-name="percent" unicode="%" 
d="M172 336q-12 0 -15 -1v-168q1 -1 15 -1q31 0 42 20.5t11 64.5q0 45 -11 65t-42 20zM432 275v-41h-68v-65h80v-41h-130v247h130v-42h-80v-58h68zM169 125q-39 0 -61 3v244q51 7 63 7q56 0 80 -31t24 -97t-24.5 -96t-81.5 -30zM488 375h67l32 -136l33 136h68q3 -59 10 -247
h-49q0 61 -6 177l-34 -139h-46l-34 139h-2q-3 -87 -3 -177h-48q4 147 12 247zM823 125q-50 0 -70.5 29.5t-20.5 96.5t20.5 97.5t70.5 30.5t71 -30.5t21 -97.5q0 -66 -21 -96t-71 -30zM823 336q-24 0 -32.5 -20t-8.5 -65t8.5 -65t32.5 -20q25 0 33.5 20t8.5 65
q0 46 -8.5 65.5t-33.5 19.5zM806 847q41 0 66 -20.5t32 -42.5t7 -45q0 -36 -28 -60.5t-60 -28.5q-178 -20 -284 -123q5 13 14.5 34.5t38.5 77t59 97.5t72.5 76.5t82.5 34.5zM237 758q45 0 89 -33t74.5 -80t54.5 -93.5t36 -79.5l12 -33q-96 122 -266 122q-42 0 -74 25.5
t-32 63.5q0 44 28 76t78 32zM536 1012q32 -31 40.5 -85t-2.5 -109.5t-26.5 -106t-29.5 -82.5l-15 -32q17 160 -104 275q-30 30 -35.5 68.5t20.5 69.5q31 31 71 33.5t81 -31.5z" />
    <glyph glyph-name="ampersand" unicode="&#x26;" 
d="M172 336q-12 0 -15 -1v-168q1 -1 15 -1q31 0 42 20.5t11 64.5q0 45 -11 65t-42 20zM432 275v-41h-68v-65h80v-41h-130v247h130v-42h-80v-58h68zM169 125q-39 0 -61 3v244q51 7 63 7q56 0 80 -31t24 -97t-24.5 -96t-81.5 -30zM488 375h67l32 -136l33 136h68q3 -59 10 -247
h-49q0 61 -6 177l-34 -139h-46l-34 139h-2q-3 -87 -3 -177h-48q4 147 12 247zM823 125q-50 0 -70.5 29.5t-20.5 96.5t20.5 97.5t70.5 30.5t71 -30.5t21 -97.5q0 -66 -21 -96t-71 -30zM823 336q-24 0 -32.5 -20t-8.5 -65t8.5 -65t32.5 -20q25 0 33.5 20t8.5 65
q0 46 -8.5 65.5t-33.5 19.5zM806 847q41 0 66 -20.5t32 -42.5t7 -45q0 -36 -28 -60.5t-60 -28.5q-178 -20 -284 -123q5 13 14.5 34.5t38.5 77t59 97.5t72.5 76.5t82.5 34.5zM237 758q45 0 89 -33t74.5 -80t54.5 -93.5t36 -79.5l12 -33q-96 122 -266 122q-42 0 -74 25.5
t-32 63.5q0 44 28 76t78 32zM536 1012q32 -31 40.5 -85t-2.5 -109.5t-26.5 -106t-29.5 -82.5l-15 -32q17 160 -104 275q-30 30 -35.5 68.5t20.5 69.5q31 31 71 33.5t81 -31.5z" />
    <glyph glyph-name="quotesingle" unicode="'" 
d="M172 336q-12 0 -15 -1v-168q1 -1 15 -1q31 0 42 20.5t11 64.5q0 45 -11 65t-42 20zM432 275v-41h-68v-65h80v-41h-130v247h130v-42h-80v-58h68zM169 125q-39 0 -61 3v244q51 7 63 7q56 0 80 -31t24 -97t-24.5 -96t-81.5 -30zM488 375h67l32 -136l33 136h68q3 -59 10 -247
h-49q0 61 -6 177l-34 -139h-46l-34 139h-2q-3 -87 -3 -177h-48q4 147 12 247zM823 125q-50 0 -70.5 29.5t-20.5 96.5t20.5 97.5t70.5 30.5t71 -30.5t21 -97.5q0 -66 -21 -96t-71 -30zM823 336q-24 0 -32.5 -20t-8.5 -65t8.5 -65t32.5 -20q25 0 33.5 20t8.5 65
q0 46 -8.5 65.5t-33.5 19.5zM806 847q41 0 66 -20.5t32 -42.5t7 -45q0 -36 -28 -60.5t-60 -28.5q-178 -20 -284 -123q5 13 14.5 34.5t38.5 77t59 97.5t72.5 76.5t82.5 34.5zM237 758q45 0 89 -33t74.5 -80t54.5 -93.5t36 -79.5l12 -33q-96 122 -266 122q-42 0 -74 25.5
t-32 63.5q0 44 28 76t78 32zM536 1012q32 -31 40.5 -85t-2.5 -109.5t-26.5 -106t-29.5 -82.5l-15 -32q17 160 -104 275q-30 30 -35.5 68.5t20.5 69.5q31 31 71 33.5t81 -31.5z" />
    <glyph glyph-name="parenleft" unicode="(" 
d="M172 336q-12 0 -15 -1v-168q1 -1 15 -1q31 0 42 20.5t11 64.5q0 45 -11 65t-42 20zM432 275v-41h-68v-65h80v-41h-130v247h130v-42h-80v-58h68zM169 125q-39 0 -61 3v244q51 7 63 7q56 0 80 -31t24 -97t-24.5 -96t-81.5 -30zM488 375h67l32 -136l33 136h68q3 -59 10 -247
h-49q0 61 -6 177l-34 -139h-46l-34 139h-2q-3 -87 -3 -177h-48q4 147 12 247zM823 125q-50 0 -70.5 29.5t-20.5 96.5t20.5 97.5t70.5 30.5t71 -30.5t21 -97.5q0 -66 -21 -96t-71 -30zM823 336q-24 0 -32.5 -20t-8.5 -65t8.5 -65t32.5 -20q25 0 33.5 20t8.5 65
q0 46 -8.5 65.5t-33.5 19.5zM806 847q41 0 66 -20.5t32 -42.5t7 -45q0 -36 -28 -60.5t-60 -28.5q-178 -20 -284 -123q5 13 14.5 34.5t38.5 77t59 97.5t72.5 76.5t82.5 34.5zM237 758q45 0 89 -33t74.5 -80t54.5 -93.5t36 -79.5l12 -33q-96 122 -266 122q-42 0 -74 25.5
t-32 63.5q0 44 28 76t78 32zM536 1012q32 -31 40.5 -85t-2.5 -109.5t-26.5 -106t-29.5 -82.5l-15 -32q17 160 -104 275q-30 30 -35.5 68.5t20.5 69.5q31 31 71 33.5t81 -31.5z" />
    <glyph glyph-name="parenright" unicode=")" 
d="M172 336q-12 0 -15 -1v-168q1 -1 15 -1q31 0 42 20.5t11 64.5q0 45 -11 65t-42 20zM432 275v-41h-68v-65h80v-41h-130v247h130v-42h-80v-58h68zM169 125q-39 0 -61 3v244q51 7 63 7q56 0 80 -31t24 -97t-24.5 -96t-81.5 -30zM488 375h67l32 -136l33 136h68q3 -59 10 -247
h-49q0 61 -6 177l-34 -139h-46l-34 139h-2q-3 -87 -3 -177h-48q4 147 12 247zM823 125q-50 0 -70.5 29.5t-20.5 96.5t20.5 97.5t70.5 30.5t71 -30.5t21 -97.5q0 -66 -21 -96t-71 -30zM823 336q-24 0 -32.5 -20t-8.5 -65t8.5 -65t32.5 -20q25 0 33.5 20t8.5 65
q0 46 -8.5 65.5t-33.5 19.5zM806 847q41 0 66 -20.5t32 -42.5t7 -45q0 -36 -28 -60.5t-60 -28.5q-178 -20 -284 -123q5 13 14.5 34.5t38.5 77t59 97.5t72.5 76.5t82.5 34.5zM237 758q45 0 89 -33t74.5 -80t54.5 -93.5t36 -79.5l12 -33q-96 122 -266 122q-42 0 -74 25.5
t-32 63.5q0 44 28 76t78 32zM536 1012q32 -31 40.5 -85t-2.5 -109.5t-26.5 -106t-29.5 -82.5l-15 -32q17 160 -104 275q-30 30 -35.5 68.5t20.5 69.5q31 31 71 33.5t81 -31.5z" />
    <glyph glyph-name="asterisk" unicode="*" 
d="M172 336q-12 0 -15 -1v-168q1 -1 15 -1q31 0 42 20.5t11 64.5q0 45 -11 65t-42 20zM432 275v-41h-68v-65h80v-41h-130v247h130v-42h-80v-58h68zM169 125q-39 0 -61 3v244q51 7 63 7q56 0 80 -31t24 -97t-24.5 -96t-81.5 -30zM488 375h67l32 -136l33 136h68q3 -59 10 -247
h-49q0 61 -6 177l-34 -139h-46l-34 139h-2q-3 -87 -3 -177h-48q4 147 12 247zM823 125q-50 0 -70.5 29.5t-20.5 96.5t20.5 97.5t70.5 30.5t71 -30.5t21 -97.5q0 -66 -21 -96t-71 -30zM823 336q-24 0 -32.5 -20t-8.5 -65t8.5 -65t32.5 -20q25 0 33.5 20t8.5 65
q0 46 -8.5 65.5t-33.5 19.5zM806 847q41 0 66 -20.5t32 -42.5t7 -45q0 -36 -28 -60.5t-60 -28.5q-178 -20 -284 -123q5 13 14.5 34.5t38.5 77t59 97.5t72.5 76.5t82.5 34.5zM237 758q45 0 89 -33t74.5 -80t54.5 -93.5t36 -79.5l12 -33q-96 122 -266 122q-42 0 -74 25.5
t-32 63.5q0 44 28 76t78 32zM536 1012q32 -31 40.5 -85t-2.5 -109.5t-26.5 -106t-29.5 -82.5l-15 -32q17 160 -104 275q-30 30 -35.5 68.5t20.5 69.5q31 31 71 33.5t81 -31.5z" />
    <glyph glyph-name="plus" unicode="+" 
d="M172 336q-12 0 -15 -1v-168q1 -1 15 -1q31 0 42 20.5t11 64.5q0 45 -11 65t-42 20zM432 275v-41h-68v-65h80v-41h-130v247h130v-42h-80v-58h68zM169 125q-39 0 -61 3v244q51 7 63 7q56 0 80 -31t24 -97t-24.5 -96t-81.5 -30zM488 375h67l32 -136l33 136h68q3 -59 10 -247
h-49q0 61 -6 177l-34 -139h-46l-34 139h-2q-3 -87 -3 -177h-48q4 147 12 247zM823 125q-50 0 -70.5 29.5t-20.5 96.5t20.5 97.5t70.5 30.5t71 -30.5t21 -97.5q0 -66 -21 -96t-71 -30zM823 336q-24 0 -32.5 -20t-8.5 -65t8.5 -65t32.5 -20q25 0 33.5 20t8.5 65
q0 46 -8.5 65.5t-33.5 19.5zM806 847q41 0 66 -20.5t32 -42.5t7 -45q0 -36 -28 -60.5t-60 -28.5q-178 -20 -284 -123q5 13 14.5 34.5t38.5 77t59 97.5t72.5 76.5t82.5 34.5zM237 758q45 0 89 -33t74.5 -80t54.5 -93.5t36 -79.5l12 -33q-96 122 -266 122q-42 0 -74 25.5
t-32 63.5q0 44 28 76t78 32zM536 1012q32 -31 40.5 -85t-2.5 -109.5t-26.5 -106t-29.5 -82.5l-15 -32q17 160 -104 275q-30 30 -35.5 68.5t20.5 69.5q31 31 71 33.5t81 -31.5z" />
    <glyph glyph-name="comma" unicode="," horiz-adv-x="343" 
d="M84 -222q95 95 95 196h-12q-32 0 -51 18.5t-19 50.5t19 51.5t51 19.5q77 0 77 -97q0 -133 -99 -239h-61z" />
    <glyph glyph-name="hyphen" unicode="-" 
d="M172 336q-12 0 -15 -1v-168q1 -1 15 -1q31 0 42 20.5t11 64.5q0 45 -11 65t-42 20zM432 275v-41h-68v-65h80v-41h-130v247h130v-42h-80v-58h68zM169 125q-39 0 -61 3v244q51 7 63 7q56 0 80 -31t24 -97t-24.5 -96t-81.5 -30zM488 375h67l32 -136l33 136h68q3 -59 10 -247
h-49q0 61 -6 177l-34 -139h-46l-34 139h-2q-3 -87 -3 -177h-48q4 147 12 247zM823 125q-50 0 -70.5 29.5t-20.5 96.5t20.5 97.5t70.5 30.5t71 -30.5t21 -97.5q0 -66 -21 -96t-71 -30zM823 336q-24 0 -32.5 -20t-8.5 -65t8.5 -65t32.5 -20q25 0 33.5 20t8.5 65
q0 46 -8.5 65.5t-33.5 19.5zM806 847q41 0 66 -20.5t32 -42.5t7 -45q0 -36 -28 -60.5t-60 -28.5q-178 -20 -284 -123q5 13 14.5 34.5t38.5 77t59 97.5t72.5 76.5t82.5 34.5zM237 758q45 0 89 -33t74.5 -80t54.5 -93.5t36 -79.5l12 -33q-96 122 -266 122q-42 0 -74 25.5
t-32 63.5q0 44 28 76t78 32zM536 1012q32 -31 40.5 -85t-2.5 -109.5t-26.5 -106t-29.5 -82.5l-15 -32q17 160 -104 275q-30 30 -35.5 68.5t20.5 69.5q31 31 71 33.5t81 -31.5z" />
    <glyph glyph-name="period" unicode="." horiz-adv-x="365" 
d="M183 -26q-33 0 -52.5 18t-19.5 52t19.5 52t52.5 18t52 -18t19 -52t-19 -52t-52 -18z" />
    <glyph glyph-name="slash" unicode="/" 
d="M172 336q-12 0 -15 -1v-168q1 -1 15 -1q31 0 42 20.5t11 64.5q0 45 -11 65t-42 20zM432 275v-41h-68v-65h80v-41h-130v247h130v-42h-80v-58h68zM169 125q-39 0 -61 3v244q51 7 63 7q56 0 80 -31t24 -97t-24.5 -96t-81.5 -30zM488 375h67l32 -136l33 136h68q3 -59 10 -247
h-49q0 61 -6 177l-34 -139h-46l-34 139h-2q-3 -87 -3 -177h-48q4 147 12 247zM823 125q-50 0 -70.5 29.5t-20.5 96.5t20.5 97.5t70.5 30.5t71 -30.5t21 -97.5q0 -66 -21 -96t-71 -30zM823 336q-24 0 -32.5 -20t-8.5 -65t8.5 -65t32.5 -20q25 0 33.5 20t8.5 65
q0 46 -8.5 65.5t-33.5 19.5zM806 847q41 0 66 -20.5t32 -42.5t7 -45q0 -36 -28 -60.5t-60 -28.5q-178 -20 -284 -123q5 13 14.5 34.5t38.5 77t59 97.5t72.5 76.5t82.5 34.5zM237 758q45 0 89 -33t74.5 -80t54.5 -93.5t36 -79.5l12 -33q-96 122 -266 122q-42 0 -74 25.5
t-32 63.5q0 44 28 76t78 32zM536 1012q32 -31 40.5 -85t-2.5 -109.5t-26.5 -106t-29.5 -82.5l-15 -32q17 160 -104 275q-30 30 -35.5 68.5t20.5 69.5q31 31 71 33.5t81 -31.5z" />
    <glyph glyph-name="zero" unicode="0" horiz-adv-x="1196" 
d="M597 -34q-226 0 -359.5 167t-133.5 464t133.5 464.5t359.5 167.5q227 0 360.5 -167.5t133.5 -464.5t-133.5 -464t-360.5 -167zM597 38q189 0 302 147.5t113 411.5t-113.5 412t-301.5 148t-300.5 -148t-112.5 -412t112.5 -411.5t300.5 -147.5z" />
    <glyph glyph-name="one" unicode="1" horiz-adv-x="670" 
d="M408 73h223v-73h-532v73h232v1035l-247 -104v75l266 116h58v-1122z" />
    <glyph glyph-name="two" unicode="2" horiz-adv-x="948" 
d="M191 73h690v-73h-802v70l317 280q115 102 183.5 179.5t110.5 166t42 180.5q0 130 -82 205.5t-230 75.5q-166 0 -330 -84v74q67 38 159 60t184 22q178 0 279.5 -94.5t101.5 -255.5q0 -157 -91 -290.5t-274 -291.5z" />
    <glyph glyph-name="three" unicode="3" horiz-adv-x="998" 
d="M524 679q185 0 286 -83t101 -251q0 -181 -125.5 -280t-358.5 -99q-209 0 -342 78v82q55 -39 143.5 -63t196.5 -24q194 0 300 79t106 225q0 266 -324 266q-112 0 -184 -22l-33 53l469 481h-663v74h771v-58l-454 -466q54 8 111 8z" />
    <glyph glyph-name="four" unicode="4" 
d="M172 336q-12 0 -15 -1v-168q1 -1 15 -1q31 0 42 20.5t11 64.5q0 45 -11 65t-42 20zM432 275v-41h-68v-65h80v-41h-130v247h130v-42h-80v-58h68zM169 125q-39 0 -61 3v244q51 7 63 7q56 0 80 -31t24 -97t-24.5 -96t-81.5 -30zM488 375h67l32 -136l33 136h68q3 -59 10 -247
h-49q0 61 -6 177l-34 -139h-46l-34 139h-2q-3 -87 -3 -177h-48q4 147 12 247zM823 125q-50 0 -70.5 29.5t-20.5 96.5t20.5 97.5t70.5 30.5t71 -30.5t21 -97.5q0 -66 -21 -96t-71 -30zM823 336q-24 0 -32.5 -20t-8.5 -65t8.5 -65t32.5 -20q25 0 33.5 20t8.5 65
q0 46 -8.5 65.5t-33.5 19.5zM806 847q41 0 66 -20.5t32 -42.5t7 -45q0 -36 -28 -60.5t-60 -28.5q-178 -20 -284 -123q5 13 14.5 34.5t38.5 77t59 97.5t72.5 76.5t82.5 34.5zM237 758q45 0 89 -33t74.5 -80t54.5 -93.5t36 -79.5l12 -33q-96 122 -266 122q-42 0 -74 25.5
t-32 63.5q0 44 28 76t78 32zM536 1012q32 -31 40.5 -85t-2.5 -109.5t-26.5 -106t-29.5 -82.5l-15 -32q17 160 -104 275q-30 30 -35.5 68.5t20.5 69.5q31 31 71 33.5t81 -31.5z" />
    <glyph glyph-name="five" unicode="5" horiz-adv-x="1025" 
d="M544 717q191 0 293 -91t102 -276q0 -187 -122 -284.5t-343 -97.5q-218 0 -353 64l-2 81q155 -74 354 -74q187 0 286 79t99 232q0 145 -83.5 220t-238.5 75q-29 0 -55 -1t-50 -4.5t-41 -6t-39 -9t-33 -9.5t-32.5 -12t-28.5 -12t-31 -14t-30 -14l-63 22v610h744v-74h-665
v-483q147 79 332 79z" />
    <glyph glyph-name="six" unicode="6" horiz-adv-x="1083" 
d="M625 730q178 0 277.5 -94t99.5 -266q0 -187 -116 -295.5t-316 -108.5q-222 0 -343 153t-121 448q0 310 144 486t395 176q166 0 273 -53v-73q-109 54 -269 54q-218 0 -340.5 -157t-122.5 -433v-28q185 191 439 191zM573 38q160 0 255 86.5t95 235.5q0 145 -82.5 222
t-226.5 77q-130 0 -232.5 -50t-190.5 -148q19 -210 117 -316.5t265 -106.5z" />
    <glyph glyph-name="seven" unicode="7" horiz-adv-x="935" 
d="M38 1195h849v-77l-558 -1118h-87l562 1121h-766v74z" />
    <glyph glyph-name="eight" unicode="8" horiz-adv-x="1122" 
d="M565 -34q-226 0 -346 86.5t-120 246.5q0 125 70 206.5t206 114.5q-225 60 -225 288q0 149 111.5 235t303.5 86q191 0 300.5 -86t109.5 -235q0 -224 -224 -287q273 -65 273 -322q0 -158 -122.5 -245.5t-336.5 -87.5zM565 652q164 2 249 69t85 184q0 119 -88.5 186.5
t-245.5 67.5q-160 0 -250 -67.5t-90 -186.5q0 -115 87 -183t253 -70zM565 38q178 0 278.5 69.5t100.5 194.5q0 132 -101 207t-278 75q-181 0 -283.5 -74t-102.5 -206q0 -129 98.5 -197.5t287.5 -68.5z" />
    <glyph glyph-name="nine" unicode="9" horiz-adv-x="1083" 
d="M505 1229q224 0 348.5 -166t124.5 -462q0 -295 -140 -465t-393 -170q-148 0 -276 53l-2 73q126 -54 273 -54q216 0 335.5 145t123.5 402q-183 -140 -402 -140q-196 0 -305.5 104t-109.5 280q0 183 113 291.5t310 108.5zM162 836q0 -148 89.5 -233.5t250.5 -85.5
q223 0 396 150q-13 233 -115 361.5t-276 128.5q-162 0 -253.5 -86.5t-91.5 -234.5z" />
    <glyph glyph-name="colon" unicode=":" horiz-adv-x="402" 
d="M203 785q-33 0 -53 19t-20 53q0 32 20 50t53 18t52.5 -17.5t19.5 -50.5q0 -34 -19.5 -53t-52.5 -19zM201 -26q-33 0 -52 18t-19 52t19 52t52 18q34 0 53 -18t19 -52t-19 -52t-53 -18z" />
    <glyph glyph-name="semicolon" unicode=";" horiz-adv-x="431" 
d="M220 785q-33 0 -52.5 19t-19.5 53q0 32 19.5 50t52.5 18t52.5 -17.5t19.5 -50.5q0 -34 -19.5 -53t-52.5 -19zM130 -222q95 95 95 196h-12q-31 0 -50.5 18.5t-19.5 50.5t19 51.5t51 19.5q77 0 77 -97q0 -133 -99 -239h-61z" />
    <glyph glyph-name="less" unicode="&#x3c;" 
d="M172 336q-12 0 -15 -1v-168q1 -1 15 -1q31 0 42 20.5t11 64.5q0 45 -11 65t-42 20zM432 275v-41h-68v-65h80v-41h-130v247h130v-42h-80v-58h68zM169 125q-39 0 -61 3v244q51 7 63 7q56 0 80 -31t24 -97t-24.5 -96t-81.5 -30zM488 375h67l32 -136l33 136h68q3 -59 10 -247
h-49q0 61 -6 177l-34 -139h-46l-34 139h-2q-3 -87 -3 -177h-48q4 147 12 247zM823 125q-50 0 -70.5 29.5t-20.5 96.5t20.5 97.5t70.5 30.5t71 -30.5t21 -97.5q0 -66 -21 -96t-71 -30zM823 336q-24 0 -32.5 -20t-8.5 -65t8.5 -65t32.5 -20q25 0 33.5 20t8.5 65
q0 46 -8.5 65.5t-33.5 19.5zM806 847q41 0 66 -20.5t32 -42.5t7 -45q0 -36 -28 -60.5t-60 -28.5q-178 -20 -284 -123q5 13 14.5 34.5t38.5 77t59 97.5t72.5 76.5t82.5 34.5zM237 758q45 0 89 -33t74.5 -80t54.5 -93.5t36 -79.5l12 -33q-96 122 -266 122q-42 0 -74 25.5
t-32 63.5q0 44 28 76t78 32zM536 1012q32 -31 40.5 -85t-2.5 -109.5t-26.5 -106t-29.5 -82.5l-15 -32q17 160 -104 275q-30 30 -35.5 68.5t20.5 69.5q31 31 71 33.5t81 -31.5z" />
    <glyph glyph-name="equal" unicode="=" 
d="M172 336q-12 0 -15 -1v-168q1 -1 15 -1q31 0 42 20.5t11 64.5q0 45 -11 65t-42 20zM432 275v-41h-68v-65h80v-41h-130v247h130v-42h-80v-58h68zM169 125q-39 0 -61 3v244q51 7 63 7q56 0 80 -31t24 -97t-24.5 -96t-81.5 -30zM488 375h67l32 -136l33 136h68q3 -59 10 -247
h-49q0 61 -6 177l-34 -139h-46l-34 139h-2q-3 -87 -3 -177h-48q4 147 12 247zM823 125q-50 0 -70.5 29.5t-20.5 96.5t20.5 97.5t70.5 30.5t71 -30.5t21 -97.5q0 -66 -21 -96t-71 -30zM823 336q-24 0 -32.5 -20t-8.5 -65t8.5 -65t32.5 -20q25 0 33.5 20t8.5 65
q0 46 -8.5 65.5t-33.5 19.5zM806 847q41 0 66 -20.5t32 -42.5t7 -45q0 -36 -28 -60.5t-60 -28.5q-178 -20 -284 -123q5 13 14.5 34.5t38.5 77t59 97.5t72.5 76.5t82.5 34.5zM237 758q45 0 89 -33t74.5 -80t54.5 -93.5t36 -79.5l12 -33q-96 122 -266 122q-42 0 -74 25.5
t-32 63.5q0 44 28 76t78 32zM536 1012q32 -31 40.5 -85t-2.5 -109.5t-26.5 -106t-29.5 -82.5l-15 -32q17 160 -104 275q-30 30 -35.5 68.5t20.5 69.5q31 31 71 33.5t81 -31.5z" />
    <glyph glyph-name="greater" unicode="&#x3e;" 
d="M172 336q-12 0 -15 -1v-168q1 -1 15 -1q31 0 42 20.5t11 64.5q0 45 -11 65t-42 20zM432 275v-41h-68v-65h80v-41h-130v247h130v-42h-80v-58h68zM169 125q-39 0 -61 3v244q51 7 63 7q56 0 80 -31t24 -97t-24.5 -96t-81.5 -30zM488 375h67l32 -136l33 136h68q3 -59 10 -247
h-49q0 61 -6 177l-34 -139h-46l-34 139h-2q-3 -87 -3 -177h-48q4 147 12 247zM823 125q-50 0 -70.5 29.5t-20.5 96.5t20.5 97.5t70.5 30.5t71 -30.5t21 -97.5q0 -66 -21 -96t-71 -30zM823 336q-24 0 -32.5 -20t-8.5 -65t8.5 -65t32.5 -20q25 0 33.5 20t8.5 65
q0 46 -8.5 65.5t-33.5 19.5zM806 847q41 0 66 -20.5t32 -42.5t7 -45q0 -36 -28 -60.5t-60 -28.5q-178 -20 -284 -123q5 13 14.5 34.5t38.5 77t59 97.5t72.5 76.5t82.5 34.5zM237 758q45 0 89 -33t74.5 -80t54.5 -93.5t36 -79.5l12 -33q-96 122 -266 122q-42 0 -74 25.5
t-32 63.5q0 44 28 76t78 32zM536 1012q32 -31 40.5 -85t-2.5 -109.5t-26.5 -106t-29.5 -82.5l-15 -32q17 160 -104 275q-30 30 -35.5 68.5t20.5 69.5q31 31 71 33.5t81 -31.5z" />
    <glyph glyph-name="question" unicode="?" horiz-adv-x="844" 
d="M346 1210q206 0 314 -98.5t108 -285.5q0 -154 -104.5 -261t-296.5 -145l-2 -179h-68l-2 237q193 25 293.5 115t100.5 233q0 154 -88.5 235t-259.5 81q-152 0 -292 -57v70q139 55 297 55zM331 114q34 0 53 -18t19 -52t-19 -52t-53 -18q-33 0 -53 18t-20 52t20 52t53 18z
" />
    <glyph glyph-name="at" unicode="@" 
d="M172 336q-12 0 -15 -1v-168q1 -1 15 -1q31 0 42 20.5t11 64.5q0 45 -11 65t-42 20zM432 275v-41h-68v-65h80v-41h-130v247h130v-42h-80v-58h68zM169 125q-39 0 -61 3v244q51 7 63 7q56 0 80 -31t24 -97t-24.5 -96t-81.5 -30zM488 375h67l32 -136l33 136h68q3 -59 10 -247
h-49q0 61 -6 177l-34 -139h-46l-34 139h-2q-3 -87 -3 -177h-48q4 147 12 247zM823 125q-50 0 -70.5 29.5t-20.5 96.5t20.5 97.5t70.5 30.5t71 -30.5t21 -97.5q0 -66 -21 -96t-71 -30zM823 336q-24 0 -32.5 -20t-8.5 -65t8.5 -65t32.5 -20q25 0 33.5 20t8.5 65
q0 46 -8.5 65.5t-33.5 19.5zM806 847q41 0 66 -20.5t32 -42.5t7 -45q0 -36 -28 -60.5t-60 -28.5q-178 -20 -284 -123q5 13 14.5 34.5t38.5 77t59 97.5t72.5 76.5t82.5 34.5zM237 758q45 0 89 -33t74.5 -80t54.5 -93.5t36 -79.5l12 -33q-96 122 -266 122q-42 0 -74 25.5
t-32 63.5q0 44 28 76t78 32zM536 1012q32 -31 40.5 -85t-2.5 -109.5t-26.5 -106t-29.5 -82.5l-15 -32q17 160 -104 275q-30 30 -35.5 68.5t20.5 69.5q31 31 71 33.5t81 -31.5z" />
    <glyph glyph-name="A" unicode="A" horiz-adv-x="1134" 
d="M1009 0l-145 362h-594l-145 -362h-84l486 1195h81l488 -1195h-87zM297 432h539l-269 672z" />
    <glyph glyph-name="B" unicode="B" horiz-adv-x="1117" 
d="M782 626q232 -55 232 -297q0 -329 -412 -329h-421v1195h404q198 0 293 -73t95 -224q0 -214 -191 -272zM582 1123h-323v-471h333q157 0 230.5 59t73.5 183q0 118 -75.5 173.5t-238.5 55.5zM597 72q173 0 256.5 62.5t83.5 193.5t-78 191.5t-251 60.5h-349v-508h338z" />
    <glyph glyph-name="C" unicode="C" horiz-adv-x="1068" 
d="M664 -34q-262 0 -412.5 168.5t-150.5 457.5t156.5 463t409.5 174q192 0 328 -77v-75q-83 44 -155.5 63t-168.5 19q-224 0 -358 -154t-134 -413q0 -255 130 -405.5t357 -150.5q106 0 180 19t161 66v-73q-144 -82 -343 -82z" />
    <glyph glyph-name="D" unicode="D" horiz-adv-x="1257" 
d="M587 1195q268 0 418 -156.5t150 -441.5t-150 -441t-418 -156h-406v1195h406zM587 72q229 0 358.5 134.5t129.5 390.5t-129.5 391t-358.5 135h-328v-1051h328z" />
    <glyph glyph-name="E" unicode="E" horiz-adv-x="983" 
d="M259 73h640v-73h-718v1195h706v-74h-628v-481h564v-73h-564v-494z" />
    <glyph glyph-name="F" unicode="F" horiz-adv-x="933" 
d="M884 1121h-625v-500h555v-73h-555v-548h-78v1195h703v-74z" />
    <glyph glyph-name="G" unicode="G" horiz-adv-x="1179" 
d="M990 579h75v-524q-193 -89 -406 -89q-264 0 -411 167t-147 464q0 289 150.5 460.5t408.5 171.5q220 0 378 -79v-75q-65 29 -106 43.5t-113.5 27.5t-158.5 13q-223 0 -351 -150.5t-128 -411.5q0 -266 125.5 -413.5t352.5 -147.5q171 0 331 61v482z" />
    <glyph glyph-name="H" unicode="H" horiz-adv-x="1290" 
d="M1033 1195h76v-1195h-76v567h-774v-567h-78v1195h78v-555h774v555z" />
    <glyph glyph-name="I" unicode="I" horiz-adv-x="440" 
d="M181 1195h78v-1195h-78v1195z" />
    <glyph glyph-name="J" unicode="J" horiz-adv-x="877" 
d="M710 1195v-823q0 -215 -90 -310.5t-272 -95.5q-172 0 -292 54l-3 77q119 -59 293 -59q148 0 216.5 77t68.5 255v751h-527v74h606z" />
    <glyph glyph-name="K" unicode="K" horiz-adv-x="1146" 
d="M1050 51q33 0 63 14v-67q-27 -13 -79 -13q-60 0 -102.5 26t-86.5 105l-260 459q-54 -8 -109 -8h-217v-567h-78v1195h78v-555h222q107 0 191 33.5t135.5 87t85 128t46 149t12.5 157.5h76q0 -98 -18.5 -187t-59 -172.5t-113 -147t-170.5 -94.5l247 -437q33 -60 64.5 -83
t72.5 -23z" />
    <glyph glyph-name="L" unicode="L" horiz-adv-x="957" 
d="M259 73h664v-73h-742v1195h78v-1122z" />
    <glyph glyph-name="M" unicode="M" horiz-adv-x="1460" 
d="M1208 1195h72v-1195h-75v876l2 197q-22 -43 -70 -119l-381 -613h-53l-382 613q-42 69 -67 113l2 -191v-876h-75v1195h73l478 -768z" />
    <glyph glyph-name="N" unicode="N" horiz-adv-x="1293" 
d="M1036 1195h77v-1195h-70l-789 1070q4 -106 4 -159v-911h-77v1195h68l790 -1077q-3 95 -3 187v890z" />
    <glyph glyph-name="O" unicode="O" horiz-adv-x="1288" 
d="M643 1229q252 0 398.5 -172t146.5 -460t-146.5 -459.5t-398.5 -171.5q-251 0 -396.5 171.5t-145.5 459.5t146 460t396 172zM643 1159q-213 0 -337.5 -150.5t-124.5 -411.5t124.5 -411t337.5 -150q215 0 340 150t125 411t-125 411.5t-340 150.5z" />
    <glyph glyph-name="P" unicode="P" horiz-adv-x="1140" 
d="M671 1195q396 0 396 -386q0 -191 -118 -290t-333 -99q-107 0 -187.5 14.5t-169.5 45.5v-480h-78v1195h490zM609 493q183 0 281 77t98 237q0 87 -23 149.5t-66.5 97.5t-99 51t-128.5 16h-412v-565q159 -63 350 -63z" />
    <glyph glyph-name="Q" unicode="Q" horiz-adv-x="1288" 
d="M1188 597q0 -278 -136 -447t-373 -182v-62q0 -80 28 -118.5t97 -38.5q34 0 75 17v-60q-30 -18 -92 -18q-96 0 -138.5 52t-42.5 161v67q-235 13 -370 182t-135 447q0 288 146 460t396 172q252 0 398.5 -172t146.5 -460zM181 597q0 -261 124.5 -411t337.5 -150
q215 0 340 150t125 411t-125 411.5t-340 150.5q-213 0 -337.5 -150.5t-124.5 -411.5z" />
    <glyph glyph-name="R" unicode="R" horiz-adv-x="1136" 
d="M1033 53q36 0 66 14v-69q-32 -13 -82 -13q-58 0 -97.5 26.5t-90.5 113.5l-223 372h-10h-337v-497h-78v1195h415q185 0 288.5 -83.5t103.5 -261.5q0 -155 -79 -241t-218 -106l203 -341q37 -63 68 -86t71 -23zM259 570h337q314 0 314 280q0 271 -314 271h-337v-551z" />
    <glyph glyph-name="S" unicode="S" horiz-adv-x="988" 
d="M469 -34q-228 0 -379 89v83q152 -100 381 -100q179 0 270.5 67.5t91.5 198.5q0 114 -81 178t-289 115q-196 51 -276.5 122.5t-80.5 202.5q0 141 109 224t300 83q204 0 335 -62v-75q-160 65 -336 65q-161 0 -246 -61.5t-85 -168.5q0 -102 69.5 -158.5t249.5 -101.5
q222 -55 315 -136t93 -222q0 -165 -114 -254t-327 -89z" />
    <glyph glyph-name="T" unicode="T" horiz-adv-x="977" 
d="M945 1195v-74h-418v-1121h-76v1121h-419v74h913z" />
    <glyph glyph-name="U" unicode="U" horiz-adv-x="1269" 
d="M1138 51q36 0 74 16v-65q-34 -17 -91 -17q-65 0 -94 31.5t-34 104.5q-188 -155 -433 -155q-394 0 -394 449v780h78v-777q0 -380 323 -380q128 0 237.5 43.5t187.5 114.5v999h75v-1031q0 -61 16.5 -87t54.5 -26z" />
    <glyph glyph-name="V" unicode="V" horiz-adv-x="1126" 
d="M1004 1195h81l-481 -1195h-82l-483 1195h87l280 -702q121 -314 161 -414q98 251 160 414z" />
    <glyph glyph-name="W" unicode="W" horiz-adv-x="1607" 
d="M1471 1195h85l-353 -1195h-90l-309 1092l-309 -1092h-91l-351 1195h87l311 -1108l308 1108h93l309 -1110z" />
    <glyph glyph-name="X" unicode="X" horiz-adv-x="1047" 
d="M1015 0h-93l-400 548l-397 -548h-93l444 602l-435 593h94l389 -538l391 538h90l-433 -589z" />
    <glyph glyph-name="Y" unicode="Y" horiz-adv-x="1083" 
d="M1033 1195l-449 -732v-463h-79v461l-461 734h98l257 -420q86 -140 145 -246l147 248l253 418h89z" />
    <glyph glyph-name="Z" unicode="Z" horiz-adv-x="1003" 
d="M391 70h563v-70h-896v60l618 851q22 30 81.5 110t78.5 107q-105 -3 -278 -3h-478v70h850v-60l-625 -862q-113 -153 -151 -206q94 3 237 3z" />
    <glyph glyph-name="bracketleft" unicode="[" 
d="M172 336q-12 0 -15 -1v-168q1 -1 15 -1q31 0 42 20.5t11 64.5q0 45 -11 65t-42 20zM432 275v-41h-68v-65h80v-41h-130v247h130v-42h-80v-58h68zM169 125q-39 0 -61 3v244q51 7 63 7q56 0 80 -31t24 -97t-24.5 -96t-81.5 -30zM488 375h67l32 -136l33 136h68q3 -59 10 -247
h-49q0 61 -6 177l-34 -139h-46l-34 139h-2q-3 -87 -3 -177h-48q4 147 12 247zM823 125q-50 0 -70.5 29.5t-20.5 96.5t20.5 97.5t70.5 30.5t71 -30.5t21 -97.5q0 -66 -21 -96t-71 -30zM823 336q-24 0 -32.5 -20t-8.5 -65t8.5 -65t32.5 -20q25 0 33.5 20t8.5 65
q0 46 -8.5 65.5t-33.5 19.5zM806 847q41 0 66 -20.5t32 -42.5t7 -45q0 -36 -28 -60.5t-60 -28.5q-178 -20 -284 -123q5 13 14.5 34.5t38.5 77t59 97.5t72.5 76.5t82.5 34.5zM237 758q45 0 89 -33t74.5 -80t54.5 -93.5t36 -79.5l12 -33q-96 122 -266 122q-42 0 -74 25.5
t-32 63.5q0 44 28 76t78 32zM536 1012q32 -31 40.5 -85t-2.5 -109.5t-26.5 -106t-29.5 -82.5l-15 -32q17 160 -104 275q-30 30 -35.5 68.5t20.5 69.5q31 31 71 33.5t81 -31.5z" />
    <glyph glyph-name="backslash" unicode="\" 
d="M172 336q-12 0 -15 -1v-168q1 -1 15 -1q31 0 42 20.5t11 64.5q0 45 -11 65t-42 20zM432 275v-41h-68v-65h80v-41h-130v247h130v-42h-80v-58h68zM169 125q-39 0 -61 3v244q51 7 63 7q56 0 80 -31t24 -97t-24.5 -96t-81.5 -30zM488 375h67l32 -136l33 136h68q3 -59 10 -247
h-49q0 61 -6 177l-34 -139h-46l-34 139h-2q-3 -87 -3 -177h-48q4 147 12 247zM823 125q-50 0 -70.5 29.5t-20.5 96.5t20.5 97.5t70.5 30.5t71 -30.5t21 -97.5q0 -66 -21 -96t-71 -30zM823 336q-24 0 -32.5 -20t-8.5 -65t8.5 -65t32.5 -20q25 0 33.5 20t8.5 65
q0 46 -8.5 65.5t-33.5 19.5zM806 847q41 0 66 -20.5t32 -42.5t7 -45q0 -36 -28 -60.5t-60 -28.5q-178 -20 -284 -123q5 13 14.5 34.5t38.5 77t59 97.5t72.5 76.5t82.5 34.5zM237 758q45 0 89 -33t74.5 -80t54.5 -93.5t36 -79.5l12 -33q-96 122 -266 122q-42 0 -74 25.5
t-32 63.5q0 44 28 76t78 32zM536 1012q32 -31 40.5 -85t-2.5 -109.5t-26.5 -106t-29.5 -82.5l-15 -32q17 160 -104 275q-30 30 -35.5 68.5t20.5 69.5q31 31 71 33.5t81 -31.5z" />
    <glyph glyph-name="bracketright" unicode="]" 
d="M172 336q-12 0 -15 -1v-168q1 -1 15 -1q31 0 42 20.5t11 64.5q0 45 -11 65t-42 20zM432 275v-41h-68v-65h80v-41h-130v247h130v-42h-80v-58h68zM169 125q-39 0 -61 3v244q51 7 63 7q56 0 80 -31t24 -97t-24.5 -96t-81.5 -30zM488 375h67l32 -136l33 136h68q3 -59 10 -247
h-49q0 61 -6 177l-34 -139h-46l-34 139h-2q-3 -87 -3 -177h-48q4 147 12 247zM823 125q-50 0 -70.5 29.5t-20.5 96.5t20.5 97.5t70.5 30.5t71 -30.5t21 -97.5q0 -66 -21 -96t-71 -30zM823 336q-24 0 -32.5 -20t-8.5 -65t8.5 -65t32.5 -20q25 0 33.5 20t8.5 65
q0 46 -8.5 65.5t-33.5 19.5zM806 847q41 0 66 -20.5t32 -42.5t7 -45q0 -36 -28 -60.5t-60 -28.5q-178 -20 -284 -123q5 13 14.5 34.5t38.5 77t59 97.5t72.5 76.5t82.5 34.5zM237 758q45 0 89 -33t74.5 -80t54.5 -93.5t36 -79.5l12 -33q-96 122 -266 122q-42 0 -74 25.5
t-32 63.5q0 44 28 76t78 32zM536 1012q32 -31 40.5 -85t-2.5 -109.5t-26.5 -106t-29.5 -82.5l-15 -32q17 160 -104 275q-30 30 -35.5 68.5t20.5 69.5q31 31 71 33.5t81 -31.5z" />
    <glyph glyph-name="asciicircum" unicode="^" 
d="M172 336q-12 0 -15 -1v-168q1 -1 15 -1q31 0 42 20.5t11 64.5q0 45 -11 65t-42 20zM432 275v-41h-68v-65h80v-41h-130v247h130v-42h-80v-58h68zM169 125q-39 0 -61 3v244q51 7 63 7q56 0 80 -31t24 -97t-24.5 -96t-81.5 -30zM488 375h67l32 -136l33 136h68q3 -59 10 -247
h-49q0 61 -6 177l-34 -139h-46l-34 139h-2q-3 -87 -3 -177h-48q4 147 12 247zM823 125q-50 0 -70.5 29.5t-20.5 96.5t20.5 97.5t70.5 30.5t71 -30.5t21 -97.5q0 -66 -21 -96t-71 -30zM823 336q-24 0 -32.5 -20t-8.5 -65t8.5 -65t32.5 -20q25 0 33.5 20t8.5 65
q0 46 -8.5 65.5t-33.5 19.5zM806 847q41 0 66 -20.5t32 -42.5t7 -45q0 -36 -28 -60.5t-60 -28.5q-178 -20 -284 -123q5 13 14.5 34.5t38.5 77t59 97.5t72.5 76.5t82.5 34.5zM237 758q45 0 89 -33t74.5 -80t54.5 -93.5t36 -79.5l12 -33q-96 122 -266 122q-42 0 -74 25.5
t-32 63.5q0 44 28 76t78 32zM536 1012q32 -31 40.5 -85t-2.5 -109.5t-26.5 -106t-29.5 -82.5l-15 -32q17 160 -104 275q-30 30 -35.5 68.5t20.5 69.5q31 31 71 33.5t81 -31.5z" />
    <glyph glyph-name="underscore" unicode="_" 
d="M172 336q-12 0 -15 -1v-168q1 -1 15 -1q31 0 42 20.5t11 64.5q0 45 -11 65t-42 20zM432 275v-41h-68v-65h80v-41h-130v247h130v-42h-80v-58h68zM169 125q-39 0 -61 3v244q51 7 63 7q56 0 80 -31t24 -97t-24.5 -96t-81.5 -30zM488 375h67l32 -136l33 136h68q3 -59 10 -247
h-49q0 61 -6 177l-34 -139h-46l-34 139h-2q-3 -87 -3 -177h-48q4 147 12 247zM823 125q-50 0 -70.5 29.5t-20.5 96.5t20.5 97.5t70.5 30.5t71 -30.5t21 -97.5q0 -66 -21 -96t-71 -30zM823 336q-24 0 -32.5 -20t-8.5 -65t8.5 -65t32.5 -20q25 0 33.5 20t8.5 65
q0 46 -8.5 65.5t-33.5 19.5zM806 847q41 0 66 -20.5t32 -42.5t7 -45q0 -36 -28 -60.5t-60 -28.5q-178 -20 -284 -123q5 13 14.5 34.5t38.5 77t59 97.5t72.5 76.5t82.5 34.5zM237 758q45 0 89 -33t74.5 -80t54.5 -93.5t36 -79.5l12 -33q-96 122 -266 122q-42 0 -74 25.5
t-32 63.5q0 44 28 76t78 32zM536 1012q32 -31 40.5 -85t-2.5 -109.5t-26.5 -106t-29.5 -82.5l-15 -32q17 160 -104 275q-30 30 -35.5 68.5t20.5 69.5q31 31 71 33.5t81 -31.5z" />
    <glyph glyph-name="grave" unicode="`" 
d="M172 336q-12 0 -15 -1v-168q1 -1 15 -1q31 0 42 20.5t11 64.5q0 45 -11 65t-42 20zM432 275v-41h-68v-65h80v-41h-130v247h130v-42h-80v-58h68zM169 125q-39 0 -61 3v244q51 7 63 7q56 0 80 -31t24 -97t-24.5 -96t-81.5 -30zM488 375h67l32 -136l33 136h68q3 -59 10 -247
h-49q0 61 -6 177l-34 -139h-46l-34 139h-2q-3 -87 -3 -177h-48q4 147 12 247zM823 125q-50 0 -70.5 29.5t-20.5 96.5t20.5 97.5t70.5 30.5t71 -30.5t21 -97.5q0 -66 -21 -96t-71 -30zM823 336q-24 0 -32.5 -20t-8.5 -65t8.5 -65t32.5 -20q25 0 33.5 20t8.5 65
q0 46 -8.5 65.5t-33.5 19.5zM806 847q41 0 66 -20.5t32 -42.5t7 -45q0 -36 -28 -60.5t-60 -28.5q-178 -20 -284 -123q5 13 14.5 34.5t38.5 77t59 97.5t72.5 76.5t82.5 34.5zM237 758q45 0 89 -33t74.5 -80t54.5 -93.5t36 -79.5l12 -33q-96 122 -266 122q-42 0 -74 25.5
t-32 63.5q0 44 28 76t78 32zM536 1012q32 -31 40.5 -85t-2.5 -109.5t-26.5 -106t-29.5 -82.5l-15 -32q17 160 -104 275q-30 30 -35.5 68.5t20.5 69.5q31 31 71 33.5t81 -31.5z" />
    <glyph glyph-name="a" unicode="a" horiz-adv-x="1059" 
d="M951 46q37 0 70 15v-59q-31 -17 -89 -17q-68 0 -97 40t-31 127q-54 -80 -140 -129t-190 -49q-183 0 -281.5 122.5t-98.5 354.5q0 213 116 342.5t321 129.5q170 0 280 -111l8 84h58v-729q0 -63 17 -92t57 -29zM483 41q196 0 321 193v502q-112 121 -272 121
q-173 0 -267 -111.5t-94 -294.5q0 -200 80.5 -305t231.5 -105z" />
    <glyph glyph-name="b" unicode="b" horiz-adv-x="1030" 
d="M558 923q181 0 280 -121t99 -345t-116.5 -353.5t-325.5 -129.5q-186 0 -341 60v1246h75v-529q57 82 142 127t187 45zM495 41q176 0 271.5 110t95.5 305q0 193 -81.5 297t-232.5 104q-192 0 -319 -190v-583q111 -43 266 -43z" />
    <glyph glyph-name="c" unicode="c" horiz-adv-x="843" 
d="M526 -26q-203 0 -319.5 127t-116.5 348q0 212 124.5 343t338.5 131q131 0 222 -42v-70q-91 46 -224 46q-180 0 -282 -112t-102 -296q0 -189 96 -298.5t264 -109.5q140 0 251 58v-72q-109 -53 -252 -53z" />
    <glyph glyph-name="d" unicode="d" horiz-adv-x="1061" 
d="M951 46q35 0 71 15v-59q-34 -17 -90 -17q-68 0 -97 38t-31 125q-56 -77 -139.5 -125.5t-188.5 -48.5q-182 0 -282 119t-100 354q0 215 116 345.5t324 130.5q153 0 270 -44v401h73v-1118q0 -62 16.5 -89t57.5 -27zM483 41q190 0 321 189v579q-113 48 -268 48
q-174 0 -269.5 -111t-95.5 -295q0 -205 81.5 -307.5t230.5 -102.5z" />
    <glyph glyph-name="e" unicode="e" horiz-adv-x="940" 
d="M498 923q169 0 262 -107t93 -304v-79h-684q4 -186 96 -288t257 -102q164 0 290 66v-71q-140 -64 -295 -64q-200 0 -312.5 126.5t-112.5 348.5q0 214 111 344t295 130zM498 857q-138 0 -226 -97t-101 -262h607q-4 359 -280 359z" />
    <glyph glyph-name="f" unicode="f" horiz-adv-x="617" 
d="M488 1241q-222 0 -222 -244v-101h335v-68h-335v-828h-73v828h-133v68h133v94q0 156 75.5 236t216.5 80q91 0 165 -29v-69q-87 33 -162 33z" />
    <glyph glyph-name="g" unicode="g" horiz-adv-x="1034" 
d="M823 896h58v-867q0 -185 -109 -283t-303 -98q-174 0 -292 60v75q121 -66 294 -66q160 0 247.5 78.5t87.5 235.5v162q-127 -162 -328 -162q-180 0 -281 112.5t-101 324.5q0 206 116.5 330.5t318.5 124.5q169 0 281 -112zM486 97q192 0 320 183v456q-112 121 -272 121
q-171 0 -266.5 -106t-95.5 -282q0 -181 82 -276.5t232 -95.5z" />
    <glyph glyph-name="h" unicode="h" horiz-adv-x="1082" 
d="M986 46q36 0 69 15v-59q-34 -17 -89 -17q-70 0 -99 41.5t-29 128.5v403q0 146 -70 221.5t-203 75.5q-176 0 -335 -116v-739h-75v1280h75v-471q176 114 349 114q163 0 247.5 -92t84.5 -273v-399q0 -57 17 -85t58 -28z" />
    <glyph glyph-name="i" unicode="i" horiz-adv-x="409" 
d="M258 1186q0 -31 -19.5 -49.5t-49.5 -18.5q-29 0 -47.5 18t-18.5 50t18.5 51t47.5 19q30 0 49.5 -19t19.5 -51zM299 46q37 0 70 15v-59q-34 -17 -87 -17q-72 0 -101 42t-29 128v741h73v-737q0 -57 17.5 -85t56.5 -28z" />
    <glyph glyph-name="j" unicode="j" horiz-adv-x="399" 
d="M207 1118q-29 0 -48 18t-19 50t19 51t48 19q30 0 49 -19t19 -51t-19 -50t-49 -18zM20 -352q-54 0 -110 19v67q61 -21 112 -21q147 0 147 156v1027h75v-1027q0 -111 -58 -166t-166 -55z" />
    <glyph glyph-name="k" unicode="k" horiz-adv-x="967" 
d="M879 49q39 0 70 14v-65q-35 -13 -82 -13q-53 0 -94 30.5t-107 121.5l-231 319l-205 -203v-253h-75v1280h75v-937l553 553h101l-396 -389l244 -336q51 -70 82 -96t65 -26z" />
    <glyph glyph-name="l" unicode="l" horiz-adv-x="474" 
d="M321 -15q-83 0 -127 43.5t-44 148.5v1103h75v-1096q0 -75 29 -104t84 -29q68 0 121 19v-65q-61 -20 -138 -20z" />
    <glyph glyph-name="m" unicode="m" horiz-adv-x="1527" 
d="M1430 46q37 0 70 15v-59q-37 -17 -89 -17q-70 0 -99 41.5t-29 125.5v440q0 265 -204 265q-178 0 -280 -188q1 -7 1 -43v-626h-73v599q0 123 -56 190.5t-159 67.5q-181 0 -282 -190v-667h-75v896h55l17 -143q110 170 302 170q100 0 165 -47.5t91 -131.5q108 179 309 179
q263 0 263 -331v-435q0 -59 18 -85t55 -26z" />
    <glyph glyph-name="n" unicode="n" horiz-adv-x="1080" 
d="M983 46q33 0 70 15v-59q-34 -17 -89 -17q-70 0 -99.5 41.5t-29.5 128.5v400q0 149 -68.5 225.5t-201.5 76.5q-197 0 -335 -191v-666h-75v896h55l17 -150q141 177 350 177q163 0 248 -92t85 -273v-399q0 -57 16.5 -85t56.5 -28z" />
    <glyph glyph-name="o" unicode="o" horiz-adv-x="1046" 
d="M522 -26q-199 0 -314.5 127.5t-115.5 347.5q0 219 116.5 346.5t315.5 127.5t314.5 -127t115.5 -347q0 -219 -116.5 -347t-315.5 -128zM522 41q164 0 259.5 109.5t95.5 298.5q0 190 -95.5 299t-259.5 109q-163 0 -258 -109.5t-95 -298.5q0 -190 95 -299t258 -109z" />
    <glyph glyph-name="p" unicode="p" horiz-adv-x="1032" 
d="M561 923q181 0 279.5 -120.5t98.5 -343.5q0 -224 -119 -354.5t-334 -130.5q-141 0 -256 38v-336h-75v1220h65l9 -148q118 175 332 175zM485 41q179 0 279 112.5t100 303.5q0 195 -81 297.5t-232 102.5q-202 0 -321 -190v-582q106 -44 255 -44z" />
    <glyph glyph-name="q" unicode="q" horiz-adv-x="1032" 
d="M819 896h58v-1220h-73v476q-54 -80 -140 -129t-190 -49q-183 0 -281.5 121.5t-98.5 351.5q0 215 116 345.5t321 130.5q170 0 280 -111zM483 41q196 0 321 193v502q-112 121 -272 121q-173 0 -267 -111.5t-94 -294.5q0 -200 80.5 -305t231.5 -105z" />
    <glyph glyph-name="r" unicode="r" horiz-adv-x="638" 
d="M515 923q57 0 91 -10v-72q-41 12 -99 12q-186 0 -277 -220v-633h-75v896h65l9 -162q48 98 123 143.5t163 45.5z" />
    <glyph glyph-name="s" unicode="s" horiz-adv-x="836" 
d="M410 -26q-195 0 -323 72v77q75 -45 150 -63.5t173 -18.5q273 0 273 191q0 86 -59.5 129.5t-213.5 68.5q-167 29 -239 85.5t-72 162.5q0 119 89.5 182t248.5 63q149 0 276 -46v-73q-128 53 -274 53q-130 0 -198.5 -43.5t-68.5 -129.5q0 -78 59 -117.5t218 -66.5
q168 -29 238.5 -89t70.5 -175q0 -126 -90 -194t-258 -68z" />
    <glyph glyph-name="t" unicode="t" horiz-adv-x="711" 
d="M474 48q112 0 219 42v-63q-104 -42 -239 -42q-136 0 -203 71.5t-67 228.5v543h-148v68h150l19 198h53v-198h413v-68h-413v-541q0 -125 52 -182t164 -57z" />
    <glyph glyph-name="u" unicode="u" horiz-adv-x="1047" 
d="M939 46q34 0 70 15v-59q-41 -17 -91 -17q-58 0 -87 29t-36 92q-141 -133 -336 -133q-161 0 -237.5 87.5t-76.5 277.5v558h73v-556q0 -156 62 -228.5t191 -72.5q185 0 321 144v713h73v-730q0 -62 17 -91t57 -29z" />
    <glyph glyph-name="v" unicode="v" horiz-adv-x="925" 
d="M790 896h79q-103 -493 -381 -896h-65l-380 896h85l336 -817q231 355 326 817z" />
    <glyph glyph-name="w" unicode="w" horiz-adv-x="1406" 
d="M1249 896h79q-19 -247 -98 -477t-206 -419h-67l-256 795l-271 -795h-66l-316 896h85l265 -800l266 800h80l256 -816q106 168 170.5 380t78.5 436z" />
    <glyph glyph-name="x" unicode="x" horiz-adv-x="889" 
d="M852 0h-96l-314 401l-314 -401h-92l360 447l-357 449h94l314 -399l314 399h89l-357 -447z" />
    <glyph glyph-name="y" unicode="y" horiz-adv-x="926" 
d="M792 896h82q-79 -330 -227.5 -645t-329.5 -541h-88q104 125 201 285l-387 901h87l344 -826q225 396 318 826z" />
    <glyph glyph-name="z" unicode="z" horiz-adv-x="858" 
d="M160 65h635v-65h-734v53l630 778h-618v65h715v-53z" />
    <glyph glyph-name="braceleft" unicode="{" 
d="M172 336q-12 0 -15 -1v-168q1 -1 15 -1q31 0 42 20.5t11 64.5q0 45 -11 65t-42 20zM432 275v-41h-68v-65h80v-41h-130v247h130v-42h-80v-58h68zM169 125q-39 0 -61 3v244q51 7 63 7q56 0 80 -31t24 -97t-24.5 -96t-81.5 -30zM488 375h67l32 -136l33 136h68q3 -59 10 -247
h-49q0 61 -6 177l-34 -139h-46l-34 139h-2q-3 -87 -3 -177h-48q4 147 12 247zM823 125q-50 0 -70.5 29.5t-20.5 96.5t20.5 97.5t70.5 30.5t71 -30.5t21 -97.5q0 -66 -21 -96t-71 -30zM823 336q-24 0 -32.5 -20t-8.5 -65t8.5 -65t32.5 -20q25 0 33.5 20t8.5 65
q0 46 -8.5 65.5t-33.5 19.5zM806 847q41 0 66 -20.5t32 -42.5t7 -45q0 -36 -28 -60.5t-60 -28.5q-178 -20 -284 -123q5 13 14.5 34.5t38.5 77t59 97.5t72.5 76.5t82.5 34.5zM237 758q45 0 89 -33t74.5 -80t54.5 -93.5t36 -79.5l12 -33q-96 122 -266 122q-42 0 -74 25.5
t-32 63.5q0 44 28 76t78 32zM536 1012q32 -31 40.5 -85t-2.5 -109.5t-26.5 -106t-29.5 -82.5l-15 -32q17 160 -104 275q-30 30 -35.5 68.5t20.5 69.5q31 31 71 33.5t81 -31.5z" />
    <glyph glyph-name="bar" unicode="|" 
d="M172 336q-12 0 -15 -1v-168q1 -1 15 -1q31 0 42 20.5t11 64.5q0 45 -11 65t-42 20zM432 275v-41h-68v-65h80v-41h-130v247h130v-42h-80v-58h68zM169 125q-39 0 -61 3v244q51 7 63 7q56 0 80 -31t24 -97t-24.5 -96t-81.5 -30zM488 375h67l32 -136l33 136h68q3 -59 10 -247
h-49q0 61 -6 177l-34 -139h-46l-34 139h-2q-3 -87 -3 -177h-48q4 147 12 247zM823 125q-50 0 -70.5 29.5t-20.5 96.5t20.5 97.5t70.5 30.5t71 -30.5t21 -97.5q0 -66 -21 -96t-71 -30zM823 336q-24 0 -32.5 -20t-8.5 -65t8.5 -65t32.5 -20q25 0 33.5 20t8.5 65
q0 46 -8.5 65.5t-33.5 19.5zM806 847q41 0 66 -20.5t32 -42.5t7 -45q0 -36 -28 -60.5t-60 -28.5q-178 -20 -284 -123q5 13 14.5 34.5t38.5 77t59 97.5t72.5 76.5t82.5 34.5zM237 758q45 0 89 -33t74.5 -80t54.5 -93.5t36 -79.5l12 -33q-96 122 -266 122q-42 0 -74 25.5
t-32 63.5q0 44 28 76t78 32zM536 1012q32 -31 40.5 -85t-2.5 -109.5t-26.5 -106t-29.5 -82.5l-15 -32q17 160 -104 275q-30 30 -35.5 68.5t20.5 69.5q31 31 71 33.5t81 -31.5z" />
    <glyph glyph-name="braceright" unicode="}" 
d="M172 336q-12 0 -15 -1v-168q1 -1 15 -1q31 0 42 20.5t11 64.5q0 45 -11 65t-42 20zM432 275v-41h-68v-65h80v-41h-130v247h130v-42h-80v-58h68zM169 125q-39 0 -61 3v244q51 7 63 7q56 0 80 -31t24 -97t-24.5 -96t-81.5 -30zM488 375h67l32 -136l33 136h68q3 -59 10 -247
h-49q0 61 -6 177l-34 -139h-46l-34 139h-2q-3 -87 -3 -177h-48q4 147 12 247zM823 125q-50 0 -70.5 29.5t-20.5 96.5t20.5 97.5t70.5 30.5t71 -30.5t21 -97.5q0 -66 -21 -96t-71 -30zM823 336q-24 0 -32.5 -20t-8.5 -65t8.5 -65t32.5 -20q25 0 33.5 20t8.5 65
q0 46 -8.5 65.5t-33.5 19.5zM806 847q41 0 66 -20.5t32 -42.5t7 -45q0 -36 -28 -60.5t-60 -28.5q-178 -20 -284 -123q5 13 14.5 34.5t38.5 77t59 97.5t72.5 76.5t82.5 34.5zM237 758q45 0 89 -33t74.5 -80t54.5 -93.5t36 -79.5l12 -33q-96 122 -266 122q-42 0 -74 25.5
t-32 63.5q0 44 28 76t78 32zM536 1012q32 -31 40.5 -85t-2.5 -109.5t-26.5 -106t-29.5 -82.5l-15 -32q17 160 -104 275q-30 30 -35.5 68.5t20.5 69.5q31 31 71 33.5t81 -31.5z" />
    <glyph glyph-name="asciitilde" unicode="~" 
d="M172 336q-12 0 -15 -1v-168q1 -1 15 -1q31 0 42 20.5t11 64.5q0 45 -11 65t-42 20zM432 275v-41h-68v-65h80v-41h-130v247h130v-42h-80v-58h68zM169 125q-39 0 -61 3v244q51 7 63 7q56 0 80 -31t24 -97t-24.5 -96t-81.5 -30zM488 375h67l32 -136l33 136h68q3 -59 10 -247
h-49q0 61 -6 177l-34 -139h-46l-34 139h-2q-3 -87 -3 -177h-48q4 147 12 247zM823 125q-50 0 -70.5 29.5t-20.5 96.5t20.5 97.5t70.5 30.5t71 -30.5t21 -97.5q0 -66 -21 -96t-71 -30zM823 336q-24 0 -32.5 -20t-8.5 -65t8.5 -65t32.5 -20q25 0 33.5 20t8.5 65
q0 46 -8.5 65.5t-33.5 19.5zM806 847q41 0 66 -20.5t32 -42.5t7 -45q0 -36 -28 -60.5t-60 -28.5q-178 -20 -284 -123q5 13 14.5 34.5t38.5 77t59 97.5t72.5 76.5t82.5 34.5zM237 758q45 0 89 -33t74.5 -80t54.5 -93.5t36 -79.5l12 -33q-96 122 -266 122q-42 0 -74 25.5
t-32 63.5q0 44 28 76t78 32zM536 1012q32 -31 40.5 -85t-2.5 -109.5t-26.5 -106t-29.5 -82.5l-15 -32q17 160 -104 275q-30 30 -35.5 68.5t20.5 69.5q31 31 71 33.5t81 -31.5z" />
    </font>
</defs>
</svg>
