<svg width="31" height="30" viewBox="0 0 31 30" fill="none" xmlns="http://www.w3.org/2000/svg">
<g clip-path="url(#clip0_73_290)">
<path d="M2.52701 13.4323C2.5994 14.6222 2.6187 15.667 2.73935 16.6924C2.77987 17.0173 2.90579 17.3255 3.10421 17.5856C3.30263 17.8457 3.56644 18.0482 3.86862 18.1725C7.30148 19.8332 10.7279 21.5036 14.1479 23.1836C14.3289 23.2842 14.5405 23.3146 14.7425 23.2692C14.9444 23.2237 15.1227 23.1054 15.2434 22.9369C18.1872 20.1218 21.1391 17.3132 24.099 14.511C25.6819 13.0067 27.2503 11.4879 28.8526 10.0029C29.1083 9.77077 29.3352 9.17099 29.8515 9.60632C30.0453 9.8206 30.1468 10.1028 30.1342 10.3917C30.1215 10.6806 29.9957 10.9528 29.784 11.1493C28.9684 11.9474 28.1335 12.731 27.3083 13.5242C23.5247 17.1616 19.7396 20.7974 15.9528 24.4315C15.089 25.2635 14.8863 25.2974 13.7666 24.7701C10.6925 23.319 7.61838 21.868 4.54425 20.4169C4.06166 20.1992 3.60319 20.0057 3.1206 19.7978C2.749 21.3698 3.21229 22.313 4.56838 22.9756C7.72455 24.4896 10.8856 25.989 14.0079 27.5756C14.2998 27.7798 14.6586 27.8641 15.0106 27.811C15.3626 27.7579 15.6808 27.5715 15.8997 27.2902C19.6833 23.6528 23.4958 20.0348 27.2986 16.4216C27.9549 15.7976 28.6016 15.1543 29.2917 14.5642C29.5677 14.3989 29.8671 14.2766 30.1797 14.2014C30.2183 14.6609 30.4017 15.1688 30.2521 15.5654C30.1025 15.9621 29.6392 16.2474 29.2869 16.5715C24.8888 20.8312 20.4811 25.0861 16.0638 29.3362C15.475 29.9021 14.92 29.7812 14.2927 29.4861C11.0352 27.948 7.76799 26.4292 4.5153 24.8717C3.60282 24.4481 2.72501 23.9532 1.88998 23.3916C1.51878 23.1131 1.26419 22.7063 1.17574 22.2501C0.99718 21.0989 0.963399 19.9283 0.857228 18.7626C0.780013 17.8968 0.596627 17.06 0.596627 16.2087C0.582841 14.9679 0.644082 13.7274 0.780013 12.494C0.856512 12.0343 1.02402 11.5947 1.27266 11.2009C1.52131 10.8072 1.84606 10.4673 2.2278 10.2013C6.06282 7.08305 9.87049 3.93258 13.6508 0.749877C14.0691 0.357147 14.5982 0.103593 15.1658 0.0239321C15.7334 -0.0557284 16.3117 0.042399 16.8215 0.304879C20.383 1.8914 23.9542 3.53595 27.5158 5.17084C28.4279 5.58682 28.481 6.23497 27.6799 6.97986C25.8556 8.63893 24.0121 10.2835 22.1734 11.928C19.8715 13.9934 17.5502 16.0394 15.2772 18.1338C15.0348 18.4034 14.707 18.5809 14.3492 18.6364C13.9914 18.692 13.6254 18.6221 13.313 18.4386C9.9831 16.8666 6.64354 15.3187 3.30881 13.7612C3.10129 13.6645 2.88895 13.5871 2.52701 13.4323Z" fill="#CE2827"/>
</g>
<defs>
<clipPath id="clip0_73_290">
<rect width="29.7327" height="29.7327" fill="white" transform="translate(0.59668)"/>
</clipPath>
</defs>
</svg>
