<svg width="35" height="35" viewBox="0 0 35 35" fill="none" xmlns="http://www.w3.org/2000/svg">
<path fill-rule="evenodd" clip-rule="evenodd" d="M17.3087 9.25321C16.7241 9.2639 16.1432 9.15788 15.6001 8.94136C15.057 8.72485 14.5625 8.40218 14.1456 7.99225C13.7287 7.58232 13.3977 7.09335 13.172 6.55396C12.9464 6.01458 12.8306 5.4356 12.8314 4.85091C12.824 3.97284 13.0772 3.11231 13.5588 2.37812C14.0405 1.64393 14.7291 1.06906 15.5375 0.726202C16.3459 0.383346 17.2378 0.287902 18.1004 0.45194C18.9631 0.615978 19.7577 1.03213 20.3838 1.64777C21.0099 2.26341 21.4395 3.0509 21.618 3.91064C21.7966 4.77039 21.7163 5.66378 21.3871 6.47785C21.0579 7.29191 20.4948 7.9901 19.7688 8.48411C19.0429 8.97812 18.1867 9.24577 17.3087 9.25321ZM22.9996 10.5386C22.1801 11.3842 21.73 12.5209 21.7485 13.6984C21.7541 14.283 21.8749 14.8608 22.1042 15.3987C22.3334 15.9366 22.6666 16.424 23.0844 16.8329C23.5023 17.2418 23.9968 17.5643 24.5395 17.7819C25.0822 17.9994 25.6625 18.1077 26.2472 18.1007C27.4281 18.0726 28.5504 17.58 29.3705 16.7298C30.1906 15.8796 30.6425 14.7403 30.6281 13.5591C30.6096 12.3816 30.1241 11.2597 29.2784 10.4401C28.4328 9.62054 27.2962 9.17048 26.1186 9.18895C24.9411 9.20741 23.8192 9.69288 22.9996 10.5386ZM27.636 18.9876C26.2261 19.2114 24.8625 19.4279 23.6069 18.5613L21.6949 23.1939C25.2564 23.8633 25.2778 23.8847 26.9702 29.3742L30.1836 28.9993C31.1755 28.8876 31.2489 28.2421 31.3253 27.5693C31.3735 27.1451 31.4229 26.7101 31.7045 26.3912L31.892 28.4584C34.3984 27.8157 34.5537 27.6283 34.468 25.304C34.4413 24.6666 34.3663 24.0347 34.2859 23.4027C33.895 20.3179 32.4115 18.6469 29.3052 18.7862C28.7442 18.8118 28.1866 18.9003 27.636 18.9876ZM22.9321 31.6825L23.0606 33.7872L23.4248 34.1246C23.66 33.923 23.9526 33.7262 24.2453 33.5293L24.2454 33.5293C24.8858 33.0985 25.5266 32.6674 25.567 32.1859C25.6829 30.4135 25.5019 28.6341 25.0315 26.9214C24.4477 24.7898 21.1433 23.4884 19.1403 24.4042C18.6201 24.6436 18.0531 24.764 17.4806 24.7566C16.908 24.7492 16.3443 24.6142 15.8305 24.3614C15.2999 24.1241 14.7169 24.0281 14.1382 24.0829C11.0051 24.5113 9.0182 26.2465 9.0664 30.4775C9.09318 32.8768 9.452 33.3588 11.8995 33.7712L12.1191 32.4805C12.1191 34.1461 13.2063 34.4567 14.5077 34.4942C14.9836 34.5085 15.4599 34.5301 15.9361 34.5518H15.9361H15.9362H15.9362H15.9363H15.9363H15.9363C17.2394 34.6109 18.5423 34.6701 19.8365 34.5799C22.0611 34.4316 22.0856 34.3304 22.6039 32.1939L22.6214 32.1216C22.6379 32.0556 22.6849 31.9978 22.7599 31.9055L22.7599 31.9054L22.7599 31.9054C22.8067 31.8479 22.8642 31.777 22.9321 31.6825ZM11.4282 18.6577L13.1099 22.8779C12.7697 23.075 12.3956 23.2575 12.013 23.4441C11.1065 23.8862 10.1523 24.3516 9.4895 25.0897C8.84251 25.8102 8.48822 26.7881 8.11661 27.8138C7.94682 28.2824 7.77342 28.761 7.56683 29.2296C4.9533 29.4599 3.98929 28.9672 3.49122 26.6911L3.2877 28.3513C1.05442 28.121 0.363545 27.4194 0.438523 25.2558C0.445056 25.0854 0.449873 24.914 0.454702 24.7422C0.497376 23.2239 0.540941 21.6739 1.77742 20.5C3.45373 18.8933 5.26928 18.1221 7.66859 19.0915C8.25555 19.3278 8.9903 19.2165 9.71297 19.1069C9.97277 19.0676 10.231 19.0284 10.4803 19.0058C10.8113 18.9357 11.1305 18.8185 11.4282 18.6577ZM13.4172 17.19C13.1956 17.7431 13.0875 18.3351 13.0992 18.9308C13.1219 20.0846 13.5924 21.1844 14.4113 21.9976C15.2302 22.8107 16.3332 23.2736 17.4872 23.2882C18.6412 23.3028 19.7556 22.868 20.5948 22.0758C21.434 21.2837 21.9322 20.1961 21.9841 19.0433C22.0109 18.448 21.9178 17.8535 21.7102 17.295C21.5027 16.7364 21.1849 16.2253 20.7759 15.7921C20.3669 15.3588 19.875 15.0121 19.3293 14.7728C18.7837 14.5334 18.1955 14.4061 17.5997 14.3986C17.0039 14.391 16.4127 14.5034 15.8612 14.7289C15.3097 14.9543 14.8091 15.2884 14.3893 15.7112C13.9694 16.134 13.6389 16.6369 13.4172 17.19ZM4.39096 13.8912C4.37801 13.307 4.48263 12.7262 4.6986 12.1832C4.91457 11.6403 5.23749 11.1463 5.64816 10.7306C6.05884 10.315 6.54888 9.9861 7.08917 9.76358C7.62946 9.54105 8.20897 9.42942 8.79327 9.4353C9.66621 9.43216 10.5205 9.68768 11.2484 10.1696C11.9763 10.6515 12.5451 11.3383 12.883 12.1431C13.221 12.948 13.3129 13.835 13.1473 14.6921C12.9816 15.5492 12.5658 16.338 11.9523 16.959C11.3387 17.58 10.555 18.0053 9.69998 18.1813C8.84496 18.3573 7.95696 18.2761 7.14805 17.9479C6.33914 17.6197 5.64558 17.0592 5.15489 16.3372C4.6642 15.6153 4.39837 14.7641 4.39096 13.8912ZM20.5863 13.4841L21.9627 9.93338C21.5925 9.98379 21.2418 10.0365 20.9046 10.0872C20.0956 10.2088 19.3649 10.3187 18.6315 10.3565C17.6452 10.393 16.6575 10.3626 15.6752 10.2654C15.0718 10.2182 14.4709 10.1265 13.8423 10.0306C13.5447 9.98524 13.241 9.9389 12.9278 9.89589L14.4434 13.618C15.3691 13.0686 16.4211 12.7676 17.4973 12.7441C18.5735 12.7206 19.6375 12.9756 20.5863 13.4841Z" fill="white"/>
</svg>
