<svg width="36" height="35" viewBox="0 0 36 35" fill="none" xmlns="http://www.w3.org/2000/svg">
<path fill-rule="evenodd" clip-rule="evenodd" d="M13.9329 4.0709C14.7847 4.2917 15.6611 4.40328 16.5411 4.40295C17.1511 4.3945 17.7591 4.32815 18.3566 4.20479C18.6137 4.15124 18.619 4.14588 18.5387 3.89417C18.3795 3.345 18.1808 2.80804 17.9442 2.28749C17.687 1.67985 17.3058 1.13261 16.8249 0.680804C16.6337 0.524634 16.3943 0.439331 16.1474 0.439331C15.9005 0.439331 15.6612 0.524634 15.4699 0.680804C15.2427 0.876828 15.0444 1.10401 14.8808 1.35561C14.3955 2.10812 14.022 2.92716 13.7722 3.78705C13.7133 3.9745 13.7669 4.02806 13.9329 4.0709ZM23.3159 9.13195H21.0237C20.8577 9.13195 20.8095 9.07839 20.8041 8.91772C20.7803 7.72589 20.6567 6.53816 20.4346 5.36696C20.424 5.33641 20.4199 5.30396 20.4227 5.27174C20.4255 5.23952 20.435 5.20825 20.4507 5.17996C20.4663 5.15166 20.4878 5.12699 20.5136 5.10753C20.5394 5.08808 20.5691 5.07428 20.6006 5.06704C21.5281 4.69151 22.3959 4.18273 23.1767 3.55676C23.2945 3.46572 23.3641 3.46572 23.4659 3.55676C24.7741 5.03112 25.5952 6.87345 25.817 8.83203C25.8331 8.96623 25.8411 9.03318 25.8114 9.06657C25.7818 9.09981 25.7149 9.09981 25.5813 9.09981L23.3159 9.13195ZM26.7435 23.7956C26.907 23.6157 26.9952 23.3799 26.9898 23.1369C27.0028 22.9989 26.9845 22.8597 26.9363 22.7298C26.4936 21.6159 26.0473 20.5019 25.5974 19.3879C25.5402 19.2523 25.4509 19.1326 25.337 19.0392C25.2232 18.9459 25.0882 18.8818 24.944 18.8524C24.8013 18.8176 24.6586 18.7845 24.5161 18.7514C24.22 18.6827 23.9247 18.6142 23.6319 18.531C23.5298 18.4941 23.4196 18.4855 23.313 18.5062C23.2064 18.527 23.1075 18.5763 23.0267 18.6489C22.1278 19.3394 21.1244 19.8818 20.0543 20.2555C19.1766 20.5208 18.2819 20.7265 17.3765 20.8714C16.595 21.0425 15.7882 21.0643 14.9986 20.9357C14.4302 20.8086 13.8717 20.6404 13.3277 20.4323C11.2519 19.8154 9.40164 18.6054 8.00422 16.9511C7.97773 16.9177 7.95542 16.888 7.93613 16.8624C7.88054 16.7885 7.85011 16.7481 7.8174 16.7462C7.77783 16.7438 7.73493 16.7979 7.64012 16.9173L7.61326 16.9511L3.15204 22.5745C2.3487 23.5921 1.54536 24.6096 0.73131 25.6111C0.594301 25.7671 0.509737 25.9621 0.489557 26.1687C0.469377 26.3754 0.5146 26.5831 0.618843 26.7626C0.886625 27.3142 1.15441 27.8645 1.42219 28.4148C1.68997 28.9651 1.95775 29.5154 2.22552 30.067C2.29154 30.2126 2.3893 30.3415 2.51162 30.4444C2.63395 30.5472 2.77774 30.6214 2.93246 30.6615L10.8159 32.7448L17.4997 34.5175C17.6832 34.5762 17.8806 34.5751 18.0634 34.5145C18.2463 34.4538 18.4052 34.3368 18.5173 34.1801L23.8086 27.4963L26.7435 23.7956ZM3.25114 27.9515C3.20488 27.8577 3.15752 27.7616 3.1092 27.6623L4.38383 27.989L15.6306 30.7525C15.7043 30.7654 15.7726 30.7996 15.8269 30.8511C15.8812 30.9025 15.9191 30.9688 15.9359 31.0417C16.0457 31.4046 16.1683 31.7676 16.2999 32.1571L16.3483 32.3003L15.7324 32.145L7.69895 30.0027L3.91789 29.0119C3.85805 28.9982 3.80223 28.9707 3.75483 28.9317C3.70743 28.8926 3.66975 28.8431 3.64476 28.787C3.52732 28.5116 3.39457 28.2424 3.25114 27.9515ZM17.639 30.308V30.2437C17.6445 30.1731 17.6748 30.1067 17.7246 30.0563L21.5967 25.188L24.2745 21.814C24.2939 21.789 24.3111 21.7661 24.3265 21.7456C24.4559 21.5733 24.459 21.5691 24.5691 21.8515C24.592 21.9102 24.6147 21.9688 24.6373 22.0275L24.6374 22.0276L24.6374 22.0276C24.7368 22.2847 24.836 22.5412 24.9494 22.7941C24.9772 22.8481 24.988 22.9092 24.9804 22.9695C24.9727 23.0297 24.947 23.0862 24.9065 23.1315C24.414 23.7383 23.9348 24.3452 23.4564 24.9509L23.4557 24.9518L23.4556 24.9519L23.4556 24.952L23.4555 24.9521L23.4554 24.9522L23.4553 24.9523L23.4552 24.9524L23.4549 24.9528C23.1274 25.3675 22.8003 25.7816 22.4697 26.1949L19.7919 29.5368C19.5245 29.8764 19.2571 30.2147 18.9897 30.5529L18.9886 30.5544L18.9874 30.5558C18.72 30.8941 18.4526 31.2323 18.1852 31.5719C18.1317 31.6469 18.0888 31.6898 18.0513 31.5719L17.9684 31.3203C17.857 30.9826 17.7462 30.647 17.639 30.308ZM26.6524 26.3716L26.1169 27.0518C26.2079 27.0624 26.3001 27.0495 26.3847 27.0143L33.754 24.9096C33.9789 24.8506 33.9789 24.9149 33.9789 25.0863V26.8162C33.9881 26.8625 33.9875 26.9103 33.977 26.9564C33.9666 27.0025 33.9466 27.0458 33.9183 27.0837C33.89 27.1216 33.8541 27.1531 33.8129 27.1762C33.7717 27.1993 33.7261 27.2135 33.679 27.2178L23.8407 30.1634C23.7521 30.1769 23.6708 30.2203 23.6105 30.2866C23.182 30.8221 22.7482 31.3577 22.3144 31.8933C22.2341 32.0218 22.2769 32.0218 22.3787 32.0218C22.6149 32.0171 22.8492 31.9792 23.0749 31.9093C23.9589 31.6557 24.8403 31.3969 25.7208 31.1383L25.7217 31.138L25.7358 31.1339C26.1146 31.0226 26.4933 30.9114 26.872 30.8007L32.6025 29.1244L34.9536 28.4282C35.1044 28.3934 35.2391 28.3091 35.3362 28.1887C35.4333 28.0683 35.4871 27.9188 35.4892 27.7641V23.8277C35.4944 23.6866 35.4468 23.5485 35.3557 23.4406C35.2646 23.3326 35.1365 23.2625 34.9965 23.244C34.3966 23.1315 33.7968 23.0244 33.197 22.9333L28.6072 22.2318C28.3662 22.1943 28.3609 22.1996 28.4305 22.4406C28.5509 22.8166 28.5757 23.2167 28.5028 23.6047C28.4298 23.9928 28.2614 24.3565 28.0128 24.6632C27.7271 25.0394 27.4302 25.4065 27.1322 25.7749L27.1322 25.7749C26.972 25.9729 26.8116 26.1713 26.6524 26.3716ZM25.592 10.6476H23.3213H21.1576C20.9879 10.6476 20.9049 10.6476 20.8643 10.6891C20.8255 10.7287 20.8255 10.8063 20.8255 10.9582C20.7912 11.9989 20.6784 13.0354 20.4881 14.0591C20.4453 14.3055 20.5149 14.3858 20.7184 14.4715C21.6618 14.8672 22.5409 15.4015 23.3266 16.0567C23.4551 16.1692 23.5248 16.1317 23.6105 16.0246C24.848 14.5811 25.6175 12.7955 25.817 10.9047C25.8384 10.7226 25.7955 10.6476 25.592 10.6476ZM16.1447 9.13195H13.2313C12.9849 9.13195 12.9742 9.13195 12.9849 8.86952C13.0349 7.83867 13.1494 6.81195 13.3277 5.79541V5.67223C13.3277 5.51692 13.4027 5.47407 13.558 5.51691C13.9718 5.63842 14.3944 5.72794 14.8219 5.7847C16.1261 5.98001 17.4552 5.9328 18.7422 5.64545C18.9243 5.60796 18.9725 5.64545 19.0046 5.82754C19.159 6.81236 19.2627 7.80445 19.3153 8.7999V8.79992C19.3153 8.96775 19.3153 9.05074 19.2738 9.09179C19.2332 9.13195 19.1528 9.13195 18.9939 9.13195H16.1447ZM7.21159 9.13195H9.2253V9.15337H11.2658C11.2794 9.15384 11.2924 9.15447 11.3047 9.15508C11.4337 9.16136 11.4961 9.16441 11.4961 8.9445C11.4961 8.82402 11.5041 8.70353 11.5121 8.58304L11.5121 8.583L11.5121 8.58296C11.5202 8.46247 11.5282 8.34198 11.5282 8.22149C11.5835 7.20367 11.7087 6.19085 11.9031 5.19022C11.9157 5.15905 11.9216 5.1256 11.9205 5.09201C11.9194 5.05841 11.9112 5.02543 11.8966 4.99517C11.882 4.9649 11.8612 4.93804 11.8355 4.91629C11.8099 4.89454 11.78 4.8784 11.7478 4.86889C11.015 4.53512 10.3261 4.11242 9.69659 3.61032C9.55735 3.47643 9.48237 3.47107 9.35919 3.61032C8.04589 5.09708 7.22792 6.95575 7.01879 8.92843C6.99737 9.0891 7.05092 9.13195 7.21159 9.13195ZM9.26279 10.6476H11.239C11.4211 10.6476 11.4907 10.6958 11.4961 10.8886C11.5258 12.055 11.6476 13.2172 11.8603 14.3644C11.8728 14.3941 11.8789 14.4261 11.878 14.4584C11.8771 14.4906 11.8692 14.5223 11.855 14.5513C11.8408 14.5802 11.8205 14.6058 11.7955 14.6262C11.7706 14.6466 11.7415 14.6614 11.7103 14.6696C10.924 15.0367 10.1879 15.5029 9.51986 16.0567C9.39668 16.1585 9.32706 16.1478 9.23066 16.03C8.15905 14.7816 7.43661 13.2721 7.13661 11.6544C7.09377 11.4081 7.06164 11.1617 7.02951 10.9154L7.0295 10.9154C6.99737 10.669 7.0295 10.6583 7.26515 10.6583L9.26279 10.6476ZM19.0796 10.6476H16.1447H13.2099C13.0171 10.6476 12.9582 10.744 12.9849 10.8939C13.0117 11.0439 13.0117 11.1938 13.0117 11.3492V11.3492C13.0589 12.1855 13.1519 13.0187 13.2902 13.8449C13.317 13.9895 13.3759 14.027 13.5205 13.9895C14.424 13.7372 15.3567 13.604 16.2947 13.5932C17.1339 13.5842 17.9714 13.6722 18.7904 13.8556C18.9671 13.8931 19.0475 13.8395 19.0475 13.6735C19.1921 12.747 19.2617 11.8151 19.3153 10.8832C19.3313 10.6958 19.2563 10.6476 19.0796 10.6476ZM16.4447 15.1034C17.1269 15.0971 17.8078 15.1672 18.4744 15.3123C18.6351 15.3444 18.694 15.398 18.6405 15.5801C18.3868 16.6125 17.9555 17.5929 17.3658 18.4775C17.1957 18.7314 16.9795 18.9512 16.7285 19.1255C16.563 19.2632 16.3546 19.3385 16.1394 19.3385C15.9242 19.3385 15.7157 19.2632 15.5503 19.1255C15.169 18.8245 14.8552 18.4468 14.6291 18.0169C14.2265 17.2854 13.9119 16.5088 13.6919 15.7033C13.6437 15.5533 13.6919 15.4998 13.8418 15.4623C14.687 15.215 15.5641 15.0941 16.4447 15.1034ZM22.3412 17.2564L22.2448 17.3314C21.2794 18.0853 20.1773 18.6454 18.9993 18.9809C18.987 18.9809 18.9741 18.9849 18.961 18.989C18.9342 18.9974 18.9066 19.0061 18.8815 18.9809C18.844 18.9434 18.8815 18.8899 18.9082 18.8524C19.4246 17.9561 19.8173 16.9941 20.0758 15.9925C20.1079 15.8747 20.1614 15.8586 20.2686 15.9014C20.9794 16.2171 21.6471 16.622 22.2555 17.1064C22.283 17.1201 22.3058 17.1417 22.3211 17.1684C22.3364 17.1951 22.3433 17.2257 22.3412 17.2564ZM19.9204 1.11461C19.592 0.978238 19.2536 0.86723 18.9082 0.782561C18.903 0.796975 18.9017 0.812529 18.9046 0.827602C18.9074 0.842674 18.9142 0.856712 18.9243 0.86825C19.4148 1.70522 19.7861 2.6065 20.0276 3.54605C20.0597 3.64781 20.1079 3.65316 20.1936 3.61568C20.8538 3.32794 21.4806 2.96876 22.0627 2.54455C22.2019 2.44815 22.1966 2.38924 22.0627 2.29284C21.4019 1.81008 20.682 1.4141 19.9204 1.11461ZM12.1709 16.0996C12.267 16.0996 12.2811 16.1637 12.2947 16.2251C12.2978 16.239 12.3008 16.2528 12.3048 16.2656C12.4752 16.8652 12.6918 17.4508 12.9528 18.0169C13.0217 18.1662 13.0961 18.3128 13.1701 18.4586L13.1701 18.4586C13.1996 18.5168 13.2291 18.5748 13.2581 18.6328C13.2581 18.6484 13.2694 18.6647 13.2813 18.6818C13.302 18.7115 13.3242 18.7433 13.2902 18.7774C13.2543 18.8133 13.2255 18.801 13.1976 18.7891C13.1839 18.7832 13.1704 18.7774 13.1563 18.7774C12.3336 18.4769 11.5582 18.0603 10.8534 17.5402L10.7731 17.476C10.7398 17.4512 10.7097 17.4291 10.6826 17.4093C10.5632 17.3221 10.5037 17.2786 10.504 17.2354C10.5042 17.1924 10.5638 17.1497 10.6826 17.0646C10.7097 17.0452 10.7398 17.0236 10.7731 16.9993C11.1777 16.692 11.6077 16.4197 12.0584 16.1853L12.1709 16.0996ZM13.2294 1.20157C13.2616 1.1364 13.2945 1.07012 13.3277 1.00214C13.2965 1.00798 13.266 1.01695 13.2366 1.02892C12.3624 1.34361 11.5395 1.78576 10.7945 2.34104C10.666 2.42673 10.7034 2.48564 10.7945 2.54991C11.2324 2.86621 11.6924 3.15079 12.1709 3.40145C12.3101 3.47107 12.353 3.42287 12.3905 3.29434C12.5507 2.74405 12.753 2.20691 12.9956 1.68766C13.0687 1.52617 13.1473 1.36745 13.2294 1.20157Z" fill="white"/>
</svg>
