<svg width="58" height="35" viewBox="0 0 58 35" fill="none" xmlns="http://www.w3.org/2000/svg">
<path fill-rule="evenodd" clip-rule="evenodd" d="M5.05562 13.3095C5.48741 13.4413 5.92604 13.5751 6.37376 13.7139C5.49886 14.835 4.95362 16.1777 4.79921 17.5914C4.7737 17.8108 4.53425 18.0303 4.3403 18.208C4.3307 18.2168 4.3212 18.2255 4.31185 18.2341C4.02456 18.4672 3.78934 18.7579 3.62139 19.0876C3.45344 19.4172 3.3565 19.7784 3.33681 20.1478C3.31713 20.5173 3.37515 20.8867 3.50712 21.2324C3.63909 21.578 3.84208 21.8921 4.10298 22.1544C4.27103 22.3104 4.38917 22.5126 4.44254 22.7356C4.4959 22.9586 4.48211 23.1924 4.4029 23.4076C3.70667 26.4442 3.03722 29.4755 2.36777 32.5121C2.08928 33.8564 2.62484 34.5526 4.03872 34.5794H8.16253C9.74779 34.5794 10.278 33.926 9.93524 32.3836C9.70308 31.3453 9.47217 30.3082 9.24144 29.2719C8.7962 27.2723 8.35164 25.2757 7.90011 23.2791C7.8379 23.0909 7.83321 22.8885 7.88664 22.6977C7.94006 22.5069 8.04917 22.3364 8.20002 22.2079C8.46047 21.9701 8.6685 21.6805 8.81083 21.3578C8.95315 21.0351 9.02666 20.6862 9.02666 20.3335C9.02666 19.9807 8.95315 19.6319 8.81083 19.3092C8.6685 18.9864 8.46047 18.6969 8.20002 18.459C7.9311 18.2698 7.74691 17.9828 7.68686 17.6596C7.6268 17.3363 7.69566 17.0023 7.87869 16.7292C8.17574 16.1669 8.51783 15.6295 8.90161 15.1225C9.03368 14.9416 9.22554 14.8133 9.44317 14.7603C9.6608 14.7074 9.89015 14.7332 10.0906 14.8333C12.617 15.6244 15.1564 16.4037 17.6989 17.1839C20.5782 18.0675 23.4615 18.9524 26.3341 19.8568C28.0342 20.4111 29.8664 20.4111 31.5665 19.8568C34.5163 18.9235 37.4743 18.0177 40.4327 17.1118C41.5994 16.7546 42.7662 16.3973 43.9326 16.0383L55.5596 12.4661C55.9338 12.3927 56.285 12.2309 56.5841 11.9943C56.8831 11.7577 57.1213 11.453 57.2788 11.1058C57.7769 9.82042 57.0806 8.71181 55.4739 8.21374C47.4048 5.7573 39.3375 3.27944 31.272 0.780162C29.7723 0.300818 28.1605 0.300818 26.6608 0.780162C24.1735 1.55337 21.6841 2.31565 19.1938 3.07817C17.7859 3.50929 16.3777 3.94048 14.9695 4.37377L2.38919 8.22981C2.03989 8.30104 1.70975 8.44582 1.42072 8.65451C1.1317 8.8632 0.890405 9.13102 0.712887 9.44017C0.574789 9.71074 0.498677 10.0087 0.490078 10.3123C0.481479 10.616 0.540608 10.9177 0.663173 11.1957C0.785737 11.4736 0.968661 11.7208 1.19866 11.9192C1.42866 12.1177 1.69997 12.2624 1.99288 12.3429C2.99492 12.6807 4.00503 12.9889 5.05562 13.3095ZM44.9019 22.9033C44.7412 21.4465 44.5591 19.9952 44.3663 18.4795L43.5951 18.6402C42.243 19.0554 40.8896 19.4687 39.5361 19.882C36.9437 20.6737 34.3507 21.4656 31.7646 22.2713C29.6761 22.9501 27.4263 22.9501 25.3379 22.2713C23.1123 21.5649 20.8765 20.8855 18.6414 20.2064C18.0635 20.0308 17.4857 19.8552 16.9081 19.6792C16.0584 19.4172 15.2065 19.1594 14.3379 18.8966C13.8216 18.7404 13.2994 18.5824 12.7683 18.4206C12.7512 18.519 12.7344 18.6121 12.7184 18.7014C12.6741 18.9474 12.6351 19.1646 12.6076 19.3846C12.5135 20.1501 12.4213 20.9137 12.3293 21.6759C12.0757 23.777 11.8234 25.8667 11.5365 27.9536C11.4565 28.3486 11.4784 28.7575 11.6002 29.1417C11.722 29.5258 11.9397 29.8727 12.2327 30.1494C12.6874 30.6347 13.2217 31.0386 13.8126 31.3437C15.2707 32.0241 16.7804 32.5882 18.3274 33.0307C23.0673 34.167 27.9645 34.4983 32.8143 34.0108C35.777 33.8254 38.6983 33.2195 41.4904 32.2113C42.7474 31.7996 43.8952 31.1094 44.8483 30.1922C45.1372 29.909 45.3522 29.5593 45.4745 29.1737C45.5968 28.788 45.6227 28.3783 45.5499 27.9804C45.3747 26.8305 45.2368 25.6757 45.0989 24.5209C45.0345 23.9815 44.9701 23.4421 44.9019 22.9033Z" fill="white"/>
</svg>
