<svg width="20" height="18" viewBox="0 0 20 18" fill="none" xmlns="http://www.w3.org/2000/svg">
<path d="M19.6208 7.152C19.6208 7.00533 19.6208 6.84644 19.5994 6.67838L19.2358 6.89227C16.337 8.70121 13.4383 10.5112 10.5395 12.3221C10.3307 12.4793 10.0766 12.5643 9.81528 12.5643C9.55401 12.5643 9.29982 12.4793 9.0911 12.3221C8.22635 11.7569 7.34327 11.2252 6.4663 10.6782L0.00362084 6.65088V7.18562C0.00362084 10.1251 0.0402885 13.0677 0.00362084 16.0072C-0.0128826 16.2725 0.027159 16.5382 0.121094 16.7869C0.215028 17.0355 0.360712 17.2613 0.548496 17.4494C0.736281 17.6375 0.96188 17.7835 1.21035 17.8778C1.45883 17.9721 1.7245 18.0126 1.98979 17.9965C7.20882 17.9751 12.4309 17.9965 17.6499 17.9965C18.9119 17.9965 19.6178 17.2967 19.6208 16.047V7.152Z" fill="white"/>
<path d="M19.3668 6.43693L19.0612 6.24442C16.0728 4.37641 13.0803 2.50635 10.0837 0.634265C10.0081 0.572988 9.91372 0.539551 9.81637 0.539551C9.71903 0.539551 9.62464 0.572988 9.54901 0.634265C6.58096 2.49209 3.61088 4.34585 0.638758 6.19553C0.510421 6.27498 0.38514 6.36359 0.186523 6.50109H19.3546L19.3668 6.43693Z" fill="white"/>
</svg>
