<svg width="17" height="16" viewBox="0 0 17 16" fill="none" xmlns="http://www.w3.org/2000/svg">
<path fill-rule="evenodd" clip-rule="evenodd" d="M8.34314 15.6863C12.6748 15.6863 16.1863 12.1748 16.1863 7.84314C16.1863 3.51149 12.6748 0 8.34314 0C4.01149 0 0.5 3.51149 0.5 7.84314C0.5 12.1748 4.01149 15.6863 8.34314 15.6863ZM4.92157 5.88232C4.92157 5.07555 5.57559 4.42154 6.38235 4.42154H10.3039C11.1107 4.42154 11.7647 5.07555 11.7647 5.88232V9.80389C11.7647 10.6107 11.1107 11.2647 10.3039 11.2647H6.38235C5.57559 11.2647 4.92157 10.6107 4.92157 9.80389V5.88232ZM6.38235 3.42154C5.0233 3.42154 3.92157 4.52327 3.92157 5.88232V9.80389C3.92157 11.1629 5.0233 12.2647 6.38235 12.2647H10.3039C11.663 12.2647 12.7647 11.1629 12.7647 9.80389V5.88232C12.7647 4.52327 11.663 3.42154 10.3039 3.42154H6.38235ZM8.51686 6.76905C8.29452 6.73608 8.06745 6.77406 7.86793 6.87758C7.66842 6.98111 7.50663 7.1449 7.40558 7.34568C7.30452 7.54645 7.26935 7.77398 7.30506 7.99589C7.34076 8.21781 7.44554 8.42282 7.60448 8.58175C7.76342 8.74069 7.96842 8.84547 8.19034 8.88118C8.41226 8.91689 8.63978 8.88171 8.84056 8.78066C9.04133 8.6796 9.20513 8.51781 9.30865 8.3183C9.41217 8.11879 9.45015 7.89171 9.41718 7.66937C9.38355 7.44257 9.27787 7.23261 9.11575 7.07049C8.95362 6.90836 8.74366 6.80268 8.51686 6.76905ZM7.40736 5.98996C7.79358 5.78956 8.23314 5.71605 8.66355 5.77987C9.10257 5.84497 9.50902 6.04955 9.82285 6.36338C10.1367 6.67721 10.3413 7.08366 10.4064 7.52269C10.4702 7.95309 10.3967 8.39266 10.1963 8.77887C9.99588 9.16508 9.6788 9.47827 9.29015 9.67389C8.90149 9.86951 8.46105 9.9376 8.03147 9.86848C7.60189 9.79935 7.20504 9.59653 6.89737 9.28886C6.5897 8.98119 6.38688 8.58435 6.31776 8.15476C6.24863 7.72518 6.31672 7.28474 6.51234 6.89609C6.70796 6.50743 7.02115 6.19036 7.40736 5.98996ZM10.5 5.18631C10.2239 5.18631 10 5.41016 10 5.68631C10 5.96245 10.2239 6.18631 10.5 6.18631H10.5049C10.7811 6.18631 11.0049 5.96245 11.0049 5.68631C11.0049 5.41016 10.7811 5.18631 10.5049 5.18631H10.5Z" fill="white"/>
</svg>
