<svg width="18" height="18" viewBox="0 0 18 18" fill="none" xmlns="http://www.w3.org/2000/svg">
<path d="M3.37298 0H3.96231C3.98687 0.0122663 4.0124 0.0224796 4.03865 0.0305353C4.58911 0.119722 5.08371 0.418452 5.41885 0.86415C5.83107 1.41379 6.2433 1.96648 6.68606 2.49168C7.04197 2.90398 7.23905 3.42976 7.24185 3.97441C7.24464 4.51907 7.05298 5.04684 6.70133 5.46277C6.31353 5.9147 5.93184 6.37883 5.54099 6.8277C5.5113 6.85571 5.49164 6.8927 5.48502 6.93297C5.4784 6.97324 5.48519 7.01457 5.50434 7.05061C6.44436 9.24662 8.19399 10.9963 10.39 11.9363C10.4218 11.9531 10.4581 11.9596 10.4937 11.9546C10.5293 11.9497 10.5625 11.9337 10.5885 11.9088C11.0404 11.5179 11.5045 11.1393 11.9504 10.7484C12.3505 10.4045 12.8577 10.2103 13.3852 10.1992C13.9128 10.188 14.4278 10.3606 14.8421 10.6874C15.4161 11.1393 15.9932 11.6034 16.5765 12.037C16.9541 12.3255 17.2249 12.7317 17.346 13.1913C17.3795 13.2981 17.4009 13.4081 17.4284 13.518V14.0279C17.4165 14.0544 17.4073 14.0821 17.4009 14.1104C17.3341 14.5842 17.1205 15.0253 16.7902 15.3715C16.5978 15.573 16.4329 15.799 16.2375 15.9822C16.0267 16.2031 15.799 16.4072 15.5566 16.5929C14.4085 17.4357 13.1138 17.5945 11.7458 17.3655C10.6021 17.1571 9.50169 16.7576 8.4907 16.1837C6.50037 15.0828 4.72276 13.635 3.24168 11.9088C2.13093 10.6755 1.23872 9.26182 0.603422 7.7285C0.126953 6.61623 -0.0721473 5.40486 0.02325 4.19861C0.194248 2.48252 1.12558 1.25806 2.50577 0.323675C2.69931 0.21523 2.90409 0.128199 3.11648 0.0641242C3.20074 0.0380529 3.28636 0.0166457 3.37298 0Z" fill="white"/>
<path d="M17.4283 7.43536C17.3899 7.56963 17.3165 7.69129 17.2157 7.78787C17.1148 7.88445 16.9901 7.95248 16.8542 7.98499C16.7587 8.00762 16.6595 8.01014 16.5629 7.99239C16.4663 7.97464 16.3745 7.93701 16.2933 7.88188C16.212 7.82675 16.1431 7.75533 16.0909 7.67215C16.0387 7.58898 16.0044 7.49586 15.9901 7.39871C15.9535 7.13916 15.9565 6.87656 15.929 6.61701C15.794 5.42029 15.29 4.29524 14.4867 3.39791C13.6835 2.50058 12.621 1.87544 11.4464 1.60921C11.0285 1.53427 10.6063 1.48532 10.1823 1.46264C10.0244 1.46339 9.87024 1.4154 9.74072 1.32522C9.61119 1.23505 9.51266 1.10708 9.45859 0.95881C9.4028 0.789635 9.41081 0.605897 9.48112 0.442222C9.55143 0.278547 9.67917 0.146239 9.84028 0.0702313L9.99296 0H10.6037C10.6467 0.0123572 10.6906 0.0215425 10.735 0.0274818C11.9437 0.114877 13.1092 0.513563 14.1183 1.18477C14.9453 1.71605 15.6543 2.41171 16.2011 3.22854C16.7479 4.04538 17.121 4.96593 17.297 5.93302C17.355 6.23837 17.3856 6.5254 17.4283 6.8216V7.43536Z" fill="white"/>
<path d="M10.3747 2.91028C11.2981 2.95825 12.1824 3.29854 12.8998 3.882C13.6172 4.46546 14.1305 5.26188 14.3657 6.15619C14.448 6.51013 14.4971 6.871 14.5122 7.23409C14.5193 7.33223 14.5062 7.43078 14.4738 7.52368C14.4413 7.61657 14.3902 7.70184 14.3236 7.77422C14.2569 7.8466 14.1761 7.90456 14.0862 7.94453C13.9963 7.9845 13.8991 8.00564 13.8008 8.00663C13.7022 8.00749 13.6044 7.98846 13.5134 7.95067C13.4223 7.91288 13.3399 7.8571 13.2709 7.78669C13.2019 7.71627 13.1478 7.63266 13.1119 7.54086C13.076 7.44905 13.0589 7.35095 13.0618 7.25241C13.0555 6.49065 12.7507 5.76175 12.2128 5.22222C11.675 4.6827 10.9471 4.37558 10.1854 4.36682C10.0856 4.371 9.98594 4.35472 9.89265 4.319C9.79935 4.28327 9.71435 4.22885 9.64285 4.15907C9.57136 4.08929 9.51489 4.00563 9.47691 3.91323C9.43892 3.82083 9.42024 3.72164 9.42199 3.62176C9.42581 3.52211 9.44968 3.42425 9.49218 3.33403C9.53467 3.24382 9.59491 3.16309 9.6693 3.09668C9.7437 3.03027 9.83071 2.97954 9.92515 2.94751C10.0196 2.91548 10.1195 2.90282 10.219 2.91028H10.3747Z" fill="white"/>
</svg>
