<svg width="17" height="16" viewBox="0 0 17 16" fill="none" xmlns="http://www.w3.org/2000/svg">
<path d="M8.87256 0C7.29031 0 5.74359 0.469192 4.428 1.34824C3.11241 2.22729 2.08703 3.47672 1.48153 4.93853C0.876025 6.40034 0.717598 8.00887 1.02628 9.56072C1.33496 11.1126 2.09689 12.538 3.21571 13.6569C4.33453 14.7757 5.75999 15.5376 7.31184 15.8463C8.86369 16.155 10.4722 15.9965 11.934 15.391C13.3958 14.7855 14.6453 13.7602 15.5243 12.4446C16.4034 11.129 16.8726 9.58225 16.8726 8C16.8721 5.8784 16.0291 3.84383 14.5289 2.34364C13.0287 0.843443 10.9942 0.000445479 8.87256 0ZM5.68836 4.28313C5.88626 4.30238 6.06999 4.39434 6.204 4.54123C6.338 4.68812 6.41276 4.8795 6.41381 5.07833C6.41485 5.27716 6.34211 5.46932 6.20965 5.61761C6.0772 5.7659 5.89445 5.85979 5.69676 5.88112C5.58835 5.88662 5.47995 5.87008 5.37811 5.83252C5.27627 5.79495 5.1831 5.73713 5.10423 5.66255C5.02535 5.58797 4.96242 5.49818 4.91922 5.3986C4.87602 5.29901 4.85346 5.19171 4.85289 5.08316C4.85232 4.97461 4.87376 4.86708 4.91591 4.76705C4.95807 4.66702 5.02006 4.57657 5.09815 4.50117C5.17623 4.42577 5.26879 4.36698 5.37023 4.32835C5.47168 4.28972 5.5799 4.27205 5.68836 4.27641V4.28313ZM6.50835 9.1863V11.5388C6.50835 11.7169 6.50835 11.7169 6.32688 11.7169C5.88999 11.7169 5.45143 11.7169 5.01455 11.7169C4.91541 11.7169 4.88852 11.6866 4.88852 11.5892C4.88852 10.749 4.88852 9.90884 4.88852 9.0586C4.88852 8.20836 4.88852 7.37828 4.88852 6.53812C4.88852 6.43394 4.90869 6.39697 5.02127 6.39865C5.46935 6.40762 5.92136 6.40762 6.37729 6.39865C6.48987 6.39865 6.51003 6.4373 6.51003 6.53812C6.50667 7.42197 6.50835 8.30414 6.50835 9.1863ZM12.7255 11.7169C12.2774 11.7169 11.8254 11.7169 11.3695 11.7169C11.2721 11.7169 11.2435 11.6866 11.2435 11.5908C11.2435 10.6398 11.2519 9.6904 11.2435 8.7343C11.2384 8.52701 11.201 8.32178 11.1326 8.12602C11.0843 7.97888 10.9892 7.85158 10.8617 7.76359C10.7343 7.6756 10.5816 7.63174 10.4269 7.63873C10.1389 7.63282 9.8577 7.72611 9.63038 7.90294C9.40307 8.07978 9.24347 8.32941 9.17838 8.60995C9.16152 8.71097 9.15477 8.81342 9.15821 8.91577C9.15821 9.79122 9.15821 10.6667 9.15821 11.5438C9.15821 11.7118 9.15821 11.7118 8.99018 11.7118C8.54826 11.7118 8.10633 11.7118 7.66441 11.7118C7.57031 11.7118 7.53839 11.6883 7.53839 11.5875C7.53839 9.88924 7.53839 8.19044 7.53839 6.49107C7.53839 6.39529 7.57031 6.37345 7.65937 6.37513C8.1181 6.37513 8.5785 6.37513 9.03723 6.37513C9.14141 6.37513 9.16326 6.4121 9.15989 6.50451C9.15989 6.68599 9.15989 6.86746 9.15989 7.07918C9.54511 6.60989 10.0976 6.30864 10.7007 6.23902C11.0774 6.17124 11.4655 6.21204 11.8198 6.35665C12.3055 6.57845 12.5575 6.98341 12.7054 7.4707C12.8183 7.88607 12.8699 8.31575 12.8583 8.74606C12.8583 9.69264 12.8583 10.6392 12.8583 11.5858C12.8566 11.6866 12.8297 11.7185 12.7272 11.7169H12.7255Z" fill="white"/>
</svg>
