<svg width="16" height="16" viewBox="0 0 16 16" fill="none" xmlns="http://www.w3.org/2000/svg">
<path fill-rule="evenodd" clip-rule="evenodd" d="M8.02917 15.6863C12.3608 15.6863 15.8723 12.1748 15.8723 7.84314C15.8723 3.51149 12.3608 0 8.02917 0C3.69753 0 0.186035 3.51149 0.186035 7.84314C0.186035 12.1748 3.69753 15.6863 8.02917 15.6863ZM11.3918 4.59474C11.8718 4.44705 12.3254 4.22123 12.7351 3.92598C12.59 4.53473 12.2819 5.09019 11.8452 5.53013C11.8676 5.64972 11.8791 5.77117 11.8795 5.89292C11.8795 10.9195 7.17357 13.105 3.3233 10.9195C4.38733 10.9628 5.4369 10.6564 6.31796 10.0453C2.46769 8.29696 4.17892 4.36308 4.17892 4.36308C4.61114 4.9919 5.18886 5.50175 5.86063 5.84722C6.53241 6.19269 7.27737 6.36305 8.02919 6.34313V5.90603C8.02392 5.50492 8.13936 5.11184 8.35987 4.77995C8.58039 4.44805 8.89535 4.19336 9.26216 4.05031C9.62897 3.90727 10.0299 3.88278 10.4108 3.98015C10.7917 4.07752 11.1341 4.29205 11.3918 4.59474Z" fill="white"/>
</svg>
