<svg width="14" height="14" viewBox="0 0 14 14" fill="none" xmlns="http://www.w3.org/2000/svg">
<mask id="mask0_73_525" style="mask-type:luminance" maskUnits="userSpaceOnUse" x="0" y="0" width="14" height="14">
<path fill-rule="evenodd" clip-rule="evenodd" d="M0.560303 0.5H13.3085V13.2482H0.560303V0.5Z" fill="white"/>
</mask>
<g mask="url(#mask0_73_525)">
<path fill-rule="evenodd" clip-rule="evenodd" d="M4.27725 1.72081C2.88925 1.72081 1.76013 2.85005 1.76013 4.23792V9.10978C1.76013 10.4978 2.88925 11.627 4.27725 11.627H9.14923C10.5371 11.627 11.6663 10.4978 11.6663 9.10978V4.23792C11.6663 2.85005 10.5371 1.72081 9.14923 1.72081H4.27725ZM9.14946 13.0479H4.27748C2.10604 13.0479 0.339355 11.2814 0.339355 9.10969V4.23784C0.339355 2.06639 2.10604 0.299713 4.27748 0.299713H9.14946C11.3209 0.299713 13.0876 2.06639 13.0876 4.23784V9.10969C13.0876 11.2814 11.3209 13.0479 9.14946 13.0479Z" fill="white"/>
</g>
<path fill-rule="evenodd" clip-rule="evenodd" d="M6.764 4.61908C5.65888 4.61908 4.75979 5.51814 4.75979 6.62321C4.75979 7.72841 5.65888 8.62746 6.764 8.62746C7.86911 8.62746 8.7682 7.72841 8.7682 6.62321C8.7682 5.51814 7.86911 4.61908 6.764 4.61908ZM6.76373 9.92252C4.9445 9.92252 3.4646 8.44242 3.4646 6.62326C3.4646 4.80423 4.9445 3.32413 6.76373 3.32413C8.58297 3.32413 10.063 4.80423 10.063 6.62326C10.063 8.44242 8.58297 9.92252 6.76373 9.92252Z" fill="white"/>
<path fill-rule="evenodd" clip-rule="evenodd" d="M11.1048 3.4977C11.1048 3.78538 10.8716 4.01863 10.5839 4.01863C10.2962 4.01863 10.063 3.78538 10.063 3.4977C10.063 3.21002 10.2962 2.97678 10.5839 2.97678C10.8716 2.97678 11.1048 3.21002 11.1048 3.4977Z" fill="white"/>
</svg>
