<svg width="38" height="7" viewBox="0 0 38 7" fill="none" xmlns="http://www.w3.org/2000/svg">
<g clip-path="url(#clip0_75_1140)">
<path d="M25.7979 7L25.7979 0L-2.28882e-05 -1.12766e-06L-2.31942e-05 7L25.7979 7Z" fill="#CE2827"/>
<path d="M38 3.49689C38 2.56946 37.6273 1.68001 36.9638 1.02422C36.3004 0.368425 35.4006 3.9069e-06 34.4623 3.86588e-06C33.9848 -0.0199218 33.5081 0.055849 33.0609 0.222758C32.6137 0.389667 32.2054 0.644264 31.8603 0.971233C31.5153 1.2982 31.2407 1.69078 31.0531 2.12536C30.8656 2.55994 30.7689 3.02753 30.7689 3.5C30.7689 3.97248 30.8656 4.44007 31.0531 4.87465C31.2407 5.30922 31.5153 5.70181 31.8603 6.02878C32.2054 6.35574 32.6137 6.61034 33.0609 6.77725C33.5081 6.94416 33.9848 7.01993 34.4623 7C35.4012 6.99835 36.301 6.62855 36.9642 5.97176C37.6275 5.31498 38 4.42489 38 3.49689Z" fill="#CE2827"/>
</g>
<defs>
<clipPath id="clip0_75_1140">
<rect width="7" height="38" fill="white" transform="translate(38) rotate(90)"/>
</clipPath>
</defs>
</svg>
