<svg width="160" height="73" viewBox="0 0 160 73" fill="none" xmlns="http://www.w3.org/2000/svg">
<g clip-path="url(#clip0_73_134)">
<path d="M33.4854 0.0904355C33.6684 0.0904355 33.8293 0.0904355 33.9921 0.0904355H45.8228C47.2969 0.0664782 48.7675 0.238818 50.196 0.602911C50.7327 0.746526 51.2587 0.927163 51.7704 1.14352C52.779 1.54563 53.6809 2.17561 54.4054 2.98414C55.1299 3.79266 55.6573 4.75781 55.9465 5.80404C56.4426 7.42172 56.5798 9.12807 56.3486 10.8042C56.047 12.9204 55.0135 14.6066 53.1919 15.7762L52.9225 15.9511C52.9124 16.0877 53.0029 16.1018 53.0753 16.1319C55.3091 17.0604 56.5819 18.7847 57.1529 21.0778C57.3622 21.9372 57.4582 22.8202 57.4384 23.7045C57.4384 24.9327 57.2776 26.1556 56.9599 27.3421C56.2622 29.8241 54.7481 31.6067 52.3937 32.6678C52.1698 32.7683 51.9426 32.8607 51.712 32.9451C50.7105 33.3033 49.6718 33.548 48.6156 33.6747C47.5435 33.8036 46.4643 33.8633 45.3845 33.8535C41.7023 33.8535 38.0201 33.8535 34.338 33.8535H33.7126L33.4452 33.5521C33.399 32.6558 33.4231 0.552669 33.4854 0.0904355ZM40.6876 27.734C40.8103 27.744 40.9048 27.7581 41.0013 27.7581C42.5535 27.7581 44.1077 27.7701 45.662 27.7581C46.2349 27.7622 46.8052 27.6788 47.3529 27.5109C47.8667 27.3638 48.3352 27.09 48.7154 26.7146C49.0955 26.3392 49.3751 25.8742 49.5285 25.3625C49.647 24.9887 49.7298 24.6044 49.7758 24.215C49.8823 23.4014 49.8179 22.5746 49.5868 21.7872C49.4419 21.2385 49.1542 20.7378 48.753 20.3361C48.3519 19.9344 47.8515 19.646 47.3027 19.5002C46.8285 19.3617 46.3369 19.292 45.8429 19.2932C44.2344 19.2932 42.6185 19.2932 40.9952 19.2932C40.8844 19.301 40.7742 19.3164 40.6655 19.3394C40.6499 19.4103 40.6392 19.4821 40.6333 19.5545C40.6333 22.2193 40.6333 24.8842 40.6333 27.5491C40.6456 27.6123 40.6638 27.6742 40.6876 27.734ZM40.6876 13.4188C40.8083 13.4309 40.9188 13.449 41.0294 13.451C42.5012 13.451 43.973 13.451 45.4428 13.451C45.7374 13.4477 46.031 13.4161 46.3195 13.3565C47.5399 13.1154 48.3301 12.3939 48.6558 11.188C48.907 10.2664 48.9029 9.29389 48.6438 8.37445C48.3241 7.2048 47.548 6.50744 46.3677 6.26828C46.0473 6.20373 45.7214 6.17008 45.3946 6.16779C43.9569 6.15574 42.5173 6.16779 41.0777 6.16779C40.951 6.16779 40.8243 6.18789 40.7017 6.19794C40.6764 6.24813 40.6582 6.30155 40.6474 6.35671C40.6474 8.64375 40.6474 10.9315 40.6474 13.2199C40.6517 13.2897 40.6625 13.359 40.6796 13.4269L40.6876 13.4188Z" fill="#CE2827"/>
<path d="M101.94 19.7574C102.151 20.3825 102.431 20.9633 102.672 21.538C102.914 22.1128 103.171 22.7117 103.42 23.2986C103.67 23.8854 103.905 24.4441 104.148 25.0148L104.898 26.7753L105.646 28.5359L106.392 30.2964C106.635 30.8691 106.887 31.4359 107.122 32.0106C107.357 32.5854 107.647 33.1662 107.838 33.747C107.827 33.7724 107.813 33.7966 107.797 33.8194C107.784 33.8288 107.768 33.8337 107.751 33.8334L100.143 33.8475H99.5397C99.4673 33.6686 99.3989 33.5059 99.3386 33.3391L95.2067 21.8475C95.1303 21.6345 95.0458 21.4235 94.9735 21.2306C94.5211 21.1642 92.0278 21.1381 90.6224 21.1823C90.5279 21.1823 90.4354 21.2044 90.3107 21.2185C90.3007 21.3994 90.2866 21.5581 90.2846 21.7169C90.2846 22.8303 90.2846 23.9417 90.2846 25.055V33.2024C90.2846 33.4034 90.2846 33.5883 90.2725 33.8053C90.1702 33.8246 90.0668 33.838 89.9629 33.8455H83.4162C83.3378 33.8455 83.2574 33.8334 83.1508 33.8234C83.1297 33.7292 83.1136 33.6339 83.1025 33.538C83.1025 33.3913 83.1025 33.2426 83.1025 33.0959V0.146709C83.201 0.119668 83.3011 0.0988602 83.4021 0.0844077C83.5147 0.0844077 83.6293 0.0844077 83.7439 0.0844077H94.7905C96.2308 0.0715982 97.6685 0.211724 99.0792 0.502427C99.9797 0.688427 100.857 0.974932 101.693 1.35655C102.752 1.8265 103.695 2.52339 104.454 3.39788C105.214 4.27237 105.772 5.30307 106.088 6.417C106.354 7.31101 106.523 8.23054 106.595 9.16025C106.684 10.2515 106.674 11.3486 106.565 12.4381C106.481 13.468 106.258 14.482 105.903 15.4527C105.285 17.1673 104.061 18.5969 102.461 19.4721L101.94 19.7574ZM90.3288 6.66017C90.3039 6.71105 90.2863 6.76517 90.2766 6.82095C90.2766 9.36658 90.2766 11.9169 90.2766 14.4719C90.2836 14.5181 90.2978 14.5628 90.3188 14.6046C90.4691 14.6753 90.6377 14.6978 90.8013 14.6689C92.2892 14.6689 93.7771 14.6689 95.265 14.6689C95.4941 14.6709 95.723 14.6588 95.9506 14.6327C97.4707 14.4478 98.3634 13.6278 98.669 12.2753C98.856 11.4104 98.8921 10.5197 98.7756 9.64258C98.7352 9.28582 98.6577 8.93423 98.5444 8.59351C98.4169 8.17602 98.1878 7.79665 97.8776 7.4894C97.5674 7.18215 97.1858 6.95662 96.767 6.83301C96.312 6.68822 95.8369 6.61698 95.3595 6.62199H90.7048C90.5782 6.63204 90.4515 6.65013 90.3288 6.66017Z" fill="#CE2827"/>
<path d="M80.6697 0.120586C80.732 0.522527 80.7481 5.93266 80.6898 6.55165C80.607 6.58287 80.5215 6.60642 80.4344 6.62199C80.2876 6.63405 80.1388 6.62199 79.9921 6.62199H67.0796C66.8786 6.62199 66.6614 6.62199 66.4282 6.63405C66.4063 6.75231 66.3916 6.87176 66.3839 6.99178C66.3839 8.92378 66.3839 10.8544 66.3839 12.7838C66.3839 12.8943 66.4 13.0048 66.4081 13.1254C66.5854 13.1806 66.7724 13.1984 66.957 13.1777H78.7394C78.9405 13.1777 79.1275 13.1877 79.2924 13.1917C79.3418 13.2545 79.377 13.3273 79.3954 13.405C79.4138 13.4828 79.415 13.5636 79.3989 13.6419C79.3989 14.3131 79.3989 14.9844 79.3989 15.6516C79.3989 16.763 79.3989 17.8764 79.3989 18.9877C79.3989 19.1666 79.3889 19.3455 79.3828 19.5404C79.2836 19.5657 79.1829 19.5845 79.0812 19.5967C78.9345 19.5967 78.7877 19.5967 78.6409 19.5967H66.4483C66.418 19.6937 66.3965 19.7932 66.3839 19.8941C66.3839 20.296 66.3839 20.6799 66.3839 21.0718V27.2215C66.4829 27.2499 66.5836 27.2714 66.6855 27.2858C66.8484 27.2858 67.0133 27.2858 67.1761 27.2858H80.0846C80.2668 27.277 80.4493 27.2925 80.6274 27.332C80.6477 27.3521 80.6666 27.3736 80.6837 27.3964C80.6923 27.4096 80.6971 27.4248 80.6978 27.4406C80.6978 29.4864 80.7025 31.5317 80.7119 33.5762C80.7075 33.649 80.6988 33.7215 80.6857 33.7933C80.5959 33.818 80.5046 33.8368 80.4123 33.8495C80.2997 33.8596 80.1851 33.8495 80.0705 33.8495H59.2582C59.229 33.7644 59.2068 33.677 59.1918 33.5883C59.1818 33.4416 59.1918 33.2948 59.1918 33.1481C59.1918 22.3506 59.1918 11.5525 59.1918 0.753644C59.1565 0.537498 59.178 0.31589 59.2542 0.110537C59.3627 0.100489 59.4753 0.084411 59.5879 0.0803916C62.8733 0.0201003 80.1147 0.0522557 80.6697 0.120586Z" fill="#CE2827"/>
<path d="M139.54 0.0803919C140.083 1.2621 140.573 2.43778 141.084 3.60341C141.595 4.76904 142.101 5.94271 142.61 7.11236C143.119 8.28201 143.615 9.42353 144.114 10.5771C144.613 11.7307 145.119 12.9124 145.652 14.1001C145.768 14.019 145.852 13.8994 145.889 13.7625C146.543 12.2632 147.196 10.764 147.846 9.26476L151.604 0.625023C151.674 0.460227 151.752 0.29945 151.837 0.120586C151.947 0.102027 152.059 0.0892815 152.171 0.0824017H159.634C159.743 0.0824017 159.851 0.102499 160.002 0.116567C159.91 0.317538 159.839 0.476305 159.759 0.631052L155.466 8.90904C153.493 12.7128 151.518 16.5165 149.543 20.3202C149.389 20.607 149.31 20.9275 149.311 21.2527C149.32 25.2145 149.32 29.1749 149.311 33.1341C149.311 33.335 149.311 33.5561 149.311 33.737C149.124 33.8897 148.937 33.8335 148.765 33.8335C147.208 33.8335 145.654 33.8335 144.1 33.8335H142.119C142.094 33.7336 142.074 33.6322 142.061 33.53C142.061 33.3833 142.061 33.2346 142.061 33.0878C142.061 29.1448 142.061 25.2011 142.061 21.2567C142.066 20.8988 141.978 20.5457 141.806 20.2317C138.342 13.7109 134.882 7.18203 131.425 0.64512C131.342 0.490373 131.266 0.329596 131.173 0.142693C131.348 0.078742 131.536 0.0580551 131.72 0.0824017H139.54V0.0803919Z" fill="#CE2827"/>
<path d="M115.058 6.6863C114.871 6.61758 114.67 6.59618 114.473 6.624H107.598C107.396 6.6449 107.191 6.62717 106.995 6.57175C106.975 6.47975 106.961 6.38638 106.955 6.2924C106.955 4.34566 106.955 2.39825 106.955 0.450177C106.955 0.355721 106.969 0.259255 106.979 0.138672C107.072 0.115182 107.167 0.0977288 107.262 0.0864197C107.393 0.0864197 107.524 0.0864197 107.655 0.0864197H129.748C129.949 0.0692397 130.152 0.0787 130.351 0.114556C130.371 0.132979 130.389 0.153158 130.405 0.174847C130.414 0.187933 130.419 0.203279 130.419 0.21906C130.419 2.24619 130.424 4.27465 130.433 6.30446C130.431 6.38314 130.424 6.46164 130.413 6.53959C130.269 6.62548 130.098 6.65618 129.933 6.62601H122.865C122.681 6.60284 122.493 6.62349 122.318 6.6863C122.275 7.20495 122.263 7.72578 122.284 8.24584C122.284 8.78444 122.284 9.32505 122.284 9.86566V33.735C122.139 33.8897 121.982 33.8455 121.842 33.8455C120.826 33.8455 119.813 33.8455 118.798 33.8455C117.75 33.8455 116.702 33.8455 115.657 33.8455C115.496 33.8455 115.335 33.8314 115.156 33.8234C115.138 33.7385 115.125 33.6526 115.116 33.5662C115.116 33.3853 115.116 33.2064 115.116 33.0255C115.116 24.4508 115.116 15.876 115.116 7.30127C115.142 7.09449 115.122 6.88455 115.058 6.6863Z" fill="#CE2827"/>
<path d="M21.132 27.318C21.132 29.4583 21.132 31.5384 21.132 33.6124C21.1241 33.6803 21.1106 33.7475 21.0918 33.8133C20.9853 33.8234 20.8908 33.8375 20.7963 33.8415C18.1703 33.9038 0.890765 33.8696 0.345877 33.7953C0.327654 33.7076 0.31423 33.6191 0.305664 33.53C0.305664 33.3833 0.305664 33.2366 0.305664 33.0878V0.20097C0.36609 0.148485 0.437727 0.110514 0.515095 0.0899622C0.592462 0.0694103 0.673508 0.0668226 0.75203 0.082397C1.61862 0.082397 2.48723 0.082397 3.35382 0.082397C4.53206 0.082397 5.71031 0.082397 6.88855 0.082397C7.07359 0.0627876 7.26067 0.0791665 7.43947 0.13063C7.43947 0.229106 7.4636 0.331601 7.46561 0.416009C7.46561 0.580805 7.46561 0.743591 7.46561 0.906378V27.2336C7.56499 27.2633 7.66649 27.2855 7.76922 27.2999C7.916 27.2999 8.06278 27.2999 8.20955 27.2999H20.4846C20.6837 27.3019 20.8767 27.3119 21.132 27.318Z" fill="#CE2827"/>
<path d="M30.5359 33.7932C30.488 33.8156 30.4373 33.8311 30.3851 33.8395C28.3878 33.8395 26.3919 33.8395 24.3974 33.8395C24.3293 33.8322 24.262 33.8188 24.1963 33.7993C24.166 33.7226 24.1431 33.6432 24.1279 33.5621C24.1279 33.4154 24.1279 33.2687 24.1279 33.122C24.1279 25.4195 24.1279 17.7156 24.1279 10.0104C24.1279 9.80939 24.14 9.59033 24.146 9.35921C24.2322 9.34087 24.3196 9.32812 24.4074 9.32103H30.2966C30.361 9.32103 30.4233 9.33309 30.5158 9.34113C30.5441 9.42844 30.5656 9.5178 30.5801 9.60842C30.5922 9.73905 30.5801 9.86968 30.5801 10.0104C30.5801 17.729 30.5801 25.4483 30.5801 33.1682C30.6037 33.3775 30.5887 33.5894 30.5359 33.7932Z" fill="#CE2827"/>
<path d="M27.4574 49.3363C27.4803 50.4644 27.3642 51.5909 27.1116 52.6905C26.9986 53.1513 26.8383 53.5992 26.6331 54.027C26.3674 54.602 25.9769 55.1107 25.49 55.516C25.0031 55.9213 24.432 56.2132 23.8182 56.3703C22.502 56.7358 21.1104 56.731 19.7968 56.3563C19.2014 56.1984 18.6477 55.9123 18.1746 55.5179C17.7015 55.1235 17.3205 54.6304 17.0583 54.0732C16.7419 53.426 16.5243 52.735 16.4129 52.0233C16.1818 50.5522 16.1392 49.0577 16.2862 47.5758C16.3482 46.8433 16.4919 46.12 16.7145 45.4194C16.8803 44.8881 17.1249 44.3848 17.4403 43.9262C18.0876 43.004 19.0721 42.3737 20.1809 42.1717C21.3523 41.9156 22.5673 41.9355 23.7297 42.23C24.3612 42.3797 24.9505 42.6707 25.4531 43.0811C25.9557 43.4916 26.3585 44.0107 26.6311 44.5995C26.9772 45.3407 27.2058 46.1313 27.3087 46.9428C27.4163 47.736 27.466 48.5359 27.4574 49.3363ZM24.4093 49.1796C24.3992 48.8701 24.3912 48.4139 24.3651 47.9557C24.3486 47.7118 24.3191 47.4689 24.2766 47.2282C24.2108 46.7086 24.0493 46.2057 23.8001 45.745C23.6474 45.4632 23.4256 45.2248 23.1555 45.0522C22.8854 44.8796 22.5758 44.7785 22.2559 44.7582C21.9955 44.7381 21.7341 44.7381 21.4737 44.7582C21.1295 44.7711 20.7951 44.8767 20.506 45.0638C20.2168 45.251 19.9836 45.5127 19.831 45.8214C19.6484 46.1685 19.5215 46.5422 19.455 46.9287C19.2052 48.3801 19.1821 49.8615 19.3867 51.3199C19.4419 51.758 19.5583 52.1863 19.7325 52.5921C19.8672 52.9455 20.0995 53.2534 20.4024 53.48C20.7053 53.7066 21.0664 53.8426 21.4436 53.8722C21.7035 53.9014 21.9658 53.9014 22.2257 53.8722C22.6037 53.8445 22.9658 53.7095 23.2697 53.483C23.5735 53.2566 23.8063 52.9482 23.9408 52.5941C24.0393 52.3524 24.1199 52.1039 24.1821 51.8505C24.3932 51.0285 24.3972 50.1764 24.4093 49.1796Z" fill="black"/>
<path d="M89.1466 53.7115V50.9521C89.037 50.9234 88.9255 50.9032 88.8128 50.8919C88.4107 50.8919 87.9945 50.8919 87.5863 50.8919C87.4596 50.8919 87.333 50.8677 87.2163 50.8557C87.1356 49.9937 87.1282 49.1264 87.1942 48.2632C87.264 48.2398 87.3362 48.2243 87.4094 48.2169C88.9294 48.2169 90.4508 48.2169 91.9735 48.2169C92.0165 48.2217 92.0589 48.2305 92.1002 48.2431C92.1257 48.3268 92.1458 48.412 92.1605 48.4983C92.1666 48.6128 92.1666 48.7275 92.1605 48.842V55.1243C92.1605 55.3032 92.1605 55.48 92.1485 55.6488C91.9061 55.8291 91.6339 55.9652 91.3442 56.0508C90.6666 56.295 89.9617 56.4557 89.2451 56.5291C88.6119 56.6118 87.9732 56.6434 87.335 56.6235C86.5984 56.6071 85.8682 56.4832 85.1675 56.2558C84.0663 55.8921 83.1494 55.1154 82.6099 54.0893C82.2098 53.3194 81.9472 52.4856 81.8338 51.6254C81.6469 50.3125 81.6186 48.9819 81.7494 47.6623C81.8143 46.8462 81.9909 46.0428 82.2741 45.2747C82.9537 43.466 84.2687 42.4491 86.1467 42.1275C87.2325 41.9691 88.3344 41.9543 89.424 42.0833C90.0442 42.1342 90.6574 42.2494 91.2537 42.427C91.4548 42.4873 91.6458 42.5697 91.8248 42.6279C91.9052 43.5896 91.9052 44.5563 91.8248 45.5179C91.7021 45.4817 91.5774 45.4556 91.4588 45.4114C90.525 45.0529 89.5388 44.8493 88.5393 44.8085C87.9997 44.7822 87.4589 44.8268 86.9308 44.9411C86.5112 45.0266 86.1212 45.2198 85.7989 45.5017C85.4767 45.7836 85.2335 46.1445 85.0931 46.5489C84.9311 46.9776 84.8296 47.4267 84.7915 47.8833C84.667 49.0067 84.6947 50.1417 84.8739 51.2576C84.9397 51.6114 85.0435 51.9571 85.1836 52.2886C85.5053 53.0563 86.1225 53.4944 86.9208 53.6592C87.5818 53.7961 88.2598 53.8313 88.9314 53.7637C89.0045 53.7526 89.0765 53.7352 89.1466 53.7115Z" fill="black"/>
<path d="M65.6097 42.3064C66.1385 42.23 70.401 42.2059 74.1188 42.2521C74.2474 42.2521 74.3741 42.2682 74.5209 42.2782C74.5769 42.7187 74.591 43.1635 74.5631 43.6067C74.5631 44.0448 74.5832 44.4849 74.549 44.9311C74.3798 45.0054 74.193 45.0305 74.0102 45.0034H70.3327C69.9064 45.0034 69.4802 45.0034 69.0559 45.0034C68.9272 45.0034 68.8006 45.0215 68.6538 45.0335C68.5533 45.4817 68.6096 45.9218 68.6035 46.3559C68.5854 46.792 68.5914 47.2288 68.6216 47.6643C68.801 47.7293 68.9935 47.75 69.1826 47.7245C70.6081 47.7245 72.0317 47.7245 73.4552 47.7245C73.6428 47.7038 73.8326 47.7195 74.0142 47.7708C74.0598 48.2053 74.0712 48.6428 74.0484 49.0791C74.0484 49.5011 74.0484 49.9232 74.0484 50.3251C73.8805 50.4236 73.6826 50.4578 73.4914 50.4216C72.0679 50.4216 70.6443 50.4216 69.2208 50.4216C69.0418 50.4216 68.8649 50.4216 68.6679 50.4316C68.6404 50.5304 68.6209 50.6312 68.6096 50.7331C68.6096 51.5852 68.6096 52.436 68.6096 53.2854C68.6194 53.3905 68.6375 53.4947 68.6638 53.5969C69.3294 53.609 69.9828 53.5969 70.6343 53.5969H72.5504C73.2019 53.5969 73.8533 53.5969 74.5289 53.5969C74.6254 54.0612 74.5691 54.5013 74.5792 54.9354C74.5892 55.3695 74.5792 55.8156 74.5792 56.2839C74.4646 56.3094 74.3484 56.3268 74.2313 56.3362C73.6282 56.3362 73.025 56.3362 72.4218 56.3362H65.6639C65.6386 56.2375 65.6185 56.1375 65.6036 56.0367C65.6036 55.9221 65.6036 55.8076 65.6036 55.693V42.9073C65.5996 42.7123 65.6056 42.5174 65.6097 42.3064Z" fill="black"/>
<path d="M107.916 50.4156C107.669 50.4156 107.492 50.4296 107.313 50.4296H103.044C102.862 50.404 102.677 50.4248 102.505 50.4899C102.489 50.5519 102.478 50.6151 102.471 50.6788C102.471 51.5952 102.471 52.511 102.471 53.4261C102.483 53.4847 102.503 53.5415 102.529 53.5949C102.909 53.6291 103.3 53.607 103.69 53.611C104.08 53.615 104.474 53.611 104.866 53.611H106.044C106.446 53.611 106.83 53.611 107.222 53.611C107.614 53.611 108 53.5929 108.366 53.6251C108.403 53.6894 108.429 53.7175 108.429 53.7436C108.437 54.4979 108.443 55.2502 108.447 56.0005C108.447 56.095 108.431 56.1915 108.423 56.2919C108.253 56.3626 108.067 56.3842 107.886 56.3542C106.414 56.3542 104.942 56.3542 103.462 56.3542H99.5275C99.5034 56.2337 99.4752 56.1432 99.4672 56.0528C99.4592 55.9623 99.4672 55.8237 99.4672 55.7091C99.4672 51.4405 99.4672 47.1719 99.4672 42.9033C99.445 42.7005 99.4642 42.4955 99.5235 42.3003C99.6268 42.278 99.7317 42.2633 99.8372 42.2561C100.296 42.2561 100.754 42.2561 101.212 42.2561H107.886C108.069 42.2234 108.257 42.2487 108.425 42.3285C108.438 42.4057 108.446 42.4835 108.451 42.5616C108.451 43.332 108.446 44.1004 108.437 44.8667C108.437 44.8949 108.409 44.923 108.382 44.9692C108.215 45.0136 108.04 45.0265 107.868 45.0074H103.058C102.871 44.9848 102.681 45.0047 102.503 45.0657C102.461 45.3524 102.449 45.6428 102.469 45.9319C102.469 46.2112 102.469 46.4886 102.469 46.7659V47.616C102.638 47.7808 102.811 47.7286 102.968 47.7286C104.423 47.7286 105.879 47.7286 107.335 47.7286C107.52 47.7079 107.708 47.7229 107.888 47.7728C107.976 48.2069 107.918 48.647 107.928 49.0831C107.938 49.5192 107.936 49.9312 107.916 50.4156Z" fill="black"/>
<path d="M8.99163 53.3537C9.04566 54.2585 9.04968 55.1656 9.00369 56.0709C8.91368 56.1261 8.82034 56.1758 8.72421 56.2196C8.11026 56.448 7.46449 56.5796 6.81006 56.6095C5.8134 56.689 4.81042 56.6062 3.84033 56.3643C3.13607 56.1973 2.48282 55.8621 1.93654 55.3875C1.39026 54.9128 0.967235 54.3129 0.703701 53.6391C0.409526 52.9107 0.214101 52.1463 0.122621 51.3661C-0.00487152 50.3268 -0.0351624 49.2779 0.0321414 48.233C0.0681085 47.4173 0.196265 46.6083 0.414166 45.8214C0.464433 45.6485 0.520731 45.4777 0.581051 45.3089C1.21642 43.5001 2.50726 42.4752 4.36712 42.1476C5.48211 41.9547 6.62198 41.9547 7.73698 42.1476C8.00902 42.1977 8.27764 42.2648 8.54124 42.3486C8.69023 42.3994 8.83653 42.4577 8.97956 42.5234C9.04496 43.4508 9.04496 44.3815 8.97956 45.3089C8.87066 45.291 8.76316 45.2655 8.65786 45.2325C7.6933 44.8662 6.65406 44.74 5.62981 44.8647C5.40207 44.8896 5.17721 44.936 4.95825 45.0034C4.65831 45.0895 4.37998 45.238 4.14157 45.4393C3.90315 45.6405 3.71004 45.8899 3.57492 46.171C3.40477 46.5077 3.28422 46.8671 3.21702 47.2382C2.95616 48.674 2.96913 50.1462 3.25522 51.5772C3.30971 51.8163 3.38645 52.0497 3.48444 52.2745C3.63126 52.6504 3.87481 52.9809 4.19045 53.2326C4.5061 53.4842 4.88263 53.648 5.28197 53.7074C6.3482 53.9085 7.44857 53.826 8.47288 53.4683C8.61161 53.4201 8.75236 53.3738 8.8931 53.3316C8.92527 53.3256 8.95946 53.3457 8.99163 53.3537Z" fill="black"/>
<path d="M34.7945 42.3044C35.6834 42.2345 36.5757 42.2177 37.4667 42.2541C37.5555 42.2658 37.6435 42.2833 37.73 42.3064C37.7502 42.9374 37.73 43.5564 37.73 44.1754C37.73 44.7944 37.73 45.4174 37.73 46.0404V49.8167C37.73 50.4377 37.73 51.0587 37.73 51.6797C37.73 52.3007 37.73 52.9176 37.7401 53.5386C37.9115 53.6154 38.1015 53.6406 38.287 53.611C39.791 53.611 41.303 53.611 42.8009 53.611H43.3599C43.3924 53.7048 43.4147 53.8018 43.4262 53.9004C43.4262 54.6199 43.4262 55.3393 43.4262 56.0588C43.4214 56.1403 43.412 56.2215 43.3981 56.302C43.2257 56.3641 43.0406 56.3828 42.8592 56.3563H34.8066C34.7804 56.2564 34.7603 56.1551 34.7462 56.0528C34.7462 55.9061 34.7462 55.7594 34.7462 55.6127C34.7462 51.3936 34.7462 47.1732 34.7462 42.9515C34.7232 42.7346 34.7395 42.5154 34.7945 42.3044Z" fill="black"/>
<path d="M50.2162 42.3044C51.1051 42.2346 51.9974 42.2178 52.8883 42.2541C52.9779 42.2656 53.0665 42.2831 53.1537 42.3064C53.1799 42.7887 53.1638 43.261 53.1658 43.7333C53.1678 44.2056 53.1658 44.6497 53.1658 45.1059V50.7492C53.1658 51.2074 53.1658 51.6656 53.1658 52.1218C53.1658 52.578 53.1497 53.0664 53.1799 53.5447C53.3512 53.6165 53.5391 53.6395 53.7228 53.611C55.2287 53.611 56.7387 53.611 58.2387 53.611H58.7956C58.8283 53.7055 58.8513 53.8032 58.864 53.9024C58.864 54.6219 58.864 55.3414 58.864 56.0608C58.8585 56.1477 58.8485 56.2343 58.8338 56.3201C58.7362 56.3382 58.6374 56.3503 58.5383 56.3563H50.4956C50.4152 56.3563 50.3348 56.3442 50.2282 56.3362C50.2033 56.2444 50.1845 56.1511 50.1719 56.0568C50.1619 55.9262 50.1719 55.7955 50.1719 55.6649C50.1719 51.4285 50.1719 47.1927 50.1719 42.9575C50.1476 42.7389 50.1626 42.5177 50.2162 42.3044Z" fill="black"/>
<path d="M31.2477 3.84256C31.2682 4.66739 31.0128 5.47546 30.5218 6.13874C30.0308 6.80202 29.3325 7.28258 28.5374 7.50425C25.6561 8.28201 23.2815 5.93869 23.756 3.16931C24.0073 1.71026 24.8337 0.687319 26.2392 0.211018C26.8131 0.0108492 27.427 -0.0475506 28.0284 0.0408027C28.6298 0.129156 29.201 0.361639 29.693 0.718411C30.1851 1.07518 30.5834 1.54565 30.8542 2.08967C31.1249 2.63368 31.2599 3.23509 31.2477 3.84256Z" fill="black"/>
<path d="M71.8067 66.9615L73.0312 66.6902C73.181 66.8347 73.2726 67.0292 73.2885 67.2368C73.3569 67.7875 73.4172 68.3401 73.4735 68.8928C73.5178 69.3148 73.5519 69.7369 73.5942 70.2011C73.6579 70.1743 73.7175 70.1384 73.7711 70.0946C74.2737 69.4914 74.7301 68.8512 75.1363 68.1794C75.2523 68.0289 75.3221 67.8481 75.3374 67.6589C75.2423 67.6084 75.1521 67.5492 75.068 67.482C74.9815 67.4109 74.9127 67.3208 74.8669 67.2187C74.8295 67.1258 74.8296 67.022 74.8671 66.9291C74.9046 66.8362 74.9766 66.7614 75.068 66.7203C75.1583 66.6806 75.2594 66.672 75.3551 66.6961C75.4509 66.7201 75.5359 66.7753 75.5968 66.853C75.6975 66.9839 75.7488 67.1462 75.7415 67.3112C75.7301 67.5899 75.6493 67.8614 75.5063 68.101C75.3875 68.3161 75.2573 68.5248 75.1162 68.726C74.2306 70.0039 73.2399 71.2059 72.1545 72.3194C71.9665 72.5256 71.736 72.6888 71.479 72.7977C71.4039 72.8303 71.3258 72.8552 71.2457 72.872C71.1729 72.8857 71.0976 72.8774 71.0295 72.848C70.9614 72.8187 70.9037 72.7696 70.8637 72.7072C70.8221 72.6552 70.7975 72.5916 70.7932 72.5251C70.7888 72.4586 70.805 72.3924 70.8396 72.3354C70.9114 72.2288 71.0028 72.1367 71.109 72.0641C71.1651 72.029 71.2322 72.0157 71.2974 72.0268C71.3627 72.0379 71.4216 72.0727 71.4629 72.1244C71.5272 72.1907 71.5835 72.2671 71.6639 72.3636C71.8107 72.251 71.9434 72.1626 72.0661 72.0541C72.1887 71.9456 72.3174 71.7968 72.4501 71.6743C72.6411 71.5234 72.7866 71.3226 72.8704 71.0942C72.9542 70.8657 72.9729 70.6185 72.9246 70.38C72.7939 69.5761 72.7718 68.7541 72.6974 67.9402C72.6776 67.7784 72.6446 67.6184 72.5989 67.4619C72.5805 67.3895 72.5408 67.3244 72.4848 67.2749C72.4289 67.2255 72.3593 67.194 72.2852 67.1846C72.048 67.1464 71.8047 67.1504 71.5654 67.0981C71.3994 67.0806 71.2319 67.084 71.0668 67.1082C71.0266 67.2067 70.9823 67.2931 70.9542 67.3835C70.6861 68.2571 70.418 69.132 70.1499 70.0082C70.1165 70.1171 70.0929 70.2287 70.0795 70.3418C70.0812 70.3649 70.0883 70.3873 70.1001 70.4072C70.112 70.4271 70.1284 70.4439 70.1479 70.4564C70.1684 70.4669 70.1912 70.4725 70.2142 70.4725C70.2373 70.4725 70.2601 70.4669 70.2806 70.4564C70.4073 70.3338 70.5259 70.1991 70.6465 70.0665C70.7008 70.0062 70.7511 69.9419 70.8094 69.8876C70.8239 69.8828 70.8393 69.8816 70.8544 69.884C70.8694 69.8865 70.8837 69.8925 70.8959 69.9017C70.9149 69.9259 70.9261 69.9554 70.928 69.9861C70.9336 70.001 70.9336 70.0174 70.928 70.0323C70.7591 70.3325 70.5239 70.5902 70.2404 70.786C70.1302 70.8566 70.0073 70.9051 69.8785 70.9286C69.8147 70.9465 69.7476 70.9487 69.6827 70.9353C69.6179 70.9218 69.5572 70.893 69.5058 70.8513C69.4544 70.8095 69.4138 70.7561 69.3873 70.6954C69.3609 70.6348 69.3493 70.5686 69.3537 70.5026C69.3576 70.3071 69.388 70.1131 69.4442 69.9258C69.6674 69.1561 69.9046 68.3904 70.1338 67.6247C70.1801 67.4699 70.2163 67.3132 70.2625 67.1323L69.6814 67.066C69.6814 67.0097 69.6633 66.9715 69.6814 66.9494C69.7037 66.9073 69.7389 66.8734 69.782 66.853C70.3609 66.6549 70.851 66.2583 71.1653 65.7335C71.2095 65.6666 71.2654 65.6081 71.3302 65.5607C71.3563 65.5406 71.4166 65.5607 71.4749 65.5708C71.4548 65.9727 71.2377 66.3184 71.2095 66.7002C71.6619 66.8087 71.6619 66.8087 71.8067 66.9615Z" fill="black"/>
<path d="M3.24308 64.6905C3.27927 64.5539 3.38784 64.5739 3.48033 64.5739C4.25042 64.5739 5.01849 64.5739 5.78656 64.5739C6.03082 64.5891 6.27351 64.6233 6.5124 64.6764C6.60868 64.6965 6.70195 64.7289 6.78988 64.7729C6.95699 64.8431 7.10841 64.9459 7.23529 65.0754C7.36216 65.2048 7.46194 65.3582 7.52878 65.5266C7.59562 65.695 7.62818 65.8751 7.62456 66.0563C7.62093 66.2374 7.5812 66.416 7.50768 66.5816C7.34563 66.9806 7.0538 67.3134 6.67929 67.5262C6.14003 67.8433 5.51501 67.9839 4.89182 67.9281C4.61636 67.906 4.34291 67.8618 4.04131 67.8257C4.00223 67.8897 3.9686 67.9569 3.94078 68.0266C3.76183 68.6295 3.5869 69.2505 3.41197 69.8635C3.3979 69.9097 3.37779 69.9559 3.36774 70.0042C3.2853 70.4343 3.35366 70.5428 3.75982 70.6252C3.83421 70.6413 3.9086 70.6674 3.98501 70.6915C3.96289 70.7438 3.95284 70.796 3.93675 70.798C3.1727 70.8784 2.40664 70.8161 1.58228 70.8342C1.63857 70.7458 1.66471 70.6654 1.69286 70.6654C2.25987 70.6533 2.473 70.2795 2.60771 69.8052C2.84899 68.9571 3.10233 68.113 3.34562 67.2649C3.49441 66.7464 3.64119 66.2279 3.77992 65.7074C3.82452 65.5341 3.85412 65.3573 3.86839 65.1789C3.87679 65.1047 3.8577 65.0299 3.81473 64.9688C3.77175 64.9077 3.70787 64.8645 3.63516 64.8473C3.50245 64.799 3.33758 64.8292 3.24308 64.6905ZM4.14586 67.4498C4.42232 67.591 4.73402 67.6482 5.04261 67.6146C5.93736 67.5604 6.56267 67.0238 6.66723 66.037C6.72151 65.5145 6.46616 64.996 5.75238 64.9417C5.52718 64.9256 5.29797 64.9417 5.07076 64.9558C4.98863 64.953 4.90834 64.9805 4.84527 65.0332C4.7822 65.0858 4.74079 65.1599 4.72895 65.2412C4.53995 65.9305 4.33889 66.6198 4.14586 67.3092C4.13982 67.3559 4.13982 67.4031 4.14586 67.4498Z" fill="black"/>
<path d="M42.2681 64.578C42.9034 64.578 43.5046 64.5518 44.1078 64.5981C44.1259 64.5981 44.144 64.6423 44.1641 64.6704C44.0917 64.8131 43.9409 64.7749 43.8263 64.799C43.7127 64.819 43.6065 64.8691 43.5188 64.944C43.4311 65.019 43.3651 65.116 43.3277 65.2251C43.2211 65.5165 43.1266 65.8119 43.0381 66.1094C42.7386 67.1142 42.447 68.1191 42.1474 69.1139C42.0876 69.3005 42.0157 69.4831 41.9323 69.6605C41.801 69.9613 41.602 70.2279 41.351 70.4394C41.0999 70.651 40.8035 70.8019 40.4846 70.8804C39.9938 71.0172 39.4762 71.0269 38.9806 70.9085C38.5296 70.803 38.1315 70.5391 37.8587 70.165C37.6463 69.8906 37.5317 69.5532 37.533 69.2063C37.5389 68.8798 37.5911 68.5557 37.6878 68.2437C37.911 67.474 38.1402 66.7083 38.3593 65.9385C38.4286 65.7045 38.4791 65.4652 38.5101 65.2231C38.5343 64.994 38.4498 64.9015 38.2226 64.8392C38.1442 64.8171 38.0618 64.8091 37.9834 64.791C37.9049 64.7729 37.8627 64.7508 37.8165 64.7347C37.7742 64.6242 37.8507 64.586 37.9009 64.586C38.7052 64.586 39.5094 64.586 40.3016 64.586C40.3117 64.586 40.3218 64.6041 40.3338 64.6162C40.368 64.6985 40.3177 64.7327 40.2494 64.7488C40.1539 64.7728 40.0573 64.7915 39.9598 64.8051C39.8289 64.8208 39.7055 64.8745 39.6048 64.9595C39.504 65.0445 39.4303 65.157 39.3928 65.2834C39.3084 65.5125 39.236 65.7476 39.1676 65.9828C38.9304 66.7866 38.6945 67.5852 38.4599 68.3783C38.3663 68.6741 38.3115 68.9808 38.297 69.2907C38.2872 69.496 38.3347 69.7 38.4341 69.8799C38.5335 70.0598 38.6809 70.2086 38.86 70.3097C39.2452 70.5298 39.6938 70.6125 40.1323 70.5442C40.5707 70.4759 40.9729 70.2607 41.2728 69.9338C41.4388 69.733 41.5743 69.5089 41.6749 69.2686C41.8639 68.8004 42.0308 68.32 42.1796 67.8377C42.3807 67.1665 42.5697 66.4892 42.7587 65.8139C42.8023 65.6564 42.8378 65.4968 42.8652 65.3356C42.9155 65.0281 42.8471 64.9176 42.5636 64.8211C42.4711 64.791 42.3787 64.7629 42.2882 64.7267C42.2781 64.7287 42.2821 64.6785 42.2681 64.578Z" fill="black"/>
<path d="M17.525 64.6986C17.8125 64.4574 18.0236 64.4132 19.0471 64.3288C19.1597 64.4694 19.0611 64.6081 19.025 64.7307C18.7274 65.7838 18.4218 66.8349 18.1181 67.886C18.0699 68.0548 18.0297 68.2276 17.9593 68.4889C18.086 68.3703 18.1443 68.3241 18.1905 68.2698C18.4197 67.9925 18.6309 67.699 18.8782 67.4398C19.0806 67.2275 19.3058 67.0381 19.5497 66.8751C19.7156 66.7713 19.9011 66.7028 20.0946 66.6741C20.1874 66.6515 20.2842 66.6523 20.3766 66.6763C20.469 66.7004 20.5539 66.747 20.6238 66.8119C20.6938 66.8768 20.7465 66.9581 20.7773 67.0483C20.8081 67.1386 20.816 67.2352 20.8004 67.3293C20.7747 67.5563 20.7249 67.78 20.6516 67.9965C20.4505 68.6657 20.2132 69.3309 19.9981 70.0062C19.9716 70.1081 19.9507 70.2114 19.9358 70.3157C19.9499 70.3337 19.9679 70.3482 19.9884 70.3582C20.009 70.3682 20.0316 70.3734 20.0544 70.3734C20.0773 70.3734 20.0998 70.3682 20.1204 70.3582C20.1409 70.3482 20.1589 70.3337 20.173 70.3157C20.2796 70.2152 20.3741 70.0986 20.4706 69.9921C20.5209 69.9379 20.5812 69.8936 20.6435 69.8374C20.6737 69.8977 20.7038 69.9338 20.6958 69.9499C20.5104 70.2773 20.2517 70.5573 19.9398 70.7679C19.8454 70.833 19.7397 70.88 19.6281 70.9065C19.5712 70.9269 19.5101 70.9328 19.4503 70.9238C19.3905 70.9148 19.3339 70.8911 19.2855 70.8549C19.2371 70.8187 19.1984 70.771 19.173 70.7162C19.1475 70.6614 19.136 70.6011 19.1396 70.5408C19.1569 70.3457 19.1974 70.1535 19.2602 69.968C19.4613 69.2988 19.6925 68.6316 19.9056 67.9583C19.9519 67.819 19.9882 67.6767 20.0142 67.5322C20.0265 67.488 20.0256 67.4412 20.0116 67.3975C19.9976 67.3539 19.9711 67.3152 19.9354 67.2864C19.8997 67.2575 19.8564 67.2398 19.8107 67.2352C19.7651 67.2307 19.7191 67.2396 19.6784 67.2609C19.5553 67.3037 19.4383 67.3625 19.3306 67.4358C19.2241 67.512 19.1245 67.5974 19.033 67.691C18.5152 68.2384 18.0706 68.8504 17.71 69.5118C17.6155 69.7046 17.5414 69.9066 17.4888 70.1147C17.4104 70.3438 17.342 70.5769 17.2676 70.8161C17.0476 70.87 16.8172 70.8645 16.6001 70.8C16.6303 70.6654 16.6544 70.5388 16.6886 70.4162L18.1181 65.422C18.1585 65.2973 18.192 65.1705 18.2187 65.0422C18.2288 65.006 18.231 64.9681 18.2251 64.931C18.2192 64.8939 18.2054 64.8585 18.1846 64.8272C18.1638 64.7959 18.1365 64.7695 18.1046 64.7497C18.0726 64.73 18.0368 64.7173 17.9995 64.7126C17.8419 64.6959 17.6833 64.6912 17.525 64.6986Z" fill="black"/>
<path d="M79.4048 70.7417C78.797 70.8641 78.1729 70.8824 77.559 70.796C77.5228 70.7136 77.5711 70.6714 77.6374 70.6553C77.9746 70.5702 78.2682 70.3633 78.4618 70.0745C78.9444 69.4381 79.4249 68.7977 79.9034 68.1532C80.7412 67.0265 81.5777 65.8977 82.4127 64.7669C82.4799 64.6744 82.5538 64.5871 82.6339 64.5056C82.6601 64.4795 82.7204 64.4916 82.7948 64.4815C82.8019 64.612 82.8019 64.7429 82.7948 64.8734C82.6849 65.9948 82.5723 67.1162 82.457 68.2377C82.4074 68.7401 82.3598 69.2438 82.3142 69.749C82.3047 69.8828 82.3047 70.0171 82.3142 70.1509C82.3047 70.2581 82.3352 70.3649 82.3998 70.451C82.4644 70.5371 82.5585 70.5962 82.6641 70.6171C82.7844 70.6519 82.9066 70.6801 83.03 70.7016C83.03 70.7438 83.03 70.7699 83.03 70.7739C82.845 70.8744 81.6004 70.9025 80.6755 70.8241C80.7117 70.7659 80.7338 70.6855 80.764 70.6835C81.4416 70.6111 81.4738 70.3036 81.5381 69.8012C81.5763 69.4957 81.5904 69.1862 81.6185 68.8506C81.5452 68.8238 81.4689 68.8056 81.3913 68.7964C80.9027 68.7964 80.4121 68.7964 79.8914 68.7964C79.5717 69.1815 79.2737 69.584 78.9986 70.0022C78.9632 70.0573 78.9368 70.1177 78.9202 70.181C78.8944 70.2509 78.8939 70.3276 78.9189 70.3978C78.9439 70.4679 78.9927 70.5271 79.057 70.5649C79.1314 70.6091 79.2359 70.6513 79.4048 70.7417ZM81.8558 66.1958C81.784 66.2409 81.7167 66.2927 81.6547 66.3505C81.1802 66.9936 80.707 67.6374 80.2352 68.2819C80.2211 68.302 80.2352 68.3422 80.2352 68.3743C80.7 68.4694 81.1798 68.4646 81.6427 68.3602C81.7311 67.6749 81.8055 66.9836 81.8558 66.1898V66.1958Z" fill="black"/>
<path d="M13.3045 64.6503C13.4211 64.5699 13.4553 64.5277 13.5055 64.5217C13.9358 64.4473 14.3681 64.377 14.7803 64.3107C14.8989 64.4473 14.8406 64.5559 14.8105 64.6604C14.478 65.822 14.1429 66.9829 13.8051 68.1432C13.7649 68.2799 13.7327 68.4185 13.6885 68.5813C14.207 68.2565 14.6803 67.8646 15.096 67.4157C15.1528 67.3726 15.1984 67.3165 15.2292 67.2522C15.26 67.1879 15.275 67.1171 15.2729 67.0459L14.7642 66.8972C14.8125 66.8469 14.8386 66.7947 14.8668 66.7947C15.486 66.7947 16.1053 66.7947 16.7246 66.7947C16.7246 66.7947 16.7447 66.8168 16.7789 66.855C16.7387 66.8891 16.7005 66.9534 16.6582 66.9575C16.1254 67.0077 15.7152 67.2991 15.3232 67.6287C15.1221 67.7955 14.9351 67.9724 14.7562 68.1311C14.8799 68.8475 15.0662 69.5515 15.3131 70.2353C15.3543 70.2996 15.4037 70.3584 15.4599 70.4101C15.6389 70.358 15.7976 70.252 15.9143 70.1067C16.0168 70.0082 16.0631 69.8072 16.3164 69.8836C16.0835 70.286 15.7494 70.6206 15.3473 70.8543C15.2894 70.8841 15.2279 70.9063 15.1643 70.9206C15.0776 70.9474 14.9842 70.9418 14.9013 70.9049C14.8184 70.8679 14.7518 70.8021 14.7139 70.7196C14.6489 70.591 14.5963 70.4564 14.5571 70.3177C14.4505 69.9419 14.356 69.562 14.2535 69.1822C14.2153 69.0415 14.1751 68.9008 14.1288 68.7361C13.7468 68.9551 13.4593 69.2023 13.3628 69.6444C13.2763 70.0464 13.1416 70.4242 13.025 70.8241C12.8863 70.8342 12.7737 70.8483 12.6631 70.8503C12.5525 70.8523 12.4741 70.8362 12.3394 70.8241C12.3856 70.6393 12.4198 70.4825 12.464 70.3298C12.9184 68.7461 13.3742 67.1618 13.8313 65.5768C13.8854 65.4053 13.9297 65.2308 13.964 65.0543C14.0022 64.8332 13.9097 64.7227 13.6785 64.6905C13.6302 64.6905 13.5799 64.6905 13.5317 64.6905C13.4834 64.6905 13.4432 64.6684 13.3045 64.6503Z" fill="black"/>
<path d="M89.1766 66.8087C89.1766 66.8871 89.1766 66.9675 89.1525 67.0097C89.1005 67.069 89.0294 67.1082 88.9514 67.1203C88.8001 67.1284 88.6484 67.1284 88.497 67.1203C88.4488 67.2449 88.4005 67.3453 88.3683 67.4498C88.1451 68.2196 87.936 68.9913 87.7028 69.757C87.5275 70.4048 87.2701 71.0275 86.9367 71.6099C86.793 71.8479 86.6309 72.0743 86.4522 72.2872C86.1936 72.59 85.8386 72.7944 85.4468 72.866C85.3343 72.8904 85.2176 72.8888 85.1057 72.8613C84.9939 72.8338 84.8898 72.7811 84.8014 72.7072C84.7498 72.6664 84.7096 72.6128 84.6849 72.5518C84.6602 72.4908 84.6519 72.4244 84.6606 72.3591C84.6693 72.2938 84.6948 72.232 84.7347 72.1796C84.7745 72.1272 84.8273 72.086 84.8879 72.0601C84.9461 72.0288 85.0127 72.0164 85.0783 72.0247C85.1439 72.033 85.2052 72.0615 85.2538 72.1063C85.2987 72.1426 85.3292 72.1937 85.3399 72.2504C85.3506 72.3071 85.3407 72.3657 85.3121 72.4158C85.2917 72.4701 85.2756 72.5259 85.2639 72.5826C85.322 72.6213 85.3902 72.6419 85.4599 72.6419C85.5297 72.6419 85.5979 72.6213 85.656 72.5826C85.8997 72.4778 86.0955 72.2857 86.2049 72.044C86.3201 71.8101 86.4169 71.5675 86.4944 71.3185C86.8704 70.0484 87.2343 68.7762 87.5983 67.5001C87.6237 67.3846 87.6432 67.2679 87.6566 67.1504L86.8402 67.0961L86.8624 66.8128C87.0132 66.7866 87.1539 66.7505 87.2967 66.7384C87.4217 66.7317 87.543 66.6929 87.6487 66.6256C87.7543 66.5584 87.8409 66.465 87.8999 66.3546C88.0185 66.1536 88.119 65.9526 88.2236 65.7516C88.3925 65.3961 88.6225 65.073 88.9032 64.797C89.1153 64.592 89.372 64.4386 89.6531 64.3489C90.1699 64.1881 90.4876 64.3187 90.7449 64.799C90.761 64.8272 90.7811 64.8513 90.8153 64.9035C90.8961 64.8714 90.9843 64.8624 91.0699 64.8777C91.1555 64.8929 91.2352 64.9318 91.2999 64.99C91.3793 65.0695 91.4333 65.171 91.4547 65.2814C91.4761 65.3956 91.4519 65.5136 91.3872 65.6101C91.3226 65.7067 91.2226 65.7741 91.1089 65.7979C90.8582 65.8648 90.6571 65.6954 90.5057 65.2894C90.4936 65.2794 90.4835 65.2633 90.4675 65.2593C90.003 65.1427 89.9909 65.1226 90.1377 64.6744C90.14 64.6463 90.14 64.6181 90.1377 64.59C90.0603 64.5569 89.9782 64.5359 89.8944 64.5277C89.8037 64.5309 89.7147 64.5542 89.634 64.5959C89.5534 64.6376 89.483 64.6967 89.4279 64.7689C89.2916 64.9311 89.1724 65.1068 89.0721 65.2934C88.8691 65.7528 88.6998 66.2264 88.5654 66.7103L89.1766 66.8087Z" fill="black"/>
<path d="M43.8584 67.0559C44.1942 66.8329 44.8899 66.7203 45.3564 66.7384C45.2699 67.3152 45.0246 67.8498 44.912 68.4929C45.0307 68.3703 45.1131 68.2919 45.1734 68.2236C45.4851 67.8679 45.7766 67.4981 46.1084 67.1544C46.3215 66.922 46.6032 66.7636 46.9126 66.7022C47.4676 66.5937 47.8033 66.9193 47.6988 67.48C47.6645 67.6559 47.6202 67.8297 47.5661 68.0005C47.365 68.6376 47.164 69.2747 46.9629 69.9117C46.9193 69.9872 46.8926 70.0711 46.8847 70.1579C46.8767 70.2446 46.8876 70.332 46.9166 70.4142C46.9882 70.4038 47.0567 70.3785 47.1177 70.3398C47.2243 70.2413 47.3188 70.1207 47.4113 70.0122C47.4635 69.9559 47.5219 69.9077 47.6123 69.8273C47.6284 69.9158 47.6586 69.972 47.6405 69.9981C47.4711 70.2791 47.2468 70.5231 46.981 70.7156C46.8505 70.8112 46.7021 70.8795 46.5447 70.9166C46.4892 70.9338 46.4304 70.9368 46.3735 70.9255C46.3166 70.9141 46.2634 70.8887 46.2188 70.8515C46.1743 70.8144 46.1397 70.7666 46.1183 70.7127C46.0969 70.6588 46.0893 70.6004 46.0963 70.5428C46.109 70.3473 46.1462 70.1542 46.2069 69.968C46.3778 69.4234 46.5668 68.8848 46.7437 68.3422C46.8201 68.109 46.8945 67.8759 46.9589 67.6388C46.9875 67.5796 46.9961 67.5127 46.9834 67.4481C46.9707 67.3836 46.9374 67.325 46.8885 67.281C46.7598 67.1805 46.6311 67.2448 46.5205 67.3051C46.359 67.3831 46.2099 67.4847 46.0782 67.6066C45.315 68.3259 44.7429 69.2238 44.4134 70.2192C44.3551 70.4061 44.2927 70.591 44.2324 70.7799C44.0158 70.8409 43.7879 70.8505 43.5669 70.8081C43.5775 70.7109 43.5929 70.6143 43.6131 70.5187C43.8605 69.6404 44.1138 68.7622 44.3631 67.8819C44.4033 67.7412 44.4456 67.6006 44.4757 67.4579C44.536 67.1805 44.4476 67.0801 44.148 67.068C44.0334 67.072 43.9469 67.064 43.8584 67.0559Z" fill="black"/>
<path d="M100.418 70.4443C100.748 70.4443 100.706 70.0203 100.971 69.964C100.993 70.0082 101.026 70.0424 101.02 70.0604C100.9 70.3476 100.698 70.5935 100.44 70.7679C100.373 70.8149 100.301 70.854 100.225 70.8844C99.8614 71.0311 99.596 70.8382 99.6221 70.4503C99.6221 70.3539 99.6623 70.2594 99.6784 70.1629C99.6945 70.0665 99.6965 70.0042 99.7126 69.8615C99.61 69.9278 99.5497 69.96 99.4974 70.0022C99.2341 70.2192 98.9827 70.4544 98.7052 70.6553C98.4664 70.8308 98.1792 70.9284 97.8829 70.9347C97.6518 70.944 97.4259 70.8647 97.2513 70.7131C97.0768 70.5614 96.9668 70.3488 96.9439 70.1187C96.9013 69.7794 96.9406 69.4349 97.0585 69.1139C97.3415 68.2689 97.9103 67.549 98.667 67.078C98.8758 66.9506 99.1002 66.8506 99.3346 66.7806C99.7528 66.658 100.139 66.7002 100.426 67.0921C100.444 67.1142 100.485 67.1202 100.525 67.1403C100.575 67.0459 100.625 66.9394 100.682 66.8469L101.345 66.7384C101.339 66.8276 101.327 66.9162 101.309 67.0037C101.05 67.9121 100.78 68.8124 100.529 69.7329C100.475 69.9519 100.362 70.181 100.418 70.4443ZM100.296 67.8679C100.284 67.683 100.284 67.6006 100.272 67.5202C100.27 67.4334 100.248 67.3482 100.209 67.2711C100.169 67.194 100.112 67.1271 100.042 67.0754C99.9725 67.0238 99.8918 66.9888 99.8064 66.9732C99.721 66.9577 99.6332 66.9619 99.5497 66.9856C99.4212 67.0045 99.298 67.0496 99.1878 67.1182C98.9949 67.2405 98.8179 67.3864 98.661 67.5523C98.243 68.0153 97.9448 68.5735 97.7924 69.1782C97.7395 69.3998 97.7206 69.6282 97.7361 69.8555C97.7411 69.9289 97.7609 70.0005 97.7942 70.0662C97.8274 70.1318 97.8736 70.1901 97.9299 70.2375C97.9862 70.2849 98.0514 70.3206 98.1217 70.3423C98.1921 70.364 98.2661 70.3714 98.3393 70.3639C98.6018 70.3409 98.8503 70.2354 99.0491 70.0625C99.5489 69.6859 99.9237 69.1677 100.125 68.5753C100.196 68.3431 100.253 68.1069 100.296 67.8679Z" fill="black"/>
<path d="M24.7934 70.4443C25.1232 70.4443 25.0789 70.0183 25.3484 69.964C25.3685 70.0102 25.4006 70.0444 25.3926 70.0625C25.2727 70.3491 25.0714 70.5944 24.8135 70.7679C24.7465 70.8149 24.6743 70.854 24.5984 70.8844C24.2344 71.0311 23.967 70.8362 23.9952 70.4503C24.0113 70.2735 24.0535 70.1007 24.0957 69.8474C23.9811 69.9238 23.9208 69.956 23.8685 70.0002C23.6313 70.2011 23.4081 70.4162 23.1608 70.6031C22.9274 70.7825 22.6492 70.8944 22.3565 70.9266C22.2306 70.9444 22.1024 70.9357 21.9801 70.9012C21.8578 70.8667 21.744 70.807 21.646 70.7261C21.548 70.6452 21.4679 70.5447 21.411 70.4312C21.354 70.3176 21.3213 70.1934 21.315 70.0665C21.2837 69.7398 21.3256 69.4103 21.4376 69.1018C21.7201 68.2571 22.2891 67.5377 23.0462 67.068C23.2549 66.9405 23.4793 66.8405 23.7137 66.7706C24.1339 66.648 24.518 66.6902 24.8075 67.0821C24.8236 67.1062 24.8638 67.1102 24.904 67.1303L25.0427 66.859C25.2626 66.7882 25.4914 66.7489 25.7223 66.7424C25.7155 66.8275 25.7034 66.9121 25.6861 66.9957C25.4268 67.904 25.1573 68.8044 24.906 69.7248C24.8477 69.9539 24.7311 70.183 24.7934 70.4443ZM24.6667 67.8317C24.6567 67.685 24.6567 67.6187 24.6486 67.5544C24.5883 67.1022 24.3028 66.9012 23.8444 67.0097C23.7326 67.0334 23.6262 67.0777 23.5307 67.1403C23.3535 67.2559 23.1897 67.3907 23.0421 67.5423C22.613 68.0165 22.3065 68.5885 22.1494 69.2083C22.1005 69.4149 22.0836 69.6277 22.0991 69.8394C22.102 69.9174 22.1213 69.9939 22.1556 70.0639C22.19 70.134 22.2387 70.1961 22.2986 70.2461C22.3585 70.2961 22.4283 70.333 22.5034 70.3543C22.5785 70.3757 22.6572 70.381 22.7345 70.37C22.9794 70.343 23.2109 70.2444 23.4 70.0866C23.9383 69.6828 24.3363 69.1205 24.5381 68.4788C24.598 68.2634 24.641 68.0437 24.6667 67.8216V67.8317Z" fill="black"/>
<path d="M33.2583 67.1243L33.395 66.8509C33.6177 66.784 33.8482 66.7468 34.0806 66.7404C34.0565 66.865 34.0465 66.9575 34.0223 67.0439C33.773 67.9221 33.5197 68.8004 33.2703 69.6786C33.2161 69.8675 33.1678 70.0584 33.1276 70.2494C33.1237 70.3133 33.1285 70.3776 33.1417 70.4403C33.4734 70.4403 33.4252 70.0062 33.7006 69.962C33.7207 70.0082 33.7489 70.0444 33.7408 70.0645C33.6048 70.3806 33.3708 70.6448 33.0733 70.8181C32.9963 70.8807 32.9024 70.919 32.8035 70.9279C32.7046 70.9369 32.6054 70.9161 32.5184 70.8684C32.4411 70.8071 32.3853 70.7229 32.359 70.6279C32.3326 70.533 32.337 70.4321 32.3716 70.3398C32.3997 70.1971 32.4218 70.0544 32.4601 69.8374C32.3434 69.9218 32.2831 69.958 32.2288 70.0042C31.9775 70.2051 31.7402 70.4363 31.4768 70.6292C31.2393 70.8066 30.9546 70.9101 30.6585 70.9266C30.5401 70.9368 30.4208 70.9236 30.3075 70.8877C30.1942 70.8518 30.089 70.794 29.9981 70.7174C29.9072 70.6409 29.8322 70.5472 29.7775 70.4418C29.7228 70.3363 29.6894 70.221 29.6793 70.1027C29.6392 69.763 29.6798 69.4188 29.7979 69.0978C30.0823 68.2552 30.6509 67.5376 31.4065 67.068C31.6015 66.9496 31.8101 66.8551 32.0278 66.7866C32.4641 66.65 32.8682 66.6861 33.1678 67.0901C33.1758 67.1102 33.2221 67.1243 33.2583 67.1243ZM33.019 67.8719C33.0069 67.7011 33.0049 67.6367 32.9989 67.5724C32.9486 67.0881 32.6531 66.8771 32.1846 66.9956C32.0736 67.0211 31.9685 67.0675 31.8749 67.1323C31.6989 67.2486 31.5358 67.3833 31.3884 67.5342C31.0094 67.9651 30.7245 68.4703 30.5519 69.0174C30.4661 69.2644 30.4312 69.5263 30.4494 69.7871C30.4499 69.8735 30.4699 69.9587 30.5077 70.0363C30.5456 70.1139 30.6004 70.1821 30.6682 70.2357C30.7359 70.2893 30.8148 70.3271 30.8991 70.3461C30.9834 70.3652 31.0709 70.3651 31.1551 70.3458C31.3808 70.3041 31.592 70.2052 31.7684 70.0584C32.2682 69.6832 32.6437 69.1665 32.8461 68.5753C32.917 68.3463 32.9747 68.1135 33.019 67.8779V67.8719Z" fill="black"/>
<path d="M87.5259 64.578C87.2806 64.4473 87.0836 64.5498 86.9006 64.7006C86.6885 64.8836 86.5271 65.1183 86.4322 65.3819C86.2693 65.8079 86.1225 66.24 85.9556 66.7083L86.583 66.8087C86.5568 66.9193 86.5367 67.0097 86.5126 67.1022L85.8893 67.1444C85.845 67.2609 85.7887 67.3775 85.7546 67.4981C85.5253 68.2819 85.3082 69.0697 85.0729 69.8514C84.9117 70.435 84.6809 70.9971 84.3853 71.5255C84.2372 71.7793 84.0706 72.0218 83.8867 72.251C83.6251 72.571 83.2593 72.7887 82.8532 72.866C82.741 72.891 82.6245 72.8897 82.5128 72.8622C82.4012 72.8346 82.2974 72.7816 82.2098 72.7072C82.1559 72.669 82.1132 72.617 82.0862 72.5567C82.0592 72.4964 82.0489 72.43 82.0563 72.3644C82.0637 72.2987 82.0885 72.2362 82.1282 72.1834C82.168 72.1306 82.2211 72.0894 82.2822 72.0641C82.3399 72.0329 82.4057 72.0198 82.471 72.0266C82.5363 72.0335 82.5981 72.0598 82.6481 72.1023C82.6936 72.138 82.7251 72.1887 82.7368 72.2453C82.7486 72.302 82.74 72.3609 82.7124 72.4118L82.63 72.6128C82.7197 72.627 82.8108 72.6311 82.9014 72.6248C83.0465 72.5943 83.1826 72.5309 83.2993 72.4397C83.4161 72.3484 83.5104 72.2316 83.575 72.0983C83.7005 71.8695 83.8023 71.6284 83.8786 71.3788C84.2808 70.0464 84.6547 68.7119 85.0368 67.3775C85.0505 67.3112 85.0592 67.2441 85.0629 67.1765C84.8035 67.06 84.5321 67.1765 84.2586 67.0801C84.2586 66.9936 84.2787 66.9072 84.2908 66.7947C84.4052 66.7727 84.5206 66.7566 84.6366 66.7464C84.7848 66.7423 84.9289 66.6973 85.0531 66.6164C85.1773 66.5356 85.2767 66.422 85.3404 66.2882C85.453 66.0873 85.5555 65.8863 85.658 65.6853C85.8242 65.3471 86.0488 65.041 86.3216 64.781C86.5712 64.5417 86.8823 64.3761 87.2203 64.3026C87.3567 64.2705 87.4992 64.2745 87.6336 64.3144C87.7679 64.3542 87.8896 64.4284 87.9864 64.5297C88.034 64.5749 88.0711 64.6301 88.0951 64.6912C88.1191 64.7523 88.1293 64.8179 88.1251 64.8834C88.1242 64.9326 88.1132 64.9809 88.0929 65.0257C88.0726 65.0704 88.0435 65.1106 88.0071 65.1437C87.9708 65.1767 87.9282 65.2021 87.8817 65.2182C87.8353 65.2343 87.7861 65.2407 87.7371 65.2372C87.6923 65.2375 87.6482 65.2273 87.6081 65.2074C87.568 65.1876 87.5332 65.1586 87.5064 65.1228C87.4796 65.087 87.4616 65.0455 87.4538 65.0014C87.446 64.9574 87.4487 64.9122 87.4616 64.8694C87.4616 64.8232 87.5058 64.7809 87.5179 64.7347C87.5253 64.6828 87.528 64.6304 87.5259 64.578Z" fill="black"/>
<path d="M7.77727 69.2968C7.81764 68.8964 7.94092 68.5088 8.13927 68.1587C8.33761 67.8086 8.60669 67.5035 8.92938 67.2629C9.323 66.938 9.8032 66.7354 10.3107 66.6801C10.5856 66.6462 10.8644 66.6908 11.115 66.8087C11.341 66.9092 11.5333 67.0725 11.6691 67.2792C11.8049 67.4858 11.8785 67.7271 11.881 67.9744C11.9015 68.3926 11.828 68.81 11.6659 69.1961C11.5037 69.5821 11.2571 69.9269 10.9441 70.2051C10.5815 70.5389 10.139 70.7736 9.65925 70.8864C9.40465 70.9513 9.13873 70.9581 8.88112 70.9065C8.19147 70.7618 7.76722 70.1971 7.77727 69.2968ZM11.1049 67.902C11.1109 67.8043 11.1109 67.7063 11.1049 67.6086C11.0988 67.4852 11.0619 67.3653 10.9976 67.2597C10.9333 67.1542 10.8436 67.0664 10.7368 67.0043C10.6299 66.9422 10.5092 66.9078 10.3856 66.9042C10.262 66.9005 10.1395 66.9278 10.0292 66.9836C9.81557 67.0687 9.6273 67.2071 9.48231 67.3855C8.96371 67.9989 8.64333 68.7549 8.56344 69.554C8.54535 69.7001 8.54535 69.848 8.56344 69.9941C8.5731 70.1174 8.61256 70.2365 8.67843 70.3412C8.74431 70.4458 8.83462 70.5329 8.94162 70.595C9.04862 70.6571 9.16909 70.6923 9.29269 70.6975C9.41629 70.7028 9.53932 70.6779 9.65121 70.6252C9.85041 70.5498 10.0265 70.4237 10.1619 70.2594C10.7287 69.5997 11.0604 68.7705 11.1049 67.902Z" fill="black"/>
<path d="M55.9263 69.1078C55.8552 69.343 55.8629 69.595 55.9485 69.8253C56.0385 70.0294 56.1926 70.1986 56.3874 70.3073C56.5822 70.4161 56.8071 70.4586 57.0282 70.4282C57.3044 70.3926 57.5694 70.2966 57.8043 70.1469C57.9832 70.0283 58.1562 69.9057 58.3371 69.7952C58.3814 69.769 58.4517 69.7952 58.5181 69.7831C58.506 69.8434 58.508 69.8836 58.4899 69.9037C58.0859 70.3573 57.5628 70.6887 56.9799 70.8603C56.7753 70.9141 56.5642 70.9391 56.3526 70.9347C56.0377 70.9349 55.7346 70.8154 55.5046 70.6004C55.2746 70.3854 55.135 70.0911 55.114 69.7771C55.0887 69.517 55.1092 69.2544 55.1744 69.0013C55.2827 68.5722 55.4796 68.1705 55.7524 67.822C56.0253 67.4734 56.3681 67.1858 56.7588 66.9776C57.2007 66.7208 57.7179 66.6249 58.2225 66.7063C58.8257 66.8128 59.061 67.2971 58.7533 67.8317C58.5892 68.0973 58.362 68.3182 58.0918 68.4748C57.6696 68.7253 57.2047 68.8957 56.7206 68.9772C56.4652 69.0194 56.2098 69.0596 55.9263 69.1078ZM55.9987 68.8164C56.5699 68.8 57.1236 68.6162 57.5912 68.2879C57.798 68.1534 57.9658 67.967 58.0778 67.7473C58.1369 67.6317 58.175 67.5065 58.1903 67.3775C58.2011 67.3198 58.1986 67.2604 58.183 67.2038C58.1675 67.1473 58.1393 67.0949 58.1006 67.0508C58.0618 67.0067 58.0136 66.972 57.9595 66.9492C57.9054 66.9264 57.8468 66.9162 57.7882 66.9193C57.626 66.9196 57.4652 66.9496 57.3137 67.0077C56.6643 67.2629 56.0973 68.0206 55.9987 68.8164Z" fill="black"/>
<path d="M105.169 69.1038C104.876 69.8635 105.626 70.6272 106.446 70.386C106.727 70.2994 106.993 70.1735 107.238 70.0122C107.363 69.9338 107.48 69.8454 107.608 69.7731C107.636 69.755 107.693 69.7871 107.737 69.7972C107.737 69.8414 107.737 69.8836 107.715 69.9017C107.299 70.3667 106.758 70.7028 106.157 70.8704C105.999 70.9091 105.837 70.93 105.674 70.9327C105.497 70.9419 105.321 70.9145 105.155 70.8521C104.99 70.7897 104.839 70.6938 104.713 70.5703C104.586 70.4469 104.486 70.2985 104.42 70.1347C104.354 69.9708 104.322 69.795 104.327 69.6183C104.324 69.4065 104.351 69.1954 104.407 68.9913C104.516 68.5624 104.714 68.161 104.987 67.8129C105.26 67.4647 105.603 67.1774 105.994 66.9695C106.449 66.7007 106.987 66.6091 107.506 66.7123C107.652 66.7408 107.79 66.8035 107.908 66.8952C108.008 66.969 108.081 67.0729 108.117 67.1916C108.153 67.3103 108.151 67.4374 108.109 67.5544C108.053 67.7428 107.957 67.9165 107.825 68.0628C107.578 68.3225 107.278 68.5278 106.947 68.6657C106.478 68.8563 105.986 68.9847 105.483 69.0476L105.169 69.1038ZM105.232 68.8124C105.751 68.7957 106.257 68.644 106.699 68.3723C106.968 68.2141 107.188 67.9854 107.335 67.7111C107.439 67.5101 107.512 67.275 107.335 67.068C107.158 66.861 106.933 66.8871 106.702 66.9494C106.437 67.0315 106.194 67.1739 105.994 67.3654C105.576 67.7418 105.305 68.2548 105.232 68.8124Z" fill="black"/>
<path d="M93.4714 69.7972C93.4895 69.8776 93.5236 69.9338 93.5055 69.962C93.3095 70.3219 93.018 70.6209 92.6631 70.8262C92.5771 70.8731 92.4841 70.9057 92.3876 70.9226C92.3198 70.9395 92.2488 70.9392 92.1812 70.9216C92.1135 70.904 92.0514 70.8698 92.0004 70.822C91.9494 70.7743 91.9112 70.7145 91.8893 70.6481C91.8673 70.5818 91.8624 70.511 91.8749 70.4423C91.9087 70.2495 91.9564 70.0594 92.0177 69.8735C92.4386 68.4507 92.8601 67.0278 93.2824 65.6049C93.3442 65.4024 93.3939 65.1964 93.4311 64.9879C93.4573 64.8372 93.3769 64.7468 93.218 64.7186C93.0954 64.6985 92.9707 64.6885 92.8501 64.6744C92.8259 64.5257 92.9245 64.5116 92.9908 64.5016C93.409 64.4333 93.8272 64.375 94.2254 64.3147C94.3661 64.4313 94.3018 64.5458 94.2716 64.6463C94.0424 65.4502 93.8051 66.244 93.5719 67.0419C93.3038 67.9503 93.0357 68.858 92.7676 69.765C92.7294 69.8896 92.7013 70.0162 92.6671 70.1428C92.6329 70.2695 92.6349 70.3438 92.7435 70.3981C92.8521 70.4523 92.9325 70.372 92.9968 70.3036C93.1074 70.183 93.1979 70.0464 93.3045 69.9238C93.3556 69.876 93.4115 69.8335 93.4714 69.7972Z" fill="black"/>
<path d="M66.0018 66.6661C65.953 67.1259 65.8662 67.581 65.7424 68.0266C65.7424 68.0427 65.6861 68.0427 65.6238 68.0608C65.5956 67.9563 65.5675 67.8598 65.5373 67.7473C65.5015 67.589 65.4497 67.4348 65.3825 67.2871C65.3217 67.1718 65.2292 67.0763 65.1159 67.0119C65.0027 66.9474 64.8733 66.9167 64.7431 66.9233C64.6485 66.9177 64.554 66.9375 64.4696 66.9806C64.3851 67.0236 64.3137 67.0885 64.2627 67.1684C64.2117 67.2482 64.1829 67.3403 64.1793 67.435C64.1758 67.5297 64.1976 67.6236 64.2425 67.7071C64.3288 67.8569 64.4291 67.9982 64.5421 68.1291C64.6929 68.3301 64.8577 68.5049 65.0065 68.6999C65.0872 68.8029 65.1592 68.9125 65.2217 69.0275C65.6901 69.8936 65.1814 70.8362 64.1942 70.9226C63.9328 70.9397 63.6705 70.9056 63.4221 70.8221C63.02 70.6955 63.02 70.6995 62.6581 70.8985C62.5776 70.6975 62.5797 70.6975 62.6359 70.4081C62.6681 70.2494 62.6681 70.0805 62.7103 69.9238C62.7526 69.767 62.7103 69.5681 62.9114 69.4173C62.9477 69.4958 62.9793 69.5763 63.0059 69.6585C63.0381 69.7831 63.0501 69.9158 63.0904 70.0404C63.1275 70.162 63.1894 70.2746 63.2724 70.3711C63.3553 70.4675 63.4573 70.5457 63.5721 70.6007C63.6868 70.6557 63.8117 70.6863 63.9389 70.6905C64.066 70.6947 64.1927 70.6725 64.3108 70.6252C64.3923 70.5971 64.4672 70.5527 64.531 70.4948C64.5948 70.4368 64.6461 70.3665 64.6818 70.2881C64.7176 70.2097 64.737 70.1249 64.7389 70.0388C64.7408 69.9526 64.7251 69.867 64.6929 69.7871C64.6172 69.6064 64.5185 69.4362 64.3993 69.2807C64.2364 69.0556 64.0434 68.8526 63.8805 68.6275C63.7546 68.457 63.6468 68.2738 63.5588 68.0809C63.5062 67.9432 63.4837 67.7958 63.4929 67.6487C63.5021 67.5015 63.5427 67.3581 63.6121 67.228C63.6815 67.0979 63.7779 66.9842 63.895 66.8945C64.0121 66.8049 64.147 66.7414 64.2907 66.7083C64.5292 66.6459 64.7803 66.6501 65.0166 66.7203C65.1634 66.7904 65.32 66.8378 65.481 66.861C65.6636 66.823 65.8392 66.7573 66.0018 66.6661Z" fill="black"/>
<path d="M52.0761 70.995C52.0419 70.5428 52.0238 70.1911 51.9876 69.8313C51.9253 69.2124 51.8589 68.5954 51.7865 67.9804C51.7552 67.7869 51.7067 67.5966 51.6418 67.4117C51.6175 67.3065 51.5563 67.2135 51.4692 67.1497C51.3821 67.0859 51.2749 67.0554 51.1673 67.064H50.9019C50.934 66.9916 50.9441 66.9273 50.9682 66.9193C51.3604 66.8006 51.7654 66.7291 52.1746 66.7062C52.3214 66.9433 52.4179 67.2081 52.4581 67.484C52.578 68.0268 52.652 68.5788 52.6793 69.134C52.6793 69.3932 52.7175 69.6525 52.7416 69.968C52.8244 69.9266 52.9015 69.8746 52.9708 69.8133C53.3528 69.3229 53.7288 68.8285 54.1048 68.3341C54.1524 68.2675 54.1928 68.1961 54.2255 68.1211C54.3924 67.7654 54.3783 67.685 54.1068 67.3895L54.0727 67.3554C53.9945 67.2833 53.948 67.1832 53.9435 67.077C53.939 66.9708 53.9767 66.8671 54.0485 66.7886C54.1365 66.7136 54.2504 66.676 54.3658 66.6839C54.4812 66.6918 54.5889 66.7446 54.6658 66.8309C54.7683 66.9395 54.8252 67.0834 54.8246 67.2328C54.8291 67.463 54.7729 67.6903 54.6618 67.892C54.5123 68.1825 54.3465 68.4643 54.1652 68.7361C53.629 69.4812 53.0231 70.1737 52.3556 70.804C52.2664 70.8733 52.173 70.937 52.0761 70.995Z" fill="black"/>
<path d="M27.8315 66.7083C27.6525 67.3474 27.4917 67.9261 27.3187 68.5471C27.4685 68.4515 27.5884 68.3157 27.6646 68.1553C27.9246 67.758 28.2333 67.3948 28.5834 67.074C28.741 66.9323 28.9185 66.8145 29.1102 66.7243C29.444 66.5776 29.7134 66.7967 29.6431 67.1584C29.6164 67.3194 29.5634 67.4749 29.4862 67.6187C29.3294 67.9081 29.058 67.894 28.883 67.6026C28.8448 67.5363 28.8026 67.4699 28.7704 67.4137C28.6763 67.4256 28.5863 67.459 28.5071 67.5113C28.428 67.5636 28.3619 67.6333 28.314 67.7151C27.6258 68.465 27.1195 69.363 26.8342 70.3398C26.794 70.4946 26.7417 70.6473 26.6914 70.8081C26.4742 70.8591 26.2473 70.8515 26.0339 70.786C26.0581 70.6654 26.0741 70.5528 26.1043 70.4443C26.3536 69.5641 26.6036 68.6838 26.8543 67.8036C26.9332 67.6128 26.9535 67.4029 26.9126 67.2006C26.7598 66.9997 26.5265 67.1484 26.3436 67.0439C26.3657 66.9977 26.3778 66.9313 26.4039 66.9253C26.8703 66.8007 27.3491 66.7279 27.8315 66.7083Z" fill="black"/>
<path d="M61.0093 66.7726C60.8504 67.3433 60.6896 67.9221 60.5267 68.5009L60.585 68.5311C60.6675 68.4205 60.7539 68.314 60.8323 68.1995C61.0975 67.7864 61.4151 67.4094 61.7774 67.078C61.9344 66.9347 62.112 66.8155 62.3041 66.7243C62.6379 66.5776 62.9073 66.7927 62.841 67.1544C62.814 67.316 62.7611 67.4721 62.6842 67.6167C62.5273 67.9081 62.2579 67.898 62.081 67.6066C62.0428 67.5403 62.0046 67.472 61.9704 67.4157C61.7331 67.4157 61.6266 67.5805 61.5119 67.7111C60.8239 68.4623 60.3183 69.3618 60.0341 70.3398C59.9999 70.4664 59.9617 70.591 59.9215 70.7156C59.9036 70.7495 59.8827 70.7818 59.8592 70.8121C59.6501 70.851 59.436 70.8543 59.2258 70.8221C59.256 70.6734 59.2701 70.5609 59.3002 70.4524C59.5335 69.6364 59.7768 68.8225 60.0019 68.0025C60.0743 67.7392 60.203 67.476 60.0964 67.1625C60.0134 67.1305 59.928 67.105 59.8411 67.0861C59.7367 67.0788 59.6319 67.0788 59.5274 67.0861C59.5616 67.0057 59.5737 66.9354 59.5978 66.9313C60.0301 66.857 60.4644 66.7887 60.9007 66.7304C60.9228 66.7223 60.957 66.7444 61.0093 66.7726Z" fill="black"/>
<path d="M102.759 67.1243L102.19 67.0821C102.176 67.0655 102.166 67.0458 102.161 67.0247C102.156 67.0036 102.156 66.9816 102.162 66.9606C102.167 66.9396 102.177 66.9202 102.192 66.9039C102.206 66.8876 102.224 66.875 102.244 66.867C102.303 66.8394 102.364 66.8159 102.427 66.7967C102.828 66.6432 103.176 66.379 103.432 66.035C103.539 65.8903 103.633 65.7436 103.76 65.6069C103.794 65.5667 103.869 65.5607 103.961 65.5265C103.975 65.9606 103.728 66.3003 103.712 66.7183L104.202 66.8228C104.255 66.9675 104.224 67.068 104.078 67.0881C103.931 67.1082 103.756 67.1082 103.577 67.1182C103.537 67.2167 103.495 67.3031 103.466 67.3936C103.197 68.2658 102.928 69.138 102.662 70.0062C102.626 70.1297 102.605 70.2573 102.6 70.386C102.6 70.4142 102.714 70.4845 102.735 70.4704C102.843 70.4018 102.943 70.3202 103.032 70.2273C103.133 70.1227 103.215 70.0002 103.312 69.8916C103.324 69.8756 103.378 69.8776 103.398 69.8916C103.41 69.902 103.419 69.9147 103.426 69.9289C103.432 69.9431 103.436 69.9584 103.436 69.974C103.438 70.0059 103.429 70.0375 103.412 70.0645C103.247 70.3281 103.037 70.5607 102.791 70.7518C102.648 70.8632 102.475 70.9277 102.294 70.9367C102.241 70.9408 102.188 70.9344 102.138 70.9179C102.088 70.9015 102.041 70.8752 102.001 70.8406C101.961 70.8061 101.928 70.7639 101.904 70.7166C101.88 70.6693 101.866 70.6177 101.862 70.5649C101.857 70.3539 101.883 70.1434 101.938 69.9399C102.158 69.1701 102.397 68.4085 102.626 67.6428C102.662 67.484 102.702 67.3252 102.759 67.1243Z" fill="black"/>
<path d="M89.5465 67.068C89.645 66.9735 89.6711 66.9293 89.7073 66.9173C90.1657 66.8094 90.634 66.7488 91.1047 66.7364C91.1771 66.8288 91.1249 66.9173 91.1047 67.0077C90.8165 67.9938 90.5297 68.9806 90.2442 69.968C90.2086 70.0379 90.1886 70.1147 90.1855 70.1931C90.1823 70.2715 90.1962 70.3497 90.2261 70.4222C90.2924 70.4041 90.3829 70.4081 90.4272 70.3639C90.5679 70.2293 90.6865 70.0725 90.8293 69.9338C90.8502 69.9129 90.8754 69.8968 90.9032 69.8867C90.931 69.8767 90.9607 69.8729 90.9901 69.8756C91.0665 69.9017 91.0464 69.9781 91.0082 70.0363C90.8226 70.3299 90.5731 70.5779 90.2784 70.7618C90.1402 70.8466 89.9863 70.9027 89.826 70.9266C89.7692 70.9367 89.7109 70.9336 89.6556 70.9176C89.6002 70.9015 89.5493 70.873 89.5067 70.8341C89.4642 70.7953 89.4311 70.7472 89.4101 70.6935C89.3891 70.6399 89.3807 70.5821 89.3856 70.5247C89.3974 70.3622 89.4284 70.2016 89.4781 70.0464C89.6792 69.343 89.9044 68.6396 90.1155 67.9382C90.1739 67.7513 90.2222 67.5615 90.2603 67.3695C90.2697 67.3336 90.2707 67.2959 90.2629 67.2596C90.2552 67.2233 90.239 67.1893 90.2158 67.1604C90.1925 67.1314 90.1627 67.1084 90.1289 67.093C90.0951 67.0777 90.0581 67.0705 90.021 67.072C89.9567 67.072 89.8923 67.072 89.8199 67.0841C89.7476 67.0961 89.6993 67.076 89.5465 67.068Z" fill="black"/>
<path d="M50.3065 66.6922C50.1055 67.3755 49.9325 67.9844 49.7536 68.5934C49.6229 69.0476 49.4842 69.4997 49.3515 69.9539C49.311 70.0303 49.2913 70.1159 49.2941 70.2023C49.2969 70.2886 49.3222 70.3727 49.3675 70.4463C49.4659 70.3986 49.5589 70.3407 49.645 70.2735C49.7616 70.1589 49.8461 70.0203 49.9627 69.9017C49.9949 69.8695 50.0693 69.8735 50.1638 69.8555C50.1585 69.914 50.145 69.9715 50.1235 70.0263C49.9414 70.3175 49.7003 70.5673 49.4158 70.7598C49.2712 70.8686 49.0961 70.9291 48.9151 70.9327C48.8616 70.9356 48.808 70.9272 48.7579 70.908C48.7078 70.8888 48.6623 70.8593 48.6243 70.8214C48.5864 70.7835 48.5569 70.738 48.5377 70.6879C48.5185 70.6378 48.5101 70.5843 48.513 70.5307C48.5271 70.3532 48.5616 70.1779 48.6156 70.0082C48.8287 69.2887 49.0499 68.5733 49.265 67.8558C49.3112 67.7011 49.3535 67.5423 49.3856 67.3835C49.4218 67.1825 49.3233 67.08 49.1162 67.066C48.9976 67.066 48.8689 67.1243 48.7563 67.0358C48.7744 66.9896 48.7784 66.9434 48.7965 66.9374C49.2908 66.8072 49.7965 66.7251 50.3065 66.6922Z" fill="black"/>
<path d="M68.4811 69.9258C68.2813 70.3083 67.9746 70.6246 67.5984 70.8362C67.5567 70.8609 67.5121 70.8805 67.4657 70.8945C67.0414 71.0392 66.7197 70.7659 66.8303 70.3398C66.8926 70.1027 66.963 69.8675 67.0314 69.6324C67.2324 68.9913 67.4235 68.3502 67.6145 67.7091C67.6528 67.5841 67.6784 67.4554 67.6909 67.3252C67.6961 67.2927 67.6939 67.2594 67.6845 67.2278C67.675 67.1963 67.6586 67.1672 67.6363 67.1429C67.6141 67.1186 67.5867 67.0996 67.5561 67.0873C67.5255 67.075 67.4925 67.0698 67.4596 67.072C67.331 67.072 67.2023 67.072 67.0756 67.072C67.0756 67.0278 67.0595 66.9735 67.0756 66.9715C67.5481 66.7706 68.0508 66.7826 68.5896 66.6801C68.5575 66.861 68.5494 66.9715 68.5193 67.0821C68.2599 67.9764 67.9965 68.8707 67.7371 69.765C67.6869 69.9379 67.6426 70.1107 67.6084 70.2876C67.6076 70.3112 67.6124 70.3347 67.6226 70.356C67.6327 70.3773 67.6479 70.3959 67.6667 70.4101C67.687 70.4214 67.7099 70.4273 67.7331 70.4273C67.7563 70.4273 67.7792 70.4214 67.7995 70.4101C67.9241 70.3056 68.0367 70.1891 68.1513 70.0745C68.2148 70.0041 68.2819 69.937 68.3524 69.8736C68.3624 69.8555 68.4248 69.8997 68.4811 69.9258Z" fill="black"/>
<path d="M94.7421 67.0077C94.8548 66.9554 94.9718 66.913 95.0919 66.8811C95.5081 66.8248 95.9143 66.6942 96.3727 66.7284C96.3466 66.863 96.3365 66.9735 96.3064 67.078C96.047 67.9724 95.7836 68.8667 95.5242 69.761C95.4739 69.9318 95.4317 70.1067 95.3975 70.2815C95.3979 70.3051 95.4038 70.3282 95.4146 70.3491C95.4254 70.37 95.4409 70.3882 95.4599 70.4021C95.4808 70.4125 95.5039 70.418 95.5272 70.418C95.5506 70.418 95.5737 70.4125 95.5946 70.4021C95.6971 70.3237 95.7816 70.2212 95.8841 70.1449C95.9867 70.0685 95.9927 69.8012 96.234 69.8957C96.2822 70.0966 96.1194 70.1891 96.0208 70.2976C95.8777 70.4538 95.7216 70.5976 95.5544 70.7277C95.4638 70.7986 95.3618 70.8536 95.2528 70.8905C94.8506 71.0331 94.5129 70.7679 94.6254 70.3298C94.6616 70.1871 94.7039 70.0464 94.7461 69.9057C94.9405 69.2653 95.1362 68.6242 95.3332 67.9824C95.3634 67.888 95.3855 67.7935 95.4156 67.699C95.6167 67.066 95.4257 67.0218 94.9572 67.078C94.927 67.0861 94.9029 67.064 94.7421 67.0077Z" fill="black"/>
<path d="M50.5882 65.3356C50.5862 65.4589 50.5369 65.5767 50.4504 65.6646C50.3639 65.7525 50.247 65.8038 50.1237 65.8079C50.0089 65.7999 49.9007 65.7515 49.8183 65.6713C49.7358 65.5911 49.6845 65.4843 49.6733 65.3698C49.6678 65.2466 49.7104 65.1261 49.7922 65.0338C49.8741 64.9415 49.9886 64.8847 50.1117 64.8754C50.235 64.8763 50.3533 64.9246 50.442 65.0103C50.5307 65.096 50.583 65.2124 50.5882 65.3356Z" fill="black"/>
<path d="M96.2601 64.8754C96.3838 64.8775 96.5016 64.9287 96.5876 65.0177C96.6736 65.1066 96.7207 65.226 96.7185 65.3497C96.7164 65.4734 96.6652 65.5911 96.5762 65.677C96.4872 65.763 96.3677 65.81 96.244 65.8079C96.121 65.8009 96.0051 65.7482 95.9192 65.66C95.8332 65.5718 95.7834 65.4547 95.7795 65.3316C95.7848 65.2081 95.8378 65.0915 95.9275 65.0063C96.0171 64.9212 96.1364 64.8743 96.2601 64.8754Z" fill="black"/>
<path d="M68.8992 65.3336C68.9003 65.4573 68.8526 65.5765 68.7664 65.6652C68.6802 65.754 68.5625 65.8053 68.4388 65.8079C68.3245 65.7982 68.2171 65.7496 68.1344 65.6703C68.0517 65.5909 67.9987 65.4855 67.9844 65.3718C67.9803 65.2479 68.0239 65.1272 68.1062 65.0345C68.1885 64.9418 68.3032 64.8841 68.4267 64.8734C68.55 64.8734 68.6684 64.9215 68.7567 65.0074C68.8449 65.0934 68.8961 65.2105 68.8992 65.3336Z" fill="black"/>
</g>
<defs>
<clipPath id="clip0_73_134">
<rect width="160" height="72.8841" fill="white"/>
</clipPath>
</defs>
</svg>
