<svg width="195" height="89" viewBox="0 0 195 89" fill="none" xmlns="http://www.w3.org/2000/svg">
<g clip-path="url(#clip0_73_447)">
<path d="M40.8103 0.110589C41.0333 0.110589 41.2293 0.110589 41.4278 0.110589H55.8465C57.643 0.0813345 59.4353 0.291782 61.1763 0.736382C61.8303 0.911753 62.4715 1.13233 63.095 1.39653C64.3243 1.88756 65.4235 2.65683 66.3065 3.64414C67.1894 4.63144 67.8323 5.81 68.1847 7.08756C68.7893 9.06295 68.9566 11.1466 68.6748 13.1933C68.3072 15.7775 67.0477 17.8365 64.8275 19.2648L64.4992 19.4783C64.4869 19.6451 64.5972 19.6623 64.6854 19.6991C67.4079 20.8329 68.9591 22.9385 69.655 25.7386C69.9101 26.788 70.0271 27.8664 70.003 28.9461C70.003 30.4459 69.8069 31.9392 69.4197 33.388C68.5694 36.4188 66.7242 38.5956 63.8547 39.8914C63.5819 40.0141 63.305 40.127 63.024 40.23C61.8033 40.6674 60.5374 40.9662 59.2502 41.1209C57.9436 41.2783 56.6283 41.3512 55.3123 41.3393C50.8246 41.3393 46.337 41.3393 41.8493 41.3393H41.0872L40.7613 40.9712C40.7049 39.8766 40.7343 0.67503 40.8103 0.110589ZM49.5879 33.8666C49.7374 33.8789 49.8526 33.896 49.9702 33.896C51.862 33.896 53.7562 33.9108 55.6505 33.896C56.3487 33.901 57.0437 33.7992 57.7113 33.5942C58.3375 33.4146 58.9085 33.0802 59.3718 32.6218C59.8351 32.1634 60.1759 31.5956 60.3627 30.9708C60.5072 30.5142 60.6081 30.0451 60.6642 29.5695C60.794 28.576 60.7155 27.5663 60.4338 26.6049C60.2572 25.9348 59.9066 25.3234 59.4177 24.8329C58.9288 24.3424 58.3189 23.9902 57.65 23.8122C57.0722 23.6431 56.473 23.558 55.871 23.5594C53.9106 23.5594 51.9412 23.5594 49.9629 23.5594C49.8278 23.5689 49.6935 23.5878 49.561 23.6159C49.542 23.7024 49.5289 23.7901 49.5218 23.8784C49.5218 27.1326 49.5218 30.3867 49.5218 33.6408C49.5368 33.718 49.5589 33.7935 49.5879 33.8666ZM49.5879 16.3861C49.735 16.4008 49.8698 16.4229 50.0045 16.4254C51.7983 16.4254 53.592 16.4254 55.3833 16.4254C55.7424 16.4214 56.1001 16.3827 56.4518 16.31C57.9392 16.0155 58.9023 15.1345 59.2992 13.6621C59.6054 12.5367 59.6003 11.3491 59.2845 10.2263C58.8949 8.79806 57.949 7.9465 56.5106 7.65446C56.1201 7.57564 55.7229 7.53455 55.3245 7.53175C53.5724 7.51703 51.8179 7.53175 50.0633 7.53175C49.909 7.53175 49.7546 7.5563 49.6051 7.56857C49.5743 7.62986 49.552 7.69509 49.5389 7.76244C49.5389 10.5552 49.5389 13.3488 49.5389 16.1432C49.5442 16.2284 49.5573 16.3131 49.5781 16.3959L49.5879 16.3861Z" fill="white"/>
<path d="M124.24 24.1261C124.497 24.8893 124.838 25.5986 125.132 26.3004C125.426 27.0023 125.739 27.7336 126.043 28.4502C126.347 29.1668 126.634 29.8491 126.93 30.546L127.844 32.6958L128.756 34.8456L129.665 36.9954C129.962 37.6948 130.268 38.3868 130.555 39.0887C130.841 39.7906 131.194 40.4998 131.427 41.209C131.413 41.24 131.397 41.2695 131.378 41.2974C131.361 41.3089 131.342 41.3149 131.322 41.3146L122.049 41.3317H121.314C121.226 41.1133 121.142 40.9145 121.069 40.7108L116.033 26.6784C115.94 26.4182 115.837 26.1606 115.749 25.925C115.197 25.844 112.159 25.8121 110.446 25.8661C110.331 25.8661 110.218 25.8931 110.066 25.9102C110.054 26.1311 110.037 26.325 110.034 26.5189C110.034 27.8784 110.034 29.2355 110.034 30.5951V40.544C110.034 40.7894 110.034 41.0152 110.019 41.2802C109.895 41.3037 109.769 41.3201 109.642 41.3293H101.663C101.568 41.3293 101.47 41.3146 101.34 41.3023C101.314 41.1872 101.294 41.0709 101.281 40.9538C101.281 40.7747 101.281 40.593 101.281 40.4139V0.17911C101.401 0.146091 101.523 0.120682 101.646 0.103034C101.783 0.103034 101.923 0.103034 102.063 0.103034H115.526C117.281 0.0873917 119.033 0.258501 120.753 0.613484C121.85 0.840612 122.919 1.19047 123.938 1.65647C125.229 2.23033 126.378 3.08131 127.303 4.14917C128.229 5.21702 128.909 6.47563 129.295 7.83587C129.618 8.92756 129.825 10.0504 129.913 11.1857C130.021 12.5183 130.009 13.858 129.876 15.1883C129.773 16.446 129.502 17.6841 129.07 18.8695C128.316 20.9633 126.824 22.7089 124.874 23.7776L124.24 24.1261ZM110.088 8.13281C110.058 8.19493 110.036 8.26103 110.024 8.32914C110.024 11.4377 110.024 14.5519 110.024 17.6719C110.033 17.7282 110.05 17.7829 110.076 17.8338C110.259 17.9202 110.464 17.9477 110.664 17.9124C112.477 17.9124 114.291 17.9124 116.104 17.9124C116.383 17.9148 116.662 17.9001 116.94 17.8682C118.792 17.6424 119.88 16.6411 120.253 14.9895C120.481 13.9334 120.524 12.8458 120.383 11.7747C120.333 11.339 120.239 10.9097 120.101 10.4936C119.945 9.98384 119.666 9.52059 119.288 9.1454C118.91 8.77021 118.445 8.49481 117.935 8.34386C117.38 8.16706 116.801 8.08007 116.219 8.08619H110.546C110.392 8.09846 110.238 8.12054 110.088 8.13281Z" fill="white"/>
<path d="M98.3161 0.147005C98.3921 0.637822 98.4117 7.24423 98.3406 8.00009C98.2397 8.03821 98.1356 8.06696 98.0294 8.08598C97.8505 8.10071 97.6692 8.08598 97.4903 8.08598H81.7533C81.5082 8.08598 81.2436 8.08598 80.9593 8.10071C80.9327 8.24511 80.9147 8.39098 80.9054 8.53754C80.9054 10.8967 80.9054 13.2543 80.9054 15.6102C80.9054 15.7452 80.925 15.8802 80.9348 16.0274C81.151 16.0949 81.3788 16.1166 81.6038 16.0912H95.9637C96.2087 16.0912 96.4366 16.1035 96.6375 16.1084C96.6979 16.185 96.7407 16.2739 96.7632 16.3689C96.7856 16.4638 96.7871 16.5625 96.7674 16.6581C96.7674 17.4778 96.7674 18.2974 96.7674 19.1122C96.7674 20.4693 96.7674 21.8289 96.7674 23.186C96.7674 23.4044 96.7552 23.6228 96.7478 23.8609C96.6269 23.8918 96.5041 23.9148 96.3802 23.9296C96.2014 23.9296 96.0225 23.9296 95.8436 23.9296H80.9838C80.9469 24.0481 80.9207 24.1696 80.9054 24.2928C80.9054 24.7836 80.9054 25.2523 80.9054 25.7309V33.2404C81.026 33.2751 81.1488 33.3013 81.273 33.3189C81.4715 33.3189 81.6724 33.3189 81.8709 33.3189H97.603C97.8251 33.3082 98.0476 33.3271 98.2647 33.3754C98.2894 33.3998 98.3124 33.4261 98.3333 33.4539C98.3437 33.4701 98.3496 33.4887 98.3504 33.5079C98.3504 36.0062 98.3562 38.5036 98.3676 41.0002C98.3622 41.0891 98.3516 41.1776 98.3357 41.2653C98.2263 41.2955 98.1149 41.3184 98.0025 41.334C97.8652 41.3462 97.7256 41.334 97.5859 41.334H72.2209C72.1853 41.23 72.1583 41.1233 72.14 41.0149C72.1278 40.8358 72.14 40.6567 72.14 40.4775C72.14 27.2925 72.14 14.1067 72.14 0.920043C72.097 0.656103 72.1232 0.385494 72.216 0.134734C72.3483 0.122464 72.4855 0.102831 72.6228 0.0979229C76.6269 0.0243002 97.6398 0.0635656 98.3161 0.147005Z" fill="white"/>
<path d="M170.064 0.0980226C170.726 1.54103 171.323 2.97667 171.946 4.40004C172.568 5.82341 173.186 7.2566 173.806 8.68488C174.426 10.1132 175.031 11.5071 175.639 12.9157C176.246 14.3244 176.864 15.7674 177.513 17.2178C177.655 17.1187 177.758 16.9727 177.803 16.8055C178.6 14.9747 179.395 13.144 180.187 11.3132L184.767 0.763081C184.853 0.561845 184.948 0.365518 185.051 0.147104C185.186 0.124442 185.322 0.108878 185.458 0.100477H194.554C194.686 0.100477 194.819 0.125018 195.003 0.142196C194.89 0.387605 194.804 0.581478 194.706 0.770443L189.474 10.8788C187.069 15.5236 184.663 20.1684 182.255 24.8132C182.068 25.1634 181.971 25.5547 181.973 25.9519C181.983 30.7897 181.983 35.6259 181.973 40.4604C181.973 40.7058 181.973 40.9758 181.973 41.1967C181.745 41.3832 181.517 41.3145 181.307 41.3145C179.41 41.3145 177.516 41.3145 175.622 41.3145H173.208C173.177 41.1925 173.153 41.0687 173.137 40.9439C173.137 40.7647 173.137 40.5831 173.137 40.404C173.137 35.5891 173.137 30.7733 173.137 25.9568C173.142 25.5197 173.035 25.0886 172.826 24.7052C168.604 16.7425 164.387 8.76996 160.174 0.787622C160.073 0.598657 159.98 0.40233 159.867 0.174099C160.08 0.0960079 160.309 0.0707467 160.534 0.100477H170.064V0.0980226Z" fill="white"/>
<path d="M140.227 8.1646C139.999 8.08069 139.754 8.05455 139.514 8.08852H131.135C130.889 8.11405 130.639 8.0924 130.4 8.02472C130.376 7.91238 130.359 7.79836 130.351 7.6836C130.351 5.3064 130.351 2.92839 130.351 0.549562C130.351 0.434219 130.368 0.316423 130.381 0.169178C130.494 0.140494 130.61 0.119181 130.726 0.105372C130.886 0.105372 131.045 0.105372 131.204 0.105372H158.13C158.376 0.0843929 158.623 0.095945 158.865 0.139729C158.889 0.162226 158.912 0.186867 158.931 0.213351C158.942 0.229331 158.948 0.248071 158.949 0.267341C158.949 2.7427 158.954 5.21969 158.966 7.69832C158.963 7.79441 158.954 7.89025 158.941 7.98545C158.765 8.09033 158.557 8.12782 158.355 8.09098H149.742C149.517 8.06268 149.289 8.0879 149.075 8.1646C149.022 8.79792 149.009 9.43393 149.034 10.069C149.034 10.7267 149.034 11.3868 149.034 12.047V41.1942C148.857 41.3831 148.666 41.3292 148.495 41.3292C147.257 41.3292 146.022 41.3292 144.785 41.3292C143.508 41.3292 142.231 41.3292 140.957 41.3292C140.761 41.3292 140.565 41.312 140.347 41.3022C140.325 41.1985 140.308 41.0936 140.298 40.988C140.298 40.7672 140.298 40.5488 140.298 40.3279C140.298 29.8571 140.298 19.3863 140.298 8.91555C140.329 8.66304 140.305 8.40668 140.227 8.1646Z" fill="white"/>
<path d="M25.7547 33.3584C25.7547 35.972 25.7547 38.512 25.7547 41.0447C25.745 41.1276 25.7286 41.2097 25.7057 41.2901C25.5758 41.3023 25.4607 41.3195 25.3455 41.3244C22.1451 41.4005 1.08565 41.3588 0.421568 41.268C0.399359 41.161 0.382998 41.0528 0.372559 40.944C0.372559 40.7649 0.372559 40.5857 0.372559 40.4041V0.245421C0.446202 0.181331 0.533511 0.134964 0.627802 0.109867C0.722094 0.0847711 0.820868 0.0816112 0.916567 0.100629C1.97273 0.100629 3.03134 0.100629 4.0875 0.100629C5.52348 0.100629 6.95947 0.100629 8.39545 0.100629C8.62096 0.076684 8.84897 0.0966846 9.06689 0.159528C9.06689 0.279778 9.09629 0.404936 9.09875 0.508008C9.09875 0.709243 9.09875 0.908025 9.09875 1.10681V33.2554C9.21987 33.2917 9.34356 33.3188 9.46877 33.3364C9.64765 33.3364 9.82654 33.3364 10.0054 33.3364H24.9657C25.2083 33.3388 25.4435 33.3511 25.7547 33.3584Z" fill="white"/>
<path d="M37.2155 41.2653C37.1571 41.2925 37.0953 41.3115 37.0317 41.3217C34.5975 41.3217 32.165 41.3217 29.7341 41.3217C29.6511 41.3129 29.5691 41.2964 29.4891 41.2726C29.4522 41.179 29.4243 41.082 29.4058 40.9831C29.4058 40.8039 29.4058 40.6248 29.4058 40.4456C29.4058 31.0399 29.4058 21.6326 29.4058 12.2236C29.4058 11.9782 29.4205 11.7107 29.4278 11.4285C29.5329 11.4061 29.6393 11.3905 29.7464 11.3818H36.9239C37.0023 11.3818 37.0782 11.3966 37.191 11.4064C37.2255 11.513 37.2517 11.6221 37.2694 11.7328C37.2841 11.8923 37.2694 12.0518 37.2694 12.2236C37.2694 21.6489 37.2694 31.0751 37.2694 40.5021C37.2981 40.7576 37.2798 41.0163 37.2155 41.2653Z" fill="white"/>
<path d="M33.4638 60.2455C33.4917 61.6229 33.3501 62.9985 33.0423 64.3413C32.9046 64.904 32.7092 65.4509 32.4591 65.9733C32.1353 66.6755 31.6594 67.2966 31.066 67.7915C30.4726 68.2865 29.7765 68.6429 29.0284 68.8348C27.4243 69.2811 25.7284 69.2752 24.1274 68.8176C23.4017 68.6249 22.7269 68.2755 22.1504 67.7939C21.5738 67.3123 21.1094 66.7101 20.7899 66.0298C20.4042 65.2394 20.139 64.3957 20.0033 63.5266C19.7216 61.7302 19.6697 59.9052 19.8489 58.0957C19.9245 57.2012 20.0995 56.318 20.3708 55.4624C20.5729 54.8137 20.8711 54.199 21.2555 53.6391C22.0443 52.513 23.2442 51.7433 24.5955 51.4966C26.0232 51.1839 27.504 51.2082 28.9206 51.5678C29.6903 51.7505 30.4084 52.1059 31.021 52.6071C31.6335 53.1083 32.1244 53.7423 32.4567 54.4612C32.8785 55.3663 33.1571 56.3317 33.2825 57.3226C33.4136 58.2912 33.4742 59.2681 33.4638 60.2455ZM29.7489 60.054C29.7366 59.6761 29.7268 59.119 29.695 58.5595C29.6749 58.2617 29.6389 57.9651 29.5871 57.6711C29.507 57.0367 29.3101 56.4226 29.0064 55.86C28.8203 55.5159 28.55 55.2248 28.2208 55.0141C27.8916 54.8033 27.5143 54.6798 27.1244 54.655C26.8071 54.6305 26.4884 54.6305 26.1712 54.655C25.7516 54.6708 25.3441 54.7997 24.9917 55.0282C24.6393 55.2567 24.3551 55.5763 24.1691 55.9533C23.9465 56.3771 23.7919 56.8335 23.7109 57.3055C23.4064 59.0778 23.3783 60.8867 23.6275 62.6676C23.6949 63.2026 23.8367 63.7255 24.049 64.2211C24.2132 64.6526 24.4964 65.0286 24.8655 65.3053C25.2347 65.5821 25.6747 65.7482 26.1344 65.7843C26.4511 65.8199 26.7709 65.8199 27.0876 65.7843C27.5483 65.7504 27.9897 65.5856 28.3599 65.3091C28.7302 65.0326 29.014 64.656 29.1779 64.2235C29.2979 63.9285 29.3962 63.625 29.472 63.3155C29.7293 62.3118 29.7342 61.2713 29.7489 60.054Z" fill="white"/>
<path d="M108.647 65.5881V62.2186C108.514 62.1835 108.378 62.1589 108.241 62.145C107.75 62.145 107.243 62.145 106.746 62.145C106.591 62.145 106.437 62.1156 106.295 62.1008C106.197 61.0482 106.188 59.9892 106.268 58.935C106.353 58.9066 106.441 58.8876 106.53 58.8786C108.383 58.8786 110.237 58.8786 112.093 58.8786C112.145 58.8845 112.197 58.8951 112.247 58.9105C112.278 59.0127 112.303 59.1168 112.321 59.2222C112.328 59.362 112.328 59.502 112.321 59.6418V67.3133C112.321 67.5317 112.321 67.7477 112.306 67.9538C112.011 68.1739 111.679 68.3401 111.326 68.4446C110.5 68.7429 109.641 68.9391 108.767 69.0287C107.996 69.1297 107.217 69.1683 106.439 69.1441C105.542 69.124 104.652 68.9727 103.798 68.695C102.456 68.2508 101.338 67.3024 100.681 66.0495C100.193 65.1093 99.8731 64.0911 99.7349 63.0407C99.5072 61.4375 99.4726 59.8127 99.632 58.2013C99.7111 57.2048 99.9263 56.2238 100.272 55.2858C101.1 53.0771 102.702 51.8354 104.991 51.4427C106.315 51.2493 107.657 51.2312 108.986 51.3887C109.741 51.4509 110.489 51.5915 111.215 51.8084C111.46 51.882 111.693 51.9826 111.911 52.0538C112.009 53.2281 112.009 54.4085 111.911 55.5828C111.762 55.5386 111.61 55.5067 111.465 55.4527C110.327 55.015 109.125 54.7663 107.907 54.7165C107.25 54.6844 106.59 54.7389 105.947 54.8784C105.436 54.9829 104.96 55.2188 104.567 55.563C104.175 55.9073 103.878 56.3479 103.707 56.8417C103.51 57.3652 103.386 57.9136 103.34 58.4712C103.188 59.843 103.222 61.2289 103.44 62.5916C103.52 63.0237 103.647 63.4458 103.817 63.8506C104.21 64.7881 104.962 65.323 105.935 65.5243C106.74 65.6914 107.567 65.7344 108.385 65.6519C108.474 65.6384 108.562 65.617 108.647 65.5881Z" fill="white"/>
<path d="M79.9618 51.6608C80.6063 51.5676 85.8014 51.5381 90.3323 51.5946C90.4891 51.5946 90.6435 51.6142 90.8224 51.6265C90.8906 52.1644 90.9079 52.7075 90.8739 53.2486C90.8739 53.7836 90.8984 54.3211 90.8567 54.8659C90.6505 54.9567 90.4228 54.9873 90.2 54.9542H85.718C85.1985 54.9542 84.679 54.9542 84.162 54.9542C84.0052 54.9542 83.8508 54.9763 83.6719 54.991C83.5494 55.5383 83.618 56.0757 83.6106 56.6058C83.5885 57.1384 83.5959 57.6717 83.6327 58.2034C83.8513 58.2829 84.0859 58.3081 84.3164 58.2771C86.0538 58.2771 87.7887 58.2771 89.5236 58.2771C89.7522 58.2517 89.9836 58.2709 90.2049 58.3335C90.2604 58.8641 90.2744 59.3983 90.2465 59.9311C90.2465 60.4465 90.2465 60.9618 90.2465 61.4527C90.042 61.5729 89.8008 61.6147 89.5678 61.5704C87.8328 61.5704 86.0979 61.5704 84.3629 61.5704C84.1448 61.5704 83.9292 61.5704 83.689 61.5827C83.6555 61.7033 83.6318 61.8264 83.618 61.9508C83.618 62.9914 83.618 64.0303 83.618 65.0675C83.63 65.1959 83.6521 65.3231 83.6841 65.4479C84.4953 65.4626 85.2917 65.4479 86.0856 65.4479H88.4209C89.2149 65.4479 90.0089 65.4479 90.8322 65.4479C90.9498 66.0148 90.8812 66.5522 90.8935 67.0823C90.9057 67.6124 90.8935 68.1572 90.8935 68.729C90.7538 68.7601 90.6122 68.7815 90.4695 68.7928C89.7344 68.7928 88.9992 68.7928 88.2641 68.7928H80.028C79.9972 68.6723 79.9726 68.5503 79.9545 68.4272C79.9545 68.2873 79.9545 68.1474 79.9545 68.0075V52.3946C79.9496 52.1566 79.9569 51.9185 79.9618 51.6608Z" fill="white"/>
<path d="M131.522 61.5631C131.221 61.5631 131.005 61.5803 130.787 61.5803H125.585C125.363 61.5491 125.137 61.5744 124.928 61.6539C124.909 61.7297 124.895 61.8068 124.887 61.8846C124.887 63.0037 124.887 64.1219 124.887 65.2394C124.901 65.3109 124.925 65.3803 124.958 65.4455C125.421 65.4872 125.896 65.4602 126.372 65.4651C126.847 65.47 127.327 65.4651 127.805 65.4651H129.241C129.731 65.4651 130.199 65.4651 130.677 65.4651C131.155 65.4651 131.625 65.443 132.071 65.4823C132.115 65.5608 132.147 65.5952 132.147 65.6271C132.157 66.5482 132.164 67.4669 132.169 68.383C132.169 68.4984 132.15 68.6162 132.14 68.7389C131.933 68.8252 131.707 68.8516 131.486 68.815C129.692 68.815 127.898 68.815 126.095 68.815H121.299C121.27 68.6677 121.235 68.5573 121.226 68.4469C121.216 68.3364 121.226 68.1671 121.226 68.0272C121.226 62.8147 121.226 57.6022 121.226 52.3898C121.198 52.1422 121.222 51.8918 121.294 51.6535C121.42 51.6263 121.548 51.6082 121.676 51.5995C122.235 51.5995 122.794 51.5995 123.353 51.5995H131.486C131.708 51.5596 131.938 51.5904 132.142 51.6879C132.158 51.7821 132.169 51.8772 132.174 51.9726C132.174 52.9133 132.169 53.8516 132.157 54.7874C132.157 54.8218 132.123 54.8561 132.091 54.9126C131.887 54.9667 131.674 54.9825 131.464 54.9592H125.602C125.374 54.9315 125.143 54.9558 124.926 55.0304C124.874 55.3804 124.86 55.735 124.884 56.0881C124.884 56.4292 124.884 56.7678 124.884 57.1065V58.1446C125.09 58.3458 125.301 58.282 125.492 58.282C127.266 58.282 129.04 58.282 130.814 58.282C131.04 58.2568 131.269 58.2751 131.488 58.336C131.596 58.8661 131.525 59.4035 131.537 59.9361C131.549 60.4686 131.547 60.9717 131.522 61.5631Z" fill="white"/>
<path d="M10.9586 65.1512C11.0245 66.2561 11.0294 67.3637 10.9733 68.4691C10.8636 68.5366 10.7499 68.5973 10.6327 68.6507C9.88448 68.9297 9.09744 69.0903 8.29986 69.1268C7.08518 69.224 5.8628 69.1229 4.6805 68.8274C3.82219 68.6235 3.02604 68.2142 2.36026 67.6346C1.69448 67.0551 1.17892 66.3225 0.857734 65.4997C0.499208 64.6102 0.261035 63.6768 0.149544 62.7241C-0.00583799 61.455 -0.042755 60.1742 0.0392716 58.8982C0.0831064 57.9021 0.239297 56.9142 0.504864 55.9533C0.566126 55.7422 0.63474 55.5336 0.708255 55.3275C1.48261 53.1188 3.05582 51.8672 5.32252 51.4672C6.68142 51.2316 8.07064 51.2316 9.42954 51.4672C9.76109 51.5283 10.0885 51.6103 10.4097 51.7126C10.5913 51.7746 10.7696 51.8459 10.9439 51.9261C11.0236 53.0585 11.0236 54.1951 10.9439 55.3275C10.8112 55.3057 10.6802 55.2745 10.5519 55.2342C9.37631 54.7869 8.10974 54.6328 6.86143 54.7851C6.58387 54.8155 6.30982 54.8722 6.04297 54.9545C5.67741 55.0596 5.3382 55.241 5.04763 55.4867C4.75706 55.7324 4.52171 56.037 4.35703 56.3803C4.14966 56.7913 4.00274 57.2303 3.92084 57.6834C3.60292 59.4367 3.61872 61.2344 3.9674 62.9818C4.03381 63.2738 4.12734 63.5588 4.24676 63.8334C4.42569 64.2924 4.72252 64.696 5.10721 65.0032C5.49191 65.3105 5.95081 65.5105 6.43749 65.5831C7.73696 65.8287 9.07804 65.7279 10.3264 65.2911C10.4955 65.2322 10.667 65.1758 10.8386 65.1242C10.8778 65.1169 10.9194 65.1414 10.9586 65.1512Z" fill="white"/>
<path d="M42.4057 51.6584C43.489 51.5731 44.5765 51.5526 45.6624 51.597C45.7706 51.6114 45.8778 51.6327 45.9834 51.6609C46.0079 52.4314 45.9834 53.1873 45.9834 53.9432C45.9834 54.699 45.9834 55.4598 45.9834 56.2206V60.8318C45.9834 61.5901 45.9834 62.3484 45.9834 63.1067C45.9834 63.865 45.9834 64.6184 45.9956 65.3768C46.2045 65.4705 46.4361 65.5012 46.6622 65.4651C48.4951 65.4651 50.3379 65.4651 52.1635 65.4651H52.8447C52.8844 65.5796 52.9115 65.6981 52.9256 65.8185C52.9256 66.6971 52.9256 67.5756 52.9256 68.4542C52.9196 68.5537 52.9082 68.6529 52.8913 68.7511C52.6812 68.827 52.4556 68.8498 52.2346 68.8174H42.4204C42.3885 68.6954 42.364 68.5717 42.3468 68.4468C42.3468 68.2677 42.3468 68.0885 42.3468 67.9094C42.3468 62.7574 42.3468 57.6038 42.3468 52.4486C42.3187 52.1838 42.3386 51.9161 42.4057 51.6584Z" fill="white"/>
<path d="M61.201 51.6588C62.2844 51.5736 63.3718 51.5531 64.4577 51.5975C64.5668 51.6115 64.6748 51.6328 64.7811 51.6613C64.813 52.2502 64.7934 52.827 64.7958 53.4037C64.7983 53.9804 64.7958 54.5227 64.7958 55.0798V61.9709C64.7958 62.5304 64.7958 63.09 64.7958 63.647C64.7958 64.2041 64.7762 64.8005 64.813 65.3845C65.0218 65.4722 65.2508 65.5003 65.4746 65.4655C67.31 65.4655 69.1503 65.4655 70.9784 65.4655H71.6572C71.6971 65.581 71.725 65.7002 71.7405 65.8214C71.7405 66.6999 71.7405 67.5785 71.7405 68.457C71.7339 68.5632 71.7216 68.6688 71.7038 68.7736C71.5847 68.7958 71.4644 68.8105 71.3435 68.8178H61.5416C61.4436 68.8178 61.3455 68.8031 61.2157 68.7933C61.1853 68.6812 61.1624 68.5672 61.1471 68.4521C61.1348 68.2926 61.1471 68.1331 61.1471 67.9736C61.1471 62.8004 61.1471 57.628 61.1471 52.4564C61.1175 52.1894 61.1357 51.9193 61.201 51.6588Z" fill="white"/>
<path d="M38.0829 4.69225C38.1079 5.69946 37.7965 6.68621 37.1982 7.49616C36.5998 8.3061 35.7487 8.89291 34.7797 9.1636C31.2681 10.1133 28.3741 7.25187 28.9524 3.87013C29.2587 2.08846 30.2659 0.839333 31.9787 0.257713C32.6782 0.0132838 33.4264 -0.0580293 34.1594 0.0498604C34.8924 0.15775 35.5884 0.441639 36.1881 0.8773C36.7878 1.31296 37.2733 1.88746 37.6033 2.55176C37.9332 3.21607 38.0978 3.95046 38.0829 4.69225Z" fill="#F4E04D"/>
<path fill-rule="evenodd" clip-rule="evenodd" d="M105.91 79.0072C106.133 78.8232 106.373 78.698 106.672 78.8575C106.675 78.9215 106.671 78.9856 106.662 79.0489C106.656 79.073 106.643 79.0961 106.629 79.1191L106.629 79.1191C106.611 79.1502 106.594 79.181 106.594 79.2134C106.578 79.2656 106.575 79.3209 106.584 79.3746C106.594 79.4284 106.616 79.4791 106.648 79.5228C106.681 79.5665 106.723 79.6019 106.772 79.6262C106.821 79.6504 106.875 79.6629 106.929 79.6625C106.989 79.6668 107.049 79.6589 107.106 79.6393C107.162 79.6197 107.214 79.5887 107.259 79.5483C107.303 79.5079 107.338 79.4589 107.363 79.4042C107.388 79.3496 107.401 79.2905 107.402 79.2305C107.407 79.1505 107.395 79.0704 107.366 78.9958C107.337 78.9211 107.291 78.8538 107.233 78.7986C107.115 78.6749 106.967 78.5843 106.803 78.5356C106.64 78.487 106.466 78.4821 106.3 78.5213C105.888 78.611 105.509 78.8132 105.204 79.1054C104.872 79.4229 104.598 79.7967 104.396 80.2097L104.395 80.2102C104.27 80.4554 104.146 80.7007 104.008 80.946C103.931 81.1093 103.81 81.248 103.658 81.3467C103.507 81.4455 103.331 81.5004 103.151 81.5055C103.009 81.5178 102.869 81.5375 102.729 81.5644C102.724 81.6154 102.717 81.662 102.711 81.7058C102.7 81.7801 102.69 81.8465 102.69 81.9129C102.849 81.9691 103.008 81.966 103.165 81.963C103.336 81.9596 103.505 81.9563 103.67 82.0307C103.666 82.1131 103.655 82.1952 103.638 82.2761C103.536 82.633 103.435 82.9898 103.333 83.3467L103.333 83.3478L103.333 83.3489C102.971 84.6207 102.609 85.8922 102.227 87.1622C102.134 87.4669 102.01 87.7613 101.857 88.0407C101.778 88.2035 101.663 88.3461 101.521 88.4576C101.379 88.569 101.213 88.6464 101.036 88.6837C100.926 88.6913 100.815 88.6863 100.705 88.669L100.806 88.4236C100.839 88.3614 100.85 88.2894 100.835 88.2203C100.821 88.1511 100.783 88.0892 100.727 88.0456C100.666 87.9937 100.591 87.9615 100.511 87.9532C100.432 87.9449 100.352 87.9609 100.281 87.999C100.207 88.0299 100.142 88.0802 100.094 88.1447C100.045 88.2092 100.015 88.2854 100.006 88.3656C99.9969 88.4458 100.01 88.5269 100.042 88.6005C100.075 88.6742 100.127 88.7376 100.193 88.7843C100.3 88.8751 100.426 88.9399 100.562 88.9735C100.698 89.0072 100.84 89.0088 100.977 88.9782C101.472 88.8838 101.918 88.618 102.237 88.2272C102.461 87.9474 102.664 87.6512 102.844 87.3413C103.205 86.696 103.486 86.0097 103.683 85.2971C103.855 84.7243 104.019 84.1489 104.183 83.5735C104.292 83.1899 104.401 82.8062 104.513 82.4233C104.541 82.3257 104.58 82.2302 104.62 82.1354L104.62 82.1353L104.62 82.1352L104.62 82.1352L104.62 82.1351L104.62 82.135C104.64 82.087 104.659 82.0392 104.677 81.9914L105.437 81.9399C105.458 81.8587 105.477 81.7788 105.497 81.6901L105.498 81.6893L105.498 81.6891L105.498 81.6881L105.523 81.5816L104.758 81.4589C104.817 81.2941 104.873 81.1329 104.929 80.9746L104.929 80.9743L104.929 80.9737C105.067 80.5829 105.198 80.2092 105.339 79.8392C105.455 79.5173 105.651 79.2308 105.91 79.0072ZM108.684 81.5817C108.684 81.6774 108.684 81.7756 108.655 81.8271C108.591 81.8995 108.504 81.9473 108.409 81.9621C108.225 81.972 108.04 81.972 107.856 81.9621C107.834 82.0171 107.813 82.0682 107.793 82.1171L107.793 82.1172C107.757 82.2036 107.724 82.2831 107.699 82.3646C107.601 82.7027 107.505 83.0411 107.41 83.3794L107.41 83.3799L107.409 83.3805L107.409 83.381L107.409 83.3816L107.409 83.3822L107.409 83.383L107.408 83.3841L107.408 83.3851C107.239 83.9853 107.069 84.5851 106.888 85.1819C106.674 85.9729 106.36 86.7333 105.954 87.4445C105.779 87.7351 105.581 88.0116 105.364 88.2716C105.048 88.6413 104.616 88.8909 104.138 88.9783C104.001 89.0082 103.859 89.0062 103.723 88.9726C103.586 88.939 103.459 88.8747 103.352 88.7845C103.289 88.7346 103.24 88.6692 103.21 88.5946C103.18 88.5201 103.169 88.439 103.18 88.3593C103.191 88.2797 103.222 88.2041 103.27 88.1401C103.319 88.0761 103.383 88.0258 103.457 87.9942C103.528 87.956 103.609 87.9409 103.689 87.951C103.769 87.9611 103.844 87.996 103.903 88.0507C103.958 88.095 103.995 88.1573 104.008 88.2266C104.021 88.2958 104.009 88.3674 103.974 88.4286C103.949 88.4949 103.93 88.563 103.915 88.6323C103.986 88.6795 104.069 88.7046 104.154 88.7046C104.239 88.7046 104.322 88.6795 104.393 88.6323C104.69 88.5043 104.929 88.2697 105.062 87.9746C105.203 87.689 105.321 87.3927 105.415 87.0887C105.873 85.5377 106.317 83.9843 106.76 82.4259C106.791 82.2849 106.815 82.1424 106.831 81.9989L105.836 81.9326L105.863 81.5866C105.924 81.5761 105.983 81.5642 106.042 81.5526C106.161 81.5288 106.276 81.5057 106.393 81.4958C106.545 81.4876 106.693 81.4402 106.822 81.3581C106.951 81.276 107.056 81.162 107.128 81.0271C107.246 80.8263 107.35 80.6256 107.453 80.4248L107.522 80.2909C107.728 79.8567 108.009 79.4622 108.351 79.1252C108.609 78.8748 108.922 78.6875 109.265 78.5779C109.894 78.3816 110.282 78.5411 110.595 79.1276C110.606 79.1463 110.618 79.1635 110.634 79.1857L110.634 79.1859L110.634 79.1866C110.647 79.2049 110.662 79.2266 110.681 79.2552C110.78 79.2159 110.887 79.205 110.991 79.2236C111.096 79.2423 111.193 79.2898 111.272 79.3608C111.369 79.4579 111.434 79.5818 111.46 79.7166C111.486 79.856 111.457 80.0002 111.378 80.1181C111.299 80.236 111.178 80.3183 111.039 80.3473C110.733 80.4291 110.488 80.2221 110.304 79.7264C110.299 79.7226 110.295 79.7182 110.291 79.7137C110.281 79.7035 110.271 79.693 110.257 79.6896C109.691 79.5473 109.676 79.5227 109.855 78.9755C109.858 78.9412 109.858 78.9067 109.855 78.8724C109.761 78.8319 109.661 78.8062 109.559 78.7963C109.448 78.8002 109.34 78.8286 109.241 78.8795C109.143 78.9305 109.057 79.0026 108.99 79.0908C108.824 79.2888 108.679 79.5035 108.557 79.7313C108.309 80.2923 108.103 80.8706 107.939 81.4615L108.684 81.5817ZM16.3285 78.8625L16.3285 78.8625L16.3285 78.8625L16.3284 78.8625C16.2988 78.885 16.2625 78.9127 16.2148 78.9456C16.3044 78.9573 16.3603 78.9704 16.4018 78.9801C16.4386 78.9888 16.4641 78.9947 16.4917 78.9947H16.6706C16.9524 79.034 17.0651 79.169 17.0186 79.4389C16.9768 79.6545 16.9228 79.8675 16.8568 80.077C16.2998 82.0124 15.7443 83.9471 15.1905 85.8809C15.1541 86.0069 15.1232 86.1352 15.0897 86.2748L15.0897 86.2749C15.0736 86.3419 15.0568 86.4114 15.0386 86.4846C15.0919 86.4894 15.138 86.4947 15.1806 86.4996C15.269 86.5097 15.3421 86.5182 15.4331 86.5165C15.521 86.5149 15.61 86.507 15.7082 86.4983L15.7082 86.4983L15.7083 86.4983C15.7606 86.4937 15.8155 86.4889 15.8742 86.4846C15.9182 86.3335 15.9642 86.1851 16.01 86.0375C16.1123 85.708 16.2131 85.383 16.2859 85.044C16.4035 84.5041 16.7539 84.2023 17.2195 83.9348L17.2646 84.0954L17.2647 84.0955L17.2648 84.0959C17.3028 84.2312 17.3378 84.3554 17.3714 84.4796C17.4188 84.6553 17.4647 84.8309 17.5105 85.0063L17.5105 85.0064L17.5106 85.0064L17.5106 85.0064L17.5106 85.0064L17.5106 85.0065L17.5106 85.0065L17.5106 85.0065L17.5106 85.0065L17.5106 85.0065L17.5106 85.0066L17.5106 85.0066L17.5106 85.0066L17.5106 85.0066L17.5106 85.0066L17.5106 85.0067L17.5107 85.0068L17.5107 85.007L17.5108 85.0072L17.5108 85.0073L17.5109 85.0076L17.511 85.0079L17.511 85.0082C17.5861 85.2953 17.661 85.5817 17.7415 85.8662C17.7893 86.0355 17.8533 86.1999 17.9326 86.357C17.9788 86.4576 18.0599 86.538 18.1609 86.5832C18.2619 86.6283 18.3759 86.6351 18.4815 86.6024C18.559 86.585 18.6339 86.5578 18.7045 86.5214C19.1946 86.2361 19.6017 85.8275 19.8856 85.3361C19.6517 85.2654 19.5627 85.3892 19.4789 85.5056L19.4789 85.5056C19.4521 85.5429 19.4258 85.5793 19.3955 85.6085C19.2533 85.786 19.0599 85.9154 18.8417 85.9791C18.7732 85.9159 18.7131 85.8441 18.6628 85.7656C18.362 84.9306 18.1348 84.0708 17.9841 83.1961C18.0541 83.1338 18.1252 83.0693 18.1975 83.0036L18.1976 83.0035C18.3504 82.8647 18.5088 82.7208 18.6751 82.5826C19.1529 82.1801 19.6528 81.8243 20.3022 81.7629C20.3365 81.7597 20.3687 81.7237 20.4008 81.6877C20.4168 81.6697 20.4329 81.6517 20.4493 81.6378C20.4076 81.5911 20.3831 81.5641 20.3831 81.5641H18.1188C18.0966 81.5641 18.0755 81.5909 18.0473 81.6264C18.032 81.6457 18.0146 81.6677 17.9939 81.6893L18.6138 81.8709C18.6163 81.9579 18.5981 82.0443 18.5606 82.1228C18.5231 82.2014 18.4674 82.2698 18.3982 82.3225C17.8916 82.8706 17.3148 83.3492 16.6829 83.7458C16.7048 83.665 16.7243 83.5891 16.743 83.5162C16.7703 83.4098 16.7959 83.3099 16.825 83.2108C17.2367 81.794 17.6451 80.3764 18.0502 78.9579C18.0549 78.9418 18.06 78.9256 18.0653 78.9093C18.1015 78.7963 18.1398 78.6767 18.0135 78.5309C17.5111 78.6119 16.9843 78.6978 16.4599 78.7886C16.4192 78.7935 16.3871 78.8179 16.3285 78.8625ZM23.2134 78.553C21.9661 78.656 21.7088 78.71 21.3584 79.0045C21.5513 78.9956 21.7446 79.0013 21.9367 79.0217C21.9821 79.0274 22.0258 79.0429 22.0647 79.067C22.1037 79.0912 22.137 79.1234 22.1623 79.1616C22.1877 79.1998 22.2045 79.2431 22.2116 79.2884C22.2188 79.3337 22.2161 79.38 22.2038 79.4242C22.1713 79.5809 22.1304 79.7357 22.0813 79.888L20.339 85.9864C20.3091 86.0937 20.2855 86.2035 20.261 86.3177L20.261 86.3178L20.261 86.3178L20.261 86.3179C20.2513 86.3629 20.2415 86.4086 20.2311 86.4551C20.4958 86.5338 20.7766 86.5406 21.0447 86.4748C21.0692 86.3958 21.0932 86.3173 21.1171 86.2393L21.1171 86.2392L21.1171 86.2391C21.1814 86.0289 21.2446 85.8223 21.3143 85.6183C21.3784 85.3642 21.4687 85.1174 21.5838 84.8821C22.0233 84.0744 22.5652 83.327 23.1962 82.6586C23.3078 82.5443 23.4292 82.4401 23.5589 82.347C23.6903 82.2575 23.8328 82.1857 23.9828 82.1335C24.0324 82.1075 24.0885 82.0966 24.1441 82.1021C24.1998 82.1076 24.2526 82.1293 24.2961 82.1645C24.3396 82.1997 24.3719 82.2469 24.3889 82.3003C24.406 82.3536 24.4071 82.4108 24.3921 82.4648C24.3604 82.6411 24.3162 82.815 24.2598 82.985C24.1574 83.309 24.0516 83.6318 23.946 83.9541L23.9459 83.9543L23.9458 83.9547L23.9457 83.9551L23.9456 83.9552L23.9456 83.9554L23.9455 83.9555L23.9455 83.9557L23.9454 83.9559L23.9454 83.956L23.9453 83.9561C23.7832 84.451 23.6214 84.9446 23.4731 85.4391C23.3966 85.6656 23.3472 85.9004 23.3261 86.1385C23.3218 86.2122 23.3358 86.2858 23.3668 86.3528C23.3979 86.4197 23.445 86.4779 23.504 86.5221C23.563 86.5664 23.632 86.5953 23.7049 86.6063C23.7777 86.6173 23.8522 86.6101 23.9216 86.5852C24.0576 86.5528 24.1864 86.4954 24.3014 86.4159C24.6815 86.1587 24.9969 85.8168 25.2228 85.417C25.2292 85.4042 25.2157 85.3808 25.1952 85.3456C25.1845 85.3269 25.1718 85.305 25.1591 85.2796C25.1318 85.3043 25.1049 85.327 25.0787 85.3491L25.0787 85.3491C25.0319 85.3886 24.9876 85.4261 24.9483 85.4686C24.9139 85.5066 24.8797 85.5457 24.8453 85.5851C24.7621 85.6803 24.6775 85.7769 24.5857 85.8637C24.5685 85.8856 24.5465 85.9034 24.5215 85.9156C24.4964 85.9278 24.4689 85.9341 24.4411 85.9341C24.4132 85.9341 24.3857 85.9278 24.3607 85.9156C24.3357 85.9034 24.3137 85.8856 24.2965 85.8637C24.3147 85.7364 24.3401 85.6102 24.3725 85.4858C24.4784 85.1526 24.5888 84.8214 24.6988 84.4912L24.6989 84.4909L24.699 84.4905L24.699 84.4905L24.699 84.4905L24.699 84.4905L24.699 84.4905L24.699 84.4904L24.699 84.4904L24.699 84.4904L24.6991 84.4904C24.8613 84.0035 25.0229 83.5184 25.1689 83.0317C25.2582 82.7673 25.319 82.4942 25.3502 82.2169C25.3693 82.102 25.3597 81.9841 25.3221 81.8739C25.2846 81.7636 25.2203 81.6644 25.1351 81.5851C25.0499 81.5059 24.9463 81.449 24.8338 81.4196C24.7212 81.3903 24.6031 81.3893 24.4901 81.4169C24.2542 81.452 24.0281 81.5355 23.826 81.6623C23.5288 81.8614 23.2543 82.0927 23.0076 82.3519C22.8049 82.5647 22.6222 82.7964 22.4393 83.0283L22.4393 83.0283C22.3502 83.1414 22.261 83.2545 22.1695 83.3654C22.133 83.4084 22.0903 83.4472 22.0228 83.5085C21.9861 83.5419 21.942 83.5819 21.8877 83.6329C21.9264 83.4887 21.9577 83.3666 21.9857 83.257L21.9858 83.2569C22.0198 83.1241 22.049 83.0096 22.0813 82.8967L22.2913 82.1687C22.5918 81.1278 22.8923 80.0866 23.1864 79.0438C23.1957 79.0125 23.2082 78.9803 23.221 78.9475L23.221 78.9474L23.221 78.9474C23.2695 78.8231 23.3219 78.6888 23.2134 78.553ZM51.5141 78.8577C51.7217 78.8577 51.9263 78.8554 52.1287 78.8531C52.6814 78.8469 53.2182 78.8409 53.7563 78.8822C53.7716 78.8822 53.7869 78.9082 53.803 78.9356L53.8031 78.9357C53.8101 78.9478 53.8174 78.9601 53.8249 78.9706C53.7594 79.0999 53.6413 79.1075 53.5277 79.1149C53.4882 79.1175 53.4492 79.12 53.4132 79.1276C53.2747 79.152 53.1453 79.2132 53.0384 79.3047C52.9315 79.3962 52.8511 79.5147 52.8055 79.6479C52.6756 80.0037 52.5604 80.3645 52.4526 80.7277C52.2984 81.2459 52.146 81.764 51.9938 82.2813C51.7856 82.9889 51.578 83.6948 51.367 84.3966C51.2941 84.6245 51.2066 84.8475 51.1048 85.0641C50.9448 85.4314 50.7024 85.7569 50.3964 86.0152C50.0904 86.2736 49.7291 86.4578 49.3405 86.5537C48.7423 86.7208 48.1115 86.7326 47.5075 86.5881C46.9579 86.4591 46.4727 86.1369 46.1402 85.68C45.8814 85.345 45.7416 84.933 45.7432 84.5094C45.7505 84.1107 45.814 83.7149 45.9319 83.3339C46.038 82.9672 46.1453 82.6012 46.2525 82.2354L46.2528 82.2343L46.2532 82.233C46.4205 81.662 46.5877 81.0915 46.7503 80.5191C46.8348 80.2333 46.8962 79.9411 46.9341 79.6454C46.9635 79.3657 46.8606 79.2528 46.5837 79.1767C46.5284 79.1611 46.4714 79.1512 46.4147 79.1414C46.3735 79.1342 46.3323 79.1271 46.2921 79.1178C46.2246 79.1022 46.1791 79.0842 46.1383 79.068C46.1214 79.0613 46.1052 79.0549 46.0887 79.0491C46.0372 78.9141 46.1304 78.8675 46.1916 78.8675H49.1175C49.1258 78.8675 49.1342 78.8777 49.1433 78.8889C49.1476 78.8941 49.152 78.8996 49.1567 78.9043C49.1984 79.0049 49.1371 79.0466 49.0538 79.0663C48.9375 79.0955 48.8197 79.1185 48.7009 79.135C48.5414 79.1542 48.391 79.2197 48.2682 79.3235C48.1454 79.4273 48.0556 79.5648 48.0099 79.7191C47.907 79.9988 47.8187 80.286 47.7354 80.5731C47.4463 81.5547 47.1587 82.5298 46.8729 83.4984C46.7588 83.8596 46.692 84.2341 46.6744 84.6125C46.6624 84.8632 46.7202 85.1123 46.8414 85.332C46.9626 85.5517 47.1423 85.7334 47.3605 85.8567C47.83 86.1255 48.3767 86.2265 48.9111 86.1432C49.4454 86.0598 49.9356 85.7969 50.3011 85.3978C50.5034 85.1526 50.6685 84.8789 50.7912 84.5855C51.0215 84.0137 51.2249 83.4272 51.4063 82.8382C51.6416 82.0509 51.8634 81.2569 52.0847 80.4647L52.0847 80.4646L52.0848 80.4644L52.0848 80.4642L52.0849 80.4639L52.112 80.3669C52.1651 80.1746 52.2085 79.9796 52.2419 79.7829C52.3031 79.4074 52.2198 79.2724 51.8743 79.1546L51.8108 79.1341C51.7193 79.1046 51.6281 79.0752 51.5386 79.0393C51.5317 79.0407 51.5302 79.0219 51.5272 78.9834V78.9833L51.5272 78.9829C51.5248 78.953 51.5216 78.9111 51.5141 78.8577ZM4.20299 78.8517C4.10028 78.8492 3.9917 78.8466 3.95257 78.9947C4.03125 79.1104 4.14995 79.1298 4.26884 79.1493C4.32399 79.1584 4.37917 79.1674 4.43041 79.1861C4.51903 79.2071 4.59689 79.2599 4.64927 79.3345C4.70165 79.4092 4.72491 79.5004 4.71467 79.591C4.69727 79.8089 4.6612 80.0248 4.60685 80.2365C4.43777 80.8721 4.25888 81.5052 4.07754 82.1384C3.94147 82.6136 3.80281 83.0879 3.66418 83.562C3.50074 84.1211 3.33732 84.68 3.17822 85.2403C3.01403 85.8195 2.75428 86.276 2.06324 86.2907C2.04156 86.2907 2.02085 86.3299 1.99121 86.3861C1.97397 86.4187 1.9537 86.4571 1.92847 86.4968C2.29285 86.4888 2.64788 86.4937 2.99684 86.4985H2.99692C3.61011 86.507 4.20455 86.5152 4.79799 86.4527C4.81091 86.451 4.82064 86.4228 4.8335 86.3854C4.84014 86.3661 4.84762 86.3443 4.8568 86.3226L4.79868 86.3039L4.79867 86.3039L4.79866 86.3039L4.79865 86.3039L4.79864 86.3039C4.72574 86.2803 4.65404 86.2571 4.58235 86.2416C4.08735 86.141 4.00403 86.0085 4.1045 85.4833C4.11235 85.4456 4.12523 85.4088 4.13799 85.3725C4.14514 85.3521 4.15225 85.3318 4.15841 85.3115L4.2862 84.8621C4.45696 84.261 4.62836 83.6576 4.80289 83.0685C4.8368 82.9834 4.87779 82.9013 4.92541 82.8231C5.0523 82.8383 5.1751 82.8547 5.29533 82.8708C5.52337 82.9013 5.74214 82.9305 5.96197 82.9482C6.72148 83.0163 7.48323 82.8447 8.14045 82.4574C8.59689 82.1975 8.95256 81.7912 9.15005 81.304C9.23966 81.1017 9.28808 80.8836 9.2925 80.6624C9.29691 80.4412 9.25723 80.2213 9.17577 80.0157C9.09431 79.81 8.9727 79.6227 8.81808 79.4646C8.66345 79.3066 8.4789 79.181 8.27523 79.0953C8.16807 79.0415 8.0544 79.0019 7.93706 78.9775C7.64592 78.9127 7.35013 78.8708 7.05244 78.8523H4.24173C4.22901 78.8523 4.21605 78.852 4.20299 78.8517ZM6.14576 82.5654C5.76965 82.6064 5.38977 82.5365 5.05284 82.3641C5.04548 82.3071 5.04548 82.2494 5.05284 82.1924C5.14694 81.8557 5.2426 81.519 5.33827 81.1823C5.48177 80.6772 5.62527 80.1722 5.76348 79.6671C5.7779 79.5678 5.82838 79.4774 5.90525 79.4131C5.98211 79.3488 6.07997 79.3152 6.18006 79.3186L6.22631 79.3157C6.48804 79.2994 6.7516 79.2829 7.01078 79.3014C7.8807 79.3677 8.19191 80.0009 8.12575 80.6389C7.99832 81.8439 7.23622 82.4991 6.14576 82.5654ZM89.0066 81.4369L87.5142 81.7682C87.3378 81.5816 87.3378 81.5816 86.7864 81.4491C86.803 81.2242 86.8731 81.0095 86.9441 80.7924L86.9441 80.7924C87.0202 80.5595 87.0972 80.3239 87.1099 80.0699C87.0938 80.0672 87.0777 80.0638 87.0619 80.0604C87.0078 80.0491 86.9581 80.0387 86.9334 80.0577C86.8545 80.1155 86.7864 80.187 86.7325 80.2687C86.3494 80.9095 85.7522 81.3938 85.0466 81.6356C84.9941 81.6606 84.9511 81.702 84.924 81.7534C84.9103 81.7702 84.9137 81.7947 84.9182 81.8273C84.9209 81.847 84.924 81.8698 84.924 81.8958L85.6322 81.9768C85.6169 82.0368 85.6025 82.0947 85.5885 82.1509L85.5878 82.1536C85.5506 82.3032 85.5162 82.4412 85.4754 82.578C85.3791 82.9004 85.2816 83.2228 85.184 83.5454L85.1834 83.5475L85.1833 83.5478C84.9982 84.16 84.8129 84.7729 84.6349 85.3879C84.5664 85.6166 84.5293 85.8536 84.5246 86.0923C84.5193 86.1729 84.5333 86.2537 84.5656 86.3277C84.5979 86.4018 84.6474 86.4671 84.71 86.518C84.7727 86.569 84.8466 86.6042 84.9256 86.6206C85.0047 86.6371 85.0865 86.6343 85.1642 86.6125C85.3211 86.5838 85.471 86.5246 85.6053 86.4383C85.9508 86.1993 86.2374 85.8845 86.4433 85.518C86.4501 85.4998 86.4501 85.4798 86.4433 85.4616C86.4409 85.424 86.4273 85.3881 86.4041 85.3585C86.3893 85.3473 86.3719 85.3399 86.3536 85.3369C86.3352 85.3339 86.3164 85.3354 86.2988 85.3413C86.2497 85.3871 86.2053 85.4387 86.1607 85.4905C86.1407 85.5137 86.1207 85.5369 86.1003 85.5597L86.0262 85.6416L86.026 85.6418L86.026 85.6419L86.0259 85.6419C85.9041 85.7768 85.7826 85.9114 85.6543 86.0358C85.6293 86.0487 85.6015 86.0555 85.5734 86.0555C85.5453 86.0555 85.5176 86.0487 85.4926 86.0358C85.4688 86.0206 85.4488 86 85.4344 85.9758C85.4199 85.9515 85.4113 85.9241 85.4092 85.8959C85.4255 85.7578 85.4543 85.6215 85.495 85.4886C85.8217 84.4186 86.1485 83.3502 86.4752 82.2835C86.4977 82.211 86.5287 82.1406 86.5612 82.0667L86.5614 82.0662C86.5784 82.0278 86.5957 81.9884 86.6124 81.9473C86.8137 81.9177 87.0179 81.9136 87.2201 81.935C87.3864 81.9714 87.5542 81.9854 87.7213 81.9994C87.8474 82.01 87.9731 82.0205 88.0974 82.0406C88.1877 82.052 88.2725 82.0905 88.3407 82.1509C88.4089 82.2113 88.4573 82.2909 88.4797 82.3792C88.5354 82.5703 88.5756 82.7657 88.5998 82.9633C88.6292 83.2861 88.6519 83.61 88.6747 83.9338L88.6747 83.9339L88.6747 83.9341L88.6747 83.9343L88.6748 83.9345L88.6748 83.9347L88.6748 83.9348L88.6748 83.935L88.6749 83.9352L88.6749 83.9354L88.6749 83.9355L88.6749 83.9357L88.6749 83.9359L88.675 83.936V83.9362C88.7221 84.6085 88.7692 85.2806 88.8767 85.9426C88.9356 86.2338 88.9127 86.5357 88.8106 86.8146C88.7085 87.0936 88.5312 87.3388 88.2984 87.523C88.2222 87.5935 88.1471 87.6711 88.0733 87.7473L88.0732 87.7474C87.9905 87.8329 87.9094 87.9167 87.8303 87.9868C87.7307 88.0751 87.6257 88.1525 87.5137 88.235C87.4577 88.2763 87.3999 88.3189 87.3402 88.3647C87.3081 88.3261 87.279 88.2901 87.2518 88.2563L87.2516 88.256C87.196 88.1869 87.1478 88.127 87.0952 88.0727C87.0449 88.0095 86.9731 87.9671 86.8936 87.9535C86.814 87.9399 86.7322 87.9561 86.6639 87.9991C86.5345 88.0877 86.4231 88.2002 86.3355 88.3304C86.2934 88.4 86.2737 88.4808 86.279 88.562C86.2842 88.6432 86.3142 88.7208 86.3649 88.7844C86.4137 88.8606 86.484 88.9204 86.567 88.9563C86.65 88.9922 86.7417 89.0024 86.8305 88.9856C86.9281 88.9651 87.0233 88.9347 87.1148 88.8948C87.4281 88.7619 87.7089 88.5626 87.9381 88.3108C89.2609 86.9511 90.4683 85.4833 91.5477 83.9228C91.7196 83.6771 91.8783 83.4223 92.0231 83.1596C92.1973 82.867 92.2959 82.5355 92.3098 82.1952C92.3186 81.9937 92.2561 81.7955 92.1334 81.6356C92.0592 81.5408 91.9556 81.4734 91.8389 81.444C91.7222 81.4147 91.599 81.4251 91.4889 81.4737C91.3775 81.5238 91.2897 81.6151 91.2441 81.7286C91.1984 81.842 91.1983 81.9688 91.2439 82.0823C91.2997 82.2069 91.3836 82.317 91.4889 82.4038C91.5914 82.4859 91.7013 82.5582 91.8173 82.6197C91.7986 82.8509 91.7135 83.0716 91.5722 83.2553C91.0771 84.0757 90.5209 84.8575 89.9083 85.5941C89.843 85.6476 89.7704 85.6914 89.6927 85.7241C89.6772 85.5537 89.6626 85.3878 89.6483 85.2253C89.6151 84.8473 89.5834 84.4869 89.5457 84.1265C89.4771 83.4517 89.4035 82.7768 89.3202 82.1044C89.3008 81.8509 89.1892 81.6134 89.0066 81.4369ZM96.7746 86.3841C96.0339 86.5335 95.2732 86.5559 94.525 86.4503C94.4809 86.3497 94.5397 86.2982 94.6206 86.2785C95.0315 86.1745 95.3894 85.9219 95.6253 85.5693C96.2134 84.7922 96.7991 84.0101 97.3823 83.2232C98.4033 81.8473 99.4227 80.4689 100.441 79.0881C100.522 78.9752 100.612 78.8685 100.71 78.769C100.731 78.7485 100.768 78.7473 100.817 78.7457C100.844 78.7449 100.874 78.7439 100.906 78.7396C100.915 78.899 100.915 79.0587 100.906 79.2181C100.772 80.5875 100.635 81.9569 100.494 83.3263C100.434 83.9398 100.376 84.555 100.32 85.1717C100.309 85.3351 100.309 85.4992 100.32 85.6626C100.309 85.7934 100.346 85.9239 100.425 86.029C100.503 86.1341 100.618 86.2064 100.747 86.2319C100.894 86.2744 101.042 86.3088 101.193 86.335V86.4233C100.967 86.546 99.4505 86.5804 98.3233 86.4847C98.3388 86.4596 98.3522 86.4312 98.3647 86.4048C98.3876 86.3562 98.4073 86.3145 98.4311 86.3129C99.2482 86.2255 99.2952 85.857 99.3721 85.255L99.3745 85.2356C99.4056 84.9868 99.4236 84.7359 99.4423 84.4748C99.4516 84.3444 99.4611 84.2113 99.4726 84.0748C99.3832 84.042 99.2902 84.0197 99.1957 84.0085H97.3676C96.978 84.4788 96.6148 84.9704 96.2796 85.481C96.2364 85.5483 96.2042 85.622 96.184 85.6994C96.1525 85.7847 96.1519 85.8784 96.1824 85.964C96.2128 86.0497 96.2724 86.122 96.3507 86.1681C96.3954 86.1947 96.449 86.2208 96.5166 86.2535L96.5167 86.2536L96.517 86.2537C96.5863 86.2874 96.6704 86.3282 96.7746 86.3841ZM99.5167 81.0219C99.5921 80.9514 99.674 80.8883 99.7612 80.8332C99.7 81.7994 99.6095 82.6413 99.502 83.476C98.9379 83.6034 98.3532 83.6093 97.7866 83.4931C97.7866 83.4799 97.7847 83.4655 97.7827 83.4513C97.779 83.4235 97.7753 83.3965 97.7866 83.3803C98.3617 82.5933 98.9384 81.8072 99.5167 81.0219ZM55.278 81.4958C54.7095 81.4737 53.8616 81.6111 53.4524 81.8835L53.4564 81.8839C53.5628 81.8936 53.6673 81.9031 53.8053 81.8983C54.1704 81.913 54.2782 82.0357 54.2047 82.3744C54.1731 82.5245 54.1305 82.6728 54.088 82.8208L54.088 82.8208L54.0879 82.8209L54.0879 82.8209L54.0879 82.8209L54.0879 82.821L54.0879 82.821L54.0879 82.821L54.0879 82.8211L54.0879 82.8211L54.0878 82.8211L54.0878 82.8212L54.0878 82.8212L54.0878 82.8212L54.0878 82.8213L54.0878 82.8213L54.0878 82.8213L54.0878 82.8214L54.0878 82.8214L54.0877 82.8214L54.0877 82.8215L54.0675 82.8922C53.9361 83.357 53.8038 83.8214 53.6715 84.2855C53.4979 84.8946 53.3245 85.5033 53.1534 86.1119C53.1288 86.2287 53.11 86.3467 53.0971 86.4653C53.3664 86.5172 53.6442 86.5054 53.9082 86.431C53.9387 86.3351 53.9697 86.2401 54.0006 86.1455C54.044 86.0123 54.0872 85.8797 54.1287 85.7463C54.5303 84.5307 55.2276 83.4343 56.1577 82.556C56.3182 82.4072 56.4999 82.2831 56.6968 82.1878C56.8316 82.1142 56.9885 82.0357 57.1453 82.1584C57.2049 82.2121 57.2455 82.2837 57.261 82.3625C57.2764 82.4413 57.2659 82.5229 57.2311 82.5952C57.1526 82.8848 57.062 83.1695 56.9689 83.4542C56.8827 83.7188 56.7943 83.9826 56.7058 84.2465L56.7054 84.2476C56.5725 84.644 56.4396 85.0405 56.3146 85.4395C56.2406 85.6669 56.1953 85.9027 56.1798 86.1414C56.1713 86.2117 56.1805 86.283 56.2066 86.3489C56.2327 86.4147 56.2748 86.473 56.3291 86.5184C56.3834 86.5638 56.4482 86.5948 56.5176 86.6087C56.587 86.6226 56.6587 86.6188 56.7263 86.5978C56.9181 86.5526 57.099 86.4691 57.258 86.3524C57.5819 86.1174 57.8553 85.8194 58.0618 85.4763C58.0758 85.4561 58.0661 85.421 58.0521 85.3705C58.0441 85.3414 58.0346 85.3072 58.0275 85.2677C58.0026 85.2899 57.9797 85.31 57.9585 85.3287L57.9583 85.3288L57.9582 85.3289L57.9581 85.329C57.8854 85.3931 57.8317 85.4404 57.7824 85.4935C57.7589 85.5212 57.7352 85.5496 57.7113 85.5782C57.6209 85.6864 57.5274 85.7984 57.4246 85.8935C57.3503 85.9407 57.2668 85.9717 57.1796 85.9843C57.1442 85.884 57.1309 85.7773 57.1406 85.6714C57.1503 85.5655 57.1829 85.4629 57.236 85.3708L57.9711 83.037C58.0371 82.8283 58.0911 82.6161 58.1328 82.4013C58.2603 81.7167 57.851 81.3191 57.1747 81.4516C56.7976 81.5265 56.4542 81.7199 56.1945 82.0038C55.9274 82.281 55.6817 82.5721 55.4362 82.863L55.4362 82.8631L55.4361 82.8631L55.4361 82.8631L55.4359 82.8634L55.4357 82.8636L55.4356 82.8637L55.4356 82.8638L55.4355 82.8638L55.4355 82.8638L55.4355 82.8639L55.4355 82.8639L55.4355 82.8639L55.4354 82.8639L55.4354 82.864L55.4354 82.864L55.4354 82.864L55.4353 82.8641L55.4353 82.8641C55.3095 83.0132 55.1837 83.1623 55.055 83.3094C55.0099 83.3605 54.9547 83.4163 54.8854 83.4863C54.8417 83.5305 54.7924 83.5803 54.7365 83.6382C54.8038 83.2527 54.9101 82.8992 55.0134 82.5558C55.1205 82.1996 55.2244 81.8544 55.278 81.4958ZM122.385 86.0211C122.603 86.0211 122.687 85.8686 122.771 85.7181C122.841 85.5913 122.911 85.466 123.059 85.4346C123.068 85.4546 123.08 85.4729 123.091 85.4892C123.108 85.5168 123.122 85.5385 123.117 85.5524C122.971 85.9031 122.726 86.2033 122.412 86.4162C122.33 86.4736 122.242 86.5214 122.149 86.5585C121.706 86.7377 121.382 86.5021 121.414 86.0285C121.414 85.9551 121.433 85.8827 121.452 85.8101L121.452 85.81C121.464 85.766 121.475 85.7219 121.483 85.6775C121.495 85.6036 121.501 85.5462 121.508 85.4706L121.508 85.4702L121.508 85.4701L121.508 85.4698L121.508 85.4696V85.4695C121.512 85.4249 121.517 85.3738 121.525 85.3094C121.481 85.3375 121.444 85.3606 121.411 85.381C121.35 85.4191 121.304 85.4476 121.262 85.4812C121.155 85.5697 121.05 85.6607 120.944 85.7517L120.944 85.7518L120.944 85.7518L120.944 85.7519L120.944 85.7519L120.944 85.752L120.944 85.752L120.943 85.7521C120.733 85.9336 120.522 86.1154 120.297 86.2788C120.006 86.4931 119.656 86.6122 119.295 86.6199C119.013 86.6313 118.738 86.5345 118.525 86.3493C118.312 86.1641 118.178 85.9044 118.15 85.6235C118.098 85.2092 118.146 84.7885 118.29 84.3965C118.635 83.3647 119.328 82.4856 120.25 81.9105C120.505 81.7549 120.778 81.6328 121.064 81.5473C121.574 81.3976 122.044 81.4491 122.394 81.9277C122.408 81.9448 122.433 81.954 122.462 81.9647C122.479 81.9709 122.497 81.9776 122.514 81.9866C122.534 81.9499 122.553 81.9117 122.573 81.8731L122.573 81.873C122.616 81.7902 122.659 81.7052 122.706 81.6283L123.514 81.4957C123.507 81.6046 123.492 81.7129 123.47 81.8197C123.363 82.1963 123.254 82.5718 123.145 82.9476L123.145 82.9477L123.145 82.9484L123.145 82.9491L123.144 82.9503L123.144 82.9522L123.144 82.9532C122.933 83.6821 122.721 84.4119 122.519 85.1523C122.504 85.2152 122.484 85.2788 122.465 85.3434L122.464 85.3437C122.4 85.5539 122.332 85.7753 122.385 86.0211ZM122.224 82.677L122.224 82.6764C122.219 82.5781 122.215 82.5137 122.206 82.4504C122.204 82.3445 122.178 82.2404 122.129 82.1463C122.081 82.0521 122.011 81.9703 121.926 81.9073C121.841 81.8442 121.743 81.8015 121.639 81.7825C121.535 81.7635 121.428 81.7687 121.326 81.7976C121.169 81.8207 121.019 81.8758 120.885 81.9596C120.65 82.1089 120.434 82.287 120.243 82.4897C119.733 83.0549 119.37 83.7366 119.184 84.475C119.12 84.7456 119.097 85.0245 119.116 85.302C119.122 85.3917 119.146 85.4792 119.186 85.5593C119.227 85.6395 119.283 85.7106 119.352 85.7686C119.42 85.8265 119.5 85.87 119.586 85.8965C119.671 85.923 119.762 85.932 119.851 85.9229C120.171 85.8949 120.474 85.766 120.716 85.5548C121.325 85.095 121.782 84.4622 122.027 83.7388C122.114 83.4553 122.183 83.1669 122.235 82.875C122.23 82.7966 122.227 82.7333 122.224 82.6799L122.224 82.677ZM30.6012 85.7191C30.518 85.8691 30.4339 86.0208 30.2169 86.0208C30.1588 85.777 30.2282 85.5561 30.2958 85.3406L30.2958 85.3406L30.2958 85.3405L30.2959 85.3405L30.2959 85.3404L30.2959 85.3403L30.2959 85.3403L30.2959 85.3402L30.2959 85.3402L30.296 85.3401L30.296 85.3401L30.296 85.34L30.296 85.3399L30.296 85.3399C30.3168 85.2737 30.3374 85.208 30.3541 85.1423C30.5559 84.4017 30.7673 83.6718 30.9785 82.9428L30.9785 82.9426L30.9787 82.9419C31.088 82.5647 31.1972 82.1877 31.3049 81.8096C31.326 81.7076 31.3407 81.6043 31.349 81.5004C31.0676 81.5083 30.7887 81.5563 30.5208 81.6427L30.3517 81.9741C30.3341 81.9652 30.3165 81.959 30.3002 81.9532C30.2712 81.9428 30.2466 81.934 30.234 81.9152C29.8812 81.4366 29.4131 81.3851 28.901 81.5348C28.6153 81.6202 28.3418 81.7423 28.0874 81.898C27.1647 82.4715 26.4713 83.35 26.127 84.3815C25.9905 84.7582 25.9395 85.1606 25.9775 85.5595C25.9852 85.7144 26.0251 85.8661 26.0945 86.0048C26.164 86.1435 26.2615 86.2661 26.381 86.365C26.5004 86.4638 26.6391 86.5366 26.7882 86.5788C26.9373 86.6209 27.0935 86.6315 27.2469 86.6098C27.6036 86.5705 27.9426 86.4338 28.2271 86.2147C28.4233 86.0661 28.6071 85.903 28.7912 85.7395L28.7912 85.7395L28.7914 85.7394C28.89 85.6518 28.9888 85.5641 29.0897 85.4785C29.1304 85.444 29.1751 85.4155 29.2386 85.3751L29.2386 85.375C29.2744 85.3522 29.3162 85.3256 29.3666 85.292C29.348 85.4033 29.3295 85.5019 29.3125 85.5926C29.2822 85.7538 29.2566 85.89 29.244 86.0282C29.2097 86.4994 29.5357 86.7374 29.9792 86.5583C30.0718 86.5211 30.1597 86.4733 30.2414 86.416C30.5556 86.2041 30.801 85.9046 30.9471 85.5546C30.9532 85.541 30.9407 85.52 30.9245 85.4928C30.9143 85.4757 30.9027 85.4561 30.8932 85.4343C30.7422 85.4648 30.672 85.5913 30.6012 85.7191ZM30.062 82.8228C30.0572 82.7513 30.0543 82.6957 30.0519 82.6496L30.0519 82.6495C30.0485 82.5837 30.0461 82.5374 30.0405 82.4919C29.9669 81.9397 29.619 81.6943 29.0603 81.8268C28.924 81.8557 28.7944 81.9098 28.678 81.9863C28.462 82.1274 28.2623 82.292 28.0825 82.4771C27.5595 83.0562 27.186 83.7547 26.9945 84.5116C26.9349 84.7638 26.9143 85.0237 26.9332 85.2822C26.9367 85.3774 26.9602 85.4708 27.0021 85.5564C27.044 85.6419 27.1033 85.7177 27.1764 85.7788C27.2494 85.8399 27.3344 85.8849 27.4259 85.911C27.5174 85.937 27.6134 85.9435 27.7076 85.93C28.0061 85.8971 28.2882 85.7767 28.5187 85.584C29.1747 85.091 29.6598 84.4043 29.9057 83.6207C29.9783 83.3592 30.0306 83.0924 30.062 82.8228ZM40.5334 81.9668L40.7001 81.6331C40.9714 81.5513 41.2524 81.5059 41.5357 81.4981C41.525 81.5536 41.5165 81.6039 41.5087 81.6504C41.4951 81.7316 41.4833 81.8016 41.4646 81.8687C41.3128 82.4047 41.1597 82.9407 41.0066 83.4767L41.0052 83.4815C40.8524 84.0163 40.6997 84.5511 40.5481 85.086C40.482 85.3166 40.4232 85.5498 40.3742 85.7829C40.3695 85.8611 40.3752 85.9395 40.3913 86.0161C40.6076 86.0161 40.6913 85.8644 40.7738 85.7151C40.8456 85.5852 40.9164 85.4571 41.0725 85.432C41.0805 85.4504 41.0895 85.4674 41.0977 85.4829C41.1147 85.5151 41.1282 85.5406 41.1216 85.5572C40.9557 85.9432 40.6705 86.2658 40.308 86.4774C40.2142 86.5539 40.0997 86.6006 39.9792 86.6115C39.8587 86.6225 39.7377 86.5971 39.6317 86.5388C39.5376 86.4639 39.4696 86.3612 39.4374 86.2452C39.4053 86.1292 39.4107 86.0061 39.4528 85.8934C39.4746 85.7823 39.4935 85.6713 39.5164 85.5368L39.5164 85.5364L39.5166 85.5356C39.5295 85.4593 39.5438 85.3755 39.5606 85.2798C39.5046 85.3204 39.4593 85.3519 39.4208 85.3786L39.4208 85.3786C39.3617 85.4196 39.3189 85.4493 39.2788 85.4835C39.1531 85.5842 39.0303 85.6911 38.907 85.7985L38.907 85.7985C38.7298 85.9527 38.5516 86.1078 38.3623 86.2468C38.0728 86.4634 37.7258 86.5897 37.365 86.61C37.2206 86.6224 37.0752 86.6063 36.9371 86.5624C36.799 86.5186 36.6709 86.4479 36.5601 86.3545C36.4493 86.2611 36.3579 86.1467 36.2912 86.0179C36.2246 85.889 36.1839 85.7483 36.1716 85.6038C36.1227 85.1891 36.1722 84.7687 36.3161 84.3767C36.6627 83.3478 37.3557 82.4715 38.2765 81.8981C38.5142 81.7535 38.7685 81.6381 39.0337 81.5545C39.5655 81.3877 40.058 81.4318 40.4232 81.9251C40.433 81.9496 40.4893 81.9668 40.5334 81.9668ZM40.2418 82.8797C40.2349 82.7815 40.2307 82.712 40.2274 82.6579L40.2274 82.6578C40.2237 82.5971 40.2212 82.5556 40.2173 82.5141C40.1561 81.9226 39.7958 81.665 39.2249 81.8098C39.0896 81.8408 38.9615 81.8975 38.8475 81.9766C38.6329 82.1186 38.4341 82.2832 38.2545 82.4675C37.7926 82.9936 37.4454 83.6104 37.2351 84.2786C37.1304 84.5802 37.0879 84.8999 37.1101 85.2185C37.1108 85.324 37.1351 85.4279 37.1812 85.5227C37.2273 85.6176 37.2942 85.7008 37.3767 85.7663C37.4593 85.8318 37.5555 85.8778 37.6582 85.9011C37.7609 85.9244 37.8676 85.9242 37.9702 85.9007C38.2453 85.8498 38.5026 85.729 38.7176 85.5498C39.3268 85.0916 39.7844 84.4606 40.0311 83.7387C40.1175 83.4591 40.1878 83.1747 40.2418 82.8871V82.8797ZM9.47842 84.6195C9.52762 84.1306 9.67786 83.6573 9.9196 83.2298C10.1613 82.8022 10.4893 82.4297 10.8825 82.136C11.3623 81.7392 11.9475 81.4918 12.566 81.4243C12.901 81.3828 13.2409 81.4373 13.5462 81.5813C13.8217 81.7041 14.0561 81.9035 14.2216 82.1558C14.3871 82.4081 14.4768 82.7028 14.4799 83.0047C14.5049 83.5154 14.4153 84.0251 14.2177 84.4965C14.02 84.9679 13.7194 85.389 13.3379 85.7287C12.8961 86.1363 12.3568 86.4229 11.7721 86.5607C11.4618 86.6398 11.1377 86.6482 10.8237 86.5852C9.98322 86.4085 9.46617 85.7189 9.47842 84.6195ZM13.534 82.9163C13.5413 82.797 13.5413 82.6774 13.534 82.5581C13.5265 82.4074 13.4815 82.2609 13.4032 82.132C13.3248 82.0032 13.2155 81.896 13.0853 81.8201C12.955 81.7443 12.8079 81.7023 12.6573 81.6978C12.5067 81.6934 12.3574 81.7268 12.223 81.7948C11.9626 81.8988 11.7331 82.0677 11.5564 82.2856C10.9244 83.0346 10.5339 83.9579 10.4366 84.9336C10.4145 85.1121 10.4145 85.2926 10.4366 85.4711C10.4483 85.6216 10.4964 85.767 10.5767 85.8948C10.657 86.0226 10.7671 86.129 10.8975 86.2048C11.0279 86.2806 11.1747 86.3236 11.3253 86.33C11.476 86.3364 11.6259 86.3061 11.7623 86.2416C12.0051 86.1496 12.2196 85.9956 12.3847 85.795C13.0755 84.9894 13.4797 83.9769 13.534 82.9163ZM68.1872 85.2653C68.083 84.984 68.0735 84.6763 68.1602 84.3892C68.3789 84.3519 68.5839 84.3185 68.7838 84.286C68.8997 84.2672 69.014 84.2486 69.1282 84.2297C69.7183 84.1301 70.2849 83.9221 70.7994 83.6161C71.1287 83.4249 71.4056 83.1552 71.6056 82.8308C71.9806 82.178 71.6938 81.5866 70.9587 81.4565C70.3437 81.3572 69.7133 81.4743 69.1748 81.7878C68.6986 82.0421 68.2808 82.3934 67.9483 82.819C67.6157 83.2446 67.3758 83.7351 67.2438 84.2591C67.1643 84.5682 67.1394 84.8888 67.1702 85.2064C67.1957 85.5899 67.3659 85.9493 67.6462 86.2118C67.9265 86.4742 68.296 86.6202 68.6797 86.6199C68.9376 86.6253 69.1949 86.5948 69.4443 86.5291C70.1547 86.3196 70.7922 85.9149 71.2846 85.361C71.2994 85.3446 71.3032 85.3172 71.3085 85.2788V85.2787C71.3111 85.2597 71.3141 85.2381 71.3189 85.2138C71.2843 85.2201 71.2487 85.2178 71.2152 85.2157C71.1704 85.2128 71.1292 85.2102 71.0984 85.2285C70.9477 85.3207 70.8016 85.4198 70.6546 85.5195L70.6544 85.5196L70.6541 85.5198L70.6539 85.5199L70.6538 85.52L70.6538 85.52C70.5859 85.5661 70.5178 85.6123 70.449 85.6579C70.1628 85.8407 69.8398 85.958 69.5031 86.0015C69.2337 86.0385 68.9596 85.9867 68.7222 85.8539C68.4847 85.7211 68.297 85.5145 68.1872 85.2653ZM70.1892 83.3879C69.6195 83.7889 68.9446 84.0133 68.2485 84.0333C68.3685 83.0615 69.0596 82.1363 69.8511 81.8247C70.0357 81.7537 70.2317 81.7171 70.4294 81.7167C70.5008 81.7129 70.5722 81.7253 70.6382 81.7532C70.7041 81.781 70.7629 81.8234 70.8101 81.8773C70.8572 81.9312 70.8916 81.9951 70.9106 82.0642C70.9295 82.1332 70.9326 82.2058 70.9195 82.2762C70.9008 82.4337 70.8544 82.5866 70.7823 82.7278C70.6458 82.9961 70.4413 83.2237 70.1892 83.3879ZM128.175 84.384C127.817 85.3117 128.731 86.2442 129.731 85.9497C130.073 85.8439 130.398 85.6902 130.697 85.4933C130.756 85.4559 130.814 85.4168 130.871 85.3776C130.962 85.3163 131.052 85.2551 131.148 85.2012C131.171 85.1859 131.212 85.2001 131.252 85.2143C131.27 85.2206 131.288 85.2269 131.304 85.2307C131.304 85.2847 131.304 85.3362 131.277 85.3583C130.77 85.9261 130.111 86.3365 129.378 86.5412C129.186 86.5885 128.988 86.614 128.79 86.6172C128.575 86.6285 128.36 86.595 128.158 86.5189C127.956 86.4427 127.773 86.3256 127.618 86.1748C127.464 86.024 127.343 85.8429 127.262 85.6428C127.181 85.4427 127.142 85.228 127.148 85.0123C127.144 84.7536 127.177 84.4958 127.246 84.2466C127.379 83.7229 127.62 83.2327 127.953 82.8076C128.286 82.3824 128.704 82.0317 129.18 81.7778C129.735 81.4495 130.391 81.3376 131.023 81.4636C131.201 81.4985 131.369 81.575 131.513 81.687C131.634 81.7771 131.724 81.904 131.768 82.0489C131.812 82.1939 131.808 82.3492 131.758 82.4919C131.69 82.722 131.572 82.9341 131.412 83.1128C131.11 83.4299 130.745 83.6806 130.341 83.849C129.77 84.0818 129.17 84.2386 128.557 84.3153L128.175 84.384ZM128.251 84.0282C128.884 84.0077 129.5 83.8225 130.04 83.4907C130.367 83.2976 130.635 83.0183 130.814 82.6833C130.942 82.4379 131.03 82.1508 130.814 81.898C130.599 81.6452 130.324 81.6772 130.042 81.7532C129.72 81.8535 129.424 82.0274 129.18 82.2612C128.67 82.7208 128.341 83.3473 128.251 84.0282ZM113.946 85.3247C113.937 85.2972 113.926 85.2657 113.918 85.2304C113.845 85.2748 113.777 85.3266 113.715 85.385C113.656 85.4529 113.601 85.5242 113.546 85.5957C113.48 85.6819 113.414 85.7683 113.34 85.8489C113.261 85.9323 113.163 86.0305 113.031 85.9642C112.899 85.8979 112.896 85.8071 112.938 85.6525C112.953 85.5963 112.967 85.5401 112.981 85.4839C113.006 85.3858 113.031 85.288 113.061 85.1912C113.387 84.0835 113.714 82.9751 114.041 81.8659C114.131 81.5575 114.221 81.2496 114.312 80.9417L114.312 80.9415L114.312 80.9414L114.312 80.9413L114.312 80.9411L114.312 80.9409L114.312 80.9406L114.312 80.9401L114.312 80.9391L114.313 80.9378L114.313 80.9357L114.314 80.9325L114.316 80.9281C114.51 80.2676 114.704 79.6069 114.893 78.9406C114.898 78.926 114.903 78.9112 114.908 78.8962L114.909 78.8941L114.909 78.8937V78.8937C114.946 78.7828 114.987 78.6602 114.837 78.5357C114.677 78.56 114.513 78.5841 114.349 78.6084L114.348 78.6085L114.348 78.6085L114.348 78.6085L114.348 78.6085L114.348 78.6085L114.348 78.6085L114.348 78.6085C114.014 78.6578 113.673 78.7081 113.333 78.7639L113.331 78.7641C113.25 78.7764 113.132 78.7943 113.161 78.9749C113.205 78.9801 113.25 78.9849 113.295 78.9897C113.4 79.0007 113.505 79.0118 113.609 79.0289C113.803 79.0633 113.901 79.1737 113.869 79.3578C113.824 79.6123 113.763 79.8639 113.688 80.1112C113.173 81.8487 112.659 83.5862 112.146 85.3237C112.072 85.5507 112.014 85.7828 111.973 86.0182C111.957 86.1021 111.963 86.1885 111.99 86.2695C112.017 86.3505 112.063 86.4235 112.125 86.4819C112.188 86.5402 112.263 86.582 112.346 86.6035C112.428 86.6249 112.515 86.6254 112.597 86.6047C112.715 86.584 112.828 86.5442 112.933 86.4869C113.366 86.2363 113.721 85.8712 113.96 85.4317C113.974 85.4097 113.962 85.3736 113.946 85.3247ZM80.4396 81.4074C80.3801 81.969 80.2744 82.5247 80.1235 83.0689C80.1235 83.0808 80.0981 83.0855 80.0611 83.0923C80.0373 83.0967 80.0087 83.1019 79.9789 83.1106C79.9626 83.0499 79.9463 82.9914 79.9297 82.932C79.9114 82.8665 79.8928 82.7998 79.8736 82.7277C79.8299 82.5345 79.7667 82.3462 79.6849 82.1658C79.6108 82.025 79.4981 81.9084 79.36 81.8297C79.2219 81.751 79.0643 81.7135 78.9056 81.7216C78.7903 81.7148 78.6752 81.7389 78.5723 81.7915C78.4693 81.8441 78.3823 81.9233 78.3201 82.0208C78.2579 82.1183 78.2229 82.2307 78.2185 82.3464C78.2142 82.462 78.2407 82.5767 78.2955 82.6787C78.4007 82.8616 78.5229 83.0341 78.6606 83.194C78.7566 83.3222 78.8572 83.4417 78.9573 83.5605L78.9576 83.5608C79.0491 83.6693 79.1401 83.7774 79.2266 83.891C79.325 84.0168 79.4127 84.1506 79.4888 84.291C80.0598 85.3487 79.4398 86.4997 78.2366 86.6052C77.918 86.6261 77.5983 86.5844 77.2957 86.4825C76.8112 86.3297 76.8056 86.3327 76.3794 86.5675L76.3645 86.5758C76.2681 86.3344 76.2688 86.3304 76.3342 85.9942L76.3375 85.977C76.3545 85.893 76.3641 85.8067 76.3738 85.7203L76.3738 85.7202L76.3738 85.7201L76.3738 85.72L76.3738 85.7198C76.3864 85.6069 76.3991 85.4938 76.4282 85.3855C76.4418 85.3349 76.4482 85.2807 76.4548 85.225C76.4732 85.0698 76.493 84.9025 76.6732 84.7671C76.7175 84.8628 76.756 84.9612 76.7884 85.0616C76.8048 85.1254 76.817 85.191 76.8291 85.2569V85.2569L76.8291 85.257L76.8292 85.2571L76.8292 85.2572L76.8292 85.2572L76.8292 85.2573L76.8293 85.2574L76.8293 85.2575L76.8293 85.2576L76.8293 85.2578L76.8294 85.2578L76.8294 85.2579L76.8294 85.258L76.8294 85.2581L76.8294 85.2581L76.8295 85.2582V85.2583C76.8462 85.3489 76.863 85.44 76.8913 85.5279C76.9365 85.6764 77.0121 85.8139 77.1131 85.9317C77.2142 86.0495 77.3386 86.145 77.4784 86.2121C77.6182 86.2793 77.7705 86.3166 77.9255 86.3217C78.0804 86.3269 78.2348 86.2997 78.3788 86.242C78.4781 86.2077 78.5694 86.1535 78.6471 86.0828C78.7248 86.012 78.7874 85.9262 78.8309 85.8304C78.8745 85.7347 78.8981 85.6311 78.9005 85.5259C78.9028 85.4207 78.8837 85.3162 78.8444 85.2186C78.7522 84.9979 78.6319 84.7901 78.4866 84.6002C78.3874 84.4628 78.2789 84.3321 78.1705 84.2015C78.062 84.0708 77.9536 83.9401 77.8544 83.8026C77.7008 83.5944 77.5694 83.3707 77.4623 83.1351C77.3981 82.967 77.3707 82.787 77.3819 82.6073C77.3931 82.4277 77.4427 82.2525 77.5272 82.0937C77.6117 81.9348 77.7293 81.796 77.872 81.6865C78.0147 81.577 78.1791 81.4994 78.3543 81.459C78.6449 81.3829 78.9509 81.3879 79.2389 81.4737C79.4178 81.5593 79.6087 81.6172 79.805 81.6455C80.0274 81.5991 80.2415 81.5188 80.4396 81.4074ZM63.4299 86.1623L63.4299 86.1632L63.4301 86.1665C63.4414 86.3314 63.4534 86.5054 63.4676 86.6936C63.5857 86.6229 63.6995 86.545 63.8082 86.4605C64.6217 85.6907 65.3602 84.8452 66.0136 83.9352C66.2346 83.6033 66.4367 83.2592 66.6189 82.9045C66.7543 82.6582 66.8228 82.3806 66.8174 82.0995C66.818 81.9171 66.7487 81.7414 66.6238 81.6087C66.53 81.5034 66.3987 81.439 66.2581 81.4293C66.1175 81.4197 65.9787 81.4656 65.8715 81.5572C65.784 81.653 65.738 81.7796 65.7435 81.9093C65.749 82.039 65.8056 82.1612 65.9009 82.2492L65.9426 82.291C66.2734 82.6517 66.2905 82.7499 66.0871 83.1842C66.0474 83.2759 65.9981 83.3631 65.9401 83.4444C65.4819 84.0481 65.0236 84.6518 64.558 85.2506C64.4735 85.3255 64.3796 85.389 64.2787 85.4396C64.2687 85.3091 64.2568 85.1866 64.2454 85.0692V85.0691C64.2231 84.8399 64.2027 84.6305 64.2027 84.4211C64.1694 83.7431 64.0792 83.0692 63.9331 82.4063C63.8842 82.0694 63.7666 81.7461 63.5876 81.4566C63.089 81.4845 62.5954 81.5718 62.1173 81.7167C62.0987 81.7229 62.0869 81.7569 62.0708 81.8034C62.0615 81.8302 62.0508 81.8611 62.0365 81.8934H62.3599C62.4911 81.883 62.6217 81.9201 62.7279 81.998C62.834 82.076 62.9087 82.1895 62.9383 82.318C63.0174 82.5438 63.0764 82.7762 63.1147 83.0125C63.2029 83.7634 63.2838 84.5168 63.3597 85.2727C63.3887 85.561 63.4081 85.845 63.4299 86.1623ZM33.9196 81.4588C33.7439 82.0876 33.5825 82.6686 33.4161 83.2672L33.2947 83.7043C33.4773 83.5875 33.6233 83.4217 33.7162 83.2257C34.0331 82.7407 34.4093 82.2971 34.8361 81.9054C35.0281 81.7324 35.2444 81.5885 35.4781 81.4784C35.8849 81.2993 36.2132 81.5668 36.1275 82.0085C36.095 82.2051 36.0304 82.3949 35.9363 82.5705C35.7452 82.9239 35.4144 82.9067 35.2012 82.5509C35.1778 82.5101 35.1531 82.4694 35.1294 82.4302L35.1292 82.43C35.1059 82.3914 35.0834 82.3543 35.064 82.3202C34.9493 82.3348 34.8395 82.3756 34.743 82.4394C34.6466 82.5032 34.5661 82.5884 34.5077 82.6883C33.669 83.6039 33.0519 84.7006 32.7041 85.8933C32.6681 86.0322 32.6242 86.1697 32.5791 86.3108C32.5628 86.3617 32.5464 86.4131 32.5302 86.4651C32.2654 86.5274 31.9888 86.5181 31.7288 86.4381C31.7379 86.3929 31.746 86.3486 31.754 86.3051C31.7719 86.2069 31.7891 86.1127 31.8146 86.0209C32.1185 84.946 32.4231 83.8712 32.7286 82.7963C32.8248 82.5634 32.8496 82.3071 32.7997 82.06C32.6917 81.9177 32.5507 81.919 32.4079 81.9203C32.3044 81.9213 32.1999 81.9222 32.1062 81.8686C32.115 81.8502 32.1225 81.8292 32.1297 81.809L32.1297 81.809C32.1446 81.7672 32.1583 81.7288 32.1797 81.7238C32.7482 81.5716 33.3317 81.4827 33.9196 81.4588ZM74.2961 81.7498L74.3551 81.5373L74.3292 81.5232C74.2798 81.496 74.2459 81.4774 74.2227 81.4858C73.691 81.5569 73.1617 81.6404 72.6348 81.7312C72.6157 81.7344 72.6027 81.772 72.5845 81.8249C72.5748 81.8532 72.5636 81.886 72.5491 81.9201C72.6763 81.9112 72.8041 81.9112 72.9313 81.9201C73.0373 81.9432 73.1414 81.9744 73.2426 82.0134C73.3486 82.3261 73.2634 82.5979 73.1806 82.8622L73.1805 82.8625C73.1619 82.9216 73.1435 82.9804 73.1274 83.0392C72.9489 83.6903 72.7611 84.3382 72.5734 84.9857L72.5733 84.9862L72.5732 84.9867L72.5731 84.9871L72.5729 84.9876L72.5728 84.9881C72.472 85.3356 72.3714 85.683 72.2722 86.0307C72.2488 86.115 72.2333 86.2013 72.2157 86.2997L72.2157 86.2999C72.2056 86.3561 72.1948 86.4163 72.1815 86.4823C72.4377 86.5216 72.6986 86.5175 72.9534 86.47C72.9821 86.433 73.0075 86.3936 73.0294 86.3522C73.0784 86.2001 73.1249 86.0479 73.1666 85.8933C73.5129 84.699 74.1292 83.6007 74.9677 82.6834C74.9845 82.6642 75.0011 82.6444 75.0179 82.6245L75.0179 82.6244C75.1409 82.4784 75.272 82.3226 75.5264 82.3226C75.5561 82.3717 75.5884 82.4282 75.6213 82.4861L75.6612 82.5558C75.8768 82.9116 76.2052 82.9239 76.3963 82.568C76.4901 82.3915 76.5546 82.2008 76.5875 82.0036C76.6683 81.5618 76.34 81.2993 75.9332 81.4784C75.699 81.5897 75.4826 81.7352 75.2912 81.9103C74.8497 82.315 74.4626 82.7753 74.1394 83.2797C74.0759 83.3728 74.0079 83.4615 73.94 83.5502L73.9399 83.5503L73.9399 83.5504L73.9398 83.5505L73.9396 83.5508C73.9055 83.5952 73.8715 83.6397 73.838 83.6846L73.767 83.6478C73.9412 83.0274 74.1135 82.4069 74.284 81.7931L74.2842 81.7924L74.2884 81.7773L74.2936 81.7586L74.2961 81.7498ZM125.237 81.9666L124.544 81.915C124.526 81.8948 124.515 81.8708 124.509 81.845C124.503 81.8192 124.503 81.7924 124.509 81.7668C124.516 81.7411 124.528 81.7174 124.546 81.6975C124.563 81.6776 124.585 81.6622 124.61 81.6524C124.682 81.6187 124.756 81.59 124.833 81.5665C125.321 81.3791 125.746 81.0566 126.058 80.6364C126.091 80.5913 126.123 80.546 126.155 80.5008C126.249 80.369 126.342 80.238 126.457 80.1137C126.485 80.0811 126.535 80.0669 126.598 80.0487C126.629 80.0396 126.665 80.0295 126.702 80.0156C126.712 80.2977 126.63 80.5472 126.55 80.7958C126.479 81.0142 126.408 81.2321 126.399 81.4708L126.996 81.5984C127.06 81.7751 127.023 81.8978 126.845 81.9224C126.723 81.9391 126.585 81.9444 126.44 81.95C126.373 81.9526 126.304 81.9553 126.234 81.9592C126.219 81.9964 126.204 82.0321 126.189 82.0671L126.188 82.0679L126.188 82.0684C126.155 82.146 126.123 82.2196 126.1 82.2954L126.1 82.2955C125.771 83.3605 125.443 84.4256 125.119 85.4857C125.075 85.6365 125.049 85.7924 125.043 85.9495C125.043 85.9839 125.183 86.0698 125.208 86.0526C125.34 85.9688 125.462 85.8691 125.57 85.7557C125.639 85.6839 125.701 85.6051 125.763 85.5264C125.811 85.4651 125.859 85.4038 125.911 85.3458C125.926 85.3262 125.992 85.3287 126.016 85.3458C126.03 85.3585 126.042 85.374 126.05 85.3913C126.058 85.4086 126.062 85.4274 126.063 85.4465C126.064 85.4854 126.054 85.5239 126.033 85.5569C125.832 85.8788 125.576 86.1628 125.276 86.3962C125.103 86.5322 124.891 86.611 124.671 86.622C124.607 86.627 124.542 86.6192 124.48 86.5991C124.419 86.5789 124.362 86.5469 124.313 86.5047C124.264 86.4625 124.224 86.411 124.195 86.3532C124.166 86.2954 124.149 86.2325 124.144 86.168C124.138 85.9104 124.169 85.6533 124.237 85.4047C124.415 84.7785 124.604 84.1566 124.793 83.5347L124.793 83.5336L124.793 83.5335L124.793 83.5334L124.793 83.5333L124.793 83.5332L124.793 83.5331L124.793 83.5331L124.793 83.533C124.888 83.2221 124.982 82.9112 125.075 82.5997C125.119 82.4058 125.168 82.212 125.237 81.9666ZM109.24 81.7911C109.214 81.8185 109.181 81.8537 109.135 81.898C109.211 81.902 109.266 81.9085 109.311 81.9138C109.374 81.9213 109.416 81.9263 109.468 81.9176C109.556 81.9029 109.635 81.9029 109.713 81.9029C109.758 81.901 109.803 81.9098 109.845 81.9285C109.886 81.9473 109.922 81.9754 109.951 82.0108C109.979 82.0461 109.999 82.0876 110.008 82.132C110.017 82.1763 110.016 82.2222 110.005 82.2661C109.958 82.5006 109.899 82.7324 109.828 82.9606C109.737 83.2662 109.643 83.5721 109.548 83.8781L109.548 83.8786L109.548 83.8793L109.548 83.8799L109.548 83.8804L109.548 83.8809L109.548 83.8814C109.378 84.4321 109.209 84.9835 109.052 85.5349C108.991 85.7245 108.953 85.9205 108.939 86.119C108.933 86.1891 108.943 86.2596 108.969 86.3251C108.994 86.3907 109.035 86.4494 109.086 86.4968C109.138 86.5443 109.2 86.5791 109.268 86.5987C109.335 86.6183 109.406 86.6221 109.475 86.6098C109.671 86.5805 109.858 86.5121 110.027 86.4086C110.386 86.184 110.69 85.8812 110.916 85.5227C110.963 85.4515 110.987 85.3582 110.894 85.3263C110.858 85.323 110.822 85.3277 110.788 85.34C110.754 85.3523 110.724 85.3719 110.698 85.3975C110.613 85.4805 110.535 85.5689 110.457 85.6567L110.457 85.6568C110.376 85.7481 110.296 85.8389 110.208 85.9227C110.171 85.9595 110.108 85.9689 110.046 85.9782C110.018 85.9825 109.989 85.9868 109.963 85.9939C109.927 85.9053 109.91 85.8099 109.914 85.7141C109.917 85.6184 109.942 85.5246 109.985 85.4392C110.333 84.2334 110.683 83.0285 111.034 81.8244C111.039 81.8015 111.046 81.7788 111.052 81.7562C111.078 81.6691 111.104 81.5826 111.034 81.4931C110.46 81.5082 109.89 81.5822 109.331 81.7139C109.304 81.723 109.281 81.747 109.24 81.791L109.24 81.7911ZM60.9481 82.6894L60.948 82.6899C60.8431 83.0535 60.741 83.4072 60.6372 83.761C60.5471 84.0748 60.4538 84.3878 60.3605 84.701C60.289 84.9412 60.2174 85.1816 60.1471 85.4224C60.0979 85.5156 60.0738 85.6202 60.0772 85.7256C60.0807 85.8311 60.1115 85.9338 60.1667 86.0236C60.2866 85.9654 60.3999 85.8947 60.5049 85.8126C60.5782 85.7404 60.6411 85.6604 60.7043 85.58L60.7044 85.58C60.7637 85.5045 60.8233 85.4287 60.8921 85.3586C60.9187 85.3319 60.9691 85.3256 61.0347 85.3174C61.0657 85.3135 61.1002 85.3092 61.1371 85.3021C61.1307 85.3736 61.1142 85.4439 61.0881 85.5107C60.8661 85.8663 60.5723 86.1714 60.2256 86.4065C60.0494 86.5393 59.8359 86.6132 59.6154 86.6175C59.5501 86.6211 59.4848 86.6108 59.4237 86.5874C59.3627 86.564 59.3072 86.5279 59.261 86.4816C59.2147 86.4353 59.1788 86.3798 59.1554 86.3186C59.132 86.2575 59.1217 86.1921 59.1253 86.1267C59.1425 85.9099 59.1844 85.6959 59.2503 85.4886C59.4014 84.9773 59.5559 84.4676 59.7104 83.9581L59.7105 83.9578L59.7106 83.9574C59.8214 83.5918 59.9322 83.2263 60.0418 82.8603C60.0981 82.6713 60.1496 82.4775 60.1888 82.2836C60.2329 82.0382 60.1128 81.913 59.8604 81.8959C59.8196 81.8959 59.7778 81.9015 59.7357 81.9072C59.6288 81.9218 59.5203 81.9365 59.4218 81.859C59.4297 81.8389 59.4353 81.8188 59.4404 81.801C59.4495 81.7686 59.4566 81.7435 59.4708 81.7388C60.0732 81.5799 60.6895 81.4796 61.3111 81.4394C61.1832 81.875 61.0646 82.2859 60.9494 82.6849L60.9493 82.6855L60.9481 82.6894ZM82.3853 86.4995C82.8439 86.2412 83.2176 85.855 83.4611 85.3878C83.4402 85.3781 83.4187 85.3664 83.3984 85.3553C83.3521 85.3301 83.3128 85.3087 83.3043 85.324C83.2184 85.4016 83.1366 85.4835 83.0592 85.5694L82.9995 85.6295C82.88 85.7497 82.7606 85.8699 82.6304 85.9793C82.6056 85.993 82.5778 86.0002 82.5495 86.0002C82.5212 86.0002 82.4934 85.993 82.4687 85.9793C82.4456 85.9619 82.4272 85.9392 82.4148 85.9132C82.4024 85.8871 82.3965 85.8584 82.3976 85.8296C82.4392 85.6136 82.4932 85.4026 82.5544 85.1915C82.7125 84.6455 82.8718 84.0994 83.031 83.5534C83.1903 83.0074 83.3496 82.4613 83.5077 81.9153C83.5304 81.8318 83.5428 81.7483 83.5583 81.6445C83.5678 81.5805 83.5785 81.5087 83.5934 81.4245C83.3721 81.4667 83.1557 81.493 82.9441 81.5187C82.5279 81.5693 82.13 81.6176 81.7482 81.7803C81.7358 81.7819 81.7391 81.8091 81.7432 81.8426L81.7432 81.8427C81.7456 81.862 81.7482 81.8833 81.7482 81.903H82.2162C82.2563 81.9003 82.2965 81.9067 82.3338 81.9217C82.3711 81.9366 82.4045 81.9599 82.4316 81.9896C82.4587 82.0193 82.4787 82.0548 82.4902 82.0933C82.5017 82.1319 82.5044 82.1725 82.4981 82.2122C82.4829 82.3712 82.4517 82.5283 82.4049 82.681L82.404 82.684L82.404 82.6841L82.404 82.6842L82.404 82.6843L82.404 82.6844C82.1715 83.4661 81.939 84.2478 81.6943 85.0295L81.6469 85.1923L81.6468 85.1925C81.5789 85.4254 81.5108 85.6586 81.4492 85.8934C81.3145 86.4136 81.7066 86.7474 82.2236 86.5707C82.2802 86.5536 82.3345 86.5297 82.3853 86.4995ZM115.467 81.8243C115.604 81.7604 115.747 81.7087 115.893 81.6697C116.047 81.6488 116.2 81.6196 116.354 81.5901C116.707 81.5227 117.065 81.4542 117.454 81.4832C117.443 81.5433 117.434 81.5995 117.425 81.6528L117.425 81.6529L117.425 81.653L117.425 81.6533L117.425 81.6534C117.41 81.7457 117.397 81.8294 117.373 81.9102C117.215 82.4563 117.056 83.0023 116.897 83.5483C116.737 84.0944 116.578 84.6404 116.42 85.1864C116.359 85.395 116.307 85.6085 116.266 85.822C116.266 85.8508 116.273 85.879 116.287 85.9046C116.3 85.9301 116.319 85.9523 116.342 85.9693C116.367 85.982 116.395 85.9887 116.424 85.9887C116.452 85.9887 116.48 85.982 116.506 85.9693C116.567 85.9226 116.623 85.8688 116.678 85.8152C116.737 85.759 116.795 85.7029 116.859 85.6552C116.898 85.6257 116.926 85.5728 116.955 85.518C117.017 85.3996 117.084 85.272 117.285 85.3509C117.332 85.5472 117.215 85.6588 117.104 85.7634L117.104 85.7635C117.076 85.7896 117.049 85.8152 117.025 85.8417C116.851 86.0324 116.661 86.2081 116.457 86.3669C116.346 86.4534 116.222 86.5206 116.089 86.5656C115.599 86.7399 115.188 86.4159 115.325 85.8809C115.369 85.7067 115.42 85.5349 115.472 85.3631C115.709 84.5811 115.947 83.7982 116.187 83.0146C116.206 82.9569 116.222 82.8992 116.238 82.8415C116.254 82.7838 116.269 82.7262 116.288 82.6685C116.533 81.8955 116.3 81.8415 115.729 81.9102C115.706 81.9163 115.687 81.9084 115.629 81.8853C115.593 81.871 115.542 81.8507 115.467 81.8243ZM61.4863 80.1844C61.5916 80.0771 61.6518 79.9333 61.6542 79.7827C61.6479 79.6323 61.5841 79.4901 61.476 79.3855C61.3679 79.2809 61.2238 79.2219 61.0734 79.2208C60.9235 79.2321 60.7839 79.3015 60.6841 79.4142C60.5844 79.5269 60.5324 79.674 60.5392 79.8245C60.5528 79.9642 60.6154 80.0947 60.7159 80.1926C60.8164 80.2905 60.9482 80.3497 61.0881 80.3595C61.2384 80.3544 61.3809 80.2918 61.4863 80.1844ZM117.317 79.2208C117.468 79.2234 117.611 79.2859 117.716 79.3945C117.821 79.5031 117.878 79.6489 117.876 79.7999C117.873 79.9509 117.811 80.0947 117.702 80.1997C117.594 80.3046 117.448 80.3621 117.297 80.3595C117.148 80.351 117.006 80.2865 116.902 80.1789C116.797 80.0712 116.736 79.9281 116.731 79.7779C116.738 79.627 116.802 79.4846 116.912 79.3807C117.021 79.2767 117.166 79.2194 117.317 79.2208ZM83.8089 80.1853C83.9139 80.0769 83.9721 79.9314 83.9708 79.7804C83.9669 79.63 83.9046 79.487 83.797 79.382C83.6894 79.2771 83.5451 79.2183 83.3949 79.2184C83.2444 79.2315 83.1045 79.3019 83.0043 79.4151C82.904 79.5283 82.8508 79.6757 82.8558 79.827C82.8733 79.9658 82.9378 80.0945 83.0386 80.1914C83.1394 80.2884 83.2704 80.3477 83.4096 80.3595C83.5604 80.3563 83.7039 80.2937 83.8089 80.1853Z" fill="white"/>
</g>
<defs>
<clipPath id="clip0_73_447">
<rect width="195" height="89" fill="white"/>
</clipPath>
</defs>
</svg>
