<svg width="38" height="35" viewBox="0 0 38 35" fill="none" xmlns="http://www.w3.org/2000/svg">
<path fill-rule="evenodd" clip-rule="evenodd" d="M5.74286 2.20189V16.8173H5.96244H20.5832C20.6506 16.8094 20.7188 16.8227 20.7783 16.8554C20.8378 16.888 20.8857 16.9383 20.9153 16.9994C21.0929 17.311 21.2741 17.6099 21.4611 17.9183C21.5955 18.1399 21.7328 18.3665 21.8739 18.6061H5.80713C5.56124 18.6184 5.31551 18.579 5.08578 18.4905C4.85605 18.402 4.64741 18.2663 4.47333 18.0922C4.29924 17.9181 4.16357 17.7095 4.07506 17.4798C3.98655 17.25 3.94717 17.0043 3.95945 16.7584V2.25545C3.95148 2.1324 3.95148 2.00896 3.95945 1.88591C4.02763 1.47033 4.24328 1.09324 4.56689 0.823727C4.89049 0.554218 5.30038 0.410347 5.72144 0.418479H27.3688C27.8301 0.416995 28.2735 0.597028 28.6031 0.919693C28.9328 1.24236 29.1224 1.68176 29.1308 2.14298V3.66933C29.127 3.69716 29.1168 3.72372 29.101 3.74695C29.0852 3.77018 29.0642 3.78944 29.0397 3.80322C28.4337 3.99442 27.8826 4.32875 27.4331 4.77794H27.3742V2.20189H5.74286ZM29.5753 34.5605H26.9832V16.2229H26.9511C26.9381 16.2487 26.9273 16.2755 26.9189 16.3032C26.7797 16.8923 26.6404 17.4814 26.5065 18.0705C26.4683 18.2493 26.3629 18.4065 26.212 18.5097C25.6723 18.9052 25.0226 19.1224 24.3536 19.131C24.1594 19.1375 23.9672 19.0911 23.7974 18.9968C23.6276 18.9024 23.4866 18.7637 23.3896 18.5954C22.4845 17.1173 21.5901 15.6337 20.7118 14.1502C20.5739 13.9239 20.5137 13.6588 20.5404 13.3951C20.5461 13.3501 20.5402 13.3043 20.5234 13.2621C20.5065 13.22 20.4792 13.1828 20.444 13.1541L16.3095 9.041L14.826 7.54679C14.7578 7.48585 14.7026 7.4119 14.6635 7.3293C14.6243 7.24669 14.6021 7.15709 14.5981 7.06577C14.5941 6.97446 14.6084 6.88326 14.6402 6.79756C14.672 6.71185 14.7206 6.63336 14.7831 6.56671C14.8486 6.50291 14.9264 6.4532 15.0118 6.42063C15.0973 6.38806 15.1884 6.37333 15.2797 6.37735C15.3711 6.38136 15.4606 6.40404 15.5428 6.44397C15.6251 6.48391 15.6982 6.54026 15.7578 6.60956L21.2902 12.1687C21.3251 12.2096 21.3703 12.2406 21.4211 12.2585C21.4719 12.2764 21.5265 12.2805 21.5794 12.2704C21.8262 12.2218 22.0821 12.252 22.3109 12.3567C22.5396 12.4615 22.7296 12.6355 22.854 12.8542C23.3467 13.6575 23.8448 14.4609 24.3429 15.2589L24.4446 15.4142C24.4446 15.3632 24.4597 15.3251 24.4735 15.2904L24.4735 15.2904C24.4814 15.2705 24.4889 15.2516 24.4928 15.2321C24.5441 15.0117 24.5961 14.7919 24.648 14.5724L24.6482 14.5718L24.6484 14.571L24.6486 14.5701C24.7429 14.1716 24.837 13.7737 24.9266 13.3737C25.0096 12.9833 25.2349 12.6377 25.5586 12.4043C26.3353 11.8082 27.2242 11.3747 28.1721 11.1297C29.9327 10.6847 31.7914 10.8412 33.4528 11.5742C34.0483 11.8345 34.6023 12.1809 35.0969 12.6025C35.336 12.8134 35.4981 13.0979 35.5575 13.4112C35.9645 15.1464 36.3734 16.8816 36.7839 18.6168C36.991 19.5166 37.1981 20.4199 37.4052 21.3268C37.4626 21.5949 37.4309 21.8744 37.3149 22.1228C37.1989 22.3713 37.005 22.575 36.7625 22.7031C36.5194 22.8381 36.2389 22.8902 35.9635 22.8515C35.6881 22.8129 35.4328 22.6856 35.2362 22.4889C35.0565 22.3113 34.9303 22.0867 34.872 21.8409C34.4435 20.0557 34.0133 18.2705 33.5813 16.4853C33.5726 16.424 33.5465 16.3664 33.5063 16.3193V34.5819H30.9088V22.7353H29.5753V34.5605ZM0.00165486 32.7877H7.92795C7.92746 32.7662 7.92567 32.7448 7.92259 32.7235V30.7794C7.92338 30.6196 7.88527 30.462 7.81156 30.3201C7.73785 30.1783 7.63075 30.0565 7.4995 29.9653C6.48791 29.213 5.26282 28.8027 4.00215 28.794C2.74147 28.7853 1.51086 29.1788 0.489015 29.9171C0.330475 30.0198 0.201893 30.1625 0.116303 30.3309C0.0307141 30.4992 -0.00883877 30.6872 0.00165486 30.8758V32.611V32.7877ZM16.7593 32.7877H8.8384V32.6164V30.8169C8.83218 30.6522 8.86712 30.4886 8.94006 30.3409C9.013 30.1931 9.12164 30.0659 9.25614 29.9707C10.4522 29.0632 11.9532 28.6544 13.4442 28.83C14.4803 28.9474 15.4688 29.3291 16.3148 29.9386C16.4536 30.0283 16.5679 30.1512 16.6474 30.2961C16.7268 30.441 16.769 30.6034 16.7701 30.7687V32.7128C16.7701 32.7227 16.768 32.7347 16.7652 32.7512C16.7634 32.7614 16.7614 32.7734 16.7593 32.7877ZM17.6751 32.7878H25.5961L25.6229 32.6003C25.6229 32.4432 25.6181 32.2855 25.6133 32.1278C25.6038 31.8124 25.5943 31.497 25.6229 31.1864C25.6595 30.8803 25.5984 30.5704 25.4484 30.3011C25.2983 30.0318 25.067 29.8168 24.7874 29.6869C23.7857 29.0648 22.6219 28.7542 21.4435 28.7942C20.265 28.8343 19.125 29.2232 18.1679 29.9118C18.0067 30.0147 17.876 30.1588 17.7893 30.3293C17.7027 30.4998 17.6633 30.6903 17.6751 30.8812V32.6164V32.7878ZM30.2394 10.2139C29.7169 10.216 29.2056 10.0627 28.7704 9.7735C28.3352 9.4843 27.9958 9.07225 27.7954 8.58972C27.595 8.10718 27.5425 7.57595 27.6447 7.06353C27.7469 6.55111 27.9992 6.08065 28.3694 5.71194C28.7396 5.34323 29.2111 5.09291 29.7239 4.9928C30.2368 4.89269 30.7678 4.94731 31.2495 5.14972C31.7312 5.35212 32.1419 5.69318 32.4293 6.12954C32.7167 6.56589 32.8679 7.07785 32.8636 7.60034C32.8636 7.94446 32.7957 8.28519 32.6637 8.60298C32.5317 8.92077 32.3382 9.20936 32.0944 9.45219C31.8506 9.69502 31.5612 9.88731 31.2428 10.018C30.9245 10.1487 30.5835 10.2153 30.2394 10.2139ZM2.34354 25.1086C2.12364 25.4363 2.00571 25.8218 2.00465 26.2164C2.00394 26.4797 2.05527 26.7404 2.15568 26.9838C2.25609 27.2271 2.4036 27.4482 2.58974 27.6343C2.77588 27.8205 2.99696 27.968 3.2403 28.0684C3.48363 28.1688 3.74441 28.2201 4.00765 28.2194C4.40229 28.2184 4.78777 28.1004 5.11546 27.8805C5.44314 27.6606 5.69836 27.3486 5.84889 26.9838C5.99942 26.619 6.03853 26.2178 5.96128 25.8307C5.88403 25.4437 5.69388 25.0883 5.41483 24.8092C5.13578 24.5302 4.78032 24.34 4.39332 24.2628C4.00631 24.1855 3.6051 24.2246 3.2403 24.3752C2.8755 24.5257 2.56346 24.7809 2.34354 25.1086ZM12.8551 24.1974C13.2541 24.1952 13.6446 24.3117 13.9773 24.5319C14.31 24.7521 14.5698 25.0662 14.7237 25.4342C14.8776 25.8023 14.9187 26.2078 14.8417 26.5993C14.7648 26.9908 14.5733 27.3506 14.2916 27.633C14.0099 27.9155 13.6506 28.108 13.2593 28.1859C12.8681 28.2639 12.4625 28.2239 12.094 28.071C11.7255 27.918 11.4107 27.6591 11.1896 27.327C10.9685 26.9949 10.8511 26.6047 10.8521 26.2057C10.8535 25.6744 11.0648 25.1652 11.44 24.789C11.8152 24.4129 12.3238 24.2002 12.8551 24.1974ZM22.7429 24.5456C22.4122 24.3208 22.0221 24.1996 21.6222 24.1974C21.0941 24.193 20.5856 24.3968 20.2067 24.7647C19.8278 25.1326 19.6091 25.6349 19.5978 26.1629C19.5882 26.5626 19.6979 26.9561 19.9128 27.2933C20.1277 27.6305 20.4381 27.8961 20.8045 28.0562C21.1709 28.2163 21.5766 28.2638 21.9701 28.1925C22.3635 28.1212 22.7268 27.9343 23.0137 27.6558C23.3005 27.3773 23.498 27.0197 23.5809 26.6285C23.6638 26.2373 23.6284 25.8304 23.4791 25.4594C23.3299 25.0885 23.0736 24.7703 22.7429 24.5456Z" fill="white"/>
</svg>
